<svg width="23" height="22" viewBox="0 0 23 22" fill="none" xmlns="http://www.w3.org/2000/svg">
<path d="M19.1356 1.70733C17.269 0.60631 14.8047 0 12.1971 0H10.049C7.44136 0 4.97708 0.60631 3.11041 1.70733C1.10464 2.89036 0 4.51123 0 6.27134V7.11081H22.2461V6.27134C22.2461 4.51123 21.1414 2.89036 19.1356 1.70733ZM1.82586 5.43187C2.56842 3.32683 6.03293 1.67895 10.0491 1.67895H12.1972C16.2133 1.67895 19.6778 3.32683 20.4204 5.43187H1.82586Z" fill="#808080"/>
<path d="M22.246 12.9871H0V14.6661H22.246V12.9871Z" fill="#808080"/>
<path d="M17.7969 8.79181C16.4965 8.79181 15.8152 9.11317 15.2141 9.3967C14.6877 9.64503 14.2718 9.84115 13.3476 9.84115C12.4233 9.84115 12.0076 9.64503 11.4811 9.3967C10.88 9.11338 10.1987 8.79181 8.8984 8.79181C7.59806 8.79181 6.91677 9.11317 6.31571 9.3967C5.78931 9.64503 5.37356 9.84115 4.44935 9.84115C3.52514 9.84115 3.10934 9.64503 2.58294 9.3967C1.98187 9.11338 1.30059 8.79181 0.000244141 8.79181V10.4708C0.924452 10.4708 1.34025 10.6669 1.86666 10.9152C2.46772 11.1985 3.149 11.5201 4.44935 11.5201C5.74969 11.5201 6.43093 11.1987 7.03199 10.9152C7.55839 10.6669 7.97419 10.4708 8.8984 10.4708C9.82261 10.4708 10.2384 10.6669 10.7648 10.9152C11.3659 11.1985 12.0472 11.5201 13.3476 11.5201C14.648 11.5201 15.3292 11.1987 15.9304 10.9152C16.4568 10.6669 16.8726 10.4708 17.7969 10.4708C18.7212 10.4708 19.137 10.6669 19.6635 10.9152C20.2646 11.1985 20.9459 11.5201 22.2463 11.5201V9.84115C21.322 9.84115 20.9062 9.64503 20.3797 9.3967C19.7785 9.11317 19.0972 8.79181 17.7969 8.79181Z" fill="#808080"/>
<path d="M0 20.5424C0.000388805 20.8762 0.13318 21.1963 0.369244 21.4324C0.605307 21.6684 0.925366 21.8012 1.25921 21.8016H20.9868C21.3207 21.8012 21.6407 21.6684 21.8768 21.4324C22.1129 21.1963 22.2457 20.8762 22.2461 20.5424V16.345H0V20.5424ZM1.67895 18.024H20.5671V20.1227H1.67895V18.024Z" fill="#808080"/>
</svg>
