<svg width="23" height="22" viewBox="0 0 23 22" fill="none" xmlns="http://www.w3.org/2000/svg">
<path d="M19.1356 1.70733C17.269 0.60631 14.8047 0 12.1971 0H10.049C7.44136 0 4.97708 0.60631 3.11041 1.70733C1.10464 2.89036 0 4.51123 0 6.27134V7.11081H22.2461V6.27134C22.2461 4.51123 21.1414 2.89036 19.1356 1.70733ZM1.82586 5.43187C2.56842 3.32683 6.03293 1.67895 10.0491 1.67895H12.1972C16.2133 1.67895 19.6778 3.32683 20.4204 5.43187H1.82586Z" fill="#808080"/>
<path d="M22.246 12.9873H0V14.6663H22.246V12.9873Z" fill="#808080"/>
<path d="M17.7967 8.79199C16.4963 8.79199 15.815 9.11335 15.2139 9.39688C14.6874 9.64521 14.2716 9.84133 13.3473 9.84133C12.4231 9.84133 12.0073 9.64521 11.4809 9.39688C10.8798 9.11356 10.1985 8.79199 8.89816 8.79199C7.59781 8.79199 6.91653 9.11335 6.31547 9.39688C5.78906 9.64521 5.37331 9.84133 4.4491 9.84133C3.5249 9.84133 3.1091 9.64521 2.58269 9.39688C1.98163 9.11356 1.30034 8.79199 0 8.79199V10.4709C0.924208 10.4709 1.34001 10.6671 1.86641 10.9154C2.46748 11.1987 3.14876 11.5203 4.4491 11.5203C5.74945 11.5203 6.43068 11.1989 7.03175 10.9154C7.55815 10.6671 7.97395 10.4709 8.89816 10.4709C9.82237 10.4709 10.2382 10.6671 10.7646 10.9154C11.3657 11.1987 12.0469 11.5203 13.3473 11.5203C14.6477 11.5203 15.329 11.1989 15.9301 10.9154C16.4566 10.6671 16.8724 10.4709 17.7967 10.4709C18.721 10.4709 19.1368 10.6671 19.6633 10.9154C20.2644 11.1987 20.9457 11.5203 22.2461 11.5203V9.84133C21.3217 9.84133 20.9059 9.64521 20.3795 9.39688C19.7782 9.11335 19.0969 8.79199 17.7967 8.79199Z" fill="#808080"/>
<path d="M0 20.5426C0.000388805 20.8764 0.13318 21.1965 0.369244 21.4325C0.605307 21.6686 0.925366 21.8014 1.25921 21.8018H20.9868C21.3207 21.8014 21.6407 21.6686 21.8768 21.4325C22.1129 21.1965 22.2457 20.8764 22.2461 20.5426V16.3452H0V20.5426ZM1.67895 18.0242H20.5671V20.1228H1.67895V18.0242Z" fill="#808080"/>
</svg>
