<svg width="29" height="21" viewBox="0 0 29 21" fill="none" xmlns="http://www.w3.org/2000/svg">
<path d="M24.7793 16.8313C25.1512 16.8308 25.5077 16.6829 25.7707 16.42C26.0336 16.157 26.1815 15.8005 26.1819 15.4287V1.40261C26.1815 1.03074 26.0336 0.674238 25.7707 0.411292C25.5077 0.148346 25.1512 0.000433081 24.7793 0H3.27272C2.90086 0.000433081 2.54435 0.148346 2.28141 0.411292C2.01846 0.674238 1.87055 1.03074 1.87012 1.40261V15.4287C1.87055 15.8005 2.01846 16.157 2.28141 16.42C2.54435 16.6829 2.90086 16.8308 3.27272 16.8313H24.7793ZM3.74026 1.87014H24.3118V14.9611H3.74026V1.87014Z" fill="#808080"/>
<path d="M28.0521 18.7012H0V20.5713H28.0521V18.7012Z" fill="#808080"/>
</svg>
