<svg width="110" height="81" viewBox="0 0 110 81" fill="none" xmlns="http://www.w3.org/2000/svg">
<path d="M6.27016 79.2348C6.42946 79.5448 6.18863 79.4443 6.08453 79.4457C5.02591 79.4666 4.09773 79.0672 3.2699 78.3493C3.04664 78.1818 2.87229 77.9471 2.64526 77.7823C2.56373 77.693 2.48221 77.6022 2.39942 77.5128C0.274654 74.7755 -0.318625 71.6444 0.454018 68.1599C0.667247 67.1991 1.08743 66.3486 1.53772 65.5092L1.5302 65.519C1.90649 64.7928 2.44332 64.2286 3.00399 63.6853C3.85816 62.9297 4.82146 62.4856 5.91394 62.4032C6.0331 62.3585 6.17609 62.3055 6.25762 62.4284C6.36674 62.5932 6.22752 62.7175 6.13595 62.8362L6.14348 62.8264C5.13001 64.7299 4.81142 66.8457 4.66718 69.0021C4.47026 71.96 4.65338 74.8733 5.56274 77.6957C5.74085 78.2488 6.01052 78.7348 6.27016 79.2348Z" fill="#7B61FE"/>
<path d="M40.7438 67.8651C38.1537 71.3998 39.8181 76.9861 43.7679 78.0015C44.0075 78.0629 44.2621 78.0559 44.5092 78.0811C44.8014 78.2068 45.1062 78.1132 45.4048 78.1425C45.5929 78.1816 45.8187 78.0392 45.9654 78.2864C45.9943 78.4777 45.8977 78.5657 45.7497 78.6118C44.7074 79.4274 43.5434 79.838 42.2778 79.9106C42.0721 79.9776 41.8677 79.9776 41.662 79.9106C39.7843 79.9092 38.2453 79.0922 37.0248 77.5141C35.3905 75.1008 35.2613 72.5087 36.6586 70.1178L36.6523 70.1276C36.7326 69.9055 36.9132 69.7603 37.0098 69.5522C37.0537 69.5005 37.0976 69.4488 37.1415 69.3986C37.2744 69.1877 37.4375 69.0075 37.6231 68.8525C38.594 67.9182 39.7266 67.4308 40.9997 67.3232C41.1025 67.6137 40.8404 67.6919 40.7438 67.8651Z" fill="#7B61FE"/>
<path d="M103.624 79.9092C101.731 79.9344 100.202 79.0839 98.9752 77.5099C98.8698 77.3046 98.698 77.1538 98.6102 76.9345L98.6165 76.9443C97.3973 74.862 97.3195 72.7266 98.3694 70.5354L98.3619 70.5452C98.5011 70.2407 98.6503 69.9433 98.8673 69.6947L98.8611 69.7044C99.0705 69.2966 99.3992 69.0131 99.709 68.7101C100.458 68.0607 101.272 67.5733 102.233 67.449C102.432 67.3666 102.63 67.2981 102.788 67.5384C102.782 67.9657 102.457 68.2143 102.322 68.5718C101.4 71.0019 101.268 73.39 102.604 75.7083L102.598 75.6985C102.792 75.9946 103.067 76.2167 103.239 76.5351L103.236 76.5323C103.413 76.6706 103.595 76.8032 103.731 76.9946C104.538 77.6873 105.436 78.0923 106.47 78.0769C106.827 78.1761 107.185 78.1719 107.542 78.0783C107.699 78.0671 107.856 78.0574 108.012 78.0462C108.282 78.1691 108.099 78.2501 107.991 78.3381C106.892 79.3101 105.658 79.8827 104.239 79.905C104.034 79.9763 103.828 79.9749 103.624 79.9092Z" fill="#7B61FE"/>
<path d="M64.1294 68.4418C64.9786 67.7533 65.9293 67.386 66.9767 67.3218C67.0519 67.5145 66.9441 67.6206 66.8249 67.7226C66.7497 67.8497 66.6757 67.9768 66.6004 68.1039C65.8064 69.742 65.5192 71.4752 65.7926 73.3215C65.9406 74.3242 66.3357 75.1999 66.8525 76.0196C67.7907 77.2919 68.9698 78.0433 70.4749 78.0796C70.8713 78.1774 71.2689 78.176 71.6652 78.081C71.7819 78.0726 71.8973 78.0628 72.0139 78.0545C72.0816 78.014 72.1494 77.9902 72.2196 78.0475C72.2874 78.1019 72.2384 78.1494 72.2133 78.1983C71.0719 79.2946 69.7424 79.8519 68.241 79.9119C68.0353 79.9762 67.8309 79.9789 67.6252 79.9105C66.2705 79.863 65.015 79.4971 63.9589 78.4902C63.8096 78.3324 63.6327 78.2123 63.4923 78.0433L63.5048 78.0573C63.2978 77.771 63.0244 77.5475 62.8601 77.2193L62.8651 77.2277C62.5804 76.9023 62.4362 76.4805 62.2367 76.0979L62.2442 76.1104C61.3838 73.9625 61.5644 71.9207 62.746 69.9795L62.7397 69.9892C62.8262 69.7672 62.9968 69.6136 63.1072 69.4111C63.2728 69.2267 63.4383 69.0424 63.6039 68.8594C63.787 68.7295 63.93 68.5424 64.1294 68.4418Z" fill="#7B61FE"/>
<path d="M89.8234 75.2924C88.8714 74.9879 88.2054 74.245 87.5657 73.4615C86.635 72.2744 86.1847 70.8862 86.1885 69.3164C86.1898 68.903 86.2098 68.903 86.5497 68.8975C88.4111 69.7578 90.2649 70.6446 92.1389 71.4686C93.1937 71.9322 94.1194 72.5816 94.9146 73.474C95.0902 73.6277 95.2194 73.8218 95.3273 74.0355L95.321 74.0257C96.0397 75.0661 96.3232 76.2742 96.3972 77.5576C96.4147 77.8705 96.4799 78.2797 95.9707 78.0827C94.734 77.5534 93.4885 77.0451 92.263 76.4837C91.6008 76.1806 90.8996 75.9725 90.28 75.5549C90.1383 75.4488 89.9652 75.4041 89.8234 75.2924Z" fill="#7B61FE"/>
<path d="M19.7698 79.5967C18.592 79.5967 17.4142 79.5981 16.2377 79.5981C16.0383 79.4165 16.1386 79.1679 16.1386 78.9543C16.1298 76.8734 16.1524 74.7911 16.1248 72.7102C16.1123 71.7437 16.0621 70.7606 15.4412 69.9687C15.1189 69.5134 15.6005 69.5427 15.7272 69.4827C17.0969 68.8319 18.3575 67.973 19.5804 67.0387C19.7159 66.9437 19.8312 66.9814 19.8751 67.1434C19.9165 67.297 19.8927 67.466 19.8927 67.628C19.8927 71.4309 19.8952 75.2338 19.8877 79.0381C19.8852 79.2224 19.9943 79.4598 19.7698 79.5967Z" fill="#7B61FE"/>
<path d="M23.2615 68.8666C24.4807 68.773 25.5543 68.2088 26.6079 67.5818C26.8287 67.4798 26.9203 67.6251 26.9591 67.829C26.9943 68.0105 26.9805 68.199 26.9805 68.3848C26.9805 71.8232 26.9817 75.2615 26.9805 78.7013C26.9805 79.5337 26.9754 79.5337 26.2103 79.5351C25.3135 79.5351 24.4154 79.5155 23.5186 79.5448C23.1273 79.5574 23.0232 79.4149 23.0244 78.989C23.0382 75.8062 23.0307 72.6234 23.0332 69.4392C23.0332 69.2172 22.9755 68.9546 23.2615 68.8666Z" fill="#7B61FE"/>
<path d="M75.8043 69.0033C76.9671 68.6625 77.9768 67.9991 78.9087 67.1751C79.1784 66.981 79.3515 66.9349 79.3502 67.4181C79.3427 71.302 79.3427 75.1873 79.3515 79.0712C79.3527 79.4454 79.2285 79.546 78.9112 79.5404C77.9504 79.5237 76.9896 79.5167 76.0289 79.5432C75.6551 79.553 75.5798 79.3854 75.5811 79.0111C75.5911 75.8716 75.5861 72.7307 75.5886 69.5912C75.5886 69.3664 75.5321 69.108 75.8043 69.0033Z" fill="#7B61FE"/>
<path d="M30.2585 67.4614C31.2331 67.7338 32.0158 68.3496 32.6981 69.1457C32.8787 69.2951 33.0104 69.4893 33.112 69.7113L33.1045 69.7001C33.7367 70.7001 34.0427 71.8257 34.0578 73.0324C34.0828 75.0085 34.0515 76.9861 34.0741 78.9636C34.0791 79.4329 33.9436 79.5572 33.5385 79.5446C32.579 79.5139 31.6169 79.5125 30.6561 79.5446C30.2259 79.56 30.113 79.3658 30.1143 78.9343C30.118 75.306 30.1155 71.6777 30.118 68.0494C30.118 67.8413 30.1055 67.6262 30.2585 67.4614Z" fill="#7B61FE"/>
<path d="M109.847 73.8717C108.574 73.8703 107.301 73.8703 106.028 73.8689C105.819 73.598 105.957 73.2977 105.975 73.0114C106.086 71.2377 105.868 69.5451 104.997 68.0103C104.868 67.8078 104.74 67.6053 104.578 67.3511C106.263 67.4195 107.504 68.3147 108.587 69.5632C109.494 70.7112 109.964 72.0422 109.949 73.577C109.948 73.6887 109.967 73.8102 109.847 73.8717Z" fill="#7B61FE"/>
<path d="M73.9552 73.8705C72.6557 73.8705 71.3575 73.8705 70.0581 73.8705C69.8198 73.594 70.0593 73.3203 70.0681 73.0451C70.1308 71.1416 69.9126 69.3177 68.8903 67.713L68.8979 67.7228C68.8051 67.6111 68.6734 67.5133 68.7775 67.3262C69.8135 67.4016 70.7116 67.9044 71.5984 68.4462C72.1101 68.8233 72.5366 69.2981 72.8752 69.8679C72.9492 69.9978 73.0232 70.1291 73.0972 70.259C73.7771 71.3469 74.1383 72.5284 73.9552 73.8705Z" fill="#7B61FE"/>
<path d="M42.7994 67.3218C44.0047 67.5005 45.0972 67.9726 46.0317 68.858C46.2963 69.0396 46.5246 69.2616 46.6626 69.5814C46.778 69.7616 46.8921 69.9418 47.0075 70.1219C47.6409 71.066 47.9507 72.1428 48.0448 73.3033C48.0611 73.5044 48.0812 73.7237 47.9006 73.8703C46.6237 73.8703 45.3468 73.8689 44.07 73.8689C43.9169 73.7488 43.9734 73.5729 43.9897 73.4234C44.1716 71.7559 44.0248 70.1457 43.3663 68.6108C43.2396 68.3133 43.0766 68.055 42.9047 67.7952C42.8107 67.6528 42.6363 67.5327 42.7994 67.3218Z" fill="#7B61FE"/>
<path d="M13.2614 67.0229C12.4448 67.8706 11.5781 67.9684 10.6575 67.3148C9.92622 66.6011 9.65655 65.7199 10.0203 64.7018C10.3013 63.9155 10.2385 63.2214 9.80957 62.5455L9.82588 62.5566C9.94754 62.1488 10.216 62.4351 10.4179 62.4016C11.4326 62.6237 12.3683 63.0315 13.1359 63.8359C13.3103 63.9909 13.4458 64.1808 13.5461 64.4015L13.5386 64.3903C14.0039 65.4112 13.9186 66.2198 13.2614 67.0229Z" fill="#7B61FE"/>
<path d="M19.0812 65.223C18.4101 65.5861 17.7391 65.6336 17.068 65.2216C15.8112 64.082 15.7736 62.3726 16.9865 61.4662C17.1822 61.3657 17.3791 61.2665 17.5748 61.1659C17.951 61.0891 18.3273 61.0193 18.6961 61.2064C19.046 61.3782 19.3935 61.5528 19.6531 61.8838C20.5562 62.8558 20.1862 64.7859 19.0812 65.223Z" fill="#7B61FE"/>
<path d="M81.8984 67.8749C82.7137 67.245 83.5666 66.9224 84.5286 67.4657C85.448 67.9978 85.7165 69.277 85.1608 70.2407L85.1671 70.2295C85.0605 70.4879 84.8823 70.668 84.6616 70.8007C84.4546 70.8984 84.3154 71.168 84.0445 71.1079C83.7547 71.1778 83.4663 71.1861 83.1765 71.1037C82.5669 71.0577 82.2157 70.4557 81.6827 70.2421C81.4167 70.1317 81.1496 70.1485 80.8824 70.2365L80.8323 70.2281L80.7871 70.2532C80.2904 70.3691 80.4635 69.999 80.5438 69.7854C80.693 69.3901 80.9351 69.0494 81.1797 68.7184L81.1734 68.7268C81.3503 68.3734 81.63 68.1304 81.8984 67.8749Z" fill="#7B61FE"/>
<path d="M58.0032 62.3042C60.1317 62.3224 62.2615 62.3391 64.3901 62.3601C64.4264 62.3601 64.4616 62.4048 64.5381 62.4564C63.9473 63.0262 63.2838 63.4927 62.8435 64.2147C62.7294 64.5038 62.4961 64.6882 62.3318 64.9339L62.3393 64.9242C61.9994 65.5275 61.5917 66.0819 61.3183 66.7327C61.2656 66.8584 61.2079 66.9911 61.0474 66.9492C60.9207 66.9157 60.922 66.7858 60.9006 66.6755C60.7451 65.8724 60.3776 65.1811 59.9862 64.501L59.9938 64.5108C59.8408 64.3502 59.7254 64.1533 59.5924 63.9731C59.112 63.4047 58.5526 62.9522 57.9443 62.5681C57.8916 62.4606 57.879 62.3643 58.0032 62.3042Z" fill="#7C62FE"/>
<path d="M88.4275 77.4304C89.2378 78.1846 90.0531 78.9276 91.0678 79.3298C91.1443 79.4289 91.1556 79.5197 91.0377 79.5923C89.515 79.5923 87.9923 79.5937 86.4696 79.5937C86.1372 79.5504 86.1159 79.3005 86.1184 78.996C86.1284 77.8159 86.1197 76.6372 86.1247 75.4571C86.1259 75.2392 86.0507 74.9334 86.3266 74.8789C86.5499 74.8342 86.5662 75.1428 86.6728 75.2951L86.6653 75.2853C86.8007 75.4682 86.9588 75.633 87.0453 75.8565L87.039 75.8467C87.2786 76.1875 87.5997 76.4486 87.8117 76.8187L87.8092 76.8173C88.0375 76.9919 88.2494 77.1902 88.4275 77.4304Z" fill="#7C63FE"/>
<path d="M9.77657 78.9078C9.94966 78.7235 10.124 78.5377 10.2971 78.3534C10.5041 78.2081 10.6734 78.0224 10.8026 77.7891C10.9268 77.6467 11.0522 77.5042 11.1764 77.3618C11.3081 77.1816 11.426 76.9889 11.5752 76.8227L11.5689 76.8339C11.6505 76.6062 11.8236 76.4526 11.9377 76.2515C12.018 76.116 12.0995 75.9806 12.1798 75.8451C12.4457 75.3968 12.6138 74.8899 12.8571 74.429C12.9411 74.2712 12.9424 73.9555 13.2008 74.0435C13.424 74.1189 13.3651 74.3885 13.3676 74.591C13.3726 74.9862 13.3689 75.3828 13.3689 75.7781C13.3689 76.8492 13.3626 77.919 13.3726 78.9902C13.3751 79.2947 13.3551 79.5474 13.0214 79.5921C11.9477 79.581 10.8728 79.5796 9.79915 79.553C9.62355 79.5488 9.34133 79.7276 9.29492 79.3254C9.46801 79.2039 9.61853 79.0517 9.77657 78.9078Z" fill="#7C63FE"/>
<path d="M95.0882 70.8191C94.7871 70.4895 94.4848 70.16 94.1838 69.8304C94.0283 69.6907 93.8891 69.5273 93.7109 69.4212C92.8367 68.6558 91.8157 68.1601 90.875 67.459C92.5695 67.459 94.2653 67.459 95.9599 67.459C96.0653 67.5875 96.0878 67.7439 96.0891 67.9101C96.0954 69.0902 96.1004 70.2703 96.0841 71.4504C96.0803 71.6697 96.1468 72.0956 95.7166 71.787C95.6325 71.6473 95.5485 71.5063 95.4644 71.3666C95.3516 71.1725 95.2123 71.0021 95.0882 70.8191Z" fill="#7B61FE"/>
<path d="M33.5273 0.847656C33.0469 2.25401 33.1272 3.7246 33.1272 5.18682C33.1284 19.8481 33.1272 34.5093 33.1297 49.172C33.1297 49.7055 33.1334 50.2445 33.1874 50.7738C33.304 51.8981 33.7606 52.845 34.4893 53.6298C33.3366 52.9595 33.0607 51.7319 33.0193 50.468C32.9516 48.3759 33.0005 46.2797 33.0005 44.1862C33.0005 30.3866 33.0005 16.5871 32.9992 2.7875C33.0005 2.07804 33.0971 1.40768 33.5273 0.847656Z" fill="#FDFDFD"/>
<path d="M56.2092 69.4042C56.3497 69.4796 56.4212 69.6165 56.4889 69.7645C57.1762 71.2519 57.8611 72.7406 58.5597 74.221C58.7215 74.5632 58.7228 74.8592 58.5635 75.2056C57.9627 76.5086 57.3832 77.8242 56.7912 79.1328C56.6921 79.3534 56.608 79.6858 56.3158 79.5629C56.0511 79.4526 55.725 79.204 55.7639 78.8842C55.8128 78.4792 55.6372 78.2152 55.5043 77.9177C53.2779 72.9445 51.0428 67.9741 48.8114 63.0037C48.4915 62.29 48.494 62.2873 49.2429 62.2873C50.2463 62.2859 51.2497 62.3096 52.2506 62.2761C52.7185 62.2607 52.9995 62.392 53.2365 62.8906C53.7533 63.9771 54.2889 65.0511 54.7015 66.1949C54.6714 66.2046 54.6426 66.2144 54.6125 66.2228C54.3102 66.1223 54.2349 65.8094 54.1108 65.5483C53.7282 64.748 53.3958 63.9198 52.9819 63.1364C52.7774 62.7495 52.5153 62.5861 52.1152 62.5959C51.3225 62.6141 50.5285 62.5987 49.7345 62.6015C49.0183 62.6043 49.007 62.6252 49.3432 63.3752C50.0707 64.998 50.7932 66.6236 51.5244 68.2436C53.0258 71.5661 54.5084 74.8997 56.0085 78.2236C56.0838 78.3898 56.154 78.5588 56.2405 78.718C56.366 78.9484 56.5002 78.9428 56.6055 78.7096C57.17 77.4638 57.7557 76.2307 58.2813 74.964C58.4105 74.6511 58.2574 74.376 58.137 74.1051C57.5613 72.8146 56.8915 71.5773 56.3572 70.2631C56.2556 70.0131 56.0875 69.7841 56.149 69.4796C56.1703 69.4587 56.1904 69.4321 56.2092 69.4042Z" fill="#FDFDFD"/>
<path d="M30.2577 67.4614C30.2401 67.6681 30.2063 67.8748 30.2063 68.0815C30.2025 71.6595 30.2138 75.2362 30.1937 78.8128C30.1912 79.3602 30.3254 79.546 30.8259 79.5223C31.7214 79.4804 32.6195 79.5055 33.5163 79.5125C33.8036 79.5153 33.9992 79.4636 33.9892 79.0628C33.9327 76.7892 34.082 74.5127 33.9039 72.2405C33.8311 71.3104 33.416 70.5269 33.1037 69.6973C33.8449 70.4864 34.0745 71.5394 34.1083 72.5924C34.1761 74.7306 34.1184 76.8743 34.1359 79.0153C34.1397 79.4762 33.9992 79.6214 33.5928 79.6102C32.5693 79.5851 31.5446 79.5851 30.5198 79.6102C30.1097 79.62 29.9792 79.4678 29.9805 79.0111C29.993 75.3339 29.9868 71.6553 29.9893 67.9782C29.9918 67.7589 29.9391 67.4894 30.2577 67.4614Z" fill="#FDFDFD"/>
<path d="M23.2614 68.8664C23.0432 69.055 23.0934 69.3231 23.0934 69.5745C23.0921 72.6693 23.1034 75.7627 23.0821 78.8575C23.0783 79.3826 23.2138 79.5446 23.6841 79.5237C24.5609 79.4846 25.4389 79.493 26.3169 79.5209C26.7371 79.5335 26.9052 79.4106 26.9027 78.9022C26.8851 75.32 26.8939 71.7364 26.8926 68.1542C26.8926 67.9112 26.9616 67.6137 26.6091 67.583C26.8876 67.3833 27.0808 67.3958 27.1046 67.8288C27.1109 67.9447 27.1071 68.0606 27.1071 68.1779C27.1071 71.7364 27.0933 75.2935 27.1209 78.8519C27.1259 79.4818 26.9553 79.648 26.4122 79.6228C25.4326 79.5754 24.4493 79.5949 23.4684 79.6173C23.0871 79.6256 22.9604 79.479 22.9629 79.0544C22.9742 75.8228 22.9692 72.5897 22.9692 69.358C22.9667 69.1192 22.9416 68.8636 23.2614 68.8664Z" fill="#FDFDFD"/>
<path d="M75.8041 69.0036C75.6248 69.181 75.6474 69.4184 75.6474 69.6503C75.6474 72.7227 75.6574 75.7952 75.6386 78.8663C75.6361 79.3551 75.7627 79.5115 76.203 79.4947C77.0798 79.4598 77.959 79.4738 78.8358 79.4891C79.1581 79.4947 79.2735 79.369 79.2735 79.0045C79.2647 75.1639 79.2635 71.3234 79.2773 67.4842C79.2785 67.1225 79.1355 67.1252 78.9098 67.1741C78.9825 67.0233 79.0778 66.8753 79.2459 66.9325C79.5005 67.0177 79.4065 67.2789 79.4065 67.4688C79.4127 70.3751 79.4102 73.2813 79.4102 76.1876C79.4102 77.1415 79.3964 78.094 79.4165 79.0478C79.4253 79.471 79.2973 79.6232 78.9123 79.6134C77.9527 79.5911 76.9907 79.5925 76.0312 79.612C75.6624 79.6204 75.5131 79.4989 75.5157 79.0604C75.5282 75.8748 75.5219 72.6892 75.5232 69.5036C75.5232 69.2774 75.483 69.0134 75.8041 69.0036Z" fill="#FDFDFD"/>
<path d="M6.27007 79.2346C5.50119 78.278 5.22399 77.0741 4.99822 75.8772C4.26948 72.0213 4.2908 68.1835 5.39207 64.4016C5.55764 63.8332 5.74202 63.262 6.14339 62.8276C5.92389 63.7452 5.44099 64.544 5.24783 65.4853C4.85649 67.3916 4.62193 69.3217 4.67838 71.2616C4.74109 73.4304 4.93676 75.5979 5.63164 77.6677C5.81476 78.2095 6.17976 78.6508 6.27007 79.2346Z" fill="#FDFDFD"/>
<path d="M1.53724 65.5093C1.04932 66.6601 0.521268 67.7871 0.356956 69.0761C-0.0256027 72.0648 0.448519 74.7965 2.23337 77.1567C2.31239 77.2615 2.41274 77.355 2.40019 77.5142C1.22116 76.4501 0.706903 74.9431 0.324344 73.4041C-0.346701 70.7073 0.0446375 68.1348 1.30269 65.723C1.3491 65.6294 1.45697 65.5791 1.53724 65.5093Z" fill="#FDFDFD"/>
<path d="M19.7695 79.5965C19.7845 78.7641 19.8109 77.9331 19.8121 77.1008C19.8171 73.9752 19.8171 70.8497 19.8084 67.7242C19.8071 67.4812 19.9513 67.1432 19.5801 67.0384C19.7381 66.8597 19.8761 66.8597 19.9413 67.1194C19.9739 67.2493 19.9564 67.396 19.9564 67.5342C19.9564 71.3315 19.9589 75.1288 19.9526 78.9261C19.9513 79.1579 20.0592 79.4512 19.7695 79.5965Z" fill="#FDFDFD"/>
<path d="M102.603 75.7125C101.745 74.6734 101.54 73.3704 101.543 72.0506C101.546 70.4585 101.879 68.9349 102.763 67.6235C102.792 67.4936 102.839 67.3917 102.985 67.4489C102.674 68.2506 102.158 68.9419 101.985 69.8175C101.603 71.742 101.529 73.6246 102.528 75.3815C102.58 75.4723 102.579 75.6007 102.603 75.7125Z" fill="#FDFDFD"/>
<path d="M66.8517 76.0212C65.694 74.6023 65.4871 72.8873 65.6639 71.0801C65.768 70.0173 65.9787 68.9755 66.5996 68.104C66.6122 68.5453 66.3312 68.8665 66.2158 69.2604C65.5623 71.5019 65.5586 73.6596 66.779 75.6944C66.8329 75.7824 66.8292 75.9109 66.8517 76.0212Z" fill="#FDFDFD"/>
<path d="M36.6573 70.1177C36.3638 70.8998 35.9925 71.6441 35.8709 72.5058C35.6301 74.2138 35.9687 75.7515 36.8668 77.1494C36.9358 77.257 36.9721 77.391 37.0223 77.5125C36.1431 76.6774 35.8107 75.5182 35.6614 74.3284C35.4871 72.9485 35.7091 71.6008 36.3851 70.3858C36.4554 70.2629 36.5281 70.1582 36.6573 70.1177Z" fill="#FDFDFD"/>
<path d="M15.4414 69.9683C16.1338 70.5953 16.1714 71.4947 16.1839 72.3648C16.214 74.4987 16.1927 76.6327 16.1965 78.7667C16.1965 79.0432 16.2241 79.3211 16.2379 79.5977C15.9695 79.4343 16.0748 79.148 16.0736 78.9133C16.0648 77.1564 16.0673 75.3981 16.0698 73.6413C16.0711 72.3704 16.0046 71.1176 15.4414 69.9683Z" fill="#FDFDFD"/>
<path d="M42.7995 67.3218C42.9036 67.8064 43.2598 68.129 43.4417 68.5717C44.0864 70.1345 44.2896 71.7573 44.0651 73.4541C44.0475 73.5896 44.0663 73.7307 44.0676 73.8689C43.6812 73.5645 43.9221 73.1287 43.9334 72.7824C43.9936 70.9654 43.7941 69.2449 42.7568 67.7505C42.6904 67.6528 42.3868 67.4112 42.7995 67.3218Z" fill="#FDFDFD"/>
<path d="M13.0216 79.5921C13.201 79.4818 13.2762 79.3212 13.275 79.0838C13.2649 77.4903 13.2649 75.8968 13.2587 74.3033C13.2587 74.2418 13.2185 74.179 13.1746 74.0561C12.7319 74.6119 12.6817 75.3912 12.1787 75.8451C12.4434 75.1706 12.7055 74.4946 12.9739 73.8229C13.0279 73.686 13.137 73.5994 13.275 73.6357C13.4267 73.6762 13.4317 73.8299 13.4317 73.9709C13.4317 75.7278 13.4305 77.4861 13.433 79.243C13.4343 79.574 13.2561 79.6173 13.0216 79.5921Z" fill="#FDFDFD"/>
<path d="M95.7158 71.787C96.0432 71.9224 95.9817 71.6501 95.9817 71.463C95.9767 70.1278 95.9679 68.7927 95.9592 67.459C96.2727 67.4995 96.215 67.769 96.2163 67.9911C96.22 69.2243 96.2201 70.456 96.215 71.6892C96.215 71.8638 96.2777 72.1096 96.0633 72.164C95.8249 72.2227 95.7371 72.0216 95.7158 71.787Z" fill="#FDFDFD"/>
<path d="M62.7464 69.978C62.098 71.2768 61.6966 72.6371 61.8258 74.1566C61.8835 74.8353 62.1231 75.454 62.2447 76.109C61.4934 74.8507 61.4658 73.482 61.7882 72.0799C61.9663 71.3076 62.1268 70.5087 62.7464 69.978Z" fill="#FDFDFD"/>
<path d="M104.997 68.0103C105.656 68.8133 105.817 69.83 106.003 70.8439C106.189 71.8536 106.042 72.8606 106.028 73.8703C105.775 73.8703 105.819 73.7236 105.834 73.5058C105.924 72.2405 105.949 70.971 105.605 69.742C105.441 69.1499 105.202 68.5856 104.997 68.0103Z" fill="#FDFDFD"/>
<path d="M98.3713 70.5366C97.8846 71.8759 97.5635 73.232 97.8282 74.7054C97.9736 75.5154 98.3487 76.2025 98.6184 76.9441C98.0589 76.3659 97.8394 75.5992 97.6952 74.8046C97.4343 73.3759 97.5911 72.0002 98.1743 70.6902C98.2044 70.6218 98.3035 70.5883 98.3713 70.5366Z" fill="#FDFDFD"/>
<path d="M68.8887 67.7129C69.7617 68.7464 69.9849 70.055 70.1141 71.3901C70.1944 72.2155 70.1392 73.045 70.0564 73.869C69.8168 73.7629 69.8683 73.5366 69.8971 73.3383C70.1706 71.4431 69.8382 69.6835 68.9702 68.0355C68.9213 67.9433 68.915 67.8218 68.8887 67.7129Z" fill="#FDFDFD"/>
<path d="M86.5496 68.8989C86.1307 68.8626 86.2799 69.2243 86.2774 69.4282C86.2611 70.7466 86.6512 71.9225 87.3285 72.9909C87.4213 73.1389 87.5718 73.252 87.5656 73.4629C86.6712 72.7423 86.4354 71.632 86.1934 70.5385C86.0955 70.0944 86.0002 69.6377 86.0592 69.1698C86.1118 68.7564 86.1708 68.7243 86.5496 68.8989Z" fill="#FDFDFD"/>
<path d="M59.9863 64.4995C60.6059 65.1252 60.779 66.012 61.0801 66.9156C61.5454 66.2243 61.7925 65.4506 62.3394 64.9241C62.1249 65.681 61.5931 66.2355 61.2933 66.9407C61.2143 67.1279 60.9283 67.2186 60.8769 66.903C60.7339 66.0246 60.2547 65.3137 59.9863 64.4995Z" fill="#FDFDFD"/>
<path d="M9.811 62.5469C10.3378 63.0524 10.4356 63.7186 10.1898 64.3736C9.76961 65.495 9.95901 66.4419 10.6589 67.3162C10.0267 66.9615 9.57269 65.9224 9.84361 65.0761C10.1233 64.1962 10.1384 63.3862 9.811 62.5469Z" fill="#FDFDFD"/>
<path d="M86.6722 75.295C86.5593 75.1749 86.4452 75.0534 86.232 74.8258C86.232 76.4011 86.2307 77.8466 86.2345 79.2906C86.2345 79.4484 86.3762 79.5057 86.469 79.5923C86.237 79.616 86.0576 79.5755 86.0576 79.2445C86.0601 77.8158 86.0576 76.3871 86.0589 74.9584C86.0589 74.8202 86.0551 74.661 86.2044 74.6163C86.3724 74.566 86.4828 74.6833 86.5443 74.8411C86.6007 74.9864 86.6308 75.1428 86.6722 75.295Z" fill="#FDFDFD"/>
<path d="M95.9707 78.0839C96.4361 78.1328 96.3244 77.7613 96.3119 77.482C96.2592 76.2334 95.8654 75.1022 95.3223 74.0269C96.2504 75.1218 96.495 76.4723 96.4549 77.9107C96.4449 78.285 96.204 78.2697 95.9707 78.0839Z" fill="#FDFDFD"/>
<path d="M109.848 73.872C109.981 72.5201 109.581 71.3288 108.956 70.206C108.836 69.9909 108.712 69.7786 108.589 69.5649C109.585 70.2898 110.335 72.8511 109.848 73.872Z" fill="#FDFDFD"/>
<path d="M76.5011 28.4804C77.2888 26.9414 77.0881 25.5141 76.1123 24.1733C77.275 24.8968 77.5673 27.5908 76.5011 28.4804Z" fill="#FDFDFD"/>
<path d="M47.8999 73.8705C48.0818 72.4795 47.565 71.2952 47.0068 70.1221C47.6641 70.7394 47.8146 71.6374 48.0441 72.4865C48.1144 72.7476 48.1508 73.0269 48.1658 73.3007C48.1796 73.5325 48.2687 73.8439 47.8999 73.8705Z" fill="#FDFDFD"/>
<path d="M16.9864 61.4663C15.8676 62.8126 15.8864 63.7162 17.068 65.2217C16.4095 64.8837 15.9416 64.0179 15.983 63.2106C16.0244 62.4076 16.4509 61.666 16.9864 61.4663Z" fill="#FDFDFD"/>
<path d="M73.9546 73.8705C73.9935 72.5717 73.6536 71.3846 73.0967 70.2617C73.7389 70.8176 73.8518 71.6569 74.0085 72.4557C74.0976 72.9166 74.371 73.4194 73.9546 73.8705Z" fill="#FDFDFD"/>
<path d="M19.0811 65.223C20.2162 64.2105 20.3604 63.3683 19.6518 61.8838C20.393 62.3754 20.2676 63.2008 20.1673 63.9102C20.0795 64.5275 19.7847 65.1378 19.0811 65.223Z" fill="#FDFDFD"/>
<path d="M85.1595 70.2408C85.5358 69.1501 85.3803 68.2088 84.5273 67.4658C85.5835 67.9043 85.9221 69.3889 85.1595 70.2408Z" fill="#FDFDFD"/>
<path d="M54.7028 66.1978C55.3801 67.1656 55.7639 68.3024 56.2092 69.4057L56.1804 69.4336C55.9834 69.449 55.8768 69.3023 55.799 69.1403C55.3989 68.3136 55.0302 67.47 54.6702 66.6195C54.6175 66.4952 54.5974 66.3556 54.6714 66.2257L54.7028 66.1978Z" fill="#FDFDFD"/>
<path d="M13.2617 67.0232C13.8387 66.209 13.8387 65.3208 13.5377 64.3921C14.1874 65.1002 14.0444 66.4576 13.2617 67.0232Z" fill="#FDFDFD"/>
<path d="M3.00406 63.6851C2.51238 64.2968 2.02196 64.9071 1.53027 65.5188C1.78866 64.6738 2.33302 64.1166 3.00406 63.6851Z" fill="#FDFDFD"/>
<path d="M81.1807 68.7188C80.9989 69.0735 80.8095 69.424 80.6389 69.7857C80.5461 69.9826 80.4056 70.2298 80.7882 70.2536C80.684 70.4086 80.5335 70.4268 80.4043 70.343C80.2588 70.2494 80.363 70.1 80.3981 69.9785C80.5461 69.4729 80.7568 69.0134 81.1807 68.7188Z" fill="#FDFDFD"/>
<path d="M72.8755 69.8695C72.4503 69.396 72.0238 68.9212 71.5986 68.4478C72.2157 68.7089 72.6409 69.1824 72.8755 69.8695Z" fill="#FDFDFD"/>
<path d="M75.6387 29.4649C75.9284 29.1325 76.2194 28.8002 76.5091 28.4678C76.3988 28.9957 76.0852 29.3029 75.6387 29.4649Z" fill="#FDFDFD"/>
<path d="M99.7092 68.7129C99.4835 69.1053 99.1699 69.4028 98.8613 69.7073C98.9767 69.1989 99.2941 68.9028 99.7092 68.7129Z" fill="#FDFDFD"/>
<path d="M87.8117 76.8172C87.5094 76.5379 87.1858 76.2795 87.0391 75.8452C87.3777 76.091 87.7139 76.3368 87.8117 76.8172Z" fill="#FDFDFD"/>
<path d="M62.2373 76.0967C62.5158 76.4263 62.6851 76.8299 62.8657 77.2265C62.453 76.9905 62.3289 76.5548 62.2373 76.0967Z" fill="#FDFDFD"/>
<path d="M81.8985 67.875C81.6577 68.1585 81.4156 68.4434 81.1748 68.7269C81.2538 68.2716 81.5235 68.0188 81.8985 67.875Z" fill="#FDFDFD"/>
<path d="M6.13705 62.8361C6.24366 62.5777 6.28004 62.3627 5.91504 62.4032C6.09064 62.237 6.3578 62.2007 6.44811 62.378C6.57103 62.6182 6.31767 62.7411 6.13705 62.8361Z" fill="#FDFDFD"/>
<path d="M103.238 76.5392C102.968 76.3129 102.703 76.0825 102.597 75.7026C102.891 75.9051 103.176 76.116 103.238 76.5392Z" fill="#FDFDFD"/>
<path d="M62.8613 77.2192C63.1109 77.465 63.3781 77.6941 63.5048 78.0572C63.1975 77.8659 62.9153 77.6508 62.8613 77.2192Z" fill="#FDFDFD"/>
<path d="M18.6965 61.2063C18.3253 61.1044 17.9502 61.156 17.5752 61.1658C17.9552 60.9717 18.3303 60.9046 18.6965 61.2063Z" fill="#FDFDFD"/>
<path d="M46.6631 69.5804C46.4524 69.3388 46.2429 69.0985 46.0322 68.8569C46.4022 68.9268 46.6217 69.1572 46.6631 69.5804Z" fill="#FDFDFD"/>
<path d="M98.8688 69.6978C98.7509 70.019 98.5966 70.3122 98.3633 70.5469C98.3896 70.16 98.5401 69.8639 98.8688 69.6978Z" fill="#FDFDFD"/>
<path d="M34.0068 0C33.9064 0.330988 33.7421 0.61589 33.5176 0.860291C33.5326 0.46925 33.7045 0.188538 34.0068 0Z" fill="#FDFDFD"/>
<path d="M71.6649 78.081C71.2686 78.2584 70.871 78.2234 70.4746 78.0796C70.8722 78.081 71.2686 78.081 71.6649 78.081Z" fill="#FDFDFD"/>
<path d="M62.333 64.9337C62.4108 64.6124 62.6278 64.4141 62.8448 64.2158C62.8347 64.5971 62.5964 64.7758 62.333 64.9337Z" fill="#FDFDFD"/>
<path d="M88.427 77.4304C88.1736 77.2852 87.9654 77.0827 87.8086 76.8159C88.1397 76.8648 88.3216 77.1008 88.427 77.4304Z" fill="#FDFDFD"/>
<path d="M2.64453 77.7822C2.93427 77.8604 3.12367 78.0741 3.26917 78.3492C2.95183 78.3087 2.79755 78.0476 2.64453 77.7822Z" fill="#FDFDFD"/>
<path d="M107.541 78.0825C107.183 78.257 106.826 78.2263 106.47 78.0811C106.827 78.0811 107.183 78.0825 107.541 78.0825Z" fill="#FDFDFD"/>
<path d="M45.9303 78.3704C45.7986 78.1428 45.5778 78.2475 45.3997 78.1959C45.3721 78.1344 45.3884 78.0967 45.4486 78.0814C45.6493 78.0688 45.8513 78.0548 46.052 78.0423C46.1786 77.999 46.3078 77.9515 46.2652 78.1973L46.2853 78.1861C46.1874 78.2964 46.0896 78.4068 45.9303 78.3704Z" fill="#927DFE"/>
<path d="M10.4174 62.4032C10.2217 62.4647 9.97964 62.2999 9.82536 62.5582C9.75011 62.4842 9.45033 62.4214 9.77143 62.3082C9.96334 62.2398 10.223 62.2049 10.4174 62.4032Z" fill="#FDFDFD"/>
<path d="M84.6621 70.8007C84.8302 70.6108 84.9995 70.4208 85.1676 70.2295C85.1538 70.5912 84.9769 70.7714 84.6621 70.8007Z" fill="#FDFDFD"/>
<path d="M83.1777 71.104C83.4675 71.1054 83.756 71.1068 84.0457 71.1082C83.7547 71.2883 83.4662 71.2939 83.1777 71.104Z" fill="#FDFDFD"/>
<path d="M102.987 67.4478C102.913 67.5064 102.839 67.5637 102.765 67.6224C102.633 67.3933 102.416 67.4911 102.234 67.452C102.484 67.2942 102.734 67.2174 102.987 67.4478Z" fill="#9C88FE"/>
<path d="M37.6223 68.8525C37.5169 69.0941 37.3576 69.2785 37.1406 69.3986C37.1783 69.0816 37.3401 68.9014 37.6223 68.8525Z" fill="#FDFDFD"/>
<path d="M10.8024 77.7891C10.7447 78.1005 10.5753 78.2876 10.2969 78.3533C10.416 78.1103 10.5854 77.9231 10.8024 77.7891Z" fill="#FDFDFD"/>
<path d="M107.99 78.3424C108.013 78.246 108.187 78.165 108.012 78.0505C108.126 77.9332 108.285 77.8494 108.323 78.0743C108.359 78.2977 108.156 78.3326 107.99 78.3424Z" fill="#FDFDFD"/>
<path d="M45.4502 78.0825C45.4339 78.1216 45.4176 78.1593 45.4013 78.197C45.104 78.1662 44.7942 78.2445 44.5107 78.0811C44.8231 78.0811 45.1366 78.0825 45.4502 78.0825Z" fill="#FDFDFD"/>
<path d="M87.0461 75.8564C86.8554 75.7195 86.7137 75.5407 86.666 75.2852C86.8918 75.3927 87.0624 75.5477 87.0461 75.8564Z" fill="#FDFDFD"/>
<path d="M33.1112 69.7116C32.9143 69.5775 32.8001 69.3667 32.6973 69.146C32.9556 69.2256 33.1187 69.3904 33.1112 69.7116Z" fill="#FDFDFD"/>
<path d="M11.9369 76.2515C11.913 76.5238 11.76 76.6942 11.5681 76.8338C11.5468 76.5266 11.7287 76.3786 11.9369 76.2515Z" fill="#FDFDFD"/>
<path d="M103.732 76.9989C103.527 76.8969 103.353 76.7559 103.236 76.5366C103.505 76.5534 103.658 76.7238 103.732 76.9989Z" fill="#FDFDFD"/>
<path d="M11.5756 76.8242C11.5117 77.0672 11.3963 77.2628 11.1768 77.3633C11.1968 77.0798 11.3486 76.9164 11.5756 76.8242Z" fill="#FDFDFD"/>
<path d="M63.1078 69.4097C63.0852 69.6806 62.9172 69.837 62.7403 69.9878C62.724 69.6862 62.9021 69.5368 63.1078 69.4097Z" fill="#FDFDFD"/>
<path d="M98.6111 76.936C98.7855 77.0869 98.9485 77.2461 98.9761 77.5114C98.7742 77.3829 98.5973 77.2335 98.6111 76.936Z" fill="#FDFDFD"/>
<path d="M93.71 69.4209C93.9445 69.4474 94.0913 69.5983 94.1828 69.8301C93.9458 69.8077 93.8191 69.6276 93.71 69.4209Z" fill="#FDFDFD"/>
<path d="M37.0084 69.5522C36.9833 69.8176 36.8303 69.9824 36.6496 70.1276C36.6321 69.8302 36.8102 69.6835 37.0084 69.5522Z" fill="#FDFDFD"/>
<path d="M64.1288 68.4419C63.9808 68.622 63.8478 68.8259 63.6045 68.858C63.7186 68.6234 63.8579 68.4307 64.1288 68.4419Z" fill="#FDFDFD"/>
<path d="M80.8838 70.2366C81.151 70.0718 81.4181 70.0746 81.684 70.2422C81.4169 70.2408 81.1497 70.2394 80.8838 70.2366Z" fill="#FDFDFD"/>
<path d="M40.7441 67.8651C40.8294 67.685 40.9135 67.5034 40.9988 67.3232C41.2534 67.7017 40.9097 67.731 40.7441 67.8651Z" fill="#FDFDFD"/>
<path d="M95.3287 74.0365C95.1343 73.9011 95.0126 73.6999 94.916 73.4751C95.1694 73.5561 95.3287 73.7237 95.3287 74.0365Z" fill="#FDFDFD"/>
<path d="M59.5918 63.9731C59.8126 64.0723 59.9317 64.2636 59.9932 64.5108C59.7611 64.4214 59.6131 64.2553 59.5918 63.9731Z" fill="#FDFDFD"/>
<path d="M63.4922 78.042C63.7067 78.1132 63.8722 78.2501 63.9588 78.4889C63.7129 78.4568 63.57 78.2934 63.4922 78.042Z" fill="#FDFDFD"/>
<path d="M13.5446 64.403C13.3527 64.2634 13.2373 64.0567 13.1357 63.8374C13.3891 63.9212 13.5522 64.086 13.5446 64.403Z" fill="#FDFDFD"/>
<path d="M95.0889 70.8188C95.3021 70.9264 95.4376 71.0996 95.4639 71.3663C95.267 71.2448 95.1027 71.0954 95.0889 70.8188Z" fill="#FDFDFD"/>
<path d="M45.9309 78.3705C46.0501 78.309 46.168 78.2476 46.2871 78.1875C46.1893 78.457 46.035 78.6372 45.749 78.6107C45.8105 78.5311 45.8707 78.4515 45.9309 78.3705Z" fill="#FDFDFD"/>
<path d="M9.77657 78.9077C9.68124 79.1395 9.53073 79.2932 9.29492 79.3253C9.40154 79.1102 9.53198 78.9273 9.77657 78.9077Z" fill="#FDFDFD"/>
<path d="M66.8262 67.7226C66.8763 67.5885 66.9265 67.4558 66.9779 67.3218C67.0532 67.3302 67.1774 67.3148 67.1485 67.4363C67.1096 67.5997 66.9792 67.6905 66.8262 67.7226Z" fill="#FDFDFD"/>
<path d="M58.0026 62.304C57.9838 62.392 57.9637 62.48 57.9449 62.5666C57.832 62.5428 57.659 62.54 57.6941 62.371C57.7254 62.2202 57.8935 62.3138 58.0026 62.304Z" fill="#FDFDFD"/>
<path d="M72.2131 78.1971C72.1918 78.07 72.0877 78.0882 72.0137 78.0547C72.1378 77.915 72.2996 77.8466 72.4088 78.0183C72.4652 78.1063 72.3097 78.172 72.2131 78.1971Z" fill="#FDFDFD"/>
<path d="M68.7774 67.3276C68.8176 67.4603 68.8577 67.5916 68.8979 67.7243C68.7524 67.6796 68.6169 67.593 68.5931 67.424C68.578 67.3081 68.7009 67.3318 68.7774 67.3276Z" fill="#FDFDFD"/>
<path d="M46.2669 78.1987C46.1954 78.147 46.124 78.0953 46.0537 78.0437C46.1716 77.9124 46.3384 77.8593 46.4375 77.992C46.514 78.0953 46.366 78.1666 46.2669 78.1987Z" fill="#FDFDFD"/>
<path d="M89.8232 75.292C90.0039 75.3185 90.1669 75.3828 90.2798 75.5559C90.0816 75.5699 89.9136 75.514 89.8232 75.292Z" fill="#FDFDFD"/>
<path d="M91.0381 79.5907C91.0481 79.5027 91.0582 79.4161 91.0682 79.3281C91.1861 79.3449 91.3629 79.3393 91.3429 79.5069C91.3203 79.6815 91.1447 79.5767 91.0381 79.5907Z" fill="#FDFDFD"/>
<path d="M41.6611 79.9092C41.8668 79.9092 42.0713 79.9092 42.277 79.9092C42.0725 80.081 41.8668 80.081 41.6611 79.9092Z" fill="#FDFDFD"/>
<path d="M67.625 79.9092C67.8307 79.9092 68.0351 79.9106 68.2409 79.9106C68.0351 80.081 67.8307 80.0824 67.625 79.9092Z" fill="#FDFDFD"/>
<path d="M103.624 79.9091C103.83 79.9091 104.034 79.9077 104.24 79.9077C104.034 80.0823 103.828 80.0809 103.624 79.9091Z" fill="#FDFDFD"/>
<path d="M54.6724 66.2244C55.1252 67.3235 55.5918 68.4143 56.1814 69.4324C56.8185 71.051 57.6188 72.5761 58.35 74.1416C58.5331 74.5327 58.5432 74.8343 58.3563 75.2323C57.7843 76.446 57.2575 77.6861 56.7107 78.9137C56.648 79.0548 56.6216 79.2685 56.4698 79.2922C56.2528 79.3257 56.2328 79.0701 56.165 78.9179C53.7618 73.6053 51.3674 68.2872 48.9579 62.9774C48.7371 62.4914 48.8475 62.3922 49.2928 62.402C50.315 62.4257 51.3398 62.4216 52.362 62.402C52.6982 62.395 52.8801 62.5249 53.0456 62.8559C53.6025 63.9704 54.0353 65.1588 54.6724 66.2244Z" fill="#7B61FE"/>
</svg>
