<svg width="110" height="81" viewBox="0 0 110 81" fill="none" xmlns="http://www.w3.org/2000/svg">
<path d="M6.27016 79.2348C6.42946 79.5448 6.18863 79.4443 6.08453 79.4457C5.02591 79.4666 4.09773 79.0672 3.2699 78.3493C3.04664 78.1818 2.87229 77.9471 2.64526 77.7823C2.56373 77.693 2.48221 77.6022 2.39942 77.5128C0.274654 74.7755 -0.318625 71.6444 0.454018 68.1599C0.667247 67.1991 1.08743 66.3486 1.53772 65.5092L1.5302 65.519C1.90649 64.7928 2.44332 64.2286 3.00399 63.6853C3.85816 62.9297 4.82146 62.4856 5.91394 62.4032C6.0331 62.3585 6.17609 62.3055 6.25762 62.4284C6.36674 62.5932 6.22752 62.7175 6.13595 62.8362L6.14348 62.8264C5.13001 64.7299 4.81142 66.8457 4.66718 69.0021C4.47026 71.96 4.65338 74.8733 5.56274 77.6957C5.74085 78.2488 6.01052 78.7348 6.27016 79.2348Z" fill="#7B61FE"/>
<path d="M40.7438 67.8652C38.1537 71.4 39.8181 76.9863 43.7679 78.0016C44.0075 78.063 44.2621 78.056 44.5092 78.0812C44.8014 78.2069 45.1062 78.1133 45.4048 78.1426C45.5929 78.1817 45.8187 78.0393 45.9654 78.2865C45.9943 78.4778 45.8977 78.5658 45.7497 78.6119C44.7074 79.4275 43.5434 79.8381 42.2778 79.9107C42.0721 79.9777 41.8677 79.9777 41.662 79.9107C39.7843 79.9093 38.2453 79.0923 37.0248 77.5142C35.3905 75.1009 35.2613 72.5088 36.6586 70.1179L36.6523 70.1277C36.7326 69.9056 36.9132 69.7604 37.0098 69.5523C37.0537 69.5006 37.0976 69.449 37.1415 69.3987C37.2744 69.1878 37.4375 69.0076 37.6231 68.8526C38.594 67.9183 39.7266 67.4309 40.9997 67.3234C41.1025 67.6139 40.8404 67.6921 40.7438 67.8652Z" fill="#7B61FE"/>
<path d="M103.624 79.9092C101.731 79.9344 100.202 79.0839 98.9752 77.5099C98.8698 77.3046 98.698 77.1538 98.6102 76.9345L98.6165 76.9443C97.3973 74.862 97.3195 72.7266 98.3694 70.5354L98.3619 70.5452C98.5011 70.2407 98.6503 69.9433 98.8673 69.6947L98.8611 69.7044C99.0705 69.2966 99.3992 69.0131 99.709 68.7101C100.458 68.0607 101.272 67.5733 102.233 67.449C102.432 67.3666 102.63 67.2981 102.788 67.5384C102.782 67.9657 102.457 68.2143 102.322 68.5718C101.4 71.0019 101.268 73.39 102.604 75.7083L102.598 75.6985C102.792 75.9946 103.067 76.2167 103.239 76.5351L103.236 76.5323C103.413 76.6706 103.595 76.8032 103.731 76.9946C104.538 77.6873 105.436 78.0923 106.47 78.0769C106.827 78.1761 107.185 78.1719 107.542 78.0783C107.699 78.0671 107.856 78.0574 108.012 78.0462C108.282 78.1691 108.099 78.2501 107.991 78.3381C106.892 79.3101 105.658 79.8827 104.239 79.905C104.034 79.9763 103.828 79.9749 103.624 79.9092Z" fill="#7B61FE"/>
<path d="M64.1294 68.442C64.9786 67.7534 65.9293 67.3861 66.9767 67.3219C67.0519 67.5146 66.9441 67.6208 66.8249 67.7227C66.7497 67.8498 66.6757 67.9769 66.6004 68.104C65.8064 69.7422 65.5192 71.4753 65.7926 73.3216C65.9406 74.3243 66.3357 75.2 66.8525 76.0198C67.7907 77.292 68.9698 78.0434 70.4749 78.0797C70.8713 78.1775 71.2689 78.1761 71.6652 78.0811C71.7819 78.0727 71.8973 78.063 72.0139 78.0546C72.0816 78.0141 72.1494 77.9903 72.2196 78.0476C72.2874 78.1021 72.2384 78.1496 72.2133 78.1984C71.0719 79.2947 69.7424 79.852 68.241 79.912C68.0353 79.9763 67.8309 79.9791 67.6252 79.9106C66.2705 79.8632 65.015 79.4972 63.9589 78.4903C63.8096 78.3325 63.6327 78.2124 63.4923 78.0434L63.5048 78.0574C63.2978 77.7711 63.0244 77.5476 62.8601 77.2194L62.8651 77.2278C62.5804 76.9024 62.4362 76.4806 62.2367 76.098L62.2442 76.1105C61.3838 73.9626 61.5644 71.9208 62.746 69.9796L62.7397 69.9894C62.8262 69.7673 62.9968 69.6137 63.1072 69.4112C63.2728 69.2268 63.4383 69.0425 63.6039 68.8595C63.787 68.7296 63.93 68.5425 64.1294 68.442Z" fill="#7B61FE"/>
<path d="M89.8234 75.2921C88.8714 74.9877 88.2054 74.2447 87.5657 73.4612C86.635 72.2741 86.1847 70.8859 86.1885 69.3162C86.1898 68.9028 86.2098 68.9028 86.5497 68.8972C88.4111 69.7575 90.2649 70.6443 92.1389 71.4683C93.1937 71.932 94.1194 72.5814 94.9146 73.4738C95.0902 73.6274 95.2194 73.8215 95.3273 74.0352L95.321 74.0254C96.0397 75.0659 96.3232 76.2739 96.3972 77.5574C96.4147 77.8702 96.4799 78.2794 95.9707 78.0825C94.734 77.5532 93.4885 77.0448 92.263 76.4834C91.6008 76.1804 90.8996 75.9723 90.28 75.5547C90.1383 75.4486 89.9652 75.4039 89.8234 75.2921Z" fill="#7B61FE"/>
<path d="M19.7698 79.5964C18.592 79.5964 17.4142 79.5978 16.2377 79.5978C16.0383 79.4163 16.1386 79.1677 16.1386 78.954C16.1298 76.8731 16.1524 74.7908 16.1248 72.7099C16.1123 71.7435 16.0621 70.7603 15.4412 69.9685C15.1189 69.5132 15.6005 69.5425 15.7272 69.4824C17.0969 68.8316 18.3575 67.9727 19.5804 67.0384C19.7159 66.9435 19.8312 66.9812 19.8751 67.1432C19.9165 67.2968 19.8927 67.4658 19.8927 67.6278C19.8927 71.4307 19.8952 75.2335 19.8877 79.0378C19.8852 79.2222 19.9943 79.4596 19.7698 79.5964Z" fill="#7B61FE"/>
<path d="M23.2615 68.8666C24.4807 68.773 25.5543 68.2088 26.6079 67.5818C26.8287 67.4798 26.9203 67.6251 26.9591 67.829C26.9943 68.0105 26.9805 68.199 26.9805 68.3848C26.9805 71.8232 26.9817 75.2615 26.9805 78.7013C26.9805 79.5337 26.9754 79.5337 26.2103 79.5351C25.3135 79.5351 24.4154 79.5155 23.5186 79.5448C23.1273 79.5574 23.0232 79.4149 23.0244 78.989C23.0382 75.8062 23.0307 72.6234 23.0332 69.4392C23.0332 69.2172 22.9755 68.9546 23.2615 68.8666Z" fill="#7B61FE"/>
<path d="M75.8043 69.0034C76.9671 68.6626 77.9768 67.9992 78.9087 67.1753C79.1784 66.9811 79.3515 66.935 79.3502 67.4183C79.3427 71.3021 79.3427 75.1874 79.3515 79.0713C79.3527 79.4456 79.2285 79.5461 78.9112 79.5405C77.9504 79.5238 76.9896 79.5168 76.0289 79.5433C75.6551 79.5531 75.5798 79.3855 75.5811 79.0112C75.5911 75.8717 75.5861 72.7308 75.5886 69.5913C75.5886 69.3665 75.5321 69.1081 75.8043 69.0034Z" fill="#7B61FE"/>
<path d="M30.2585 67.4615C31.2331 67.7339 32.0158 68.3498 32.6981 69.1458C32.8787 69.2953 33.0104 69.4894 33.112 69.7114L33.1045 69.7003C33.7367 70.7002 34.0427 71.8258 34.0578 73.0325C34.0828 75.0086 34.0515 76.9862 34.0741 78.9637C34.0791 79.433 33.9436 79.5573 33.5385 79.5447C32.579 79.514 31.6169 79.5126 30.6561 79.5447C30.2259 79.5601 30.113 79.366 30.1143 78.9344C30.118 75.3061 30.1155 71.6778 30.118 68.0495C30.118 67.8414 30.1055 67.6263 30.2585 67.4615Z" fill="#7B61FE"/>
<path d="M109.847 73.8719C108.574 73.8705 107.301 73.8705 106.028 73.8691C105.819 73.5982 105.957 73.2979 105.975 73.0116C106.086 71.238 105.868 69.5453 104.997 68.0105C104.868 67.808 104.74 67.6055 104.578 67.3513C106.263 67.4198 107.504 68.315 108.587 69.5635C109.494 70.7115 109.964 72.0424 109.949 73.5773C109.948 73.689 109.967 73.8105 109.847 73.8719Z" fill="#7B61FE"/>
<path d="M73.9552 73.8705C72.6557 73.8705 71.3575 73.8705 70.0581 73.8705C69.8198 73.594 70.0593 73.3203 70.0681 73.0451C70.1308 71.1416 69.9126 69.3177 68.8903 67.713L68.8979 67.7228C68.8051 67.6111 68.6734 67.5133 68.7775 67.3262C69.8135 67.4016 70.7116 67.9044 71.5984 68.4462C72.1101 68.8233 72.5366 69.2981 72.8752 69.8679C72.9492 69.9978 73.0232 70.1291 73.0972 70.259C73.7771 71.3469 74.1383 72.5284 73.9552 73.8705Z" fill="#7B61FE"/>
<path d="M42.7994 67.3219C44.0047 67.5007 45.0972 67.9727 46.0317 68.8581C46.2963 69.0397 46.5246 69.2617 46.6626 69.5816C46.778 69.7617 46.8921 69.9419 47.0075 70.122C47.6409 71.0661 47.9507 72.1429 48.0448 73.3034C48.0611 73.5045 48.0812 73.7238 47.9006 73.8704C46.6237 73.8704 45.3468 73.869 44.07 73.869C43.9169 73.7489 43.9734 73.573 43.9897 73.4235C44.1716 71.756 44.0248 70.1458 43.3663 68.6109C43.2396 68.3135 43.0766 68.0551 42.9047 67.7953C42.8107 67.6529 42.6363 67.5328 42.7994 67.3219Z" fill="#7B61FE"/>
<path d="M13.2614 67.0231C12.4448 67.8708 11.5781 67.9686 10.6575 67.315C9.92622 66.6014 9.65655 65.7201 10.0203 64.702C10.3013 63.9157 10.2385 63.2216 9.80957 62.5457L9.82588 62.5569C9.94754 62.1491 10.216 62.4354 10.4179 62.4019C11.4326 62.6239 12.3683 63.0317 13.1359 63.8361C13.3103 63.9912 13.4458 64.1811 13.5461 64.4017L13.5386 64.3906C14.0039 65.4115 13.9186 66.2201 13.2614 67.0231Z" fill="#7B61FE"/>
<path d="M19.0812 65.2229C18.4101 65.586 17.7391 65.6335 17.068 65.2215C15.8112 64.0819 15.7736 62.3725 16.9865 61.4661C17.1822 61.3655 17.3791 61.2664 17.5748 61.1658C17.951 61.089 18.3273 61.0192 18.6961 61.2063C19.046 61.3781 19.3935 61.5527 19.6531 61.8837C20.5562 62.8557 20.1862 64.7858 19.0812 65.2229Z" fill="#7B61FE"/>
<path d="M81.8984 67.875C82.7137 67.2451 83.5666 66.9225 84.5286 67.4658C85.448 67.9979 85.7165 69.2771 85.1608 70.2408L85.1671 70.2296C85.0605 70.488 84.8823 70.6681 84.6616 70.8008C84.4546 70.8986 84.3154 71.1681 84.0445 71.1081C83.7547 71.1779 83.4663 71.1863 83.1765 71.1039C82.5669 71.0578 82.2157 70.4559 81.6827 70.2422C81.4167 70.1318 81.1496 70.1486 80.8824 70.2366L80.8323 70.2282L80.7871 70.2533C80.2904 70.3693 80.4635 69.9992 80.5438 69.7855C80.693 69.3903 80.9351 69.0495 81.1797 68.7185L81.1734 68.7269C81.3503 68.3736 81.63 68.1306 81.8984 67.875Z" fill="#7B61FE"/>
<path d="M58.0032 62.3041C60.1317 62.3222 62.2615 62.339 64.3901 62.3599C64.4264 62.3599 64.4616 62.4046 64.5381 62.4563C63.9473 63.0261 63.2838 63.4926 62.8435 64.2146C62.7294 64.5037 62.4961 64.688 62.3318 64.9338L62.3393 64.9241C61.9994 65.5274 61.5917 66.0818 61.3183 66.7326C61.2656 66.8583 61.2079 66.991 61.0474 66.9491C60.9207 66.9156 60.922 66.7857 60.9006 66.6754C60.7451 65.8723 60.3776 65.181 59.9862 64.5009L59.9938 64.5107C59.8408 64.3501 59.7254 64.1531 59.5924 63.973C59.112 63.4046 58.5526 62.9521 57.9443 62.568C57.8916 62.4605 57.879 62.3641 58.0032 62.3041Z" fill="#7C62FE"/>
<path d="M88.4275 77.4303C89.2378 78.1845 90.0531 78.9274 91.0678 79.3297C91.1443 79.4288 91.1556 79.5196 91.0377 79.5922C89.515 79.5922 87.9923 79.5936 86.4696 79.5936C86.1372 79.5503 86.1159 79.3003 86.1184 78.9959C86.1284 77.8158 86.1197 76.6371 86.1247 75.457C86.1259 75.2391 86.0507 74.9332 86.3266 74.8788C86.5499 74.8341 86.5662 75.1427 86.6728 75.295L86.6653 75.2852C86.8007 75.4681 86.9588 75.6329 87.0453 75.8564L87.039 75.8466C87.2786 76.1874 87.5997 76.4485 87.8117 76.8186L87.8092 76.8172C88.0375 76.9918 88.2494 77.1901 88.4275 77.4303Z" fill="#7C63FE"/>
<path d="M9.77657 78.9079C9.94966 78.7236 10.124 78.5378 10.2971 78.3535C10.5041 78.2082 10.6734 78.0225 10.8026 77.7893C10.9268 77.6468 11.0522 77.5044 11.1764 77.3619C11.3081 77.1818 11.426 76.989 11.5752 76.8228L11.5689 76.834C11.6505 76.6064 11.8236 76.4527 11.9377 76.2516C12.018 76.1162 12.0995 75.9807 12.1798 75.8452C12.4457 75.3969 12.6138 74.89 12.8571 74.4291C12.9411 74.2713 12.9424 73.9557 13.2008 74.0437C13.424 74.1191 13.3651 74.3886 13.3676 74.5911C13.3726 74.9863 13.3689 75.383 13.3689 75.7782C13.3689 76.8494 13.3626 77.9191 13.3726 78.9903C13.3751 79.2948 13.3551 79.5476 13.0214 79.5922C11.9477 79.5811 10.8728 79.5797 9.79915 79.5531C9.62355 79.549 9.34133 79.7277 9.29492 79.3255C9.46801 79.204 9.61853 79.0518 9.77657 78.9079Z" fill="#7C63FE"/>
<path d="M95.0882 70.819C94.7871 70.4894 94.4848 70.1598 94.1838 69.8302C94.0283 69.6906 93.8891 69.5272 93.7109 69.421C92.8367 68.6557 91.8157 68.1599 90.875 67.4589C92.5695 67.4589 94.2653 67.4589 95.9599 67.4589C96.0653 67.5873 96.0878 67.7438 96.0891 67.91C96.0954 69.0901 96.1004 70.2702 96.0841 71.4503C96.0803 71.6695 96.1468 72.0955 95.7166 71.7868C95.6325 71.6472 95.5485 71.5061 95.4644 71.3665C95.3516 71.1724 95.2123 71.002 95.0882 70.819Z" fill="#7B61FE"/>
<path d="M33.5273 0.847656C33.0469 2.25401 33.1272 3.7246 33.1272 5.18682C33.1284 19.8481 33.1272 34.5093 33.1297 49.172C33.1297 49.7055 33.1334 50.2445 33.1874 50.7738C33.304 51.8981 33.7606 52.845 34.4893 53.6298C33.3366 52.9595 33.0607 51.7319 33.0193 50.468C32.9516 48.3759 33.0005 46.2797 33.0005 44.1862C33.0005 30.3866 33.0005 16.5871 32.9992 2.7875C33.0005 2.07804 33.0971 1.40768 33.5273 0.847656Z" fill="#FDFDFD"/>
<path d="M56.2092 69.4042C56.3497 69.4796 56.4212 69.6165 56.4889 69.7645C57.1762 71.2519 57.8611 72.7406 58.5597 74.221C58.7215 74.5632 58.7228 74.8592 58.5635 75.2056C57.9627 76.5086 57.3832 77.8242 56.7912 79.1328C56.6921 79.3534 56.608 79.6858 56.3158 79.5629C56.0511 79.4526 55.725 79.204 55.7639 78.8842C55.8128 78.4792 55.6372 78.2152 55.5043 77.9177C53.2779 72.9445 51.0428 67.9741 48.8114 63.0037C48.4915 62.29 48.494 62.2873 49.2429 62.2873C50.2463 62.2859 51.2497 62.3096 52.2506 62.2761C52.7185 62.2607 52.9995 62.392 53.2365 62.8906C53.7533 63.9771 54.2889 65.0511 54.7015 66.1949C54.6714 66.2046 54.6426 66.2144 54.6125 66.2228C54.3102 66.1223 54.2349 65.8094 54.1108 65.5483C53.7282 64.748 53.3958 63.9198 52.9819 63.1364C52.7774 62.7495 52.5153 62.5861 52.1152 62.5959C51.3225 62.6141 50.5285 62.5987 49.7345 62.6015C49.0183 62.6043 49.007 62.6252 49.3432 63.3752C50.0707 64.998 50.7932 66.6236 51.5244 68.2436C53.0258 71.5661 54.5084 74.8997 56.0085 78.2236C56.0838 78.3898 56.154 78.5588 56.2405 78.718C56.366 78.9484 56.5002 78.9428 56.6055 78.7096C57.17 77.4638 57.7557 76.2307 58.2813 74.964C58.4105 74.6511 58.2574 74.376 58.137 74.1051C57.5613 72.8146 56.8915 71.5773 56.3572 70.2631C56.2556 70.0131 56.0875 69.7841 56.149 69.4796C56.1703 69.4587 56.1904 69.4321 56.2092 69.4042Z" fill="#FDFDFD"/>
<path d="M30.2577 67.4615C30.2401 67.6682 30.2063 67.8749 30.2063 68.0816C30.2025 71.6597 30.2138 75.2363 30.1937 78.8129C30.1912 79.3604 30.3254 79.5461 30.8259 79.5224C31.7214 79.4805 32.6195 79.5056 33.5163 79.5126C33.8036 79.5154 33.9992 79.4637 33.9892 79.0629C33.9327 76.7893 34.082 74.5129 33.9039 72.2406C33.8311 71.3105 33.416 70.527 33.1037 69.6975C33.8449 70.4865 34.0745 71.5395 34.1083 72.5926C34.1761 74.7307 34.1184 76.8745 34.1359 79.0154C34.1397 79.4763 33.9992 79.6215 33.5928 79.6104C32.5693 79.5852 31.5446 79.5852 30.5198 79.6104C30.1097 79.6201 29.9792 79.4679 29.9805 79.0112C29.993 75.334 29.9868 71.6555 29.9893 67.9783C29.9918 67.759 29.9391 67.4895 30.2577 67.4615Z" fill="#FDFDFD"/>
<path d="M23.2614 68.8665C23.0432 69.0551 23.0934 69.3232 23.0934 69.5746C23.0921 72.6694 23.1034 75.7628 23.0821 78.8576C23.0783 79.3828 23.2138 79.5448 23.6841 79.5238C24.5609 79.4847 25.4389 79.4931 26.3169 79.521C26.7371 79.5336 26.9052 79.4107 26.9027 78.9023C26.8851 75.3201 26.8939 71.7365 26.8926 68.1543C26.8926 67.9113 26.9616 67.6138 26.6091 67.5831C26.8876 67.3834 27.0808 67.3959 27.1046 67.8289C27.1109 67.9448 27.1071 68.0607 27.1071 68.178C27.1071 71.7365 27.0933 75.2936 27.1209 78.8521C27.1259 79.4819 26.9553 79.6481 26.4122 79.623C25.4326 79.5755 24.4493 79.595 23.4684 79.6174C23.0871 79.6258 22.9604 79.4791 22.9629 79.0546C22.9742 75.8229 22.9692 72.5898 22.9692 69.3581C22.9667 69.1193 22.9416 68.8637 23.2614 68.8665Z" fill="#FDFDFD"/>
<path d="M75.8041 69.0034C75.6248 69.1808 75.6474 69.4182 75.6474 69.65C75.6474 72.7225 75.6574 75.7949 75.6386 78.866C75.6361 79.3548 75.7627 79.5112 76.203 79.4945C77.0798 79.4596 77.959 79.4735 78.8358 79.4889C79.1581 79.4945 79.2735 79.3688 79.2735 79.0043C79.2647 75.1637 79.2635 71.3231 79.2773 67.4839C79.2785 67.1222 79.1355 67.125 78.9098 67.1739C78.9825 67.023 79.0778 66.875 79.2459 66.9323C79.5005 67.0175 79.4065 67.2786 79.4065 67.4686C79.4127 70.3748 79.4102 73.2811 79.4102 76.1874C79.4102 77.1412 79.3964 78.0937 79.4165 79.0476C79.4253 79.4707 79.2973 79.623 78.9123 79.6132C77.9527 79.5908 76.9907 79.5922 76.0312 79.6118C75.6624 79.6202 75.5131 79.4987 75.5157 79.0601C75.5282 75.8745 75.5219 72.689 75.5232 69.5034C75.5232 69.2771 75.483 69.0132 75.8041 69.0034Z" fill="#FDFDFD"/>
<path d="M6.27007 79.2347C5.50119 78.2781 5.22399 77.0742 4.99822 75.8774C4.26948 72.0214 4.2908 68.1836 5.39207 64.4017C5.55764 63.8333 5.74202 63.2621 6.14339 62.8278C5.92389 63.7453 5.44099 64.5442 5.24783 65.4854C4.85649 67.3918 4.62193 69.3218 4.67838 71.2617C4.74109 73.4306 4.93676 75.598 5.63164 77.6678C5.81476 78.2096 6.17976 78.651 6.27007 79.2347Z" fill="#FDFDFD"/>
<path d="M1.53724 65.5092C1.04932 66.6599 0.521268 67.787 0.356956 69.076C-0.0256027 72.0647 0.448519 74.7964 2.23337 77.1566C2.31239 77.2613 2.41274 77.3549 2.40019 77.5141C1.22116 76.4499 0.706903 74.943 0.324344 73.404C-0.346701 70.7072 0.0446375 68.1347 1.30269 65.7228C1.3491 65.6293 1.45697 65.579 1.53724 65.5092Z" fill="#FDFDFD"/>
<path d="M19.7695 79.5965C19.7845 78.7641 19.8109 77.9331 19.8121 77.1008C19.8171 73.9752 19.8171 70.8497 19.8084 67.7242C19.8071 67.4812 19.9513 67.1432 19.5801 67.0384C19.7381 66.8597 19.8761 66.8597 19.9413 67.1194C19.9739 67.2493 19.9564 67.396 19.9564 67.5342C19.9564 71.3315 19.9589 75.1288 19.9526 78.9261C19.9513 79.1579 20.0592 79.4512 19.7695 79.5965Z" fill="#FDFDFD"/>
<path d="M102.603 75.7126C101.745 74.6735 101.54 73.3705 101.543 72.0508C101.546 70.4587 101.879 68.935 102.763 67.6236C102.792 67.4937 102.839 67.3918 102.985 67.449C102.674 68.2507 102.158 68.942 101.985 69.8176C101.603 71.7421 101.529 73.6247 102.528 75.3816C102.58 75.4724 102.579 75.6009 102.603 75.7126Z" fill="#FDFDFD"/>
<path d="M66.8517 76.0212C65.694 74.6023 65.4871 72.8873 65.6639 71.0801C65.768 70.0173 65.9787 68.9755 66.5996 68.104C66.6122 68.5453 66.3312 68.8665 66.2158 69.2604C65.5623 71.5019 65.5586 73.6596 66.779 75.6944C66.8329 75.7824 66.8292 75.9109 66.8517 76.0212Z" fill="#FDFDFD"/>
<path d="M36.6573 70.1179C36.3638 70.9 35.9925 71.6444 35.8709 72.5061C35.6301 74.2141 35.9687 75.7517 36.8668 77.1497C36.9358 77.2572 36.9721 77.3913 37.0223 77.5128C36.1431 76.6776 35.8107 75.5185 35.6614 74.3286C35.4871 72.9488 35.7091 71.6011 36.3851 70.3861C36.4554 70.2632 36.5281 70.1584 36.6573 70.1179Z" fill="#FDFDFD"/>
<path d="M15.4414 69.9685C16.1338 70.5956 16.1714 71.495 16.1839 72.365C16.214 74.499 16.1927 76.633 16.1965 78.7669C16.1965 79.0435 16.2241 79.3214 16.2379 79.5979C15.9695 79.4345 16.0748 79.1482 16.0736 78.9136C16.0648 77.1567 16.0673 75.3984 16.0698 73.6415C16.0711 72.3706 16.0046 71.1179 15.4414 69.9685Z" fill="#FDFDFD"/>
<path d="M42.7995 67.3219C42.9036 67.8065 43.2598 68.1291 43.4417 68.5718C44.0864 70.1346 44.2896 71.7574 44.0651 73.4543C44.0475 73.5897 44.0663 73.7308 44.0676 73.869C43.6812 73.5646 43.9221 73.1289 43.9334 72.7825C43.9936 70.9656 43.7941 69.245 42.7568 67.7506C42.6904 67.6529 42.3868 67.4113 42.7995 67.3219Z" fill="#FDFDFD"/>
<path d="M13.0216 79.5923C13.201 79.4819 13.2762 79.3213 13.275 79.0839C13.2649 77.4904 13.2649 75.8969 13.2587 74.3034C13.2587 74.242 13.2185 74.1791 13.1746 74.0562C12.7319 74.6121 12.6817 75.3913 12.1787 75.8452C12.4434 75.1707 12.7055 74.4948 12.9739 73.823C13.0279 73.6861 13.137 73.5995 13.275 73.6359C13.4267 73.6764 13.4317 73.83 13.4317 73.971C13.4317 75.7279 13.4305 77.4862 13.433 79.2431C13.4343 79.5741 13.2561 79.6174 13.0216 79.5923Z" fill="#FDFDFD"/>
<path d="M95.7158 71.7868C96.0432 71.9223 95.9817 71.65 95.9817 71.4628C95.9767 70.1277 95.9679 68.7926 95.9592 67.4589C96.2727 67.4994 96.215 67.7689 96.2163 67.991C96.22 69.2241 96.2201 70.4559 96.215 71.6891C96.215 71.8637 96.2777 72.1095 96.0633 72.1639C95.8249 72.2226 95.7371 72.0215 95.7158 71.7868Z" fill="#FDFDFD"/>
<path d="M62.7464 69.9783C62.098 71.2771 61.6966 72.6374 61.8258 74.1568C61.8835 74.8356 62.1231 75.4542 62.2447 76.1092C61.4934 74.8509 61.4658 73.4823 61.7882 72.0801C61.9663 71.3078 62.1268 70.509 62.7464 69.9783Z" fill="#FDFDFD"/>
<path d="M104.997 68.0105C105.656 68.8135 105.817 69.8302 106.003 70.8441C106.189 71.8539 106.042 72.8608 106.028 73.8705C105.775 73.8705 105.819 73.7239 105.834 73.506C105.924 72.2407 105.949 70.9712 105.605 69.7423C105.441 69.1501 105.202 68.5859 104.997 68.0105Z" fill="#FDFDFD"/>
<path d="M98.3713 70.5369C97.8846 71.8762 97.5635 73.2323 97.8282 74.7056C97.9736 75.5157 98.3487 76.2028 98.6184 76.9444C98.0589 76.3662 97.8394 75.5995 97.6952 74.8048C97.4343 73.3761 97.5911 72.0005 98.1743 70.6905C98.2044 70.6221 98.3035 70.5885 98.3713 70.5369Z" fill="#FDFDFD"/>
<path d="M68.8887 67.713C69.7617 68.7465 69.9849 70.0551 70.1141 71.3902C70.1944 72.2156 70.1392 73.0451 70.0564 73.8691C69.8168 73.763 69.8683 73.5367 69.8971 73.3384C70.1706 71.4433 69.8382 69.6836 68.9702 68.0356C68.9213 67.9434 68.915 67.8219 68.8887 67.713Z" fill="#FDFDFD"/>
<path d="M86.5496 68.8986C86.1307 68.8623 86.2799 69.224 86.2774 69.4279C86.2611 70.7463 86.6512 71.9222 87.3285 72.9906C87.4213 73.1386 87.5718 73.2518 87.5656 73.4626C86.6712 72.742 86.4354 71.6317 86.1934 70.5382C86.0955 70.0941 86.0002 69.6374 86.0592 69.1696C86.1118 68.7562 86.1708 68.7241 86.5496 68.8986Z" fill="#FDFDFD"/>
<path d="M59.9863 64.4995C60.6059 65.1252 60.779 66.012 61.0801 66.9156C61.5454 66.2243 61.7925 65.4506 62.3394 64.9241C62.1249 65.681 61.5931 66.2355 61.2933 66.9407C61.2143 67.1279 60.9283 67.2186 60.8769 66.903C60.7339 66.0246 60.2547 65.3137 59.9863 64.4995Z" fill="#FDFDFD"/>
<path d="M9.811 62.547C10.3378 63.0526 10.4356 63.7187 10.1898 64.3737C9.76961 65.4952 9.95901 66.442 10.6589 67.3163C10.0267 66.9616 9.57269 65.9225 9.84361 65.0762C10.1233 64.1964 10.1384 63.3863 9.811 62.547Z" fill="#FDFDFD"/>
<path d="M86.6722 75.295C86.5593 75.1749 86.4452 75.0534 86.232 74.8258C86.232 76.4011 86.2307 77.8466 86.2345 79.2906C86.2345 79.4484 86.3762 79.5057 86.469 79.5923C86.237 79.616 86.0576 79.5755 86.0576 79.2445C86.0601 77.8158 86.0576 76.3871 86.0589 74.9584C86.0589 74.8202 86.0551 74.661 86.2044 74.6163C86.3724 74.566 86.4828 74.6833 86.5443 74.8411C86.6007 74.9864 86.6308 75.1428 86.6722 75.295Z" fill="#FDFDFD"/>
<path d="M95.9707 78.0839C96.4361 78.1328 96.3244 77.7613 96.3119 77.482C96.2592 76.2334 95.8654 75.1022 95.3223 74.0269C96.2504 75.1218 96.495 76.4723 96.4549 77.9107C96.4449 78.285 96.204 78.2697 95.9707 78.0839Z" fill="#FDFDFD"/>
<path d="M109.848 73.8719C109.981 72.52 109.581 71.3287 108.956 70.2058C108.836 69.9908 108.712 69.7785 108.589 69.5648C109.585 70.2896 110.335 72.851 109.848 73.8719Z" fill="#FDFDFD"/>
<path d="M76.5011 28.4804C77.2888 26.9414 77.0881 25.5141 76.1123 24.1733C77.275 24.8968 77.5673 27.5908 76.5011 28.4804Z" fill="#FDFDFD"/>
<path d="M47.8999 73.8705C48.0818 72.4795 47.565 71.2952 47.0068 70.1221C47.6641 70.7394 47.8146 71.6374 48.0441 72.4865C48.1144 72.7476 48.1508 73.0269 48.1658 73.3007C48.1796 73.5325 48.2687 73.8439 47.8999 73.8705Z" fill="#FDFDFD"/>
<path d="M16.9864 61.4661C15.8676 62.8124 15.8864 63.7159 17.068 65.2215C16.4095 64.8835 15.9416 64.0176 15.983 63.2104C16.0244 62.4074 16.4509 61.6658 16.9864 61.4661Z" fill="#FDFDFD"/>
<path d="M73.9546 73.8705C73.9935 72.5717 73.6536 71.3846 73.0967 70.2617C73.7389 70.8176 73.8518 71.6569 74.0085 72.4557C74.0976 72.9166 74.371 73.4194 73.9546 73.8705Z" fill="#FDFDFD"/>
<path d="M19.0811 65.2229C20.2162 64.2104 20.3604 63.3682 19.6518 61.8837C20.393 62.3753 20.2676 63.2006 20.1673 63.9101C20.0795 64.5274 19.7847 65.1377 19.0811 65.2229Z" fill="#FDFDFD"/>
<path d="M85.1595 70.2408C85.5358 69.1501 85.3803 68.2088 84.5273 67.4658C85.5835 67.9043 85.9221 69.3889 85.1595 70.2408Z" fill="#FDFDFD"/>
<path d="M54.7028 66.1978C55.3801 67.1656 55.7639 68.3024 56.2092 69.4057L56.1804 69.4336C55.9834 69.449 55.8768 69.3023 55.799 69.1403C55.3989 68.3136 55.0302 67.47 54.6702 66.6195C54.6175 66.4952 54.5974 66.3556 54.6714 66.2257L54.7028 66.1978Z" fill="#FDFDFD"/>
<path d="M13.2617 67.0231C13.8387 66.2089 13.8387 65.3207 13.5377 64.392C14.1874 65.1 14.0444 66.4575 13.2617 67.0231Z" fill="#FDFDFD"/>
<path d="M3.00406 63.6853C2.51238 64.297 2.02196 64.9073 1.53027 65.519C1.78866 64.6741 2.33302 64.1168 3.00406 63.6853Z" fill="#FDFDFD"/>
<path d="M81.1807 68.7185C80.9989 69.0732 80.8095 69.4238 80.6389 69.7855C80.5461 69.9824 80.4056 70.2296 80.7882 70.2533C80.684 70.4084 80.5335 70.4265 80.4043 70.3427C80.2588 70.2492 80.363 70.0997 80.3981 69.9782C80.5461 69.4727 80.7568 69.0132 81.1807 68.7185Z" fill="#FDFDFD"/>
<path d="M72.8755 69.8693C72.4503 69.3959 72.0238 68.9211 71.5986 68.4476C72.2157 68.7088 72.6409 69.1822 72.8755 69.8693Z" fill="#FDFDFD"/>
<path d="M75.6387 29.4649C75.9284 29.1325 76.2194 28.8002 76.5091 28.4678C76.3988 28.9957 76.0852 29.3029 75.6387 29.4649Z" fill="#FDFDFD"/>
<path d="M99.7092 68.7129C99.4835 69.1053 99.1699 69.4028 98.8613 69.7073C98.9767 69.1989 99.2941 68.9028 99.7092 68.7129Z" fill="#FDFDFD"/>
<path d="M87.8117 76.8172C87.5094 76.5379 87.1858 76.2795 87.0391 75.8452C87.3777 76.091 87.7139 76.3368 87.8117 76.8172Z" fill="#FDFDFD"/>
<path d="M62.2373 76.0967C62.5158 76.4263 62.6851 76.8299 62.8657 77.2265C62.453 76.9905 62.3289 76.5548 62.2373 76.0967Z" fill="#FDFDFD"/>
<path d="M81.8985 67.875C81.6577 68.1585 81.4156 68.4434 81.1748 68.7269C81.2538 68.2716 81.5235 68.0188 81.8985 67.875Z" fill="#FDFDFD"/>
<path d="M6.13705 62.8361C6.24366 62.5777 6.28004 62.3627 5.91504 62.4032C6.09064 62.237 6.3578 62.2007 6.44811 62.378C6.57103 62.6182 6.31767 62.7411 6.13705 62.8361Z" fill="#FDFDFD"/>
<path d="M103.238 76.5393C102.968 76.3131 102.703 76.0826 102.597 75.7028C102.891 75.9053 103.176 76.1161 103.238 76.5393Z" fill="#FDFDFD"/>
<path d="M62.8613 77.2195C63.1109 77.4653 63.3781 77.6943 63.5048 78.0574C63.1975 77.8661 62.9153 77.651 62.8613 77.2195Z" fill="#FDFDFD"/>
<path d="M18.6965 61.2063C18.3253 61.1044 17.9502 61.156 17.5752 61.1658C17.9552 60.9717 18.3303 60.9046 18.6965 61.2063Z" fill="#FDFDFD"/>
<path d="M46.6631 69.5802C46.4524 69.3386 46.2429 69.0984 46.0322 68.8568C46.4022 68.9266 46.6217 69.1571 46.6631 69.5802Z" fill="#FDFDFD"/>
<path d="M98.8688 69.6975C98.7509 70.0187 98.5966 70.312 98.3633 70.5466C98.3896 70.1598 98.5401 69.8637 98.8688 69.6975Z" fill="#FDFDFD"/>
<path d="M34.0068 0C33.9064 0.330988 33.7421 0.61589 33.5176 0.860291C33.5326 0.46925 33.7045 0.188538 34.0068 0Z" fill="#FDFDFD"/>
<path d="M71.6649 78.0811C71.2686 78.2585 70.871 78.2236 70.4746 78.0797C70.8722 78.0811 71.2686 78.0811 71.6649 78.0811Z" fill="#FDFDFD"/>
<path d="M62.333 64.9338C62.4108 64.6126 62.6278 64.4143 62.8448 64.2159C62.8347 64.5972 62.5964 64.776 62.333 64.9338Z" fill="#FDFDFD"/>
<path d="M88.427 77.4304C88.1736 77.2852 87.9654 77.0827 87.8086 76.8159C88.1397 76.8648 88.3216 77.1008 88.427 77.4304Z" fill="#FDFDFD"/>
<path d="M2.64453 77.7822C2.93427 77.8604 3.12367 78.0741 3.26917 78.3492C2.95183 78.3087 2.79755 78.0476 2.64453 77.7822Z" fill="#FDFDFD"/>
<path d="M107.541 78.0826C107.183 78.2571 106.826 78.2264 106.47 78.0812C106.827 78.0812 107.183 78.0826 107.541 78.0826Z" fill="#FDFDFD"/>
<path d="M45.9303 78.3702C45.7986 78.1426 45.5778 78.2473 45.3997 78.1956C45.3721 78.1342 45.3884 78.0965 45.4486 78.0811C45.6493 78.0685 45.8513 78.0546 46.052 78.042C46.1786 77.9987 46.3078 77.9512 46.2652 78.197L46.2853 78.1859C46.1874 78.2962 46.0896 78.4065 45.9303 78.3702Z" fill="#927DFE"/>
<path d="M10.4174 62.4032C10.2217 62.4647 9.97964 62.2999 9.82536 62.5582C9.75011 62.4842 9.45033 62.4214 9.77143 62.3082C9.96334 62.2398 10.223 62.2049 10.4174 62.4032Z" fill="#FDFDFD"/>
<path d="M84.6621 70.8008C84.8302 70.6109 84.9995 70.4209 85.1676 70.2296C85.1538 70.5913 84.9769 70.7715 84.6621 70.8008Z" fill="#FDFDFD"/>
<path d="M83.1777 71.1039C83.4675 71.1053 83.756 71.1067 84.0457 71.1081C83.7547 71.2882 83.4662 71.2938 83.1777 71.1039Z" fill="#FDFDFD"/>
<path d="M102.987 67.4477C102.913 67.5063 102.839 67.5636 102.765 67.6222C102.633 67.3932 102.416 67.491 102.234 67.4519C102.484 67.294 102.734 67.2172 102.987 67.4477Z" fill="#9C88FE"/>
<path d="M37.6223 68.8525C37.5169 69.0941 37.3576 69.2785 37.1406 69.3986C37.1783 69.0816 37.3401 68.9014 37.6223 68.8525Z" fill="#FDFDFD"/>
<path d="M10.8024 77.7893C10.7447 78.1007 10.5753 78.2879 10.2969 78.3535C10.416 78.1105 10.5854 77.9234 10.8024 77.7893Z" fill="#FDFDFD"/>
<path d="M107.99 78.3423C108.013 78.2459 108.187 78.1649 108.012 78.0504C108.126 77.9331 108.285 77.8493 108.323 78.0741C108.359 78.2976 108.156 78.3325 107.99 78.3423Z" fill="#FDFDFD"/>
<path d="M45.4502 78.0826C45.4339 78.1217 45.4176 78.1594 45.4013 78.1971C45.104 78.1664 44.7942 78.2446 44.5107 78.0812C44.8231 78.0812 45.1366 78.0826 45.4502 78.0826Z" fill="#FDFDFD"/>
<path d="M87.0461 75.8564C86.8554 75.7195 86.7137 75.5407 86.666 75.2852C86.8918 75.3927 87.0624 75.5477 87.0461 75.8564Z" fill="#FDFDFD"/>
<path d="M33.1112 69.7115C32.9143 69.5774 32.8001 69.3665 32.6973 69.1459C32.9556 69.2255 33.1187 69.3903 33.1112 69.7115Z" fill="#FDFDFD"/>
<path d="M11.9369 76.2517C11.913 76.524 11.76 76.6944 11.5681 76.8341C11.5468 76.5268 11.7287 76.3788 11.9369 76.2517Z" fill="#FDFDFD"/>
<path d="M103.732 76.9988C103.527 76.8968 103.353 76.7558 103.236 76.5365C103.505 76.5533 103.658 76.7236 103.732 76.9988Z" fill="#FDFDFD"/>
<path d="M11.5756 76.8242C11.5117 77.0672 11.3963 77.2628 11.1768 77.3633C11.1968 77.0798 11.3486 76.9164 11.5756 76.8242Z" fill="#FDFDFD"/>
<path d="M63.1078 69.4098C63.0852 69.6807 62.9172 69.8371 62.7403 69.988C62.724 69.6863 62.9021 69.5369 63.1078 69.4098Z" fill="#FDFDFD"/>
<path d="M98.6111 76.9359C98.7855 77.0867 98.9485 77.246 98.9761 77.5113C98.7742 77.3828 98.5973 77.2334 98.6111 76.9359Z" fill="#FDFDFD"/>
<path d="M93.71 69.421C93.9445 69.4476 94.0913 69.5984 94.1828 69.8302C93.9458 69.8079 93.8191 69.6277 93.71 69.421Z" fill="#FDFDFD"/>
<path d="M37.0084 69.5522C36.9833 69.8176 36.8303 69.9824 36.6496 70.1276C36.6321 69.8302 36.8102 69.6835 37.0084 69.5522Z" fill="#FDFDFD"/>
<path d="M64.1288 68.442C63.9808 68.6221 63.8478 68.8261 63.6045 68.8582C63.7186 68.6235 63.8579 68.4308 64.1288 68.442Z" fill="#FDFDFD"/>
<path d="M80.8838 70.2366C81.151 70.0718 81.4181 70.0746 81.684 70.2422C81.4169 70.2408 81.1497 70.2394 80.8838 70.2366Z" fill="#FDFDFD"/>
<path d="M40.7441 67.8652C40.8294 67.6851 40.9135 67.5035 40.9988 67.3234C41.2534 67.7018 40.9097 67.7312 40.7441 67.8652Z" fill="#FDFDFD"/>
<path d="M95.3287 74.0366C95.1343 73.9012 95.0126 73.7001 94.916 73.4752C95.1694 73.5562 95.3287 73.7238 95.3287 74.0366Z" fill="#FDFDFD"/>
<path d="M59.5918 63.9729C59.8126 64.0721 59.9317 64.2634 59.9932 64.5106C59.7611 64.4212 59.6131 64.255 59.5918 63.9729Z" fill="#FDFDFD"/>
<path d="M63.4922 78.042C63.7067 78.1132 63.8722 78.2501 63.9588 78.4889C63.7129 78.4568 63.57 78.2934 63.4922 78.042Z" fill="#FDFDFD"/>
<path d="M13.5446 64.4031C13.3527 64.2635 13.2373 64.0568 13.1357 63.8375C13.3891 63.9213 13.5522 64.0861 13.5446 64.4031Z" fill="#FDFDFD"/>
<path d="M95.0889 70.819C95.3021 70.9265 95.4376 71.0997 95.4639 71.3664C95.267 71.2449 95.1027 71.0955 95.0889 70.819Z" fill="#FDFDFD"/>
<path d="M45.9309 78.3702C46.0501 78.3088 46.168 78.2473 46.2871 78.1873C46.1893 78.4568 46.035 78.637 45.749 78.6104C45.8105 78.5308 45.8707 78.4512 45.9309 78.3702Z" fill="#FDFDFD"/>
<path d="M9.77657 78.908C9.68124 79.1398 9.53073 79.2934 9.29492 79.3255C9.40154 79.1105 9.53198 78.9275 9.77657 78.908Z" fill="#FDFDFD"/>
<path d="M66.8262 67.7227C66.8763 67.5886 66.9265 67.456 66.9779 67.3219C67.0532 67.3303 67.1774 67.3149 67.1485 67.4364C67.1096 67.5998 66.9792 67.6906 66.8262 67.7227Z" fill="#FDFDFD"/>
<path d="M58.0026 62.304C57.9838 62.392 57.9637 62.48 57.9449 62.5666C57.832 62.5428 57.659 62.54 57.6941 62.371C57.7254 62.2202 57.8935 62.3138 58.0026 62.304Z" fill="#FDFDFD"/>
<path d="M72.2131 78.1971C72.1918 78.07 72.0877 78.0882 72.0137 78.0547C72.1378 77.915 72.2996 77.8466 72.4088 78.0183C72.4652 78.1063 72.3097 78.172 72.2131 78.1971Z" fill="#FDFDFD"/>
<path d="M68.7774 67.3275C68.8176 67.4602 68.8577 67.5915 68.8979 67.7241C68.7524 67.6795 68.6169 67.5929 68.5931 67.4239C68.578 67.308 68.7009 67.3317 68.7774 67.3275Z" fill="#FDFDFD"/>
<path d="M46.2669 78.1984C46.1954 78.1468 46.124 78.0951 46.0537 78.0434C46.1716 77.9121 46.3384 77.8591 46.4375 77.9917C46.514 78.0951 46.366 78.1663 46.2669 78.1984Z" fill="#FDFDFD"/>
<path d="M89.8232 75.2922C90.0039 75.3188 90.1669 75.383 90.2798 75.5562C90.0816 75.5702 89.9136 75.5143 89.8232 75.2922Z" fill="#FDFDFD"/>
<path d="M91.0381 79.5908C91.0481 79.5028 91.0582 79.4162 91.0682 79.3282C91.1861 79.345 91.3629 79.3394 91.3429 79.507C91.3203 79.6816 91.1447 79.5768 91.0381 79.5908Z" fill="#FDFDFD"/>
<path d="M41.6611 79.9093C41.8668 79.9093 42.0713 79.9093 42.277 79.9093C42.0725 80.0811 41.8668 80.0811 41.6611 79.9093Z" fill="#FDFDFD"/>
<path d="M67.625 79.9093C67.8307 79.9093 68.0351 79.9107 68.2409 79.9107C68.0351 80.0811 67.8307 80.0825 67.625 79.9093Z" fill="#FDFDFD"/>
<path d="M103.624 79.9092C103.83 79.9092 104.034 79.9078 104.24 79.9078C104.034 80.0824 103.828 80.081 103.624 79.9092Z" fill="#FDFDFD"/>
<path d="M54.6724 66.2242C55.1252 67.3233 55.5918 68.414 56.1814 69.4321C56.8185 71.0508 57.6188 72.5758 58.35 74.1414C58.5331 74.5324 58.5432 74.8341 58.3563 75.2321C57.7843 76.4457 57.2575 77.6859 56.7107 78.9135C56.648 79.0545 56.6216 79.2682 56.4698 79.292C56.2528 79.3255 56.2328 79.0699 56.165 78.9177C53.7618 73.6051 51.3674 68.2869 48.9579 62.9771C48.7371 62.4911 48.8475 62.392 49.2928 62.4018C50.315 62.4255 51.3398 62.4213 52.362 62.4018C52.6982 62.3948 52.8801 62.5247 53.0456 62.8556C53.6025 63.9701 54.0353 65.1586 54.6724 66.2242Z" fill="#7B61FE"/>
</svg>
