<svg width="110" height="81" viewBox="0 0 110 81" fill="none" xmlns="http://www.w3.org/2000/svg">
<path d="M6.2698 79.2348C6.42909 79.5448 6.18827 79.4443 6.08416 79.4457C5.02554 79.4666 4.09737 79.0672 3.26953 78.3493C3.04627 78.1818 2.87192 77.9471 2.6449 77.7823C2.56337 77.693 2.48184 77.6022 2.39906 77.5128C0.274288 74.7755 -0.318991 71.6444 0.453652 68.1599C0.666881 67.1991 1.08707 66.3486 1.53736 65.5092L1.52983 65.519C1.90612 64.7928 2.44296 64.2286 3.00362 63.6853C3.8578 62.9297 4.82109 62.4856 5.91358 62.4032C6.03274 62.3585 6.17572 62.3055 6.25725 62.4284C6.36638 62.5932 6.22715 62.7175 6.13559 62.8362L6.14311 62.8264C5.12965 64.7299 4.81106 66.8457 4.66681 69.0021C4.46989 71.96 4.65302 74.8733 5.56238 77.6957C5.74049 78.2488 6.01016 78.7348 6.2698 79.2348Z" fill="#7B61FE"/>
<path d="M40.7439 67.8652C38.1538 71.4 39.8183 76.9863 43.768 78.0016C44.0076 78.063 44.2622 78.056 44.5093 78.0812C44.8016 78.2069 45.1064 78.1133 45.4049 78.1426C45.593 78.1817 45.8188 78.0393 45.9655 78.2865C45.9944 78.4778 45.8978 78.5658 45.7498 78.6119C44.7075 79.4275 43.5435 79.8381 42.2779 79.9107C42.0722 79.9777 41.8678 79.9777 41.6621 79.9107C39.7844 79.9093 38.2454 79.0923 37.025 77.5142C35.3906 75.1009 35.2614 72.5088 36.6587 70.1179L36.6524 70.1277C36.7327 69.9056 36.9133 69.7604 37.0099 69.5523C37.0538 69.5006 37.0977 69.449 37.1416 69.3987C37.2746 69.1878 37.4376 69.0076 37.6233 68.8526C38.5941 67.9183 39.7267 67.4309 40.9998 67.3234C41.1027 67.6139 40.8405 67.6921 40.7439 67.8652Z" fill="#7B61FE"/>
<path d="M103.624 79.9092C101.731 79.9344 100.202 79.0839 98.9757 77.5099C98.8703 77.3046 98.6985 77.1538 98.6107 76.9345L98.617 76.9443C97.3978 74.862 97.32 72.7266 98.3699 70.5354L98.3624 70.5452C98.5016 70.2407 98.6508 69.9433 98.8678 69.6947L98.8616 69.7044C99.071 69.2966 99.3996 69.0131 99.7095 68.7101C100.458 68.0607 101.272 67.5733 102.233 67.449C102.433 67.3666 102.631 67.2981 102.789 67.5384C102.782 67.9657 102.458 68.2143 102.322 68.5718C101.4 71.0019 101.269 73.39 102.604 75.7083L102.598 75.6985C102.793 75.9946 103.067 76.2167 103.239 76.5351L103.237 76.5323C103.413 76.6706 103.595 76.8032 103.732 76.9946C104.538 77.6873 105.437 78.0923 106.47 78.0769C106.828 78.1761 107.185 78.1719 107.543 78.0783C107.699 78.0671 107.856 78.0574 108.013 78.0462C108.283 78.1691 108.099 78.2501 107.992 78.3381C106.893 79.3101 105.659 79.8827 104.24 79.905C104.034 79.9763 103.829 79.9749 103.624 79.9092Z" fill="#7B61FE"/>
<path d="M64.129 68.442C64.9781 67.7534 65.9289 67.3861 66.9762 67.3219C67.0514 67.5146 66.9436 67.6208 66.8244 67.7227C66.7492 67.8498 66.6752 67.9769 66.5999 68.104C65.8059 69.7422 65.5187 71.4753 65.7921 73.3216C65.9401 74.3243 66.3353 75.2 66.852 76.0198C67.7902 77.292 68.9693 78.0434 70.4744 78.0797C70.8708 78.1775 71.2684 78.1761 71.6647 78.0811C71.7814 78.0727 71.8968 78.063 72.0134 78.0546C72.0812 78.0141 72.1489 77.9903 72.2191 78.0476C72.2869 78.1021 72.2379 78.1496 72.2129 78.1984C71.0715 79.2947 69.7419 79.852 68.2405 79.912C68.0348 79.9763 67.8304 79.9791 67.6247 79.9106C66.27 79.8632 65.0145 79.4972 63.9584 78.4903C63.8091 78.3325 63.6323 78.2124 63.4918 78.0434L63.5043 78.0574C63.2974 77.7711 63.0239 77.5476 62.8596 77.2194L62.8646 77.2278C62.5799 76.9024 62.4357 76.4806 62.2362 76.098L62.2438 76.1105C61.3833 73.9626 61.5639 71.9208 62.7455 69.9796L62.7392 69.9894C62.8257 69.7673 62.9963 69.6137 63.1067 69.4112C63.2723 69.2268 63.4378 69.0425 63.6034 68.8595C63.7865 68.7296 63.9295 68.5425 64.129 68.442Z" fill="#7B61FE"/>
<path d="M89.8231 75.2921C88.8711 74.9877 88.205 74.2447 87.5653 73.4612C86.6347 72.2741 86.1844 70.8859 86.1881 69.3162C86.1894 68.9028 86.2095 68.9028 86.5494 68.8972C88.4107 69.7575 90.2646 70.6443 92.1385 71.4683C93.1933 71.932 94.119 72.5814 94.9142 73.4738C95.0898 73.6274 95.219 73.8215 95.3269 74.0352L95.3206 74.0254C96.0393 75.0659 96.3228 76.2739 96.3968 77.5574C96.4144 77.8702 96.4796 78.2794 95.9703 78.0825C94.7336 77.5532 93.4881 77.0448 92.2627 76.4834C91.6004 76.1804 90.8992 75.9723 90.2796 75.5547C90.1379 75.4486 89.9648 75.4039 89.8231 75.2921Z" fill="#7B61FE"/>
<path d="M19.7698 79.5964C18.592 79.5964 17.4142 79.5978 16.2377 79.5978C16.0383 79.4163 16.1386 79.1677 16.1386 78.954C16.1298 76.8731 16.1524 74.7908 16.1248 72.7099C16.1123 71.7435 16.0621 70.7603 15.4412 69.9685C15.1189 69.5132 15.6005 69.5425 15.7272 69.4824C17.0969 68.8316 18.3575 67.9727 19.5804 67.0384C19.7159 66.9435 19.8312 66.9812 19.8751 67.1432C19.9165 67.2968 19.8927 67.4658 19.8927 67.6278C19.8927 71.4307 19.8952 75.2335 19.8877 79.0378C19.8852 79.2222 19.9943 79.4596 19.7698 79.5964Z" fill="#7B61FE"/>
<path d="M23.2617 68.8666C24.4809 68.773 25.5546 68.2088 26.6082 67.5818C26.8289 67.4798 26.9205 67.6251 26.9594 67.829C26.9945 68.0105 26.9807 68.199 26.9807 68.3848C26.9807 71.8232 26.982 75.2615 26.9807 78.7013C26.9807 79.5337 26.9757 79.5337 26.2106 79.5351C25.3137 79.5351 24.4157 79.5155 23.5189 79.5448C23.1275 79.5574 23.0234 79.4149 23.0247 78.989C23.0385 75.8062 23.0309 72.6234 23.0334 69.4392C23.0334 69.2172 22.9758 68.9546 23.2617 68.8666Z" fill="#7B61FE"/>
<path d="M75.8038 69.0034C76.9666 68.6626 77.9763 67.9992 78.9082 67.1753C79.1779 66.9811 79.351 66.935 79.3497 67.4183C79.3422 71.3021 79.3422 75.1874 79.351 79.0713C79.3522 79.4456 79.2281 79.5461 78.9107 79.5405C77.9499 79.5238 76.9892 79.5168 76.0284 79.5433C75.6546 79.5531 75.5793 79.3855 75.5806 79.0112C75.5906 75.8717 75.5856 72.7308 75.5881 69.5913C75.5881 69.3665 75.5317 69.1081 75.8038 69.0034Z" fill="#7B61FE"/>
<path d="M30.2581 67.4615C31.2327 67.7339 32.0154 68.3498 32.6977 69.1458C32.8784 69.2953 33.0101 69.4894 33.1117 69.7114L33.1041 69.7003C33.7363 70.7002 34.0423 71.8258 34.0574 73.0325C34.0825 75.0086 34.0511 76.9862 34.0737 78.9637C34.0787 79.433 33.9433 79.5573 33.5381 79.5447C32.5786 79.514 31.6165 79.5126 30.6558 79.5447C30.2255 79.5601 30.1126 79.366 30.1139 78.9344C30.1177 75.3061 30.1152 71.6778 30.1177 68.0495C30.1177 67.8414 30.1051 67.6263 30.2581 67.4615Z" fill="#7B61FE"/>
<path d="M109.848 73.8719C108.575 73.8705 107.302 73.8705 106.029 73.8691C105.819 73.5982 105.957 73.2979 105.976 73.0116C106.086 71.238 105.868 69.5453 104.998 68.0105C104.868 67.808 104.74 67.6055 104.579 67.3513C106.263 67.4198 107.505 68.315 108.587 69.5635C109.494 70.7115 109.965 72.0424 109.949 73.5773C109.948 73.689 109.967 73.8105 109.848 73.8719Z" fill="#7B61FE"/>
<path d="M73.9551 73.8705C72.6556 73.8705 71.3574 73.8705 70.058 73.8705C69.8197 73.594 70.0592 73.3203 70.068 73.0451C70.1307 71.1416 69.9125 69.3177 68.8902 67.713L68.8978 67.7228C68.8049 67.6111 68.6732 67.5133 68.7773 67.3262C69.8134 67.4016 70.7115 67.9044 71.5982 68.4462C72.11 68.8233 72.5365 69.2981 72.8751 69.8679C72.9491 69.9978 73.0231 70.1291 73.0971 70.259C73.7769 71.3469 74.1382 72.5284 73.9551 73.8705Z" fill="#7B61FE"/>
<path d="M42.7997 67.3219C44.0051 67.5007 45.0976 67.9727 46.032 68.8581C46.2967 69.0397 46.525 69.2617 46.6629 69.5816C46.7783 69.7617 46.8925 69.9419 47.0079 70.122C47.6413 71.0661 47.9511 72.1429 48.0452 73.3034C48.0615 73.5045 48.0815 73.7238 47.9009 73.8704C46.6241 73.8704 45.3472 73.869 44.0703 73.869C43.9173 73.7489 43.9737 73.573 43.99 73.4235C44.1719 71.756 44.0252 70.1458 43.3667 68.6109C43.24 68.3135 43.0769 68.0551 42.9051 67.7953C42.811 67.6529 42.6367 67.5328 42.7997 67.3219Z" fill="#7B61FE"/>
<path d="M13.2613 67.0231C12.4447 67.8708 11.578 67.9686 10.6573 67.315C9.9261 66.6014 9.65642 65.7201 10.0202 64.702C10.3011 63.9157 10.2384 63.2216 9.80945 62.5457L9.82575 62.5569C9.94742 62.1491 10.2158 62.4354 10.4178 62.4019C11.4325 62.6239 12.3682 63.0317 13.1358 63.8361C13.3102 63.9912 13.4456 64.1811 13.546 64.4017L13.5385 64.3906C14.0038 65.4115 13.9185 66.2201 13.2613 67.0231Z" fill="#7B61FE"/>
<path d="M19.0812 65.2229C18.4101 65.586 17.7391 65.6335 17.068 65.2215C15.8112 64.0819 15.7736 62.3725 16.9865 61.4661C17.1822 61.3655 17.3791 61.2664 17.5748 61.1658C17.951 61.089 18.3273 61.0192 18.6961 61.2063C19.046 61.3781 19.3935 61.5527 19.6531 61.8837C20.5562 62.8557 20.1862 64.7858 19.0812 65.2229Z" fill="#7B61FE"/>
<path d="M81.8985 67.875C82.7138 67.2451 83.5667 66.9225 84.5288 67.4658C85.4482 67.9979 85.7166 69.2771 85.1609 70.2408L85.1672 70.2296C85.0606 70.488 84.8825 70.6681 84.6617 70.8008C84.4548 70.8986 84.3155 71.1681 84.0446 71.1081C83.7549 71.1779 83.4664 71.1863 83.1766 71.1039C82.5671 71.0578 82.2159 70.4559 81.6828 70.2422C81.4169 70.1318 81.1497 70.1486 80.8825 70.2366L80.8324 70.2282L80.7872 70.2533C80.2905 70.3693 80.4636 69.9992 80.5439 69.7855C80.6931 69.3903 80.9352 69.0495 81.1798 68.7185L81.1735 68.7269C81.3504 68.3736 81.6301 68.1306 81.8985 67.875Z" fill="#7B61FE"/>
<path d="M58.003 62.3041C60.1315 62.3222 62.2613 62.339 64.3898 62.3599C64.4262 62.3599 64.4613 62.4046 64.5378 62.4563C63.9471 63.0261 63.2835 63.4926 62.8433 64.2146C62.7291 64.5037 62.4958 64.688 62.3315 64.9338L62.3391 64.9241C61.9991 65.5274 61.5915 66.0818 61.3181 66.7326C61.2654 66.8583 61.2077 66.991 61.0471 66.9491C60.9205 66.9156 60.9217 66.7857 60.9004 66.6754C60.7449 65.8723 60.3773 65.181 59.986 64.5009L59.9935 64.5107C59.8405 64.3501 59.7251 64.1531 59.5922 63.973C59.1118 63.4046 58.5524 62.9521 57.944 62.568C57.8913 62.4605 57.8788 62.3641 58.003 62.3041Z" fill="#7C62FE"/>
<path d="M88.4271 77.4303C89.2373 78.1845 90.0526 78.9274 91.0673 79.3297C91.1439 79.4288 91.1551 79.5196 91.0372 79.5922C89.5145 79.5922 87.9918 79.5936 86.4691 79.5936C86.1367 79.5503 86.1154 79.3003 86.1179 78.9959C86.128 77.8158 86.1192 76.6371 86.1242 75.457C86.1254 75.2391 86.0502 74.9332 86.3261 74.8788C86.5494 74.8341 86.5657 75.1427 86.6723 75.295L86.6648 75.2852C86.8002 75.4681 86.9583 75.6329 87.0448 75.8564L87.0386 75.8466C87.2781 76.1874 87.5992 76.4485 87.8112 76.8186L87.8087 76.8172C88.037 76.9918 88.249 77.1901 88.4271 77.4303Z" fill="#7C63FE"/>
<path d="M9.77681 78.9079C9.94991 78.7236 10.1243 78.5378 10.2973 78.3535C10.5043 78.2082 10.6736 78.0225 10.8028 77.7893C10.927 77.6468 11.0524 77.5044 11.1766 77.3619C11.3083 77.1818 11.4262 76.989 11.5755 76.8228L11.5692 76.834C11.6507 76.6064 11.8238 76.4527 11.938 76.2516C12.0182 76.1162 12.0998 75.9807 12.18 75.8452C12.4459 75.3969 12.614 74.89 12.8574 74.4291C12.9414 74.2713 12.9426 73.9557 13.201 74.0437C13.4243 74.1191 13.3653 74.3886 13.3678 74.5911C13.3729 74.9863 13.3691 75.383 13.3691 75.7782C13.3691 76.8494 13.3628 77.9191 13.3729 78.9903C13.3754 79.2948 13.3553 79.5476 13.0217 79.5922C11.948 79.5811 10.8731 79.5797 9.79939 79.5531C9.62379 79.549 9.34157 79.7277 9.29517 79.3255C9.46826 79.204 9.61877 79.0518 9.77681 78.9079Z" fill="#7C63FE"/>
<path d="M95.0886 70.819C94.7876 70.4894 94.4853 70.1598 94.1843 69.8302C94.0288 69.6906 93.8895 69.5272 93.7114 69.421C92.8372 68.6557 91.8162 68.1599 90.8755 67.4589C92.57 67.4589 94.2658 67.4589 95.9604 67.4589C96.0657 67.5873 96.0883 67.7438 96.0896 67.91C96.0958 69.0901 96.1009 70.2702 96.0846 71.4503C96.0808 71.6695 96.1473 72.0955 95.717 71.7868C95.633 71.6472 95.549 71.5061 95.4649 71.3665C95.352 71.1724 95.2128 71.002 95.0886 70.819Z" fill="#7B61FE"/>
<path d="M33.5268 0.847778C33.0464 2.25413 33.1267 3.72472 33.1267 5.18694C33.1279 19.8482 33.1267 34.5094 33.1292 49.1721C33.1292 49.7056 33.1329 50.2447 33.1869 50.774C33.3035 51.8982 33.7601 52.8451 34.4888 53.63C33.3361 52.9596 33.0602 51.732 33.0188 50.4681C32.9511 48.376 33 46.2798 33 44.1863C33 30.3868 33 16.5872 32.9987 2.78762C33 2.07816 33.0966 1.40781 33.5268 0.847778Z" fill="#FDFDFD"/>
<path d="M56.2094 69.4042C56.3499 69.4796 56.4214 69.6165 56.4891 69.7645C57.1765 71.2519 57.8613 72.7406 58.56 74.221C58.7218 74.5632 58.723 74.8592 58.5637 75.2056C57.9629 76.5086 57.3834 77.8242 56.7914 79.1328C56.6923 79.3534 56.6083 79.6858 56.316 79.5629C56.0514 79.4526 55.7253 79.204 55.7642 78.8842C55.8131 78.4792 55.6375 78.2152 55.5045 77.9177C53.2781 72.9445 51.043 67.9741 48.8116 63.0037C48.4918 62.29 48.4943 62.2873 49.2431 62.2873C50.2465 62.2859 51.25 62.3096 52.2509 62.2761C52.7187 62.2607 52.9997 62.392 53.2368 62.8906C53.7535 63.9771 54.2891 65.0511 54.7018 66.1949C54.6717 66.2046 54.6428 66.2144 54.6127 66.2228C54.3104 66.1223 54.2352 65.8094 54.111 65.5483C53.7284 64.748 53.3961 63.9198 52.9821 63.1364C52.7777 62.7495 52.5155 62.5861 52.1154 62.5959C51.3227 62.6141 50.5287 62.5987 49.7348 62.6015C49.0186 62.6043 49.0073 62.6252 49.3434 63.3752C50.0709 64.998 50.7934 66.6236 51.5247 68.2436C53.026 71.5661 54.5086 74.8997 56.0087 78.2236C56.084 78.3898 56.1542 78.5588 56.2408 78.718C56.3662 78.9484 56.5004 78.9428 56.6058 78.7096C57.1702 77.4638 57.756 76.2307 58.2815 74.964C58.4107 74.6511 58.2577 74.376 58.1373 74.1051C57.5616 72.8146 56.8918 71.5773 56.3574 70.2631C56.2558 70.0131 56.0878 69.7841 56.1492 69.4796C56.1705 69.4587 56.1906 69.4321 56.2094 69.4042Z" fill="#FDFDFD"/>
<path d="M30.2582 67.4615C30.2406 67.6682 30.2067 67.8749 30.2067 68.0816C30.203 71.6597 30.2143 75.2363 30.1942 78.8129C30.1917 79.3604 30.3259 79.5461 30.8264 79.5224C31.7219 79.4805 32.62 79.5056 33.5168 79.5126C33.804 79.5154 33.9997 79.4637 33.9897 79.0629C33.9332 76.7893 34.0825 74.5129 33.9044 72.2406C33.8316 71.3105 33.4165 70.527 33.1041 69.6975C33.8454 70.4865 34.075 71.5395 34.1088 72.5926C34.1766 74.7307 34.1189 76.8745 34.1364 79.0154C34.1402 79.4763 33.9997 79.6215 33.5933 79.6104C32.5698 79.5852 31.5451 79.5852 30.5203 79.6104C30.1102 79.6201 29.9797 79.4679 29.981 79.0112C29.9935 75.334 29.9872 71.6555 29.9897 67.9783C29.9923 67.759 29.9396 67.4895 30.2582 67.4615Z" fill="#FDFDFD"/>
<path d="M23.2617 68.8665C23.0434 69.0551 23.0936 69.3232 23.0936 69.5746C23.0924 72.6694 23.1037 75.7628 23.0823 78.8576C23.0786 79.3828 23.214 79.5448 23.6844 79.5238C24.5611 79.4847 25.4391 79.4931 26.3171 79.521C26.7373 79.5336 26.9054 79.4107 26.9029 78.9023C26.8853 75.3201 26.8941 71.7365 26.8929 68.1543C26.8929 67.9113 26.9618 67.6138 26.6094 67.5831C26.8878 67.3834 27.081 67.3959 27.1048 67.8289C27.1111 67.9448 27.1073 68.0607 27.1073 68.178C27.1073 71.7365 27.0935 75.2936 27.1211 78.8521C27.1262 79.4819 26.9556 79.6481 26.4125 79.623C25.4329 79.5755 24.4495 79.595 23.4686 79.6174C23.0873 79.6258 22.9607 79.4791 22.9632 79.0546C22.9745 75.8229 22.9694 72.5898 22.9694 69.3581C22.9669 69.1193 22.9418 68.8637 23.2617 68.8665Z" fill="#FDFDFD"/>
<path d="M75.8039 69.0034C75.6245 69.1808 75.6471 69.4182 75.6471 69.65C75.6471 72.7225 75.6571 75.7949 75.6383 78.866C75.6358 79.3548 75.7625 79.5112 76.2028 79.4945C77.0795 79.4596 77.9588 79.4735 78.8355 79.4889C79.1579 79.4945 79.2733 79.3688 79.2733 79.0043C79.2645 75.1637 79.2632 71.3231 79.277 67.4839C79.2783 67.1222 79.1353 67.125 78.9095 67.1739C78.9823 67.023 79.0776 66.875 79.2457 66.9323C79.5003 67.0175 79.4062 67.2786 79.4062 67.4686C79.4125 70.3748 79.41 73.2811 79.41 76.1874C79.41 77.1412 79.3962 78.0937 79.4163 79.0476C79.425 79.4707 79.2971 79.623 78.912 79.6132C77.9525 79.5908 76.9905 79.5922 76.0309 79.6118C75.6622 79.6202 75.5129 79.4987 75.5154 79.0601C75.528 75.8745 75.5217 72.689 75.5229 69.5034C75.5229 69.2771 75.4828 69.0132 75.8039 69.0034Z" fill="#FDFDFD"/>
<path d="M6.26983 79.2347C5.50095 78.2781 5.22375 77.0742 4.99798 75.8774C4.26923 72.0214 4.29056 68.1836 5.39182 64.4017C5.55739 63.8333 5.74177 63.2621 6.14314 62.8278C5.92364 63.7453 5.44074 64.5442 5.24758 65.4854C4.85624 67.3918 4.62169 69.3218 4.67813 71.2617C4.74085 73.4306 4.93652 75.598 5.63139 77.6678C5.81452 78.2096 6.17952 78.651 6.26983 79.2347Z" fill="#FDFDFD"/>
<path d="M1.53724 65.5092C1.04932 66.6599 0.521268 67.787 0.356956 69.076C-0.0256027 72.0647 0.448519 74.7964 2.23337 77.1566C2.31239 77.2613 2.41274 77.3549 2.40019 77.5141C1.22116 76.4499 0.706903 74.943 0.324344 73.404C-0.346701 70.7072 0.0446375 68.1347 1.30269 65.7228C1.3491 65.6293 1.45697 65.579 1.53724 65.5092Z" fill="#FDFDFD"/>
<path d="M19.7697 79.5965C19.7848 78.7641 19.8111 77.9331 19.8124 77.1008C19.8174 73.9752 19.8174 70.8497 19.8086 67.7242C19.8073 67.4812 19.9516 67.1432 19.5803 67.0384C19.7384 66.8597 19.8763 66.8597 19.9416 67.1194C19.9742 67.2493 19.9566 67.396 19.9566 67.5342C19.9566 71.3315 19.9591 75.1288 19.9528 78.9261C19.9516 79.1579 20.0595 79.4512 19.7697 79.5965Z" fill="#FDFDFD"/>
<path d="M102.603 75.7126C101.745 74.6735 101.541 73.3705 101.543 72.0508C101.546 70.4587 101.879 68.935 102.764 67.6236C102.793 67.4937 102.839 67.3918 102.986 67.449C102.675 68.2507 102.158 68.942 101.985 69.8176C101.603 71.7421 101.529 73.6247 102.528 75.3816C102.581 75.4724 102.579 75.6009 102.603 75.7126Z" fill="#FDFDFD"/>
<path d="M66.852 76.0212C65.6943 74.6023 65.4873 72.8873 65.6642 71.0801C65.7683 70.0173 65.979 68.9755 66.5999 68.104C66.6124 68.5453 66.3314 68.8665 66.216 69.2604C65.5626 71.5019 65.5588 73.6596 66.7792 75.6944C66.8332 75.7824 66.8294 75.9109 66.852 76.0212Z" fill="#FDFDFD"/>
<path d="M36.6576 70.1179C36.3641 70.9 35.9928 71.6444 35.8711 72.5061C35.6303 74.2141 35.969 75.7517 36.867 77.1497C36.936 77.2572 36.9724 77.3913 37.0226 77.5128C36.1433 76.6776 35.8109 75.5185 35.6617 74.3286C35.4873 72.9488 35.7093 71.6011 36.3854 70.3861C36.4556 70.2632 36.5284 70.1584 36.6576 70.1179Z" fill="#FDFDFD"/>
<path d="M15.4412 69.9685C16.1335 70.5956 16.1712 71.495 16.1837 72.365C16.2138 74.499 16.1925 76.633 16.1962 78.7669C16.1962 79.0435 16.2238 79.3214 16.2376 79.5979C15.9692 79.4345 16.0746 79.1482 16.0733 78.9136C16.0645 77.1567 16.0671 75.3984 16.0696 73.6415C16.0708 72.3706 16.0043 71.1179 15.4412 69.9685Z" fill="#FDFDFD"/>
<path d="M42.7997 67.3219C42.9038 67.8065 43.26 68.1291 43.4419 68.5718C44.0866 70.1346 44.2898 71.7574 44.0653 73.4543C44.0477 73.5897 44.0665 73.7308 44.0678 73.869C43.6815 73.5646 43.9223 73.1289 43.9336 72.7825C43.9938 70.9656 43.7944 69.245 42.7571 67.7506C42.6906 67.6529 42.3871 67.4113 42.7997 67.3219Z" fill="#FDFDFD"/>
<path d="M13.0217 79.5923C13.2011 79.4819 13.2763 79.3213 13.2751 79.0839C13.265 77.4904 13.265 75.8969 13.2588 74.3034C13.2588 74.242 13.2186 74.1791 13.1747 74.0562C12.732 74.6121 12.6818 75.3913 12.1788 75.8452C12.4435 75.1707 12.7056 74.4948 12.9741 73.823C13.028 73.6861 13.1371 73.5995 13.2751 73.6359C13.4269 73.6764 13.4319 73.83 13.4319 73.971C13.4319 75.7279 13.4306 77.4862 13.4331 79.2431C13.4344 79.5741 13.2563 79.6174 13.0217 79.5923Z" fill="#FDFDFD"/>
<path d="M95.7158 71.7868C96.0432 71.9223 95.9817 71.65 95.9817 71.4628C95.9767 70.1277 95.9679 68.7926 95.9592 67.4589C96.2727 67.4994 96.215 67.7689 96.2163 67.991C96.22 69.2241 96.2201 70.4559 96.215 71.6891C96.215 71.8637 96.2777 72.1095 96.0633 72.1639C95.8249 72.2226 95.7371 72.0215 95.7158 71.7868Z" fill="#FDFDFD"/>
<path d="M62.7468 69.9783C62.0983 71.2771 61.697 72.6374 61.8262 74.1568C61.8839 74.8356 62.1234 75.4542 62.2451 76.1092C61.4938 74.8509 61.4662 73.4823 61.7885 72.0801C61.9666 71.3078 62.1272 70.509 62.7468 69.9783Z" fill="#FDFDFD"/>
<path d="M104.998 68.0105C105.656 68.8135 105.818 69.8302 106.004 70.8441C106.189 71.8539 106.042 72.8608 106.029 73.8705C105.775 73.8705 105.819 73.7239 105.834 73.506C105.924 72.2407 105.95 70.9712 105.606 69.7423C105.442 69.1501 105.202 68.5859 104.998 68.0105Z" fill="#FDFDFD"/>
<path d="M98.3711 70.5369C97.8845 71.8762 97.5634 73.2323 97.828 74.7056C97.9735 75.5157 98.3486 76.2028 98.6182 76.9444C98.0588 76.3662 97.8393 75.5995 97.6951 74.8048C97.4342 73.3761 97.591 72.0005 98.1742 70.6905C98.2043 70.6221 98.3034 70.5885 98.3711 70.5369Z" fill="#FDFDFD"/>
<path d="M68.889 67.713C69.762 68.7465 69.9853 70.0551 70.1145 71.3902C70.1948 72.2156 70.1396 73.0451 70.0568 73.8691C69.8172 73.763 69.8686 73.5367 69.8975 73.3384C70.1709 71.4433 69.8385 69.6836 68.9706 68.0356C68.9217 67.9434 68.9154 67.8219 68.889 67.713Z" fill="#FDFDFD"/>
<path d="M86.5495 68.8986C86.1305 68.8623 86.2798 69.224 86.2773 69.4279C86.261 70.7463 86.6511 71.9222 87.3284 72.9906C87.4212 73.1386 87.5717 73.2518 87.5654 73.4626C86.6711 72.742 86.4353 71.6317 86.1932 70.5382C86.0954 70.0941 86.0001 69.6374 86.059 69.1696C86.1117 68.7562 86.1707 68.7241 86.5495 68.8986Z" fill="#FDFDFD"/>
<path d="M59.9861 64.4995C60.6057 65.1252 60.7788 66.012 61.0798 66.9156C61.5452 66.2243 61.7923 65.4506 62.3391 64.9241C62.1246 65.681 61.5928 66.2355 61.2931 66.9407C61.214 67.1279 60.9281 67.2186 60.8766 66.903C60.7336 66.0246 60.2545 65.3137 59.9861 64.4995Z" fill="#FDFDFD"/>
<path d="M9.81064 62.547C10.3374 63.0526 10.4353 63.7187 10.1894 64.3737C9.76924 65.4952 9.95864 66.442 10.6585 67.3163C10.0264 66.9616 9.57232 65.9225 9.84325 65.0762C10.123 64.1964 10.138 63.3863 9.81064 62.547Z" fill="#FDFDFD"/>
<path d="M86.6723 75.295C86.5595 75.1749 86.4453 75.0534 86.2321 74.8258C86.2321 76.4011 86.2308 77.8466 86.2346 79.2906C86.2346 79.4484 86.3763 79.5057 86.4692 79.5923C86.2371 79.616 86.0577 79.5755 86.0577 79.2445C86.0602 77.8158 86.0577 76.3871 86.059 74.9584C86.059 74.8202 86.0552 74.661 86.2045 74.6163C86.3726 74.566 86.4829 74.6833 86.5444 74.8411C86.6008 74.9864 86.631 75.1428 86.6723 75.295Z" fill="#FDFDFD"/>
<path d="M95.9704 78.0839C96.4357 78.1328 96.3241 77.7613 96.3115 77.482C96.2589 76.2334 95.865 75.1022 95.3219 74.0269C96.2501 75.1218 96.4947 76.4723 96.4545 77.9107C96.4445 78.285 96.2037 78.2697 95.9704 78.0839Z" fill="#FDFDFD"/>
<path d="M109.848 73.8719C109.981 72.52 109.581 71.3287 108.956 70.2058C108.836 69.9908 108.711 69.7785 108.589 69.5648C109.584 70.2896 110.334 72.851 109.848 73.8719Z" fill="#FDFDFD"/>
<path d="M76.5013 28.4804C77.2889 26.9414 77.0883 25.5141 76.1124 24.1733C77.2752 24.8968 77.5674 27.5908 76.5013 28.4804Z" fill="#FDFDFD"/>
<path d="M47.8998 73.8705C48.0816 72.4795 47.5649 71.2952 47.0067 70.1221C47.664 70.7394 47.8145 71.6374 48.044 72.4865C48.1143 72.7476 48.1506 73.0269 48.1657 73.3007C48.1795 73.5325 48.2685 73.8439 47.8998 73.8705Z" fill="#FDFDFD"/>
<path d="M16.9864 61.4661C15.8676 62.8124 15.8864 63.7159 17.068 65.2215C16.4095 64.8835 15.9416 64.0176 15.983 63.2104C16.0244 62.4074 16.4509 61.6658 16.9864 61.4661Z" fill="#FDFDFD"/>
<path d="M73.9551 73.8705C73.994 72.5717 73.6541 71.3846 73.0972 70.2617C73.7394 70.8176 73.8522 71.6569 74.009 72.4557C74.0981 72.9166 74.3715 73.4194 73.9551 73.8705Z" fill="#FDFDFD"/>
<path d="M19.0812 65.2229C20.2163 64.2104 20.3606 63.3682 19.6519 61.8837C20.3932 62.3753 20.2677 63.2006 20.1674 63.9101C20.0796 64.5274 19.7848 65.1377 19.0812 65.2229Z" fill="#FDFDFD"/>
<path d="M85.1596 70.2408C85.5359 69.1501 85.3804 68.2088 84.5275 67.4658C85.5836 67.9043 85.9222 69.3889 85.1596 70.2408Z" fill="#FDFDFD"/>
<path d="M54.703 66.1978C55.3804 67.1656 55.7642 68.3024 56.2094 69.4057L56.1806 69.4336C55.9837 69.449 55.8771 69.3023 55.7993 69.1403C55.3992 68.3136 55.0304 67.47 54.6704 66.6195C54.6177 66.4952 54.5977 66.3556 54.6717 66.2257L54.703 66.1978Z" fill="#FDFDFD"/>
<path d="M13.2612 67.0231C13.8382 66.2089 13.8382 65.3207 13.5372 64.392C14.1869 65.1 14.0439 66.4575 13.2612 67.0231Z" fill="#FDFDFD"/>
<path d="M3.0037 63.6853C2.51202 64.297 2.02159 64.9073 1.52991 65.519C1.78829 64.6741 2.33265 64.1168 3.0037 63.6853Z" fill="#FDFDFD"/>
<path d="M81.181 68.7185C80.9991 69.0732 80.8097 69.4238 80.6391 69.7855C80.5463 69.9824 80.4058 70.2296 80.7884 70.2533C80.6843 70.4084 80.5338 70.4265 80.4046 70.3427C80.2591 70.2492 80.3632 70.0997 80.3983 69.9782C80.5463 69.4727 80.757 69.0132 81.181 68.7185Z" fill="#FDFDFD"/>
<path d="M72.8751 69.8693C72.4499 69.3959 72.0235 68.9211 71.5983 68.4476C72.2154 68.7088 72.6406 69.1822 72.8751 69.8693Z" fill="#FDFDFD"/>
<path d="M75.6383 29.4649C75.928 29.1325 76.219 28.8002 76.5088 28.4678C76.3984 28.9957 76.0848 29.3029 75.6383 29.4649Z" fill="#FDFDFD"/>
<path d="M99.7095 68.7129C99.4837 69.1053 99.1701 69.4028 98.8616 69.7073C98.977 69.1989 99.2943 68.9028 99.7095 68.7129Z" fill="#FDFDFD"/>
<path d="M87.8112 76.8172C87.5089 76.5379 87.1853 76.2795 87.0386 75.8452C87.3772 76.091 87.7134 76.3368 87.8112 76.8172Z" fill="#FDFDFD"/>
<path d="M62.2375 76.0967C62.516 76.4263 62.6853 76.8299 62.8659 77.2265C62.4533 76.9905 62.3291 76.5548 62.2375 76.0967Z" fill="#FDFDFD"/>
<path d="M81.8985 67.875C81.6577 68.1585 81.4156 68.4434 81.1748 68.7269C81.2538 68.2716 81.5235 68.0188 81.8985 67.875Z" fill="#FDFDFD"/>
<path d="M6.13693 62.8361C6.24354 62.5777 6.27992 62.3627 5.91492 62.4032C6.09052 62.237 6.35768 62.2007 6.44799 62.378C6.57091 62.6182 6.31754 62.7411 6.13693 62.8361Z" fill="#FDFDFD"/>
<path d="M103.238 76.5393C102.968 76.3131 102.703 76.0826 102.597 75.7028C102.892 75.9053 103.176 76.1161 103.238 76.5393Z" fill="#FDFDFD"/>
<path d="M62.8608 77.2195C63.1104 77.4653 63.3776 77.6943 63.5043 78.0574C63.197 77.8661 62.9148 77.651 62.8608 77.2195Z" fill="#FDFDFD"/>
<path d="M18.696 61.2063C18.3248 61.1044 17.9497 61.156 17.5747 61.1658C17.9548 60.9717 18.3298 60.9046 18.696 61.2063Z" fill="#FDFDFD"/>
<path d="M46.663 69.5802C46.4523 69.3386 46.2428 69.0984 46.0321 68.8568C46.4021 68.9266 46.6216 69.1571 46.663 69.5802Z" fill="#FDFDFD"/>
<path d="M98.869 69.6975C98.7511 70.0187 98.5968 70.312 98.3635 70.5466C98.3899 70.1598 98.5404 69.8637 98.869 69.6975Z" fill="#FDFDFD"/>
<path d="M34.0072 0C33.9069 0.330988 33.7426 0.61589 33.5181 0.860291C33.5331 0.46925 33.705 0.188538 34.0072 0Z" fill="#FDFDFD"/>
<path d="M71.6647 78.0811C71.2683 78.2585 70.8707 78.2236 70.4744 78.0797C70.872 78.0811 71.2683 78.0811 71.6647 78.0811Z" fill="#FDFDFD"/>
<path d="M62.3329 64.9338C62.4107 64.6126 62.6276 64.4143 62.8446 64.2159C62.8346 64.5972 62.5963 64.776 62.3329 64.9338Z" fill="#FDFDFD"/>
<path d="M88.4271 77.4304C88.1737 77.2852 87.9655 77.0827 87.8087 76.8159C88.1398 76.8648 88.3217 77.1008 88.4271 77.4304Z" fill="#FDFDFD"/>
<path d="M2.6449 77.7822C2.93464 77.8604 3.12404 78.0741 3.26953 78.3492C2.9522 78.3087 2.79792 78.0476 2.6449 77.7822Z" fill="#FDFDFD"/>
<path d="M107.541 78.0826C107.184 78.2571 106.826 78.2264 106.47 78.0812C106.828 78.0812 107.184 78.0826 107.541 78.0826Z" fill="#FDFDFD"/>
<path d="M45.9305 78.3702C45.7988 78.1426 45.5781 78.2473 45.4 78.1956C45.3724 78.1342 45.3887 78.0965 45.4489 78.0811C45.6496 78.0685 45.8515 78.0546 46.0522 78.042C46.1789 77.9987 46.3081 77.9512 46.2654 78.197L46.2855 78.1859C46.1877 78.2962 46.0898 78.4065 45.9305 78.3702Z" fill="#927DFE"/>
<path d="M10.4178 62.4032C10.2221 62.4647 9.98001 62.2999 9.82573 62.5582C9.75047 62.4842 9.4507 62.4214 9.7718 62.3082C9.9637 62.2398 10.2233 62.2049 10.4178 62.4032Z" fill="#FDFDFD"/>
<path d="M84.6617 70.8008C84.8298 70.6109 84.9992 70.4209 85.1672 70.2296C85.1534 70.5913 84.9766 70.7715 84.6617 70.8008Z" fill="#FDFDFD"/>
<path d="M83.1779 71.1039C83.4676 71.1053 83.7561 71.1067 84.0458 71.1081C83.7548 71.2882 83.4663 71.2938 83.1779 71.1039Z" fill="#FDFDFD"/>
<path d="M102.987 67.4477C102.913 67.5063 102.839 67.5636 102.765 67.6222C102.633 67.3932 102.416 67.491 102.234 67.4519C102.484 67.294 102.734 67.2172 102.987 67.4477Z" fill="#9C88FE"/>
<path d="M37.622 68.8525C37.5167 69.0941 37.3574 69.2785 37.1404 69.3986C37.178 69.0816 37.3398 68.9014 37.622 68.8525Z" fill="#FDFDFD"/>
<path d="M10.8028 77.7893C10.7451 78.1007 10.5758 78.2879 10.2974 78.3535C10.4165 78.1105 10.5858 77.9234 10.8028 77.7893Z" fill="#FDFDFD"/>
<path d="M107.99 78.3423C108.013 78.2459 108.187 78.1649 108.012 78.0504C108.126 77.9331 108.285 77.8493 108.323 78.0741C108.359 78.2976 108.156 78.3325 107.99 78.3423Z" fill="#FDFDFD"/>
<path d="M45.4501 78.0826C45.4338 78.1217 45.4175 78.1594 45.4012 78.1971C45.1039 78.1664 44.7941 78.2446 44.5106 78.0812C44.8229 78.0812 45.1365 78.0826 45.4501 78.0826Z" fill="#FDFDFD"/>
<path d="M87.0461 75.8564C86.8554 75.7195 86.7137 75.5407 86.666 75.2852C86.8918 75.3927 87.0624 75.5477 87.0461 75.8564Z" fill="#FDFDFD"/>
<path d="M33.1117 69.7115C32.9147 69.5774 32.8006 69.3665 32.6978 69.1459C32.9561 69.2255 33.1192 69.3903 33.1117 69.7115Z" fill="#FDFDFD"/>
<path d="M11.9367 76.2517C11.9129 76.524 11.7599 76.6944 11.568 76.8341C11.5467 76.5268 11.7285 76.3788 11.9367 76.2517Z" fill="#FDFDFD"/>
<path d="M103.732 76.9988C103.527 76.8968 103.353 76.7558 103.236 76.5365C103.505 76.5533 103.658 76.7236 103.732 76.9988Z" fill="#FDFDFD"/>
<path d="M11.5755 76.8242C11.5115 77.0672 11.3961 77.2628 11.1766 77.3633C11.1967 77.0798 11.3485 76.9164 11.5755 76.8242Z" fill="#FDFDFD"/>
<path d="M63.1081 69.4098C63.0855 69.6807 62.9174 69.8371 62.7405 69.988C62.7242 69.6863 62.9023 69.5369 63.1081 69.4098Z" fill="#FDFDFD"/>
<path d="M98.6106 76.9359C98.785 77.0867 98.948 77.246 98.9756 77.5113C98.7737 77.3828 98.5968 77.2334 98.6106 76.9359Z" fill="#FDFDFD"/>
<path d="M93.7102 69.421C93.9448 69.4476 94.0915 69.5984 94.1831 69.8302C93.946 69.8079 93.8193 69.6277 93.7102 69.421Z" fill="#FDFDFD"/>
<path d="M37.0087 69.5522C36.9836 69.8176 36.8306 69.9824 36.65 70.1276C36.6324 69.8302 36.8105 69.6835 37.0087 69.5522Z" fill="#FDFDFD"/>
<path d="M64.129 68.442C63.981 68.6221 63.8481 68.8261 63.6047 68.8582C63.7189 68.6235 63.8581 68.4308 64.129 68.442Z" fill="#FDFDFD"/>
<path d="M80.8838 70.2366C81.151 70.0718 81.4181 70.0746 81.684 70.2422C81.4169 70.2408 81.1497 70.2394 80.8838 70.2366Z" fill="#FDFDFD"/>
<path d="M40.744 67.8652C40.8293 67.6851 40.9133 67.5035 40.9986 67.3234C41.2533 67.7018 40.9096 67.7312 40.744 67.8652Z" fill="#FDFDFD"/>
<path d="M95.3282 74.0366C95.1338 73.9012 95.0121 73.7001 94.9155 73.4752C95.1689 73.5562 95.3282 73.7238 95.3282 74.0366Z" fill="#FDFDFD"/>
<path d="M59.5922 63.9729C59.8129 64.0721 59.9321 64.2634 59.9935 64.5106C59.7615 64.4212 59.6135 64.255 59.5922 63.9729Z" fill="#FDFDFD"/>
<path d="M63.4918 78.042C63.7063 78.1132 63.8719 78.2501 63.9584 78.4889C63.7126 78.4568 63.5696 78.2934 63.4918 78.042Z" fill="#FDFDFD"/>
<path d="M13.5448 64.4031C13.3529 64.2635 13.2375 64.0568 13.1359 63.8375C13.3892 63.9213 13.5523 64.0861 13.5448 64.4031Z" fill="#FDFDFD"/>
<path d="M95.0886 70.819C95.3019 70.9265 95.4373 71.0997 95.4637 71.3664C95.2667 71.2449 95.1024 71.0955 95.0886 70.819Z" fill="#FDFDFD"/>
<path d="M45.9305 78.3702C46.0497 78.3088 46.1676 78.2473 46.2867 78.1873C46.1889 78.4568 46.0346 78.637 45.7487 78.6104C45.8101 78.5308 45.8703 78.4512 45.9305 78.3702Z" fill="#FDFDFD"/>
<path d="M9.77681 78.908C9.68149 79.1398 9.53097 79.2934 9.29517 79.3255C9.40178 79.1105 9.53223 78.9275 9.77681 78.908Z" fill="#FDFDFD"/>
<path d="M66.8257 67.7227C66.8759 67.5886 66.926 67.456 66.9774 67.3219C67.0527 67.3303 67.1769 67.3149 67.148 67.4364C67.1091 67.5998 66.9787 67.6906 66.8257 67.7227Z" fill="#FDFDFD"/>
<path d="M58.003 62.304C57.9842 62.392 57.9641 62.48 57.9453 62.5666C57.8324 62.5428 57.6593 62.54 57.6944 62.371C57.7258 62.2202 57.8939 62.3138 58.003 62.304Z" fill="#FDFDFD"/>
<path d="M72.2129 78.1971C72.1915 78.07 72.0874 78.0882 72.0134 78.0547C72.1376 77.915 72.2994 77.8466 72.4085 78.0183C72.465 78.1063 72.3094 78.172 72.2129 78.1971Z" fill="#FDFDFD"/>
<path d="M68.7773 67.3275C68.8175 67.4602 68.8576 67.5915 68.8977 67.7241C68.7522 67.6795 68.6168 67.5929 68.5929 67.4239C68.5779 67.308 68.7008 67.3317 68.7773 67.3275Z" fill="#FDFDFD"/>
<path d="M46.2666 78.1984C46.1951 78.1468 46.1236 78.0951 46.0533 78.0434C46.1712 77.9121 46.3381 77.8591 46.4372 77.9917C46.5137 78.0951 46.3657 78.1663 46.2666 78.1984Z" fill="#FDFDFD"/>
<path d="M89.8231 75.2922C90.0037 75.3188 90.1668 75.383 90.2797 75.5562C90.0815 75.5702 89.9134 75.5143 89.8231 75.2922Z" fill="#FDFDFD"/>
<path d="M91.0386 79.5908C91.0486 79.5028 91.0586 79.4162 91.0687 79.3282C91.1866 79.345 91.3634 79.3394 91.3434 79.507C91.3208 79.6816 91.1452 79.5768 91.0386 79.5908Z" fill="#FDFDFD"/>
<path d="M41.6609 79.9093C41.8666 79.9093 42.071 79.9093 42.2767 79.9093C42.0723 80.0811 41.8666 80.0811 41.6609 79.9093Z" fill="#FDFDFD"/>
<path d="M67.6246 79.9093C67.8303 79.9093 68.0348 79.9107 68.2405 79.9107C68.0348 80.0811 67.8303 80.0825 67.6246 79.9093Z" fill="#FDFDFD"/>
<path d="M103.624 79.9092C103.83 79.9092 104.034 79.9078 104.24 79.9078C104.034 80.0824 103.828 80.081 103.624 79.9092Z" fill="#FDFDFD"/>
<path d="M54.6729 66.2242C55.1257 67.3233 55.5923 68.414 56.1818 69.4321C56.819 71.0508 57.6193 72.5758 58.3505 74.1414C58.5336 74.5324 58.5437 74.8341 58.3568 75.2321C57.7848 76.4457 57.258 77.6859 56.7112 78.9135C56.6484 79.0545 56.6221 79.2682 56.4703 79.292C56.2533 79.3255 56.2333 79.0699 56.1655 78.9177C53.7623 73.6051 51.3679 68.2869 48.9584 62.9771C48.7376 62.4911 48.848 62.392 49.2933 62.4018C50.3155 62.4255 51.3403 62.4213 52.3625 62.4018C52.6987 62.3948 52.8806 62.5247 53.0461 62.8556C53.603 63.9701 54.0358 65.1586 54.6729 66.2242Z" fill="#7B61FE"/>
</svg>
