<svg width="20" height="20" viewBox="0 0 20 20" fill="none" xmlns="http://www.w3.org/2000/svg">
<path fill-rule="evenodd" clip-rule="evenodd" d="M13.3332 1.66663C16.0946 1.66663 18.3332 3.9052 18.3332 6.66663V13.3333C18.3332 16.0947 16.0946 18.3333 13.3332 18.3333H6.6665C3.90508 18.3333 1.6665 16.0947 1.6665 13.3333V6.66663C1.6665 3.9052 3.90508 1.66663 6.6665 1.66663H13.3332ZM12.4998 4.16663H7.49984C5.71467 4.16663 4.25727 5.56993 4.17058 7.33359L4.1665 7.49996V12.5C4.1665 14.2851 5.56981 15.7425 7.33347 15.8292L7.49984 15.8333H12.4998C14.285 15.8333 15.7424 14.43 15.8291 12.6663L15.8332 12.5V7.49996C15.8332 5.7148 14.4299 4.25739 12.6662 4.17071L12.4998 4.16663Z" fill="#969696"/>
</svg>
