<svg width="20" height="20" viewBox="0 0 20 20" fill="none" xmlns="http://www.w3.org/2000/svg">
<path fill-rule="evenodd" clip-rule="evenodd" d="M13.3337 1.66663C16.0951 1.66663 18.3337 3.9052 18.3337 6.66663V13.3333C18.3337 16.0947 16.0951 18.3333 13.3337 18.3333H6.66699C3.90557 18.3333 1.66699 16.0947 1.66699 13.3333V6.66663C1.66699 3.9052 3.90557 1.66663 6.66699 1.66663H13.3337ZM12.5003 4.16663H7.50033C5.71516 4.16663 4.25776 5.56993 4.17107 7.33359L4.16699 7.49996V12.5C4.16699 14.2851 5.5703 15.7425 7.33396 15.8292L7.50033 15.8333H12.5003C14.2855 15.8333 15.7429 14.43 15.8296 12.6663L15.8337 12.5V7.49996C15.8337 5.7148 14.4304 4.25739 12.6667 4.17071L12.5003 4.16663Z" fill="#969696"/>
</svg>
