<svg width="20" height="20" viewBox="0 0 20 20" fill="none" xmlns="http://www.w3.org/2000/svg">
<path fill-rule="evenodd" clip-rule="evenodd" d="M13.3332 1.6665C16.0946 1.6665 18.3332 3.90508 18.3332 6.6665V13.3332C18.3332 16.0946 16.0946 18.3332 13.3332 18.3332H6.6665C3.90508 18.3332 1.6665 16.0946 1.6665 13.3332V6.6665C1.6665 3.90508 3.90508 1.6665 6.6665 1.6665H13.3332ZM12.4998 4.1665H7.49984C5.71467 4.1665 4.25727 5.56981 4.17058 7.33347L4.1665 7.49984V12.4998C4.1665 14.285 5.56981 15.7424 7.33347 15.8291L7.49984 15.8332H12.4998C14.285 15.8332 15.7424 14.4299 15.8291 12.6662L15.8332 12.4998V7.49984C15.8332 5.71467 14.4299 4.25727 12.6662 4.17058L12.4998 4.1665Z" fill="#969696"/>
</svg>
