<svg width="20" height="20" viewBox="0 0 20 20" fill="none" xmlns="http://www.w3.org/2000/svg">
<path fill-rule="evenodd" clip-rule="evenodd" d="M13.3337 1.66675C16.0951 1.66675 18.3337 3.90532 18.3337 6.66675V13.3334C18.3337 16.0948 16.0951 18.3334 13.3337 18.3334H6.66699C3.90557 18.3334 1.66699 16.0948 1.66699 13.3334V6.66675C1.66699 3.90532 3.90557 1.66675 6.66699 1.66675H13.3337ZM12.5003 4.16675H7.50033C5.71516 4.16675 4.25776 5.57006 4.17107 7.33371L4.16699 7.50008V12.5001C4.16699 14.2852 5.5703 15.7426 7.33396 15.8293L7.50033 15.8334H12.5003C14.2855 15.8334 15.7429 14.4301 15.8296 12.6664L15.8337 12.5001V7.50008C15.8337 5.71492 14.4304 4.25752 12.6667 4.17083L12.5003 4.16675Z" fill="#969696"/>
</svg>
