<svg width="20" height="20" viewBox="0 0 20 20" fill="none" xmlns="http://www.w3.org/2000/svg">
<path fill-rule="evenodd" clip-rule="evenodd" d="M13.3333 1.66663C16.0947 1.66663 18.3333 3.9052 18.3333 6.66663V13.3333C18.3333 16.0947 16.0947 18.3333 13.3333 18.3333H6.66663C3.9052 18.3333 1.66663 16.0947 1.66663 13.3333V6.66663C1.66663 3.9052 3.9052 1.66663 6.66663 1.66663H13.3333ZM12.5 4.16663H7.49996C5.7148 4.16663 4.25739 5.56993 4.17071 7.33359L4.16663 7.49996V12.5C4.16663 14.2851 5.56993 15.7425 7.33359 15.8292L7.49996 15.8333H12.5C14.2851 15.8333 15.7425 14.43 15.8292 12.6663L15.8333 12.5V7.49996C15.8333 5.7148 14.43 4.25739 12.6663 4.17071L12.5 4.16663Z" fill="#969696"/>
</svg>
