<svg width="20" height="20" viewBox="0 0 20 20" fill="none" xmlns="http://www.w3.org/2000/svg">
<path fill-rule="evenodd" clip-rule="evenodd" d="M13.3334 1.66663C16.0948 1.66663 18.3334 3.9052 18.3334 6.66663V13.3333C18.3334 16.0947 16.0948 18.3333 13.3334 18.3333H6.66675C3.90532 18.3333 1.66675 16.0947 1.66675 13.3333V6.66663C1.66675 3.9052 3.90532 1.66663 6.66675 1.66663H13.3334ZM12.5001 4.16663H7.50008C5.71492 4.16663 4.25752 5.56993 4.17083 7.33359L4.16675 7.49996V12.5C4.16675 14.2851 5.57006 15.7425 7.33371 15.8292L7.50008 15.8333H12.5001C14.2852 15.8333 15.7426 14.43 15.8293 12.6663L15.8334 12.5V7.49996C15.8334 5.7148 14.4301 4.25739 12.6664 4.17071L12.5001 4.16663Z" fill="#969696"/>
</svg>
