<svg width="110" height="81" viewBox="0 0 110 81" fill="none" xmlns="http://www.w3.org/2000/svg">
<path d="M6.26919 79.2348C6.42848 79.5448 6.18766 79.4443 6.08355 79.4457C5.02493 79.4666 4.09675 79.0672 3.26892 78.3493C3.04566 78.1818 2.87131 77.9471 2.64429 77.7823C2.56276 77.693 2.48123 77.6022 2.39845 77.5128C0.273678 74.7755 -0.319601 71.6444 0.453042 68.1599C0.666271 67.1991 1.08646 66.3486 1.53675 65.5092L1.52922 65.519C1.90551 64.7928 2.44235 64.2286 3.00301 63.6853C3.85719 62.9297 4.82048 62.4856 5.91297 62.4032C6.03213 62.3585 6.17511 62.3055 6.25664 62.4284C6.36577 62.5932 6.22654 62.7175 6.13498 62.8362L6.1425 62.8264C5.12904 64.7299 4.81045 66.8457 4.6662 69.0021C4.46928 71.96 4.65241 74.8733 5.56177 77.6957C5.73988 78.2488 6.00955 78.7348 6.26919 79.2348Z" fill="#7B61FE"/>
<path d="M40.7438 67.8651C38.1537 71.3998 39.8181 76.9861 43.7679 78.0015C44.0075 78.0629 44.2621 78.0559 44.5092 78.0811C44.8014 78.2068 45.1062 78.1132 45.4048 78.1425C45.5929 78.1816 45.8187 78.0392 45.9654 78.2864C45.9943 78.4777 45.8977 78.5657 45.7497 78.6118C44.7074 79.4274 43.5434 79.838 42.2778 79.9106C42.0721 79.9776 41.8677 79.9776 41.662 79.9106C39.7843 79.9092 38.2453 79.0922 37.0248 77.5141C35.3905 75.1008 35.2613 72.5087 36.6586 70.1178L36.6523 70.1276C36.7326 69.9055 36.9132 69.7603 37.0098 69.5522C37.0537 69.5005 37.0976 69.4488 37.1415 69.3986C37.2744 69.1877 37.4375 69.0075 37.6231 68.8525C38.594 67.9182 39.7266 67.4308 40.9997 67.3232C41.1025 67.6137 40.8404 67.6919 40.7438 67.8651Z" fill="#7B61FE"/>
<path d="M103.625 79.9092C101.732 79.9344 100.203 79.0839 98.9762 77.5099C98.8708 77.3046 98.699 77.1538 98.6112 76.9345L98.6175 76.9443C97.3983 74.862 97.3205 72.7266 98.3704 70.5354L98.3628 70.5452C98.5021 70.2407 98.6513 69.9433 98.8683 69.6947L98.862 69.7044C99.0715 69.2966 99.4001 69.0131 99.7099 68.7101C100.459 68.0607 101.273 67.5733 102.234 67.449C102.433 67.3666 102.631 67.2981 102.789 67.5384C102.783 67.9657 102.458 68.2143 102.323 68.5718C101.401 71.0019 101.269 73.39 102.605 75.7083L102.599 75.6985C102.793 75.9946 103.068 76.2167 103.24 76.5351L103.237 76.5323C103.414 76.6706 103.596 76.8032 103.732 76.9946C104.539 77.6873 105.437 78.0923 106.471 78.0769C106.828 78.1761 107.186 78.1719 107.543 78.0783C107.7 78.0671 107.857 78.0574 108.013 78.0462C108.283 78.1691 108.1 78.2501 107.992 78.3381C106.893 79.3101 105.659 79.8827 104.24 79.905C104.035 79.9763 103.829 79.9749 103.625 79.9092Z" fill="#7B61FE"/>
<path d="M64.1285 68.4421C64.9776 67.7536 65.9284 67.3863 66.9757 67.322C67.051 67.5147 66.9431 67.6209 66.8239 67.7228C66.7487 67.8499 66.6747 67.977 66.5994 68.1041C65.8055 69.7423 65.5182 71.4754 65.7917 73.3217C65.9397 74.3245 66.3348 75.2001 66.8515 76.0199C67.7897 77.2922 68.9688 78.0435 70.4739 78.0798C70.8703 78.1776 71.2679 78.1762 71.6642 78.0812C71.7809 78.0729 71.8963 78.0631 72.0129 78.0547C72.0807 78.0142 72.1484 77.9905 72.2186 78.0477C72.2864 78.1022 72.2375 78.1497 72.2124 78.1986C71.071 79.2949 69.7414 79.8521 68.24 79.9122C68.0343 79.9764 67.8299 79.9792 67.6242 79.9108C66.2695 79.8633 65.014 79.4974 63.9579 78.4904C63.8086 78.3326 63.6318 78.2125 63.4913 78.0435L63.5038 78.0575C63.2969 77.7712 63.0234 77.5477 62.8591 77.2196L62.8641 77.2279C62.5794 76.9025 62.4352 76.4808 62.2357 76.0981L62.2433 76.1107C61.3828 73.9627 61.5634 71.9209 62.745 69.9797L62.7387 69.9895C62.8253 69.7674 62.9958 69.6138 63.1062 69.4113C63.2718 69.2269 63.4374 69.0426 63.6029 68.8597C63.786 68.7298 63.929 68.5426 64.1285 68.4421Z" fill="#7B61FE"/>
<path d="M89.8225 75.2921C88.8704 74.9877 88.2044 74.2447 87.5647 73.4612C86.634 72.2741 86.1838 70.8859 86.1875 69.3162C86.1888 68.9028 86.2088 68.9028 86.5488 68.8972C88.4101 69.7575 90.264 70.6443 92.1379 71.4683C93.1927 71.932 94.1184 72.5814 94.9136 73.4738C95.0892 73.6274 95.2184 73.8215 95.3263 74.0352L95.32 74.0254C96.0387 75.0659 96.3222 76.2739 96.3962 77.5574C96.4137 77.8702 96.479 78.2794 95.9697 78.0825C94.733 77.5532 93.4875 77.0448 92.262 76.4834C91.5998 76.1804 90.8986 75.9723 90.279 75.5547C90.1373 75.4486 89.9642 75.4039 89.8225 75.2921Z" fill="#7B61FE"/>
<path d="M19.7698 79.5964C18.592 79.5964 17.4142 79.5978 16.2377 79.5978C16.0383 79.4163 16.1386 79.1677 16.1386 78.954C16.1298 76.8731 16.1524 74.7908 16.1248 72.7099C16.1123 71.7435 16.0621 70.7603 15.4412 69.9685C15.1189 69.5132 15.6005 69.5425 15.7272 69.4824C17.0969 68.8316 18.3575 67.9727 19.5804 67.0384C19.7159 66.9435 19.8312 66.9812 19.8751 67.1432C19.9165 67.2968 19.8927 67.4658 19.8927 67.6278C19.8927 71.4307 19.8952 75.2335 19.8877 79.0378C19.8852 79.2222 19.9943 79.4596 19.7698 79.5964Z" fill="#7B61FE"/>
<path d="M23.2625 68.8666C24.4816 68.773 25.5553 68.2088 26.6089 67.5818C26.8297 67.4798 26.9212 67.6251 26.9601 67.829C26.9952 68.0105 26.9814 68.199 26.9814 68.3848C26.9814 71.8232 26.9827 75.2615 26.9814 78.7013C26.9814 79.5337 26.9764 79.5337 26.2113 79.5351C25.3145 79.5351 24.4164 79.5155 23.5196 79.5448C23.1283 79.5574 23.0241 79.4149 23.0254 78.989C23.0392 75.8062 23.0317 72.6234 23.0342 69.4392C23.0342 69.2172 22.9765 68.9546 23.2625 68.8666Z" fill="#7B61FE"/>
<path d="M75.8034 69.0035C76.9661 68.6627 77.9758 67.9994 78.9077 67.1754C79.1774 66.9813 79.3505 66.9352 79.3492 67.4184C79.3417 71.3023 79.3417 75.1875 79.3505 79.0714C79.3517 79.4457 79.2276 79.5462 78.9102 79.5407C77.9494 79.5239 76.9887 79.5169 76.0279 79.5435C75.6541 79.5532 75.5788 79.3856 75.5801 79.0114C75.5901 75.8719 75.5851 72.731 75.5876 69.5915C75.5876 69.3666 75.5312 69.1082 75.8034 69.0035Z" fill="#7B61FE"/>
<path d="M30.2575 67.4617C31.2321 67.734 32.0148 68.3499 32.6971 69.1459C32.8777 69.2954 33.0094 69.4895 33.111 69.7116L33.1035 69.7004C33.7357 70.7003 34.0417 71.826 34.0568 73.0326C34.0819 75.0088 34.0505 76.9863 34.0731 78.9639C34.0781 79.4331 33.9426 79.5574 33.5375 79.5448C32.578 79.5141 31.6159 79.5127 30.6551 79.5448C30.2249 79.5602 30.112 79.3661 30.1133 78.9345C30.1171 75.3062 30.1145 71.6779 30.1171 68.0496C30.1171 67.8415 30.1045 67.6265 30.2575 67.4617Z" fill="#7B61FE"/>
<path d="M109.847 73.8719C108.574 73.8705 107.301 73.8705 106.028 73.8691C105.819 73.5982 105.957 73.2979 105.975 73.0116C106.086 71.238 105.868 69.5453 104.997 68.0105C104.868 67.808 104.74 67.6055 104.578 67.3513C106.263 67.4198 107.504 68.315 108.587 69.5635C109.494 70.7115 109.964 72.0424 109.949 73.5773C109.948 73.689 109.967 73.8105 109.847 73.8719Z" fill="#7B61FE"/>
<path d="M73.9542 73.8705C72.6548 73.8705 71.3566 73.8705 70.0571 73.8705C69.8188 73.594 70.0584 73.3203 70.0672 73.0451C70.1299 71.1416 69.9116 69.3177 68.8894 67.713L68.8969 67.7228C68.8041 67.6111 68.6724 67.5133 68.7765 67.3262C69.8125 67.4016 70.7106 67.9044 71.5974 68.4462C72.1091 68.8233 72.5356 69.2981 72.8743 69.8679C72.9483 69.9978 73.0223 70.1291 73.0963 70.259C73.7761 71.3469 74.1373 72.5284 73.9542 73.8705Z" fill="#7B61FE"/>
<path d="M42.7994 67.322C44.0047 67.5008 45.0972 67.9728 46.0317 68.8583C46.2963 69.0398 46.5246 69.2619 46.6626 69.5817C46.778 69.7618 46.8921 69.942 47.0075 70.1222C47.6409 71.0662 47.9507 72.143 48.0448 73.3036C48.0611 73.5047 48.0812 73.7239 47.9006 73.8706C46.6237 73.8706 45.3468 73.8692 44.07 73.8692C43.9169 73.7491 43.9734 73.5731 43.9897 73.4237C44.1716 71.7562 44.0248 70.1459 43.3663 68.6111C43.2396 68.3136 43.0766 68.0552 42.9047 67.7955C42.8107 67.653 42.6363 67.5329 42.7994 67.322Z" fill="#7B61FE"/>
<path d="M13.2604 67.0231C12.4439 67.8708 11.5771 67.9686 10.6565 67.315C9.92524 66.6014 9.65557 65.7201 10.0193 64.702C10.3003 63.9157 10.2376 63.2216 9.80859 62.5457L9.8249 62.5569C9.94657 62.1491 10.215 62.4354 10.4169 62.4019C11.4316 62.6239 12.3673 63.0317 13.135 63.8361C13.3093 63.9912 13.4448 64.1811 13.5451 64.4017L13.5376 64.3906C14.0029 65.4115 13.9176 66.2201 13.2604 67.0231Z" fill="#7B61FE"/>
<path d="M19.0802 65.223C18.4091 65.5861 17.7381 65.6336 17.0671 65.2216C15.8103 64.082 15.7726 62.3726 16.9855 61.4662C17.1812 61.3657 17.3781 61.2665 17.5738 61.1659C17.9501 61.0891 18.3264 61.0193 18.6951 61.2064C19.0451 61.3782 19.3925 61.5528 19.6521 61.8838C20.5552 62.8558 20.1852 64.7859 19.0802 65.223Z" fill="#7B61FE"/>
<path d="M81.8994 67.8751C82.7147 67.2452 83.5676 66.9226 84.5296 67.4659C85.449 67.998 85.7174 69.2773 85.1618 70.2409L85.1681 70.2297C85.0614 70.4881 84.8833 70.6683 84.6626 70.8009C84.4556 70.8987 84.3164 71.1682 84.0455 71.1082C83.7557 71.178 83.4672 71.1864 83.1775 71.104C82.5679 71.0579 82.2167 70.456 81.6836 70.2423C81.4177 70.132 81.1506 70.1487 80.8834 70.2367L80.8332 70.2283L80.7881 70.2535C80.2914 70.3694 80.4645 69.9993 80.5447 69.7856C80.694 69.3904 80.9361 69.0496 81.1807 68.7186L81.1744 68.727C81.3512 68.3737 81.631 68.1307 81.8994 67.8751Z" fill="#7B61FE"/>
<path d="M58.0032 62.304C60.1317 62.3221 62.2615 62.3389 64.3901 62.3598C64.4264 62.3598 64.4616 62.4045 64.5381 62.4562C63.9473 63.026 63.2838 63.4924 62.8435 64.2145C62.7294 64.5036 62.4961 64.6879 62.3318 64.9337L62.3393 64.9239C61.9994 65.5272 61.5917 66.0817 61.3183 66.7325C61.2656 66.8582 61.2079 66.9909 61.0474 66.949C60.9207 66.9154 60.922 66.7856 60.9006 66.6752C60.7451 65.8722 60.3776 65.1809 59.9862 64.5008L59.9938 64.5105C59.8408 64.3499 59.7254 64.153 59.5924 63.9729C59.112 63.4045 58.5526 62.952 57.9443 62.5679C57.8916 62.4604 57.879 62.364 58.0032 62.304Z" fill="#7C62FE"/>
<path d="M88.4266 77.4304C89.2368 78.1846 90.0521 78.9276 91.0669 79.3298C91.1434 79.4289 91.1547 79.5197 91.0368 79.5923C89.514 79.5923 87.9913 79.5937 86.4686 79.5937C86.1362 79.5504 86.1149 79.3005 86.1174 78.996C86.1275 77.8159 86.1187 76.6372 86.1237 75.4571C86.125 75.2392 86.0497 74.9334 86.3256 74.8789C86.5489 74.8342 86.5652 75.1428 86.6718 75.2951L86.6643 75.2853C86.7998 75.4682 86.9578 75.633 87.0443 75.8565L87.0381 75.8467C87.2776 76.1875 87.5987 76.4486 87.8107 76.8187L87.8082 76.8173C88.0365 76.9919 88.2485 77.1902 88.4266 77.4304Z" fill="#7C63FE"/>
<path d="M9.77657 78.9078C9.94966 78.7235 10.124 78.5377 10.2971 78.3534C10.5041 78.2081 10.6734 78.0224 10.8026 77.7891C10.9268 77.6467 11.0522 77.5042 11.1764 77.3618C11.3081 77.1816 11.426 76.9889 11.5752 76.8227L11.5689 76.8339C11.6505 76.6062 11.8236 76.4526 11.9377 76.2515C12.018 76.116 12.0995 75.9806 12.1798 75.8451C12.4457 75.3968 12.6138 74.8899 12.8571 74.429C12.9411 74.2712 12.9424 73.9555 13.2008 74.0435C13.424 74.1189 13.3651 74.3885 13.3676 74.591C13.3726 74.9862 13.3689 75.3828 13.3689 75.7781C13.3689 76.8492 13.3626 77.919 13.3726 78.9902C13.3751 79.2947 13.3551 79.5474 13.0214 79.5921C11.9477 79.581 10.8728 79.5796 9.79915 79.553C9.62355 79.5488 9.34133 79.7276 9.29492 79.3254C9.46801 79.2039 9.61853 79.0517 9.77657 78.9078Z" fill="#7C63FE"/>
<path d="M95.0882 70.8189C94.7871 70.4893 94.4848 70.1597 94.1838 69.8301C94.0283 69.6905 93.8891 69.5271 93.7109 69.4209C92.8367 68.6556 91.8157 68.1598 90.875 67.4587C92.5695 67.4587 94.2653 67.4587 95.9599 67.4587C96.0653 67.5872 96.0878 67.7436 96.0891 67.9098C96.0954 69.0899 96.1004 70.27 96.0841 71.4502C96.0803 71.6694 96.1468 72.0954 95.7166 71.7867C95.6325 71.6471 95.5485 71.506 95.4644 71.3664C95.3516 71.1722 95.2123 71.0018 95.0882 70.8189Z" fill="#7B61FE"/>
<path d="M33.5263 0.847656C33.0459 2.25401 33.1262 3.7246 33.1262 5.18682C33.1274 19.8481 33.1262 34.5093 33.1287 49.172C33.1287 49.7055 33.1325 50.2445 33.1864 50.7738C33.303 51.8981 33.7596 52.845 34.4883 53.6298C33.3357 52.9595 33.0597 51.7319 33.0183 50.468C32.9506 48.3759 32.9995 46.2797 32.9995 44.1862C32.9995 30.3866 32.9995 16.5871 32.9982 2.7875C32.9995 2.07804 33.0961 1.40768 33.5263 0.847656Z" fill="#FDFDFD"/>
<path d="M56.2092 69.4042C56.3497 69.4796 56.4212 69.6165 56.4889 69.7645C57.1762 71.2519 57.8611 72.7406 58.5597 74.221C58.7215 74.5632 58.7228 74.8592 58.5635 75.2056C57.9627 76.5086 57.3832 77.8242 56.7912 79.1328C56.6921 79.3534 56.608 79.6858 56.3158 79.5629C56.0511 79.4526 55.725 79.204 55.7639 78.8842C55.8128 78.4792 55.6372 78.2152 55.5043 77.9177C53.2779 72.9445 51.0428 67.9741 48.8114 63.0037C48.4915 62.29 48.494 62.2873 49.2429 62.2873C50.2463 62.2859 51.2497 62.3096 52.2506 62.2761C52.7185 62.2607 52.9995 62.392 53.2365 62.8906C53.7533 63.9771 54.2889 65.0511 54.7015 66.1949C54.6714 66.2046 54.6426 66.2144 54.6125 66.2228C54.3102 66.1223 54.2349 65.8094 54.1108 65.5483C53.7282 64.748 53.3958 63.9198 52.9819 63.1364C52.7774 62.7495 52.5153 62.5861 52.1152 62.5959C51.3225 62.6141 50.5285 62.5987 49.7345 62.6015C49.0183 62.6043 49.007 62.6252 49.3432 63.3752C50.0707 64.998 50.7932 66.6236 51.5244 68.2436C53.0258 71.5661 54.5084 74.8997 56.0085 78.2236C56.0838 78.3898 56.154 78.5588 56.2405 78.718C56.366 78.9484 56.5002 78.9428 56.6055 78.7096C57.17 77.4638 57.7557 76.2307 58.2813 74.964C58.4105 74.6511 58.2574 74.376 58.137 74.1051C57.5613 72.8146 56.8915 71.5773 56.3572 70.2631C56.2556 70.0131 56.0875 69.7841 56.149 69.4796C56.1703 69.4587 56.1904 69.4321 56.2092 69.4042Z" fill="#FDFDFD"/>
<path d="M30.2577 67.4617C30.2401 67.6684 30.2063 67.8751 30.2063 68.0817C30.2025 71.6598 30.2138 75.2364 30.1937 78.813C30.1912 79.3605 30.3254 79.5462 30.8259 79.5225C31.7214 79.4806 32.6195 79.5057 33.5163 79.5127C33.8036 79.5155 33.9992 79.4638 33.9892 79.063C33.9327 76.7894 34.082 74.513 33.9039 72.2407C33.8311 71.3106 33.416 70.5272 33.1037 69.6976C33.8449 70.4867 34.0745 71.5397 34.1083 72.5927C34.1761 74.7308 34.1184 76.8746 34.1359 79.0155C34.1397 79.4764 33.9992 79.6217 33.5928 79.6105C32.5693 79.5853 31.5446 79.5853 30.5198 79.6105C30.1097 79.6203 29.9792 79.468 29.9805 79.0114C29.993 75.3342 29.9868 71.6556 29.9893 67.9784C29.9918 67.7591 29.9391 67.4896 30.2577 67.4617Z" fill="#FDFDFD"/>
<path d="M23.2614 68.8667C23.0432 69.0552 23.0934 69.3233 23.0934 69.5747C23.0921 72.6695 23.1034 75.763 23.0821 78.8578C23.0783 79.3829 23.2138 79.5449 23.6841 79.5239C24.5609 79.4848 25.4389 79.4932 26.3169 79.5211C26.7371 79.5337 26.9052 79.4108 26.9027 78.9025C26.8851 75.3202 26.8939 71.7366 26.8926 68.1544C26.8926 67.9114 26.9616 67.6139 26.6091 67.5832C26.8876 67.3835 27.0808 67.3961 27.1046 67.829C27.1109 67.9449 27.1071 68.0608 27.1071 68.1782C27.1071 71.7366 27.0933 75.2937 27.1209 78.8522C27.1259 79.482 26.9553 79.6482 26.4122 79.6231C25.4326 79.5756 24.4493 79.5952 23.4684 79.6175C23.0871 79.6259 22.9604 79.4792 22.9629 79.0547C22.9742 75.823 22.9692 72.5899 22.9692 69.3583C22.9667 69.1194 22.9416 68.8639 23.2614 68.8667Z" fill="#FDFDFD"/>
<path d="M75.8041 69.0034C75.6248 69.1808 75.6474 69.4182 75.6474 69.65C75.6474 72.7225 75.6574 75.7949 75.6386 78.866C75.6361 79.3548 75.7627 79.5112 76.203 79.4945C77.0798 79.4596 77.959 79.4735 78.8358 79.4889C79.1581 79.4945 79.2735 79.3688 79.2735 79.0043C79.2647 75.1637 79.2635 71.3231 79.2773 67.4839C79.2785 67.1222 79.1355 67.125 78.9098 67.1739C78.9825 67.023 79.0778 66.875 79.2459 66.9323C79.5005 67.0175 79.4065 67.2786 79.4065 67.4686C79.4127 70.3748 79.4102 73.2811 79.4102 76.1874C79.4102 77.1412 79.3964 78.0937 79.4165 79.0476C79.4253 79.4707 79.2973 79.623 78.9123 79.6132C77.9527 79.5908 76.9907 79.5922 76.0312 79.6118C75.6624 79.6202 75.5131 79.4987 75.5157 79.0601C75.5282 75.8745 75.5219 72.689 75.5232 69.5034C75.5232 69.2771 75.483 69.0132 75.8041 69.0034Z" fill="#FDFDFD"/>
<path d="M6.27007 79.2346C5.50119 78.278 5.22399 77.0741 4.99822 75.8772C4.26948 72.0213 4.2908 68.1835 5.39207 64.4016C5.55764 63.8332 5.74202 63.262 6.14339 62.8276C5.92389 63.7452 5.44099 64.544 5.24783 65.4853C4.85649 67.3916 4.62193 69.3217 4.67838 71.2616C4.74109 73.4304 4.93676 75.5979 5.63164 77.6677C5.81476 78.2095 6.17976 78.6508 6.27007 79.2346Z" fill="#FDFDFD"/>
<path d="M1.53724 65.5093C1.04932 66.6601 0.521268 67.7871 0.356956 69.0761C-0.0256027 72.0648 0.448519 74.7965 2.23337 77.1567C2.31239 77.2615 2.41274 77.355 2.40019 77.5142C1.22116 76.4501 0.706903 74.9431 0.324344 73.4041C-0.346701 70.7073 0.0446375 68.1348 1.30269 65.723C1.3491 65.6294 1.45697 65.5791 1.53724 65.5093Z" fill="#FDFDFD"/>
<path d="M19.7695 79.5965C19.7845 78.7641 19.8109 77.9331 19.8121 77.1008C19.8171 73.9752 19.8171 70.8497 19.8084 67.7242C19.8071 67.4812 19.9513 67.1432 19.5801 67.0384C19.7381 66.8597 19.8761 66.8597 19.9413 67.1194C19.9739 67.2493 19.9564 67.396 19.9564 67.5342C19.9564 71.3315 19.9589 75.1288 19.9526 78.9261C19.9513 79.1579 20.0592 79.4512 19.7695 79.5965Z" fill="#FDFDFD"/>
<path d="M102.603 75.7125C101.745 74.6734 101.54 73.3704 101.543 72.0506C101.546 70.4585 101.879 68.9349 102.763 67.6235C102.792 67.4936 102.839 67.3917 102.985 67.4489C102.674 68.2506 102.158 68.9419 101.985 69.8175C101.603 71.742 101.529 73.6246 102.528 75.3815C102.58 75.4723 102.579 75.6007 102.603 75.7125Z" fill="#FDFDFD"/>
<path d="M66.8527 76.0212C65.695 74.6023 65.488 72.8873 65.6649 71.0801C65.769 70.0173 65.9797 68.9755 66.6006 68.104C66.6131 68.5453 66.3322 68.8665 66.2168 69.2604C65.5633 71.5019 65.5595 73.6596 66.78 75.6944C66.8339 75.7824 66.8301 75.9109 66.8527 76.0212Z" fill="#FDFDFD"/>
<path d="M36.6583 70.1179C36.3648 70.9 35.9935 71.6444 35.8719 72.5061C35.631 74.2141 35.9697 75.7517 36.8678 77.1497C36.9367 77.2572 36.9731 77.3913 37.0233 77.5128C36.144 76.6776 35.8116 75.5185 35.6624 74.3286C35.488 72.9488 35.71 71.6011 36.3861 70.3861C36.4564 70.2632 36.5291 70.1584 36.6583 70.1179Z" fill="#FDFDFD"/>
<path d="M15.4414 69.9685C16.1338 70.5956 16.1714 71.495 16.1839 72.365C16.214 74.499 16.1927 76.633 16.1965 78.7669C16.1965 79.0435 16.2241 79.3214 16.2379 79.5979C15.9695 79.4345 16.0748 79.1482 16.0736 78.9136C16.0648 77.1567 16.0673 75.3984 16.0698 73.6415C16.0711 72.3706 16.0046 71.1179 15.4414 69.9685Z" fill="#FDFDFD"/>
<path d="M42.8005 67.322C42.9046 67.8066 43.2608 68.1292 43.4426 68.572C44.0874 70.1347 44.2905 71.7575 44.066 73.4544C44.0485 73.5899 44.0673 73.7309 44.0685 73.8692C43.6822 73.5647 43.923 73.129 43.9343 72.7826C43.9945 70.9657 43.7951 69.2451 42.7578 67.7508C42.6913 67.653 42.3878 67.4114 42.8005 67.322Z" fill="#FDFDFD"/>
<path d="M13.0226 79.5921C13.2019 79.4818 13.2772 79.3212 13.2759 79.0838C13.2659 77.4903 13.2659 75.8968 13.2596 74.3033C13.2596 74.2418 13.2195 74.179 13.1756 74.0561C12.7328 74.6119 12.6827 75.3912 12.1797 75.8451C12.4443 75.1706 12.7065 74.4946 12.9749 73.8229C13.0288 73.686 13.138 73.5994 13.2759 73.6357C13.4277 73.6762 13.4327 73.8299 13.4327 73.9709C13.4327 75.7278 13.4315 77.4861 13.434 79.243C13.4352 79.574 13.2571 79.6173 13.0226 79.5921Z" fill="#FDFDFD"/>
<path d="M95.7148 71.7867C96.0422 71.9222 95.9808 71.6499 95.9808 71.4627C95.9757 70.1276 95.967 68.7925 95.9582 67.4587C96.2717 67.4992 96.2141 67.7688 96.2153 67.9908C96.2191 69.224 96.2191 70.4558 96.2141 71.689C96.2141 71.8635 96.2768 72.1093 96.0623 72.1638C95.824 72.2225 95.7362 72.0213 95.7148 71.7867Z" fill="#FDFDFD"/>
<path d="M62.7474 69.9783C62.0989 71.2771 61.6976 72.6374 61.8268 74.1568C61.8845 74.8356 62.124 75.4542 62.2457 76.1092C61.4944 74.8509 61.4668 73.4823 61.7891 72.0801C61.9672 71.3078 62.1278 70.509 62.7474 69.9783Z" fill="#FDFDFD"/>
<path d="M104.998 68.0105C105.657 68.8135 105.818 69.8302 106.004 70.8441C106.19 71.8539 106.043 72.8608 106.029 73.8705C105.776 73.8705 105.82 73.7239 105.835 73.506C105.925 72.2407 105.95 70.9712 105.606 69.7423C105.442 69.1501 105.202 68.5859 104.998 68.0105Z" fill="#FDFDFD"/>
<path d="M98.3703 70.5369C97.8836 71.8762 97.5625 73.2323 97.8272 74.7056C97.9727 75.5157 98.3477 76.2028 98.6174 76.9444C98.058 76.3662 97.8385 75.5995 97.6942 74.8048C97.4333 73.3761 97.5901 72.0005 98.1734 70.6905C98.2035 70.6221 98.3026 70.5885 98.3703 70.5369Z" fill="#FDFDFD"/>
<path d="M68.8887 67.7129C69.7617 68.7464 69.9849 70.055 70.1141 71.3901C70.1944 72.2155 70.1392 73.045 70.0564 73.869C69.8168 73.7629 69.8683 73.5366 69.8971 73.3383C70.1706 71.4431 69.8382 69.6835 68.9702 68.0355C68.9213 67.9433 68.915 67.8218 68.8887 67.7129Z" fill="#FDFDFD"/>
<path d="M86.5496 68.8986C86.1307 68.8623 86.2799 69.224 86.2774 69.4279C86.2611 70.7463 86.6512 71.9222 87.3285 72.9906C87.4213 73.1386 87.5718 73.2518 87.5656 73.4626C86.6712 72.742 86.4354 71.6317 86.1934 70.5382C86.0955 70.0941 86.0002 69.6374 86.0592 69.1696C86.1118 68.7562 86.1708 68.7241 86.5496 68.8986Z" fill="#FDFDFD"/>
<path d="M59.9863 64.4995C60.6059 65.1252 60.779 66.012 61.0801 66.9156C61.5454 66.2243 61.7925 65.4506 62.3394 64.9241C62.1249 65.681 61.5931 66.2355 61.2933 66.9407C61.2143 67.1279 60.9283 67.2186 60.8769 66.903C60.7339 66.0246 60.2547 65.3137 59.9863 64.4995Z" fill="#FDFDFD"/>
<path d="M9.811 62.5471C10.3378 63.0527 10.4356 63.7188 10.1898 64.3738C9.76961 65.4953 9.95901 66.4422 10.6589 67.3164C10.0267 66.9617 9.57269 65.9226 9.84361 65.0763C10.1233 64.1965 10.1384 63.3865 9.811 62.5471Z" fill="#FDFDFD"/>
<path d="M86.6732 75.295C86.5603 75.1749 86.4462 75.0534 86.2329 74.8258C86.2329 76.4011 86.2317 77.8466 86.2355 79.2906C86.2355 79.4484 86.3772 79.5057 86.47 79.5923C86.238 79.616 86.0586 79.5755 86.0586 79.2445C86.0611 77.8158 86.0586 76.3871 86.0598 74.9584C86.0598 74.8202 86.0561 74.661 86.2054 74.6163C86.3734 74.566 86.4838 74.6833 86.5453 74.8411C86.6017 74.9864 86.6318 75.1428 86.6732 75.295Z" fill="#FDFDFD"/>
<path d="M95.9707 78.0839C96.4361 78.1328 96.3244 77.7613 96.3119 77.482C96.2592 76.2334 95.8654 75.1022 95.3223 74.0269C96.2504 75.1218 96.495 76.4723 96.4549 77.9107C96.4449 78.285 96.204 78.2697 95.9707 78.0839Z" fill="#FDFDFD"/>
<path d="M109.847 73.872C109.98 72.5201 109.58 71.3288 108.955 70.206C108.835 69.9909 108.711 69.7786 108.588 69.5649C109.584 70.2898 110.334 72.8511 109.847 73.872Z" fill="#FDFDFD"/>
<path d="M76.5021 28.4804C77.2898 26.9414 77.0891 25.5141 76.1133 24.1733C77.276 24.8968 77.5683 27.5908 76.5021 28.4804Z" fill="#FDFDFD"/>
<path d="M47.8989 73.8705C48.0808 72.4795 47.564 71.2952 47.0059 70.1221C47.6631 70.7394 47.8136 71.6374 48.0432 72.4865C48.1134 72.7476 48.1498 73.0269 48.1648 73.3007C48.1786 73.5325 48.2677 73.8439 47.8989 73.8705Z" fill="#FDFDFD"/>
<path d="M16.9864 61.4661C15.8676 62.8124 15.8864 63.7159 17.068 65.2215C16.4095 64.8835 15.9416 64.0176 15.983 63.2104C16.0244 62.4074 16.4509 61.6658 16.9864 61.4661Z" fill="#FDFDFD"/>
<path d="M73.9556 73.8705C73.9945 72.5717 73.6546 71.3846 73.0977 70.2617C73.7399 70.8176 73.8527 71.6569 74.0095 72.4557C74.0986 72.9166 74.372 73.4194 73.9556 73.8705Z" fill="#FDFDFD"/>
<path d="M19.082 65.223C20.2172 64.2105 20.3614 63.3683 19.6527 61.8838C20.394 62.3754 20.2686 63.2008 20.1682 63.9102C20.0804 64.5275 19.7857 65.1378 19.082 65.223Z" fill="#FDFDFD"/>
<path d="M85.1595 70.2408C85.5358 69.1501 85.3803 68.2088 84.5273 67.4658C85.5835 67.9043 85.9221 69.3889 85.1595 70.2408Z" fill="#FDFDFD"/>
<path d="M54.7028 66.1978C55.3801 67.1656 55.7639 68.3024 56.2092 69.4057L56.1804 69.4336C55.9834 69.449 55.8768 69.3023 55.799 69.1403C55.3989 68.3136 55.0302 67.47 54.6702 66.6195C54.6175 66.4952 54.5974 66.3556 54.6714 66.2257L54.7028 66.1978Z" fill="#FDFDFD"/>
<path d="M13.2617 67.023C13.8387 66.2088 13.8387 65.3206 13.5377 64.3918C14.1874 65.0999 14.0444 66.4574 13.2617 67.023Z" fill="#FDFDFD"/>
<path d="M3.00309 63.6853C2.51141 64.297 2.02098 64.9073 1.5293 65.519C1.78768 64.6741 2.33204 64.1168 3.00309 63.6853Z" fill="#FDFDFD"/>
<path d="M81.1817 68.7185C80.9999 69.0732 80.8105 69.4238 80.6399 69.7855C80.5471 69.9824 80.4066 70.2296 80.7891 70.2533C80.685 70.4084 80.5345 70.4265 80.4053 70.3427C80.2598 70.2492 80.3639 70.0997 80.399 69.9782C80.5471 69.4727 80.7578 69.0132 81.1817 68.7185Z" fill="#FDFDFD"/>
<path d="M72.8745 69.8692C72.4493 69.3958 72.0229 68.9209 71.5977 68.4475C72.2148 68.7087 72.64 69.1821 72.8745 69.8692Z" fill="#FDFDFD"/>
<path d="M75.6387 29.4649C75.9284 29.1325 76.2194 28.8002 76.5091 28.4678C76.3988 28.9957 76.0852 29.3029 75.6387 29.4649Z" fill="#FDFDFD"/>
<path d="M99.7092 68.7129C99.4835 69.1053 99.1699 69.4028 98.8613 69.7073C98.9767 69.1989 99.2941 68.9028 99.7092 68.7129Z" fill="#FDFDFD"/>
<path d="M87.8117 76.8172C87.5094 76.5379 87.1858 76.2795 87.0391 75.8452C87.3777 76.091 87.7139 76.3368 87.8117 76.8172Z" fill="#FDFDFD"/>
<path d="M62.2383 76.0967C62.5167 76.4263 62.6861 76.8299 62.8667 77.2265C62.454 76.9905 62.3298 76.5548 62.2383 76.0967Z" fill="#FDFDFD"/>
<path d="M81.8976 67.875C81.6567 68.1585 81.4147 68.4434 81.1738 68.7269C81.2528 68.2716 81.5225 68.0188 81.8976 67.875Z" fill="#FDFDFD"/>
<path d="M6.13607 62.8361C6.24269 62.5777 6.27906 62.3627 5.91406 62.4032C6.08966 62.237 6.35683 62.2007 6.44714 62.378C6.57006 62.6182 6.31669 62.7411 6.13607 62.8361Z" fill="#FDFDFD"/>
<path d="M103.239 76.5394C102.969 76.3132 102.704 76.0827 102.598 75.7029C102.892 75.9054 103.177 76.1163 103.239 76.5394Z" fill="#FDFDFD"/>
<path d="M62.8613 77.2195C63.1109 77.4653 63.3781 77.6943 63.5048 78.0574C63.1975 77.8661 62.9153 77.651 62.8613 77.2195Z" fill="#FDFDFD"/>
<path d="M18.6956 61.2063C18.3243 61.1044 17.9493 61.156 17.5742 61.1658C17.9543 60.9717 18.3293 60.9046 18.6956 61.2063Z" fill="#FDFDFD"/>
<path d="M46.6622 69.5801C46.4514 69.3385 46.242 69.0983 46.0312 68.8567C46.4013 68.9265 46.6208 69.157 46.6622 69.5801Z" fill="#FDFDFD"/>
<path d="M98.8688 69.6975C98.7509 70.0187 98.5966 70.312 98.3633 70.5466C98.3896 70.1598 98.5401 69.8637 98.8688 69.6975Z" fill="#FDFDFD"/>
<path d="M34.0068 0C33.9064 0.330988 33.7421 0.61589 33.5176 0.860291C33.5326 0.46925 33.7045 0.188538 34.0068 0Z" fill="#FDFDFD"/>
<path d="M71.6649 78.0812C71.2686 78.2586 70.871 78.2237 70.4746 78.0798C70.8722 78.0812 71.2686 78.0812 71.6649 78.0812Z" fill="#FDFDFD"/>
<path d="M62.332 64.9339C62.4098 64.6127 62.6268 64.4144 62.8438 64.2161C62.8337 64.5973 62.5954 64.7761 62.332 64.9339Z" fill="#FDFDFD"/>
<path d="M88.427 77.4304C88.1736 77.2852 87.9654 77.0827 87.8086 76.8159C88.1397 76.8648 88.3216 77.1008 88.427 77.4304Z" fill="#FDFDFD"/>
<path d="M2.64453 77.7822C2.93427 77.8604 3.12367 78.0741 3.26917 78.3492C2.95183 78.3087 2.79755 78.0476 2.64453 77.7822Z" fill="#FDFDFD"/>
<path d="M107.542 78.0825C107.184 78.257 106.827 78.2263 106.471 78.0811C106.828 78.0811 107.184 78.0825 107.542 78.0825Z" fill="#FDFDFD"/>
<path d="M45.9303 78.3702C45.7986 78.1426 45.5778 78.2473 45.3997 78.1956C45.3721 78.1342 45.3884 78.0965 45.4486 78.0811C45.6493 78.0685 45.8513 78.0546 46.052 78.042C46.1786 77.9987 46.3078 77.9512 46.2652 78.197L46.2853 78.1859C46.1874 78.2962 46.0896 78.4065 45.9303 78.3702Z" fill="#927DFE"/>
<path d="M10.4184 62.4032C10.2227 62.4647 9.98062 62.2999 9.82634 62.5582C9.75108 62.4842 9.45131 62.4214 9.77241 62.3082C9.96431 62.2398 10.224 62.2049 10.4184 62.4032Z" fill="#FDFDFD"/>
<path d="M84.6621 70.8007C84.8302 70.6108 84.9995 70.4208 85.1676 70.2295C85.1538 70.5912 84.9769 70.7714 84.6621 70.8007Z" fill="#FDFDFD"/>
<path d="M83.1777 71.1038C83.4675 71.1052 83.756 71.1065 84.0457 71.1079C83.7547 71.2881 83.4662 71.2937 83.1777 71.1038Z" fill="#FDFDFD"/>
<path d="M102.987 67.4475C102.913 67.5062 102.839 67.5635 102.765 67.6221C102.633 67.3931 102.416 67.4908 102.234 67.4517C102.484 67.2939 102.734 67.2171 102.987 67.4475Z" fill="#9C88FE"/>
<path d="M37.6223 68.8525C37.5169 69.0941 37.3576 69.2785 37.1406 69.3986C37.1783 69.0816 37.3401 68.9014 37.6223 68.8525Z" fill="#FDFDFD"/>
<path d="M10.8024 77.7893C10.7447 78.1007 10.5753 78.2879 10.2969 78.3535C10.416 78.1105 10.5854 77.9234 10.8024 77.7893Z" fill="#FDFDFD"/>
<path d="M107.99 78.3424C108.013 78.246 108.187 78.165 108.012 78.0505C108.126 77.9332 108.285 77.8494 108.323 78.0743C108.359 78.2977 108.156 78.3326 107.99 78.3424Z" fill="#FDFDFD"/>
<path d="M45.4492 78.0825C45.4329 78.1216 45.4166 78.1593 45.4003 78.197C45.103 78.1662 44.7932 78.2445 44.5098 78.0811C44.8221 78.0811 45.1357 78.0825 45.4492 78.0825Z" fill="#FDFDFD"/>
<path d="M87.0461 75.8564C86.8554 75.7195 86.7137 75.5407 86.666 75.2852C86.8918 75.3927 87.0624 75.5477 87.0461 75.8564Z" fill="#FDFDFD"/>
<path d="M33.1112 69.7114C32.9143 69.5773 32.8001 69.3664 32.6973 69.1458C32.9556 69.2254 33.1187 69.3902 33.1112 69.7114Z" fill="#FDFDFD"/>
<path d="M11.9369 76.2517C11.913 76.524 11.76 76.6944 11.5681 76.8341C11.5468 76.5268 11.7287 76.3788 11.9369 76.2517Z" fill="#FDFDFD"/>
<path d="M103.732 76.9989C103.527 76.8969 103.353 76.7559 103.236 76.5366C103.505 76.5534 103.658 76.7238 103.732 76.9989Z" fill="#FDFDFD"/>
<path d="M11.5746 76.8242C11.5107 77.0672 11.3953 77.2628 11.1758 77.3633C11.1958 77.0798 11.3476 76.9164 11.5746 76.8242Z" fill="#FDFDFD"/>
<path d="M63.1088 69.4099C63.0862 69.6808 62.9181 69.8373 62.7413 69.9881C62.725 69.6864 62.9031 69.537 63.1088 69.4099Z" fill="#FDFDFD"/>
<path d="M98.6101 76.936C98.7845 77.0869 98.9475 77.2461 98.9751 77.5114C98.7732 77.3829 98.5963 77.2335 98.6101 76.936Z" fill="#FDFDFD"/>
<path d="M93.7109 69.4209C93.9455 69.4474 94.0922 69.5983 94.1838 69.8301C93.9467 69.8077 93.8201 69.6276 93.7109 69.4209Z" fill="#FDFDFD"/>
<path d="M37.0084 69.5522C36.9833 69.8176 36.8303 69.9824 36.6496 70.1276C36.6321 69.8302 36.8102 69.6835 37.0084 69.5522Z" fill="#FDFDFD"/>
<path d="M64.1298 68.4419C63.9818 68.622 63.8488 68.8259 63.6055 68.858C63.7196 68.6234 63.8588 68.4307 64.1298 68.4419Z" fill="#FDFDFD"/>
<path d="M80.8828 70.2366C81.15 70.0718 81.4171 70.0746 81.6831 70.2422C81.4159 70.2408 81.1487 70.2394 80.8828 70.2366Z" fill="#FDFDFD"/>
<path d="M40.7441 67.8651C40.8294 67.685 40.9135 67.5034 40.9988 67.3232C41.2534 67.7017 40.9097 67.731 40.7441 67.8651Z" fill="#FDFDFD"/>
<path d="M95.3287 74.0368C95.1343 73.9013 95.0126 73.7002 94.916 73.4753C95.1694 73.5563 95.3287 73.7239 95.3287 74.0368Z" fill="#FDFDFD"/>
<path d="M59.5918 63.9729C59.8126 64.0721 59.9317 64.2634 59.9932 64.5106C59.7611 64.4212 59.6131 64.255 59.5918 63.9729Z" fill="#FDFDFD"/>
<path d="M63.4922 78.042C63.7067 78.1132 63.8722 78.2501 63.9588 78.4889C63.7129 78.4568 63.57 78.2934 63.4922 78.042Z" fill="#FDFDFD"/>
<path d="M13.5456 64.403C13.3537 64.2634 13.2383 64.0567 13.1367 63.8374C13.3901 63.9212 13.5531 64.086 13.5456 64.403Z" fill="#FDFDFD"/>
<path d="M95.0879 70.8188C95.3011 70.9264 95.4366 71.0996 95.4629 71.3663C95.266 71.2448 95.1017 71.0954 95.0879 70.8188Z" fill="#FDFDFD"/>
<path d="M45.9299 78.3702C46.0491 78.3088 46.167 78.2473 46.2861 78.1873C46.1883 78.4568 46.034 78.637 45.748 78.6104C45.8095 78.5308 45.8697 78.4512 45.9299 78.3702Z" fill="#FDFDFD"/>
<path d="M9.77657 78.908C9.68124 79.1398 9.53073 79.2934 9.29492 79.3255C9.40154 79.1105 9.53198 78.9275 9.77657 78.908Z" fill="#FDFDFD"/>
<path d="M66.8262 67.7228C66.8763 67.5888 66.9265 67.4561 66.9779 67.322C67.0532 67.3304 67.1774 67.315 67.1485 67.4365C67.1096 67.5999 66.9792 67.6907 66.8262 67.7228Z" fill="#FDFDFD"/>
<path d="M58.0026 62.304C57.9838 62.392 57.9637 62.48 57.9449 62.5666C57.832 62.5428 57.659 62.54 57.6941 62.371C57.7254 62.2202 57.8935 62.3138 58.0026 62.304Z" fill="#FDFDFD"/>
<path d="M72.2131 78.1971C72.1918 78.07 72.0877 78.0882 72.0137 78.0547C72.1378 77.915 72.2996 77.8466 72.4088 78.0183C72.4652 78.1063 72.3097 78.172 72.2131 78.1971Z" fill="#FDFDFD"/>
<path d="M68.7774 67.3276C68.8176 67.4603 68.8577 67.5916 68.8979 67.7243C68.7524 67.6796 68.6169 67.593 68.5931 67.424C68.578 67.3081 68.7009 67.3318 68.7774 67.3276Z" fill="#FDFDFD"/>
<path d="M46.266 78.1984C46.1945 78.1468 46.123 78.0951 46.0527 78.0434C46.1706 77.9121 46.3375 77.8591 46.4365 77.9917C46.5131 78.0951 46.3651 78.1663 46.266 78.1984Z" fill="#FDFDFD"/>
<path d="M89.8223 75.2922C90.0029 75.3188 90.1659 75.383 90.2788 75.5562C90.0807 75.5702 89.9126 75.5143 89.8223 75.2922Z" fill="#FDFDFD"/>
<path d="M91.0391 79.5909C91.0491 79.5029 91.0591 79.4164 91.0692 79.3284C91.1871 79.3451 91.3639 79.3395 91.3439 79.5071C91.3213 79.6817 91.1457 79.577 91.0391 79.5909Z" fill="#FDFDFD"/>
<path d="M41.6602 79.9092C41.8659 79.9092 42.0703 79.9092 42.276 79.9092C42.0716 80.081 41.8659 80.081 41.6602 79.9092Z" fill="#FDFDFD"/>
<path d="M67.625 79.9092C67.8307 79.9092 68.0351 79.9106 68.2409 79.9106C68.0351 80.081 67.8307 80.0824 67.625 79.9092Z" fill="#FDFDFD"/>
<path d="M103.625 79.9094C103.831 79.9094 104.035 79.908 104.241 79.908C104.035 80.0825 103.829 80.0811 103.625 79.9094Z" fill="#FDFDFD"/>
<path d="M54.6724 66.2242C55.1252 67.3233 55.5918 68.414 56.1814 69.4321C56.8185 71.0508 57.6188 72.5758 58.35 74.1414C58.5331 74.5324 58.5432 74.8341 58.3563 75.2321C57.7843 76.4457 57.2575 77.6859 56.7107 78.9135C56.648 79.0545 56.6216 79.2682 56.4698 79.292C56.2528 79.3255 56.2328 79.0699 56.165 78.9177C53.7618 73.6051 51.3674 68.2869 48.9579 62.9771C48.7371 62.4911 48.8475 62.392 49.2928 62.4018C50.315 62.4255 51.3398 62.4213 52.362 62.4018C52.6982 62.3948 52.8801 62.5247 53.0456 62.8556C53.6025 63.9701 54.0353 65.1586 54.6724 66.2242Z" fill="#7B61FE"/>
</svg>
