<svg width="40" height="37" viewBox="0 0 40 37" fill="none" xmlns="http://www.w3.org/2000/svg">
<path d="M8.02 26.1517L4.282 3.70028H2C1.46957 3.70028 0.960859 3.50537 0.585786 3.15843C0.210714 2.81149 0 2.34094 0 1.8503C0 1.35965 0.210714 0.8891 0.585786 0.542161C0.960859 0.195222 1.46957 0.000313254 2 0.000313254H5.97C6.45249 -0.0079261 6.92171 0.146615 7.29 0.435059C7.66801 0.72909 7.9146 1.14242 7.982 1.595L8.638 5.55027H24V9.25023H9.254L11.714 24.0501H30.512L33.512 14.8002H37.688L33.916 26.431C33.7925 26.8123 33.5394 27.1465 33.1942 27.3842C32.8491 27.6218 32.4303 27.7501 32 27.7501H10.032C9.53584 27.7585 9.05423 27.5949 8.682 27.2913C8.31937 26.9979 8.08356 26.5932 8.018 26.1517H8.02ZM16 33.3C16 34.2813 15.5786 35.2224 14.8284 35.9163C14.0783 36.6102 13.0609 37 12 37C10.9391 37 9.92172 36.6102 9.17157 35.9163C8.42143 35.2224 8 34.2813 8 33.3C8 32.3187 8.42143 31.3776 9.17157 30.6838C9.92172 29.9899 10.9391 29.6001 12 29.6001C13.0609 29.6001 14.0783 29.9899 14.8284 30.6838C15.5786 31.3776 16 32.3187 16 33.3ZM34 33.3C34 34.2813 33.5786 35.2224 32.8284 35.9163C32.0783 36.6102 31.0609 37 30 37C28.9391 37 27.9217 36.6102 27.1716 35.9163C26.4214 35.2224 26 34.2813 26 33.3C26 32.3187 26.4214 31.3776 27.1716 30.6838C27.9217 29.9899 28.9391 29.6001 30 29.6001C31.0609 29.6001 32.0783 29.9899 32.8284 30.6838C33.5786 31.3776 34 32.3187 34 33.3ZM34 0.000313254C34.5304 0.000313254 35.0391 0.195222 35.4142 0.542161C35.7893 0.8891 36 1.35965 36 1.8503V3.70028H38C38.5304 3.70028 39.0391 3.89519 39.4142 4.24213C39.7893 4.58907 40 5.05962 40 5.55027C40 6.04091 39.7893 6.51146 39.4142 6.8584C39.0391 7.20534 38.5304 7.40025 38 7.40025H36V9.25023C36 9.74088 35.7893 10.2114 35.4142 10.5584C35.0391 10.9053 34.5304 11.1002 34 11.1002C33.4696 11.1002 32.9609 10.9053 32.5858 10.5584C32.2107 10.2114 32 9.74088 32 9.25023V7.40025H30C29.4696 7.40025 28.9609 7.20534 28.5858 6.8584C28.2107 6.51146 28 6.04091 28 5.55027C28 5.05962 28.2107 4.58907 28.5858 4.24213C28.9609 3.89519 29.4696 3.70028 30 3.70028H32V1.8503C32 1.35965 32.2107 0.8891 32.5858 0.542161C32.9609 0.195222 33.4696 0.000313254 34 0.000313254Z" fill="#0D0D0D"/>
</svg>
