<svg width="32" height="33" viewBox="0 0 32 33" fill="none" xmlns="http://www.w3.org/2000/svg">
<path d="M15.8566 16.9285C15.1502 16.9285 14.4597 16.719 13.8724 16.3266C13.2851 15.9342 12.8273 15.3764 12.557 14.7238C12.2867 14.0712 12.216 13.3531 12.3538 12.6603C12.4916 11.9675 12.8317 11.3312 13.3312 10.8317C13.8307 10.3322 14.467 9.99207 15.1598 9.85427C15.8526 9.71647 16.5707 9.78719 17.2233 10.0575C17.8759 10.3278 18.4337 10.7856 18.8261 11.3729C19.2186 11.9602 19.428 12.6507 19.428 13.3571C19.4269 14.3039 19.0502 15.2117 18.3807 15.8812C17.7112 16.5507 16.8034 16.9274 15.8566 16.9285V16.9285ZM15.8566 11.2142C15.4328 11.2142 15.0185 11.3399 14.6661 11.5754C14.3137 11.8108 14.039 12.1455 13.8768 12.537C13.7147 12.9286 13.6722 13.3595 13.7549 13.7751C13.8376 14.1908 14.0417 14.5726 14.3414 14.8723C14.641 15.172 15.0229 15.3761 15.4385 15.4588C15.8542 15.5414 16.2851 15.499 16.6766 15.3368C17.0682 15.1746 17.4028 14.9 17.6383 14.5476C17.8738 14.1952 17.9994 13.7809 17.9994 13.3571C17.9989 12.7889 17.7729 12.2442 17.3712 11.8425C16.9694 11.4407 16.4247 11.2148 15.8566 11.2142V11.2142Z" fill="#9DA8BE" stroke="#9DA8BE" stroke-width="0.25"/>
<path d="M15.8572 25.5L9.83144 18.3936C9.74771 18.2869 9.66485 18.1795 9.58287 18.0714C8.55357 16.7156 7.99751 15.0594 8.00001 13.3571C8.00001 11.2733 8.82781 9.2748 10.3013 7.8013C11.7748 6.3278 13.7733 5.5 15.8572 5.5C17.941 5.5 19.9395 6.3278 21.413 7.8013C22.8865 9.2748 23.7143 11.2733 23.7143 13.3571C23.7168 15.0587 23.161 16.714 22.1322 18.0693L22.1314 18.0714C22.1314 18.0714 21.9172 18.3529 21.885 18.3907L15.8572 25.5ZM10.7229 17.2107C10.7229 17.2107 10.89 17.4307 10.9279 17.4779L15.8572 23.2914L20.7929 17.47C20.8243 17.4307 20.9922 17.2086 20.9922 17.2086C21.833 16.1008 22.2874 14.7479 22.2857 13.3571C22.2857 11.6522 21.6084 10.017 20.4028 8.81146C19.1972 7.60587 17.5621 6.92857 15.8572 6.92857C14.1522 6.92857 12.5171 7.60587 11.3115 8.81146C10.1059 10.017 9.42858 11.6522 9.42858 13.3571C9.42708 14.7487 9.88128 16.1024 10.7229 17.2107Z" fill="#9DA8BE" stroke="#9DA8BE" stroke-width="0.5"/>
</svg>
