<svg width="64" height="64" viewBox="0 0 64 64" fill="none" xmlns="http://www.w3.org/2000/svg">
<path d="M32.3937 41.3125C32.347 41.3723 32.2872 41.4206 32.219 41.4538C32.1508 41.4871 32.0759 41.5043 32 41.5043C31.9241 41.5043 31.8492 41.4871 31.781 41.4538C31.7128 41.4206 31.653 41.3723 31.6063 41.3125L24.6063 32.4562C24.35 32.1312 24.5813 31.65 25 31.65H29.6312V10.5C29.6312 10.225 29.8562 10 30.1312 10H33.8813C34.1563 10 34.3813 10.225 34.3813 10.5V31.6437H39C39.4187 31.6437 39.65 32.125 39.3937 32.45L32.3937 41.3125ZM9.125 39.125H12.875C13.15 39.125 13.375 39.35 13.375 39.625V49.25H50.625V39.625C50.625 39.35 50.85 39.125 51.125 39.125H54.875C55.15 39.125 55.375 39.35 55.375 39.625V52C55.375 53.1063 54.4813 54 53.375 54H10.625C9.51875 54 8.625 53.1063 8.625 52V39.625C8.625 39.35 8.85 39.125 9.125 39.125Z" fill="#333333"/>
</svg>
