<svg width="638" height="234" viewBox="0 0 638 234" fill="none" xmlns="http://www.w3.org/2000/svg">
<path fill-rule="evenodd" clip-rule="evenodd" d="M638 0H0V234H27C27 227.373 32.3726 222 39 222C45.6274 222 51 227.373 51 234H67C67 227.373 72.3726 222 79 222C85.6274 222 91 227.373 91 234H107C107 227.373 112.373 222 119 222C125.627 222 131 227.373 131 234H147C147 227.373 152.373 222 159 222C165.627 222 171 227.373 171 234H187C187 227.373 192.373 222 199 222C205.627 222 211 227.373 211 234H227C227 227.373 232.373 222 239 222C245.627 222 251 227.373 251 234H267C267 227.373 272.373 222 279 222C285.627 222 291 227.373 291 234H307C307 227.373 312.373 222 319 222C325.627 222 331 227.373 331 234H347C347 227.373 352.373 222 359 222C365.627 222 371 227.373 371 234H387C387 227.373 392.373 222 399 222C405.627 222 411 227.373 411 234H427C427 227.373 432.373 222 439 222C445.627 222 451 227.373 451 234H467C467 227.373 472.373 222 479 222C485.627 222 491 227.373 491 234H507C507 227.373 512.373 222 519 222C525.627 222 531 227.373 531 234H547C547 227.373 552.373 222 559 222C565.627 222 571 227.373 571 234H587C587 227.373 592.373 222 599 222C605.627 222 611 227.373 611 234H638V0Z" fill="#E1DBFF"/>
</svg>
