<svg width="166" height="168" viewBox="0 0 166 168" fill="none" xmlns="http://www.w3.org/2000/svg">
<rect x="20.9492" y="54.4813" width="136.116" height="16.4856" transform="rotate(9.46961 20.9492 54.4813)" fill="#1B1A1E" stroke="white" stroke-width="2.5"/>
<rect x="19.435" y="36.5114" width="136.116" height="16.4856" transform="rotate(-5.53039 19.435 36.5114)" fill="#1B1A1E" stroke="white" stroke-width="2.5"/>
<rect x="23.5908" y="73.1479" width="124.762" height="72.2485" transform="rotate(9.46961 23.5908 73.1479)" fill="#1A2C50" stroke="white" stroke-width="2.5"/>
<rect x="34.6338" y="84.5822" width="99.2148" height="26.3586" transform="rotate(9.46961 34.6338 84.5822)" fill="#1B1A1E" stroke="white" stroke-width="2.5"/>
<rect x="30.1191" y="111.648" width="49.067" height="26.3586" transform="rotate(9.46961 30.1191 111.648)" fill="#1B1A1E" stroke="white" stroke-width="2.5"/>
<rect x="79.584" y="119.898" width="49.067" height="26.3586" transform="rotate(9.46961 79.584 119.898)" fill="#1B1A1E" stroke="white" stroke-width="2.5"/>
<circle cx="25.0927" cy="63.7374" r="2.3251" transform="rotate(9.46961 25.0927 63.7374)" fill="#1A2C50" stroke="white" stroke-width="1.5"/>
<circle cx="25.8327" cy="44.3797" r="2.3251" transform="rotate(-5.53039 25.8327 44.3797)" fill="#1A2C50" stroke="white" stroke-width="1.5"/>
<path d="M150.038 75.2254L137.747 91.4012" stroke="white" stroke-width="2.5"/>
<path d="M150.579 23.0097L142.925 41.8282" stroke="white" stroke-width="2.5"/>
<path d="M138.839 73.3572L126.548 89.5331" stroke="white" stroke-width="2.5"/>
<path d="M139.281 24.123L131.627 42.9414" stroke="white" stroke-width="2.5"/>
<path d="M127.639 71.4893L115.348 87.6651" stroke="white" stroke-width="2.5"/>
<path d="M127.981 25.2358L120.327 44.0542" stroke="white" stroke-width="2.5"/>
<path d="M116.439 69.6212L104.149 85.797" stroke="white" stroke-width="2.5"/>
<path d="M116.681 26.3488L109.027 45.1673" stroke="white" stroke-width="2.5"/>
<path d="M105.24 67.753L92.9495 83.9288" stroke="white" stroke-width="2.5"/>
<path d="M105.381 27.4621L97.7272 46.2806" stroke="white" stroke-width="2.5"/>
<path d="M94.0399 65.8851L81.7493 82.0609" stroke="white" stroke-width="2.5"/>
<path d="M94.0823 28.5751L86.4284 47.3936" stroke="white" stroke-width="2.5"/>
<path d="M82.8407 64.0172L70.5501 80.193" stroke="white" stroke-width="2.5"/>
<path d="M82.7825 29.6882L75.1286 48.5066" stroke="white" stroke-width="2.5"/>
<path d="M71.6415 62.149L59.3509 78.3248" stroke="white" stroke-width="2.5"/>
<path d="M71.4836 30.8012L63.8297 49.6197" stroke="white" stroke-width="2.5"/>
<path d="M60.4423 60.2811L48.1516 76.4569" stroke="white" stroke-width="2.5"/>
<path d="M60.1838 31.9142L52.5299 50.7327" stroke="white" stroke-width="2.5"/>
<path d="M49.2421 58.4129L36.9514 74.5887" stroke="white" stroke-width="2.5"/>
<path d="M48.884 33.0273L41.2301 51.8457" stroke="white" stroke-width="2.5"/>
</svg>
