<svg width="167" height="120" viewBox="0 0 167 120" fill="none" xmlns="http://www.w3.org/2000/svg">
<path d="M114.832 45.0743C112.119 47.1744 109.146 48.8048 106.279 50.6214C100.833 54.0705 95.3597 57.4699 89.8984 60.8921C85.3567 63.7391 80.817 66.5882 76.2773 69.4373C70.8959 72.814 65.5164 76.1968 60.1313 79.5673C58.8497 80.3701 57.5758 81.2122 56.0943 81.5246C54.7841 81.8019 53.5007 81.8039 52.362 80.8749C50.8062 79.6128 50.2159 77.819 50.214 75.8223C50.193 52.498 50.2025 29.1717 50.1987 5.84736C50.1987 4.72594 50.4463 3.67694 50.9014 2.67966L50.89 2.70035C51.0842 2.23895 51.347 1.82514 51.6326 1.42582C52.8266 -0.163206 55.5001 -0.444596 57.6767 0.685101C59.7523 1.76307 61.6927 3.09967 63.6865 4.33489C66.8799 6.31496 70.0638 8.31159 73.2439 10.3124C76.2887 12.2283 79.3203 14.169 82.3671 16.0808C85.4653 18.0257 88.5768 19.9396 91.675 21.8824C94.718 23.7901 97.7476 25.7246 100.789 27.6364C103.424 29.2937 106.09 30.8931 108.703 32.5939C111.011 34.096 113.496 35.2981 115.554 37.2368C117.325 39.3203 117.517 41.3914 116.146 43.6177L116.158 43.6012C115.834 44.2177 115.35 44.6667 114.832 45.0743Z" fill="#7B61FE"/>
<path d="M9.51835 118.809C9.76019 119.268 9.39458 119.119 9.23652 119.121C7.62935 119.152 6.22021 118.561 4.96341 117.497C4.62445 117.249 4.35976 116.901 4.0151 116.657C3.89132 116.525 3.76754 116.39 3.64186 116.258C0.416079 112.202 -0.484627 107.564 0.688385 102.401C1.01211 100.978 1.65003 99.7178 2.33365 98.4743L2.32222 98.4888C2.8935 97.4129 3.70851 96.577 4.55971 95.7721C5.8565 94.6527 7.31895 93.9948 8.97755 93.8727C9.15845 93.8065 9.37553 93.7279 9.49931 93.91C9.66498 94.1541 9.45361 94.3383 9.3146 94.5141L9.32602 94.4996C7.7874 97.3197 7.30372 100.454 7.08473 103.649C6.78577 108.031 7.06379 112.347 8.44436 116.529C8.71476 117.348 9.12418 118.068 9.51835 118.809Z" fill="#7B61FE"/>
<path d="M61.8564 101.965C57.9241 107.201 60.4511 115.478 66.4475 116.982C66.8112 117.073 67.1978 117.062 67.5729 117.1C68.0166 117.286 68.4794 117.147 68.9326 117.191C69.2182 117.249 69.561 117.038 69.7838 117.404C69.8276 117.687 69.6809 117.818 69.4562 117.886C67.8738 119.094 66.1067 119.703 64.1853 119.81C63.873 119.909 63.5626 119.909 63.2503 119.81C60.3997 119.808 58.0632 118.598 56.2103 116.26C53.7291 112.684 53.533 108.844 55.6543 105.302L55.6448 105.316C55.7666 104.988 56.0408 104.772 56.1875 104.464C56.2541 104.387 56.3208 104.311 56.3874 104.236C56.5893 103.924 56.8368 103.657 57.1186 103.427C58.5925 102.043 60.3121 101.321 62.2449 101.162C62.401 101.592 62.003 101.708 61.8564 101.965Z" fill="#7B61FE"/>
<path d="M157.32 119.808C154.447 119.845 152.125 118.585 150.263 116.253C150.103 115.949 149.842 115.726 149.709 115.401L149.718 115.415C147.867 112.331 147.749 109.167 149.343 105.921L149.332 105.935C149.543 105.484 149.77 105.043 150.099 104.675L150.09 104.69C150.408 104.085 150.907 103.665 151.377 103.216C152.514 102.254 153.75 101.532 155.208 101.348C155.511 101.226 155.812 101.125 156.052 101.48C156.042 102.114 155.549 102.482 155.344 103.012C153.944 106.612 153.744 110.15 155.772 113.584L155.762 113.57C156.058 114.009 156.475 114.338 156.736 114.809L156.732 114.805C157 115.01 157.276 115.207 157.484 115.49C158.708 116.516 160.072 117.116 161.641 117.093C162.184 117.24 162.726 117.234 163.269 117.096C163.507 117.079 163.745 117.065 163.983 117.048C164.392 117.23 164.114 117.35 163.951 117.48C162.283 118.92 160.409 119.769 158.255 119.802C157.943 119.907 157.631 119.905 157.32 119.808Z" fill="#7B61FE"/>
<path d="M97.3593 102.819C98.6485 101.799 100.092 101.255 101.682 101.16C101.796 101.445 101.632 101.603 101.452 101.754C101.337 101.942 101.225 102.13 101.111 102.319C99.9053 104.746 99.4692 107.313 99.8843 110.049C100.109 111.534 100.709 112.831 101.493 114.046C102.918 115.931 104.708 117.044 106.993 117.098C107.595 117.243 108.198 117.24 108.8 117.1C108.977 117.087 109.152 117.073 109.329 117.06C109.432 117 109.535 116.965 109.642 117.05C109.744 117.131 109.67 117.201 109.632 117.274C107.899 118.898 105.881 119.723 103.601 119.812C103.289 119.908 102.979 119.912 102.666 119.81C100.61 119.74 98.7037 119.198 97.1003 117.706C96.8737 117.472 96.6052 117.294 96.3919 117.044L96.411 117.065C96.0968 116.64 95.6817 116.309 95.4322 115.823L95.4398 115.836C95.0076 115.354 94.7886 114.729 94.4858 114.162L94.4972 114.18C93.1909 110.998 93.4651 107.973 95.2589 105.097L95.2494 105.112C95.3808 104.783 95.6398 104.555 95.8073 104.255C96.0587 103.982 96.31 103.709 96.5614 103.438C96.8394 103.246 97.0565 102.968 97.3593 102.819Z" fill="#7B61FE"/>
<path d="M136.368 112.968C134.922 112.517 133.911 111.416 132.94 110.255C131.527 108.497 130.843 106.44 130.849 104.114C130.851 103.502 130.882 103.502 131.398 103.494C134.223 104.768 137.038 106.082 139.883 107.303C141.484 107.99 142.89 108.952 144.097 110.274C144.364 110.501 144.56 110.789 144.723 111.106L144.714 111.091C145.805 112.633 146.235 114.422 146.348 116.324C146.374 116.787 146.473 117.393 145.7 117.102C143.823 116.318 141.932 115.564 140.071 114.733C139.066 114.284 138.001 113.975 137.061 113.357C136.846 113.2 136.583 113.133 136.368 112.968Z" fill="#7B61FE"/>
<path d="M30.0142 119.345C28.2261 119.345 26.438 119.347 24.6518 119.347C24.3491 119.078 24.5014 118.71 24.5014 118.393C24.4881 115.31 24.5223 112.225 24.4804 109.142C24.4614 107.711 24.3852 106.254 23.4426 105.081C22.9532 104.406 23.6845 104.45 23.8768 104.361C25.9562 103.397 27.87 102.124 29.7266 100.74C29.9323 100.599 30.1075 100.655 30.1741 100.895C30.237 101.123 30.2008 101.373 30.2008 101.613C30.2008 107.247 30.2046 112.881 30.1932 118.517C30.1894 118.79 30.355 119.142 30.0142 119.345Z" fill="#7B61FE"/>
<path d="M35.3155 103.448C37.1664 103.31 38.7964 102.474 40.396 101.545C40.7311 101.394 40.8702 101.609 40.9292 101.911C40.9825 102.18 40.9616 102.459 40.9616 102.734C40.9616 107.828 40.9635 112.922 40.9616 118.018C40.9616 119.251 40.9539 119.251 39.7924 119.254C38.4308 119.254 37.0674 119.225 35.7059 119.268C35.1117 119.287 34.9537 119.076 34.9556 118.445C34.9765 113.729 34.9651 109.014 34.9689 104.296C34.9689 103.967 34.8813 103.579 35.3155 103.448Z" fill="#7B61FE"/>
<path d="M115.084 103.651C116.849 103.146 118.382 102.163 119.797 100.943C120.206 100.655 120.469 100.587 120.467 101.303C120.456 107.057 120.456 112.813 120.469 118.567C120.471 119.121 120.283 119.27 119.801 119.262C118.342 119.237 116.884 119.227 115.425 119.266C114.857 119.28 114.743 119.032 114.745 118.478C114.76 113.826 114.753 109.173 114.757 104.522C114.757 104.189 114.671 103.806 115.084 103.651Z" fill="#7B61FE"/>
<path d="M45.9373 101.367C47.4169 101.77 48.6051 102.683 49.641 103.862C49.9152 104.083 50.1152 104.371 50.2694 104.7L50.258 104.683C51.2177 106.165 51.6824 107.832 51.7052 109.62C51.7433 112.548 51.6957 115.478 51.73 118.407C51.7376 119.103 51.5319 119.287 50.9169 119.268C49.4601 119.223 47.9996 119.22 46.5409 119.268C45.8878 119.291 45.7164 119.003 45.7183 118.364C45.724 112.989 45.7202 107.613 45.724 102.238C45.724 101.929 45.7049 101.611 45.9373 101.367Z" fill="#7B61FE"/>
<path d="M166.769 110.864C164.836 110.862 162.903 110.862 160.97 110.86C160.652 110.458 160.862 110.013 160.89 109.589C161.058 106.962 160.727 104.454 159.405 102.18C159.209 101.88 159.015 101.58 158.769 101.203C161.326 101.305 163.212 102.631 164.855 104.481C166.232 106.181 166.946 108.153 166.923 110.427C166.921 110.593 166.95 110.773 166.769 110.864Z" fill="#7B61FE"/>
<path d="M112.277 110.862C110.304 110.862 108.333 110.862 106.361 110.862C105.999 110.452 106.363 110.046 106.376 109.639C106.471 106.819 106.14 104.116 104.588 101.739L104.599 101.754C104.458 101.588 104.258 101.443 104.416 101.166C105.989 101.278 107.353 102.023 108.699 102.825C109.476 103.384 110.123 104.088 110.638 104.932C110.75 105.124 110.862 105.319 110.975 105.511C112.007 107.123 112.555 108.873 112.277 110.862Z" fill="#7B61FE"/>
<path d="M64.9776 101.16C66.8076 101.425 68.4662 102.124 69.8848 103.436C70.2866 103.705 70.6332 104.034 70.8427 104.508C71.0179 104.775 71.1911 105.041 71.3663 105.308C72.328 106.707 72.7983 108.302 72.9411 110.022C72.9659 110.32 72.9964 110.644 72.7222 110.862C70.7836 110.862 68.8451 110.86 66.9066 110.86C66.6743 110.682 66.76 110.421 66.7847 110.2C67.0608 107.729 66.838 105.344 65.8383 103.07C65.646 102.629 65.3984 102.246 65.1376 101.861C64.9947 101.65 64.7301 101.472 64.9776 101.16Z" fill="#7B61FE"/>
<path d="M20.1326 100.717C18.8929 101.973 17.5771 102.118 16.1794 101.149C15.0692 100.092 14.6598 98.7865 15.212 97.2782C15.6386 96.1133 15.5433 95.085 14.8921 94.0836L14.9168 94.1001C15.1016 93.496 15.5091 93.9201 15.8156 93.8705C17.3562 94.1994 18.7767 94.8036 19.9421 95.9954C20.2068 96.225 20.4125 96.5064 20.5648 96.8333L20.5534 96.8168C21.2599 98.3293 21.1304 99.5272 20.1326 100.717Z" fill="#7B61FE"/>
<path d="M28.9684 98.05C27.9496 98.588 26.9309 98.6583 25.9121 98.0479C24.0041 96.3596 23.9469 93.8271 25.7883 92.4843C26.0854 92.3353 26.3844 92.1884 26.6814 92.0394C27.2527 91.9257 27.824 91.8222 28.3838 92.0995C28.9151 92.3539 29.4426 92.6126 29.8368 93.1029C31.2078 94.543 30.6461 97.4024 28.9684 98.05Z" fill="#7B61FE"/>
<path d="M124.336 101.979C125.574 101.046 126.869 100.568 128.33 101.373C129.725 102.161 130.133 104.057 129.289 105.484L129.299 105.468C129.137 105.85 128.867 106.117 128.531 106.314C128.217 106.459 128.006 106.858 127.595 106.769C127.155 106.873 126.717 106.885 126.277 106.763C125.351 106.695 124.818 105.803 124.009 105.486C123.605 105.323 123.2 105.348 122.794 105.478L122.718 105.466L122.649 105.503C121.895 105.675 122.158 105.126 122.28 104.81C122.506 104.224 122.874 103.719 123.245 103.229L123.236 103.241C123.504 102.718 123.929 102.358 124.336 101.979Z" fill="#7B61FE"/>
<path d="M88.0593 93.7258C91.2908 93.7527 94.5242 93.7776 97.7557 93.8086C97.8109 93.8086 97.8643 93.8748 97.9804 93.9514C97.0835 94.7955 96.0762 95.4866 95.4078 96.5563C95.2345 96.9846 94.8803 97.2577 94.6309 97.6218L94.6423 97.6073C94.1262 98.5012 93.5074 99.3226 93.0922 100.287C93.0123 100.473 92.9247 100.67 92.6809 100.607C92.4886 100.558 92.4905 100.365 92.4581 100.202C92.222 99.0122 91.6641 97.9881 91.0699 96.9804L91.0814 96.9949C90.849 96.757 90.6738 96.4652 90.472 96.1983C89.7427 95.3562 88.8934 94.6859 87.9698 94.1169C87.8898 93.9576 87.8708 93.8148 88.0593 93.7258Z" fill="#7C62FE"/>
<path d="M134.248 116.136C135.478 117.253 136.716 118.354 138.257 118.949C138.373 119.096 138.39 119.231 138.211 119.338C135.899 119.338 133.588 119.34 131.276 119.34C130.771 119.276 130.739 118.906 130.743 118.455C130.758 116.707 130.744 114.96 130.752 113.212C130.754 112.889 130.64 112.436 131.059 112.355C131.398 112.289 131.422 112.746 131.584 112.972L131.573 112.957C131.778 113.229 132.018 113.473 132.15 113.804L132.14 113.789C132.504 114.294 132.991 114.681 133.313 115.229L133.31 115.227C133.656 115.486 133.978 115.78 134.248 116.136Z" fill="#7C63FE"/>
<path d="M14.8426 118.325C15.1053 118.052 15.37 117.776 15.6328 117.503C15.947 117.288 16.2041 117.013 16.4002 116.667C16.5887 116.456 16.7792 116.245 16.9677 116.034C17.1676 115.767 17.3466 115.482 17.5732 115.236L17.5637 115.252C17.6875 114.915 17.9503 114.687 18.1236 114.389C18.2454 114.189 18.3692 113.988 18.4911 113.787C18.8948 113.123 19.15 112.372 19.5194 111.689C19.647 111.455 19.6489 110.988 20.0411 111.118C20.3801 111.23 20.2906 111.629 20.2944 111.929C20.302 112.515 20.2963 113.102 20.2963 113.688C20.2963 115.275 20.2868 116.86 20.302 118.447C20.3058 118.898 20.2754 119.272 19.7688 119.339C18.1388 119.322 16.5069 119.32 14.8768 119.281C14.6102 119.274 14.1818 119.539 14.1113 118.943C14.3741 118.763 14.6026 118.538 14.8426 118.325Z" fill="#7C63FE"/>
<path d="M144.362 106.341C143.905 105.852 143.446 105.364 142.989 104.876C142.753 104.669 142.541 104.427 142.271 104.27C140.944 103.136 139.394 102.401 137.965 101.363C140.538 101.363 143.112 101.363 145.685 101.363C145.845 101.553 145.879 101.785 145.881 102.031C145.891 103.779 145.898 105.528 145.874 107.276C145.868 107.601 145.969 108.232 145.316 107.774C145.188 107.568 145.061 107.359 144.933 107.152C144.762 106.864 144.55 106.612 144.362 106.341Z" fill="#7B61FE"/>
<path d="M50.8994 2.67773C50.1701 4.76126 50.292 6.93996 50.292 9.10625C50.2939 30.827 50.292 52.5478 50.2958 74.2707C50.2958 75.0611 50.3015 75.8597 50.3834 76.6439C50.5605 78.3095 51.2536 79.7123 52.36 80.8751C50.61 79.882 50.1911 78.0633 50.1282 76.1908C50.0254 73.0914 50.0997 69.9857 50.0997 66.8842C50.0997 46.44 50.0997 25.9958 50.0978 5.55163C50.0997 4.50056 50.2463 3.50742 50.8994 2.67773Z" fill="#FDFDFD"/>
<path d="M85.3357 104.245C85.549 104.356 85.6576 104.559 85.7604 104.779C86.8039 106.982 87.8436 109.188 88.9043 111.381C89.1499 111.888 89.1518 112.326 88.91 112.84C87.9979 114.77 87.1181 116.719 86.2193 118.658C86.0689 118.985 85.9413 119.477 85.4976 119.295C85.0958 119.132 84.6007 118.763 84.6597 118.289C84.734 117.689 84.4674 117.298 84.2656 116.858C80.8855 109.49 77.4922 102.126 74.1045 94.7623C73.6189 93.705 73.6228 93.7009 74.7596 93.7009C76.283 93.6988 77.8064 93.734 79.326 93.6844C80.0362 93.6616 80.4628 93.8561 80.8227 94.5947C81.6072 96.2045 82.4203 97.7955 83.0468 99.4901C83.0011 99.5046 82.9573 99.5191 82.9116 99.5315C82.4527 99.3825 82.3385 98.919 82.1499 98.5321C81.5692 97.3466 81.0645 96.1196 80.4361 94.9589C80.1257 94.3858 79.7278 94.1437 79.1203 94.1582C77.9168 94.1851 76.7114 94.1623 75.506 94.1665C74.4187 94.1706 74.4016 94.2016 74.9119 95.3127C76.0164 97.7169 77.1132 100.125 78.2234 102.525C80.5028 107.448 82.7536 112.386 85.0311 117.311C85.1453 117.557 85.252 117.807 85.3834 118.043C85.5738 118.385 85.7775 118.376 85.9375 118.031C86.7944 116.185 87.6837 114.358 88.4816 112.482C88.6777 112.018 88.4454 111.611 88.2626 111.209C87.3885 109.297 86.3717 107.464 85.5604 105.517C85.4062 105.147 85.151 104.808 85.2443 104.356C85.2767 104.325 85.3072 104.286 85.3357 104.245Z" fill="#FDFDFD"/>
<path d="M45.9375 101.367C45.9108 101.673 45.8594 101.979 45.8594 102.285C45.8537 107.586 45.8708 112.885 45.8403 118.184C45.8365 118.995 46.0403 119.27 46.8001 119.235C48.1597 119.173 49.5231 119.21 50.8847 119.22C51.3207 119.225 51.6178 119.148 51.6026 118.554C51.5169 115.186 51.7435 111.813 51.4731 108.447C51.3626 107.069 50.7323 105.908 50.2582 104.679C51.3836 105.848 51.7321 107.408 51.7835 108.968C51.8863 112.136 51.7987 115.312 51.8254 118.484C51.8311 119.167 51.6178 119.382 51.0008 119.365C49.447 119.328 47.8912 119.328 46.3354 119.365C45.7128 119.38 45.5147 119.154 45.5166 118.478C45.5357 113.03 45.5261 107.58 45.5299 102.132C45.5338 101.807 45.4538 101.408 45.9375 101.367Z" fill="#FDFDFD"/>
<path d="M35.3151 103.448C34.9837 103.727 35.0599 104.125 35.0599 104.497C35.058 109.082 35.0751 113.665 35.0428 118.25C35.0371 119.028 35.2427 119.268 35.9568 119.237C37.2879 119.179 38.6208 119.191 39.9538 119.233C40.5917 119.251 40.8469 119.069 40.8431 118.316C40.8164 113.009 40.8298 107.7 40.8279 102.393C40.8279 102.033 40.9326 101.592 40.3975 101.547C40.8202 101.251 41.1135 101.269 41.1497 101.911C41.1592 102.083 41.1535 102.254 41.1535 102.428C41.1535 107.7 41.1325 112.97 41.1744 118.242C41.182 119.175 40.9231 119.421 40.0985 119.384C38.6113 119.314 37.1184 119.343 35.6293 119.376C35.0504 119.388 34.8581 119.171 34.8619 118.542C34.879 113.754 34.8714 108.964 34.8714 104.176C34.8676 103.823 34.8295 103.444 35.3151 103.448Z" fill="#FDFDFD"/>
<path d="M115.084 103.651C114.812 103.914 114.846 104.266 114.846 104.609C114.846 109.161 114.861 113.713 114.833 118.263C114.829 118.987 115.021 119.218 115.69 119.194C117.021 119.142 118.356 119.163 119.687 119.185C120.176 119.194 120.351 119.007 120.351 118.467C120.338 112.778 120.336 107.088 120.357 101.4C120.359 100.864 120.142 100.868 119.799 100.941C119.909 100.717 120.054 100.498 120.309 100.583C120.696 100.709 120.553 101.096 120.553 101.377C120.563 105.683 120.559 109.988 120.559 114.294C120.559 115.707 120.538 117.118 120.568 118.532C120.582 119.158 120.387 119.384 119.803 119.37C118.346 119.336 116.885 119.338 115.429 119.367C114.869 119.38 114.642 119.2 114.646 118.55C114.665 113.831 114.656 109.111 114.657 104.392C114.657 104.057 114.597 103.665 115.084 103.651Z" fill="#FDFDFD"/>
<path d="M9.51883 118.809C8.35153 117.392 7.9307 115.608 7.58793 113.835C6.48157 108.122 6.51394 102.436 8.18587 96.8335C8.43723 95.9914 8.71715 95.1452 9.32651 94.5017C8.99326 95.8611 8.26013 97.0446 7.96688 98.4391C7.37275 101.263 7.01666 104.123 7.10235 106.997C7.19756 110.21 7.49463 113.421 8.54958 116.487C8.82759 117.29 9.38173 117.944 9.51883 118.809Z" fill="#FDFDFD"/>
<path d="M2.33381 98.4744C1.59307 100.179 0.79138 101.849 0.541924 103.759C-0.0388696 108.186 0.680933 112.233 3.39067 115.73C3.51064 115.885 3.66298 116.024 3.64393 116.26C1.85395 114.683 1.07321 112.451 0.492414 110.171C-0.526355 106.175 0.0677679 102.364 1.97772 98.7909C2.04818 98.6523 2.21194 98.5778 2.33381 98.4744Z" fill="#FDFDFD"/>
<path d="M30.0136 119.345C30.0365 118.112 30.0765 116.881 30.0784 115.647C30.086 111.017 30.086 106.386 30.0726 101.756C30.0707 101.396 30.2897 100.895 29.7261 100.74C29.966 100.475 30.1755 100.475 30.2745 100.86C30.324 101.052 30.2973 101.27 30.2973 101.474C30.2973 107.1 30.3012 112.726 30.2916 118.352C30.2897 118.695 30.4535 119.13 30.0136 119.345Z" fill="#FDFDFD"/>
<path d="M155.77 113.591C154.467 112.051 154.157 110.121 154.161 108.166C154.164 105.807 154.671 103.55 156.014 101.607C156.057 101.414 156.128 101.263 156.351 101.348C155.878 102.536 155.094 103.56 154.831 104.857C154.252 107.708 154.14 110.497 155.656 113.1C155.735 113.235 155.734 113.425 155.77 113.591Z" fill="#FDFDFD"/>
<path d="M101.494 114.048C99.7359 111.946 99.4217 109.405 99.6902 106.727C99.8483 105.153 100.168 103.609 101.111 102.318C101.13 102.972 100.703 103.448 100.528 104.032C99.536 107.352 99.5303 110.549 101.383 113.564C101.465 113.694 101.459 113.884 101.494 114.048Z" fill="#FDFDFD"/>
<path d="M55.6526 105.302C55.207 106.461 54.6433 107.563 54.4586 108.84C54.093 111.371 54.6071 113.649 55.9706 115.72C56.0753 115.879 56.1305 116.078 56.2067 116.258C54.8718 115.02 54.3672 113.303 54.1406 111.54C53.8759 109.496 54.213 107.499 55.2394 105.699C55.346 105.517 55.4564 105.362 55.6526 105.302Z" fill="#FDFDFD"/>
<path d="M23.4419 105.081C24.493 106.01 24.5502 107.342 24.5692 108.631C24.6149 111.793 24.5825 114.954 24.5882 118.116C24.5882 118.525 24.6301 118.937 24.6511 119.347C24.2436 119.105 24.4035 118.68 24.4016 118.333C24.3883 115.73 24.3921 113.125 24.3959 110.522C24.3978 108.639 24.2969 106.783 23.4419 105.081Z" fill="#FDFDFD"/>
<path d="M64.9775 101.16C65.1355 101.878 65.6763 102.356 65.9525 103.012C66.9312 105.327 67.2397 107.731 66.8989 110.245C66.8722 110.446 66.9008 110.655 66.9027 110.86C66.3162 110.409 66.6818 109.763 66.6989 109.25C66.7903 106.558 66.4876 104.009 64.9127 101.795C64.8118 101.65 64.351 101.292 64.9775 101.16Z" fill="#FDFDFD"/>
<path d="M19.7694 119.338C20.0417 119.175 20.156 118.937 20.1541 118.585C20.1388 116.225 20.1388 113.864 20.1293 111.503C20.1293 111.412 20.0684 111.319 20.0017 111.137C19.3295 111.96 19.2533 113.115 18.4897 113.787C18.8915 112.788 19.2895 111.786 19.697 110.791C19.7789 110.588 19.9446 110.46 20.1541 110.514C20.3845 110.574 20.3921 110.802 20.3921 111.011C20.3921 113.613 20.3902 116.218 20.394 118.821C20.3959 119.312 20.1255 119.376 19.7694 119.338Z" fill="#FDFDFD"/>
<path d="M145.313 107.775C145.81 107.975 145.717 107.572 145.717 107.294C145.71 105.316 145.696 103.338 145.683 101.363C146.159 101.423 146.071 101.822 146.073 102.151C146.079 103.978 146.079 105.803 146.071 107.63C146.071 107.888 146.167 108.252 145.841 108.333C145.479 108.42 145.346 108.122 145.313 107.775Z" fill="#FDFDFD"/>
<path d="M95.2612 105.095C94.2767 107.019 93.6674 109.035 93.8635 111.286C93.9511 112.291 94.3148 113.208 94.4995 114.178C93.3589 112.314 93.317 110.286 93.8064 108.209C94.0768 107.065 94.3205 105.881 95.2612 105.095Z" fill="#FDFDFD"/>
<path d="M159.405 102.18C160.405 103.37 160.651 104.876 160.932 106.378C161.214 107.874 160.992 109.366 160.971 110.862C160.586 110.862 160.653 110.644 160.675 110.322C160.813 108.447 160.851 106.566 160.329 104.746C160.079 103.868 159.716 103.032 159.405 102.18Z" fill="#FDFDFD"/>
<path d="M149.345 105.923C148.606 107.907 148.119 109.916 148.52 112.099C148.741 113.299 149.311 114.317 149.72 115.416C148.871 114.559 148.537 113.423 148.318 112.246C147.922 110.129 148.16 108.091 149.046 106.15C149.092 106.049 149.242 105.999 149.345 105.923Z" fill="#FDFDFD"/>
<path d="M104.586 101.739C105.911 103.27 106.25 105.209 106.446 107.187C106.568 108.41 106.484 109.639 106.359 110.86C105.995 110.702 106.073 110.367 106.117 110.073C106.532 107.266 106.027 104.659 104.71 102.217C104.635 102.081 104.626 101.901 104.586 101.739Z" fill="#FDFDFD"/>
<path d="M131.398 103.496C130.762 103.442 130.988 103.978 130.984 104.28C130.96 106.233 131.552 107.975 132.58 109.558C132.721 109.777 132.95 109.945 132.94 110.257C131.582 109.19 131.224 107.545 130.857 105.925C130.708 105.267 130.564 104.59 130.653 103.897C130.733 103.285 130.823 103.237 131.398 103.496Z" fill="#FDFDFD"/>
<path d="M91.0698 96.9783C92.0105 97.9052 92.2733 99.219 92.7303 100.558C93.4368 99.5335 93.8119 98.3873 94.6422 97.6073C94.3166 98.7287 93.5092 99.5501 93.054 100.595C92.9341 100.872 92.4999 101.007 92.4218 100.539C92.2048 99.2377 91.4773 98.1845 91.0698 96.9783Z" fill="#FDFDFD"/>
<path d="M14.8941 94.0859C15.6939 94.8349 15.8424 95.8219 15.4692 96.7922C14.8313 98.4537 15.1188 99.8565 16.1814 101.152C15.2217 100.626 14.5323 99.0868 14.9436 97.833C15.3683 96.5295 15.3911 95.3294 14.8941 94.0859Z" fill="#FDFDFD"/>
<path d="M131.584 112.972C131.413 112.794 131.239 112.614 130.916 112.277C130.916 114.611 130.914 116.752 130.919 118.892C130.919 119.125 131.135 119.21 131.275 119.338C130.923 119.374 130.651 119.314 130.651 118.823C130.655 116.707 130.651 114.59 130.653 112.473C130.653 112.269 130.647 112.033 130.874 111.966C131.129 111.892 131.296 112.066 131.39 112.3C131.475 112.515 131.521 112.746 131.584 112.972Z" fill="#FDFDFD"/>
<path d="M145.7 117.104C146.407 117.176 146.237 116.626 146.218 116.212C146.138 114.362 145.54 112.686 144.716 111.093C146.125 112.715 146.496 114.716 146.435 116.847C146.42 117.402 146.055 117.379 145.7 117.104Z" fill="#FDFDFD"/>
<path d="M166.769 110.864C166.971 108.861 166.363 107.096 165.415 105.432C165.232 105.114 165.044 104.799 164.857 104.483C166.369 105.556 167.508 109.351 166.769 110.864Z" fill="#FDFDFD"/>
<path d="M116.143 43.6158C117.339 41.3357 117.034 39.2211 115.553 37.2349C117.318 38.3066 117.762 42.2978 116.143 43.6158Z" fill="#FDFDFD"/>
<path d="M72.7201 110.862C72.9962 108.801 72.2116 107.046 71.3643 105.308C72.3621 106.223 72.5906 107.553 72.9391 108.811C73.0457 109.198 73.1009 109.612 73.1238 110.017C73.1447 110.361 73.2799 110.822 72.7201 110.862Z" fill="#FDFDFD"/>
<path d="M25.7885 92.4844C24.0899 94.4789 24.1185 95.8176 25.9123 98.048C24.9125 97.5473 24.2023 96.2645 24.2651 95.0686C24.3279 93.8789 24.9754 92.7802 25.7885 92.4844Z" fill="#FDFDFD"/>
<path d="M112.277 110.862C112.336 108.937 111.82 107.179 110.974 105.515C111.949 106.339 112.12 107.582 112.358 108.766C112.494 109.448 112.909 110.193 112.277 110.862Z" fill="#FDFDFD"/>
<path d="M28.9683 98.0501C30.6916 96.5501 30.9106 95.3024 29.8347 93.103C30.9601 93.8313 30.7697 95.0541 30.6173 96.1052C30.484 97.0197 30.0365 97.9239 28.9683 98.0501Z" fill="#FDFDFD"/>
<path d="M129.287 105.484C129.859 103.868 129.623 102.474 128.328 101.373C129.931 102.023 130.445 104.222 129.287 105.484Z" fill="#FDFDFD"/>
<path d="M83.0493 99.4941C84.0776 100.928 84.6603 102.612 85.3363 104.247L85.2925 104.288C84.9935 104.311 84.8317 104.094 84.7136 103.854C84.1061 102.629 83.5463 101.379 82.9998 100.119C82.9198 99.9348 82.8893 99.7279 83.0017 99.5355L83.0493 99.4941Z" fill="#FDFDFD"/>
<path d="M20.1328 100.717C21.0088 99.5109 21.0088 98.195 20.5517 96.8191C21.5381 97.8681 21.3211 99.8792 20.1328 100.717Z" fill="#FDFDFD"/>
<path d="M4.55975 95.772C3.81329 96.6782 3.06873 97.5824 2.32227 98.4886C2.71454 97.2369 3.54098 96.4113 4.55975 95.772Z" fill="#FDFDFD"/>
<path d="M123.247 103.229C122.971 103.755 122.683 104.274 122.424 104.81C122.284 105.101 122.07 105.468 122.651 105.503C122.493 105.733 122.264 105.759 122.068 105.635C121.847 105.497 122.005 105.275 122.059 105.095C122.284 104.346 122.603 103.666 123.247 103.229Z" fill="#FDFDFD"/>
<path d="M110.638 104.934C109.992 104.233 109.345 103.529 108.699 102.828C109.636 103.215 110.282 103.916 110.638 104.934Z" fill="#FDFDFD"/>
<path d="M114.833 45.0745C115.272 44.582 115.714 44.0896 116.154 43.5972C115.986 44.3793 115.51 44.8345 114.833 45.0745Z" fill="#FDFDFD"/>
<path d="M151.377 103.221C151.034 103.802 150.558 104.243 150.089 104.694C150.265 103.941 150.746 103.502 151.377 103.221Z" fill="#FDFDFD"/>
<path d="M133.313 115.227C132.854 114.813 132.363 114.431 132.14 113.787C132.654 114.151 133.165 114.515 133.313 115.227Z" fill="#FDFDFD"/>
<path d="M94.4878 114.16C94.9105 114.648 95.1676 115.246 95.4418 115.834C94.8153 115.484 94.6268 114.838 94.4878 114.16Z" fill="#FDFDFD"/>
<path d="M124.337 101.979C123.971 102.399 123.603 102.821 123.238 103.241C123.358 102.567 123.767 102.192 124.337 101.979Z" fill="#FDFDFD"/>
<path d="M9.31654 94.514C9.4784 94.1313 9.53363 93.8126 8.97949 93.8726C9.24609 93.6264 9.65169 93.5726 9.78879 93.8354C9.97541 94.1913 9.59075 94.3733 9.31654 94.514Z" fill="#FDFDFD"/>
<path d="M156.733 114.816C156.324 114.48 155.922 114.139 155.76 113.576C156.208 113.876 156.64 114.189 156.733 114.816Z" fill="#FDFDFD"/>
<path d="M95.4341 115.823C95.813 116.187 96.2186 116.526 96.411 117.064C95.9444 116.781 95.516 116.462 95.4341 115.823Z" fill="#FDFDFD"/>
<path d="M28.384 92.0993C27.8204 91.9483 27.251 92.0249 26.6816 92.0393C27.2586 91.7517 27.828 91.6524 28.384 92.0993Z" fill="#FDFDFD"/>
<path d="M70.8426 104.505C70.5227 104.147 70.2047 103.792 69.8848 103.434C70.4465 103.537 70.7798 103.878 70.8426 104.505Z" fill="#FDFDFD"/>
<path d="M150.101 104.679C149.922 105.155 149.688 105.59 149.333 105.937C149.373 105.364 149.602 104.925 150.101 104.679Z" fill="#FDFDFD"/>
<path d="M51.6289 1.42163C51.4765 1.91199 51.2271 2.33408 50.8862 2.69616C50.9091 2.11683 51.17 1.70095 51.6289 1.42163Z" fill="#FDFDFD"/>
<path d="M108.8 117.1C108.199 117.362 107.595 117.311 106.993 117.098C107.597 117.1 108.199 117.1 108.8 117.1Z" fill="#FDFDFD"/>
<path d="M94.6323 97.6218C94.7504 97.146 95.0798 96.8522 95.4093 96.5583C95.394 97.1232 95.0322 97.388 94.6323 97.6218Z" fill="#FDFDFD"/>
<path d="M134.248 116.135C133.864 115.92 133.548 115.62 133.31 115.225C133.812 115.298 134.088 115.647 134.248 116.135Z" fill="#FDFDFD"/>
<path d="M4.01514 116.657C4.45502 116.773 4.74256 117.089 4.96345 117.497C4.48168 117.437 4.24745 117.05 4.01514 116.657Z" fill="#FDFDFD"/>
<path d="M163.267 117.102C162.725 117.36 162.182 117.315 161.641 117.1C162.184 117.1 162.725 117.102 163.267 117.102Z" fill="#FDFDFD"/>
<path d="M69.7305 117.528C69.5306 117.191 69.1954 117.346 68.925 117.269C68.8831 117.178 68.9079 117.122 68.9993 117.1C69.304 117.081 69.6106 117.06 69.9152 117.042C70.1076 116.978 70.3037 116.907 70.2389 117.271L70.2694 117.255C70.1209 117.418 69.9724 117.582 69.7305 117.528Z" fill="#927DFE"/>
<path d="M15.8158 93.8726C15.5187 93.9636 15.1512 93.7195 14.917 94.1022C14.8027 93.9926 14.3476 93.8995 14.8351 93.7319C15.1264 93.6305 15.5206 93.5788 15.8158 93.8726Z" fill="#FDFDFD"/>
<path d="M128.532 106.314C128.787 106.032 129.044 105.751 129.299 105.468C129.278 106.003 129.01 106.27 128.532 106.314Z" fill="#FDFDFD"/>
<path d="M126.279 106.763C126.719 106.765 127.157 106.767 127.597 106.769C127.155 107.036 126.717 107.044 126.279 106.763Z" fill="#FDFDFD"/>
<path d="M156.353 101.346C156.24 101.433 156.128 101.518 156.015 101.605C155.816 101.265 155.486 101.41 155.21 101.352C155.589 101.118 155.968 101.005 156.353 101.346Z" fill="#9C88FE"/>
<path d="M57.1165 103.427C56.9565 103.785 56.7147 104.059 56.3853 104.236C56.4424 103.767 56.688 103.5 57.1165 103.427Z" fill="#FDFDFD"/>
<path d="M16.4007 116.667C16.3131 117.129 16.056 117.406 15.6333 117.503C15.8142 117.143 16.0713 116.866 16.4007 116.667Z" fill="#FDFDFD"/>
<path d="M163.949 117.486C163.983 117.344 164.248 117.224 163.981 117.054C164.154 116.88 164.396 116.756 164.453 117.089C164.509 117.42 164.2 117.472 163.949 117.486Z" fill="#FDFDFD"/>
<path d="M69.0015 117.102C68.9767 117.16 68.952 117.215 68.9272 117.271C68.4759 117.226 68.0056 117.342 67.5752 117.1C68.0494 117.1 68.5254 117.102 69.0015 117.102Z" fill="#FDFDFD"/>
<path d="M132.152 113.804C131.862 113.601 131.647 113.336 131.575 112.958C131.917 113.117 132.176 113.346 132.152 113.804Z" fill="#FDFDFD"/>
<path d="M50.269 104.7C49.9701 104.501 49.7968 104.189 49.6406 103.862C50.0329 103.98 50.2804 104.224 50.269 104.7Z" fill="#FDFDFD"/>
<path d="M18.1215 114.389C18.0853 114.793 17.853 115.045 17.5617 115.252C17.5293 114.797 17.8054 114.578 18.1215 114.389Z" fill="#FDFDFD"/>
<path d="M157.484 115.496C157.173 115.345 156.909 115.136 156.731 114.811C157.139 114.836 157.371 115.089 157.484 115.496Z" fill="#FDFDFD"/>
<path d="M17.5733 115.238C17.4762 115.598 17.301 115.887 16.9678 116.036C16.9982 115.616 17.2287 115.374 17.5733 115.238Z" fill="#FDFDFD"/>
<path d="M95.809 104.253C95.7748 104.654 95.5196 104.886 95.2511 105.11C95.2263 104.663 95.4967 104.441 95.809 104.253Z" fill="#FDFDFD"/>
<path d="M149.709 115.403C149.973 115.627 150.221 115.862 150.263 116.256C149.956 116.065 149.688 115.844 149.709 115.403Z" fill="#FDFDFD"/>
<path d="M142.269 104.27C142.625 104.309 142.848 104.532 142.987 104.876C142.627 104.843 142.435 104.576 142.269 104.27Z" fill="#FDFDFD"/>
<path d="M56.1861 104.464C56.148 104.857 55.9157 105.101 55.6415 105.317C55.6148 104.876 55.8852 104.659 56.1861 104.464Z" fill="#FDFDFD"/>
<path d="M97.3594 102.819C97.1347 103.086 96.9329 103.388 96.5635 103.436C96.7368 103.088 96.9481 102.803 97.3594 102.819Z" fill="#FDFDFD"/>
<path d="M122.796 105.478C123.202 105.234 123.607 105.238 124.011 105.486C123.605 105.484 123.2 105.482 122.796 105.478Z" fill="#FDFDFD"/>
<path d="M61.8569 101.965C61.9864 101.698 62.114 101.429 62.2435 101.162C62.6301 101.723 62.1083 101.766 61.8569 101.965Z" fill="#FDFDFD"/>
<path d="M144.726 111.108C144.43 110.907 144.246 110.609 144.099 110.276C144.484 110.396 144.726 110.644 144.726 111.108Z" fill="#FDFDFD"/>
<path d="M90.4712 96.1982C90.8063 96.3451 90.9872 96.6286 91.0806 96.9948C90.7283 96.8624 90.5036 96.6162 90.4712 96.1982Z" fill="#FDFDFD"/>
<path d="M96.3921 117.042C96.7177 117.147 96.9691 117.35 97.1005 117.704C96.7272 117.656 96.5102 117.414 96.3921 117.042Z" fill="#FDFDFD"/>
<path d="M20.5632 96.8355C20.2718 96.6286 20.0966 96.3224 19.9424 95.9976C20.327 96.1217 20.5746 96.3659 20.5632 96.8355Z" fill="#FDFDFD"/>
<path d="M144.361 106.341C144.685 106.5 144.891 106.756 144.931 107.152C144.632 106.972 144.382 106.75 144.361 106.341Z" fill="#FDFDFD"/>
<path d="M69.7307 117.528C69.9116 117.437 70.0906 117.346 70.2715 117.257C70.123 117.656 69.8888 117.923 69.4546 117.884C69.5479 117.766 69.6393 117.648 69.7307 117.528Z" fill="#FDFDFD"/>
<path d="M14.8426 118.325C14.6978 118.668 14.4693 118.896 14.1113 118.943C14.2732 118.625 14.4712 118.354 14.8426 118.325Z" fill="#FDFDFD"/>
<path d="M101.453 101.754C101.529 101.555 101.605 101.359 101.684 101.16C101.798 101.172 101.986 101.15 101.943 101.33C101.883 101.572 101.685 101.706 101.453 101.754Z" fill="#FDFDFD"/>
<path d="M88.0589 93.7256C88.0304 93.856 87.9999 93.9863 87.9714 94.1146C87.8 94.0795 87.5372 94.0753 87.5905 93.825C87.6381 93.6015 87.8933 93.7401 88.0589 93.7256Z" fill="#FDFDFD"/>
<path d="M109.632 117.271C109.6 117.083 109.442 117.11 109.33 117.06C109.518 116.853 109.764 116.752 109.929 117.007C110.015 117.137 109.779 117.234 109.632 117.271Z" fill="#FDFDFD"/>
<path d="M104.417 101.168C104.478 101.365 104.538 101.559 104.599 101.756C104.379 101.69 104.173 101.561 104.137 101.311C104.114 101.139 104.3 101.174 104.417 101.168Z" fill="#FDFDFD"/>
<path d="M70.2407 117.273C70.1322 117.197 70.0236 117.12 69.917 117.044C70.096 116.849 70.3493 116.771 70.4997 116.967C70.6158 117.12 70.3911 117.226 70.2407 117.273Z" fill="#FDFDFD"/>
<path d="M136.368 112.968C136.642 113.007 136.889 113.102 137.061 113.359C136.76 113.38 136.505 113.297 136.368 112.968Z" fill="#FDFDFD"/>
<path d="M138.213 119.336C138.228 119.206 138.243 119.078 138.259 118.947C138.438 118.972 138.706 118.964 138.676 119.212C138.641 119.471 138.375 119.316 138.213 119.336Z" fill="#FDFDFD"/>
<path d="M63.2485 119.808C63.5608 119.808 63.8712 119.808 64.1835 119.808C63.8731 120.063 63.5608 120.063 63.2485 119.808Z" fill="#FDFDFD"/>
<path d="M102.667 119.808C102.979 119.808 103.289 119.81 103.601 119.81C103.289 120.063 102.979 120.065 102.667 119.808Z" fill="#FDFDFD"/>
<path d="M157.32 119.808C157.632 119.808 157.943 119.806 158.255 119.806C157.943 120.065 157.63 120.062 157.32 119.808Z" fill="#FDFDFD"/>
<path d="M83.0032 99.5335C83.6907 101.162 84.3991 102.778 85.294 104.286C86.2614 106.684 87.4763 108.944 88.5865 111.263C88.8645 111.842 88.8797 112.289 88.596 112.879C87.7277 114.677 86.9279 116.514 86.0976 118.333C86.0024 118.542 85.9624 118.858 85.732 118.894C85.4026 118.943 85.3721 118.565 85.2693 118.339C81.6208 110.468 77.9856 102.59 74.3275 94.723C73.9924 94.003 74.1599 93.8561 74.836 93.8706C76.3879 93.9057 77.9437 93.8995 79.4956 93.8706C80.006 93.8602 80.2821 94.0526 80.5334 94.543C81.3789 96.1941 82.0359 97.9549 83.0032 99.5335Z" fill="#7B61FE"/>
</svg>
