<svg width="167" height="120" viewBox="0 0 167 120" fill="none" xmlns="http://www.w3.org/2000/svg">
<path d="M114.832 45.0743C112.118 47.1744 109.146 48.8048 106.278 50.6214C100.832 54.0705 95.3592 57.4699 89.8979 60.8921C85.3563 63.7391 80.8165 66.5882 76.2768 69.4373C70.8954 72.814 65.516 76.1968 60.1308 79.5673C58.8492 80.3701 57.5753 81.2122 56.0938 81.5246C54.7837 81.8019 53.5002 81.8039 52.3615 80.8749C50.8057 79.6128 50.2154 77.819 50.2135 75.8223C50.1925 52.498 50.2021 29.1717 50.1982 5.84736C50.1982 4.72594 50.4458 3.67694 50.9009 2.67966L50.8895 2.70035C51.0837 2.23895 51.3465 1.82514 51.6321 1.42582C52.8261 -0.163206 55.4997 -0.444596 57.6762 0.685101C59.7518 1.76307 61.6922 3.09967 63.686 4.33489C66.8794 6.31496 70.0633 8.31159 73.2434 10.3124C76.2883 12.2283 79.3198 14.169 82.3666 16.0808C85.4648 18.0257 88.5763 19.9396 91.6745 21.8824C94.7175 23.7901 97.7471 25.7246 100.788 27.6364C103.424 29.2937 106.09 30.8931 108.702 32.5939C111.01 34.096 113.495 35.2981 115.554 37.2368C117.325 39.3203 117.517 41.3914 116.146 43.6177L116.157 43.6012C115.834 44.2177 115.35 44.6667 114.832 45.0743Z" fill="#7B61FE"/>
<path d="M9.51835 118.809C9.76019 119.268 9.39458 119.119 9.23652 119.121C7.62935 119.153 6.22021 118.561 4.96341 117.497C4.62445 117.249 4.35976 116.901 4.0151 116.657C3.89132 116.525 3.76754 116.39 3.64186 116.258C0.416079 112.203 -0.484627 107.564 0.688385 102.402C1.01211 100.978 1.65003 99.718 2.33365 98.4745L2.32222 98.489C2.8935 97.4131 3.70851 96.5772 4.55971 95.7723C5.8565 94.653 7.31895 93.995 8.97755 93.873C9.15845 93.8068 9.37553 93.7281 9.49931 93.9102C9.66498 94.1544 9.45361 94.3385 9.3146 94.5144L9.32602 94.4999C7.7874 97.32 7.30372 100.455 7.08473 103.649C6.78577 108.031 7.06379 112.347 8.44436 116.529C8.71476 117.348 9.12418 118.068 9.51835 118.809Z" fill="#7B61FE"/>
<path d="M61.8569 101.965C57.9246 107.202 60.4516 115.478 66.448 116.982C66.8117 117.073 67.1983 117.063 67.5734 117.1C68.0171 117.286 68.4798 117.148 68.933 117.191C69.2187 117.249 69.5614 117.038 69.7842 117.404C69.828 117.688 69.6814 117.818 69.4567 117.886C67.8743 119.094 66.1072 119.703 64.1858 119.81C63.8735 119.91 63.5631 119.91 63.2508 119.81C60.4001 119.808 58.0636 118.598 56.2108 116.26C53.7296 112.685 53.5334 108.844 55.6548 105.302L55.6453 105.317C55.7671 104.988 56.0413 104.773 56.188 104.464C56.2546 104.388 56.3213 104.311 56.3879 104.237C56.5898 103.924 56.8373 103.657 57.1191 103.428C58.593 102.044 60.3125 101.321 62.2454 101.162C62.4015 101.592 62.0035 101.708 61.8569 101.965Z" fill="#7B61FE"/>
<path d="M157.32 119.808C154.447 119.845 152.125 118.585 150.263 116.253C150.103 115.949 149.842 115.726 149.709 115.401L149.718 115.415C147.867 112.331 147.749 109.167 149.343 105.921L149.332 105.935C149.543 105.484 149.77 105.043 150.099 104.675L150.09 104.69C150.408 104.085 150.907 103.665 151.377 103.216C152.514 102.254 153.75 101.532 155.208 101.348C155.511 101.226 155.812 101.125 156.052 101.48C156.042 102.114 155.549 102.482 155.344 103.012C153.944 106.612 153.744 110.15 155.772 113.584L155.762 113.57C156.058 114.009 156.475 114.338 156.736 114.809L156.732 114.805C157 115.01 157.276 115.207 157.484 115.49C158.708 116.516 160.072 117.116 161.641 117.093C162.184 117.24 162.726 117.234 163.269 117.096C163.507 117.079 163.745 117.065 163.983 117.048C164.392 117.23 164.114 117.35 163.951 117.48C162.283 118.92 160.409 119.769 158.255 119.802C157.943 119.907 157.631 119.905 157.32 119.808Z" fill="#7B61FE"/>
<path d="M97.3598 102.82C98.6489 101.799 100.092 101.255 101.682 101.16C101.797 101.446 101.633 101.603 101.452 101.754C101.338 101.942 101.225 102.131 101.111 102.319C99.9057 104.746 99.4697 107.313 99.8848 110.049C100.109 111.534 100.709 112.832 101.494 114.046C102.918 115.931 104.708 117.044 106.993 117.098C107.595 117.243 108.199 117.241 108.8 117.1C108.978 117.088 109.153 117.073 109.33 117.061C109.433 117.001 109.535 116.966 109.642 117.05C109.745 117.131 109.671 117.201 109.633 117.274C107.9 118.898 105.881 119.724 103.602 119.813C103.29 119.908 102.979 119.912 102.667 119.81C100.61 119.74 98.7042 119.198 97.1008 117.706C96.8742 117.472 96.6057 117.295 96.3924 117.044L96.4115 117.065C96.0973 116.641 95.6821 116.31 95.4327 115.823L95.4403 115.836C95.008 115.354 94.7891 114.729 94.4863 114.162L94.4977 114.181C93.1914 110.998 93.4656 107.974 95.2594 105.098L95.2499 105.112C95.3813 104.783 95.6402 104.555 95.8078 104.255C96.0592 103.982 96.3105 103.709 96.5619 103.438C96.8399 103.246 97.057 102.968 97.3598 102.82Z" fill="#7B61FE"/>
<path d="M136.367 112.968C134.922 112.517 133.911 111.416 132.94 110.255C131.527 108.497 130.843 106.44 130.849 104.114C130.851 103.502 130.881 103.502 131.397 103.494C134.223 104.768 137.037 106.082 139.882 107.303C141.484 107.99 142.889 108.952 144.096 110.274C144.363 110.501 144.559 110.789 144.723 111.106L144.713 111.091C145.805 112.633 146.235 114.422 146.347 116.324C146.374 116.787 146.473 117.393 145.7 117.102C143.822 116.318 141.931 115.564 140.071 114.733C139.065 114.284 138.001 113.975 137.06 113.357C136.845 113.2 136.582 113.133 136.367 112.968Z" fill="#7B61FE"/>
<path d="M30.0137 119.345C28.2256 119.345 26.4375 119.347 24.6513 119.347C24.3486 119.078 24.5009 118.71 24.5009 118.393C24.4876 115.31 24.5219 112.225 24.48 109.143C24.4609 107.711 24.3848 106.254 23.4422 105.081C22.9528 104.407 23.684 104.45 23.8763 104.361C25.9557 103.397 27.8695 102.124 29.7261 100.74C29.9318 100.599 30.107 100.655 30.1736 100.895C30.2365 101.123 30.2003 101.373 30.2003 101.613C30.2003 107.247 30.2041 112.881 30.1927 118.517C30.1889 118.79 30.3545 119.142 30.0137 119.345Z" fill="#7B61FE"/>
<path d="M35.315 103.448C37.1659 103.31 38.7959 102.474 40.3955 101.545C40.7307 101.394 40.8697 101.609 40.9287 101.911C40.982 102.18 40.9611 102.459 40.9611 102.734C40.9611 107.828 40.963 112.922 40.9611 118.018C40.9611 119.251 40.9535 119.251 39.7919 119.254C38.4303 119.254 37.0669 119.225 35.7054 119.268C35.1112 119.287 34.9532 119.076 34.9551 118.445C34.976 113.729 34.9646 109.014 34.9684 104.296C34.9684 103.967 34.8808 103.579 35.315 103.448Z" fill="#7B61FE"/>
<path d="M115.084 103.651C116.849 103.146 118.382 102.163 119.797 100.943C120.206 100.655 120.469 100.587 120.467 101.303C120.456 107.057 120.456 112.813 120.469 118.567C120.471 119.121 120.283 119.27 119.801 119.262C118.342 119.237 116.884 119.227 115.425 119.266C114.857 119.281 114.743 119.032 114.745 118.478C114.76 113.827 114.753 109.173 114.757 104.522C114.757 104.189 114.671 103.806 115.084 103.651Z" fill="#7B61FE"/>
<path d="M45.9368 101.367C47.4164 101.77 48.6046 102.683 49.6405 103.862C49.9147 104.083 50.1147 104.371 50.2689 104.7L50.2575 104.683C51.2172 106.165 51.6819 107.832 51.7047 109.62C51.7428 112.548 51.6952 115.478 51.7295 118.407C51.7371 119.103 51.5314 119.287 50.9164 119.268C49.4596 119.223 47.9991 119.22 46.5404 119.268C45.8873 119.291 45.7159 119.003 45.7178 118.364C45.7235 112.989 45.7197 107.613 45.7235 102.238C45.7235 101.929 45.7045 101.611 45.9368 101.367Z" fill="#7B61FE"/>
<path d="M166.768 110.863C164.835 110.861 162.903 110.861 160.97 110.859C160.652 110.458 160.861 110.013 160.89 109.589C161.057 106.961 160.726 104.454 159.405 102.18C159.208 101.88 159.014 101.58 158.769 101.203C161.326 101.305 163.211 102.631 164.855 104.48C166.231 106.181 166.945 108.153 166.923 110.427C166.921 110.592 166.949 110.772 166.768 110.863Z" fill="#7B61FE"/>
<path d="M112.277 110.862C110.304 110.862 108.333 110.862 106.361 110.862C105.999 110.452 106.363 110.046 106.376 109.639C106.471 106.819 106.14 104.116 104.588 101.739L104.599 101.754C104.458 101.588 104.258 101.443 104.416 101.166C105.989 101.278 107.353 102.023 108.699 102.825C109.476 103.384 110.123 104.088 110.638 104.932C110.75 105.124 110.862 105.319 110.975 105.511C112.007 107.123 112.555 108.873 112.277 110.862Z" fill="#7B61FE"/>
<path d="M64.9776 101.16C66.8076 101.425 68.4662 102.124 69.8848 103.436C70.2866 103.705 70.6332 104.034 70.8427 104.508C71.0179 104.775 71.1911 105.042 71.3663 105.309C72.328 106.707 72.7983 108.302 72.9411 110.022C72.9659 110.32 72.9964 110.645 72.7222 110.862C70.7836 110.862 68.8451 110.86 66.9066 110.86C66.6743 110.682 66.76 110.421 66.7847 110.2C67.0608 107.729 66.838 105.344 65.8383 103.07C65.646 102.629 65.3984 102.246 65.1376 101.862C64.9947 101.651 64.7301 101.473 64.9776 101.16Z" fill="#7B61FE"/>
<path d="M20.1331 100.717C18.8934 101.973 17.5776 102.117 16.1798 101.149C15.0697 100.092 14.6603 98.7863 15.2125 97.2779C15.639 96.1131 15.5438 95.0847 14.8926 94.0833L14.9173 94.0999C15.102 93.4957 15.5096 93.9199 15.8161 93.8702C17.3567 94.1992 18.7772 94.8034 19.9426 95.9951C20.2073 96.2248 20.413 96.5062 20.5653 96.8331L20.5539 96.8165C21.2604 98.329 21.1309 99.527 20.1331 100.717Z" fill="#7B61FE"/>
<path d="M28.9684 98.05C27.9496 98.588 26.9309 98.6583 25.9121 98.0479C24.0041 96.3596 23.9469 93.8271 25.7883 92.4843C26.0854 92.3353 26.3844 92.1884 26.6814 92.0394C27.2527 91.9257 27.824 91.8222 28.3838 92.0995C28.9151 92.3539 29.4426 92.6126 29.8368 93.1029C31.2078 94.543 30.6461 97.4024 28.9684 98.05Z" fill="#7B61FE"/>
<path d="M124.336 101.979C125.574 101.046 126.869 100.568 128.33 101.373C129.725 102.161 130.133 104.057 129.289 105.484L129.299 105.468C129.137 105.85 128.867 106.117 128.531 106.314C128.217 106.459 128.006 106.858 127.595 106.769C127.155 106.873 126.717 106.885 126.277 106.763C125.351 106.695 124.818 105.803 124.009 105.486C123.605 105.323 123.2 105.348 122.794 105.478L122.718 105.466L122.649 105.503C121.895 105.675 122.158 105.126 122.28 104.81C122.506 104.224 122.874 103.719 123.245 103.229L123.236 103.241C123.504 102.718 123.929 102.358 124.336 101.979Z" fill="#7B61FE"/>
<path d="M88.0593 93.7256C91.2908 93.7525 94.5242 93.7773 97.7557 93.8083C97.8109 93.8083 97.8643 93.8746 97.9804 93.9511C97.0835 94.7953 96.0762 95.4863 95.4078 96.556C95.2345 96.9843 94.8803 97.2574 94.6309 97.6216L94.6423 97.6071C94.1262 98.5009 93.5074 99.3223 93.0922 100.287C93.0123 100.473 92.9247 100.669 92.6809 100.607C92.4886 100.558 92.4905 100.365 92.4581 100.202C92.222 99.012 91.6641 97.9878 91.0699 96.9802L91.0814 96.9947C90.849 96.7567 90.6738 96.465 90.472 96.1981C89.7427 95.356 88.8934 94.6856 87.9698 94.1166C87.8898 93.9573 87.8708 93.8146 88.0593 93.7256Z" fill="#7C62FE"/>
<path d="M134.248 116.135C135.478 117.253 136.716 118.353 138.257 118.949C138.373 119.096 138.39 119.231 138.211 119.338C135.899 119.338 133.588 119.34 131.276 119.34C130.771 119.276 130.739 118.906 130.743 118.455C130.758 116.706 130.744 114.96 130.752 113.212C130.754 112.889 130.64 112.436 131.059 112.355C131.398 112.289 131.422 112.746 131.584 112.972L131.573 112.957C131.778 113.228 132.018 113.472 132.15 113.803L132.14 113.789C132.504 114.294 132.991 114.681 133.313 115.229L133.31 115.227C133.656 115.486 133.978 115.779 134.248 116.135Z" fill="#7C63FE"/>
<path d="M14.8426 118.325C15.1053 118.052 15.37 117.776 15.6328 117.503C15.947 117.288 16.2041 117.013 16.4002 116.667C16.5887 116.456 16.7792 116.245 16.9677 116.034C17.1676 115.767 17.3466 115.482 17.5732 115.236L17.5637 115.252C17.6875 114.915 17.9503 114.687 18.1236 114.389C18.2454 114.189 18.3692 113.988 18.4911 113.787C18.8948 113.123 19.15 112.372 19.5194 111.689C19.647 111.455 19.6489 110.988 20.0411 111.118C20.3801 111.23 20.2906 111.629 20.2944 111.929C20.302 112.515 20.2963 113.102 20.2963 113.688C20.2963 115.275 20.2868 116.86 20.302 118.447C20.3058 118.898 20.2754 119.272 19.7688 119.339C18.1388 119.322 16.5069 119.32 14.8768 119.281C14.6102 119.274 14.1818 119.539 14.1113 118.943C14.3741 118.763 14.6026 118.538 14.8426 118.325Z" fill="#7C63FE"/>
<path d="M144.361 106.34C143.904 105.852 143.445 105.364 142.988 104.876C142.752 104.669 142.541 104.427 142.27 104.269C140.943 103.135 139.393 102.401 137.965 101.362C140.537 101.362 143.112 101.362 145.685 101.362C145.845 101.553 145.879 101.784 145.881 102.031C145.89 103.779 145.898 105.527 145.873 107.276C145.867 107.6 145.968 108.232 145.315 107.774C145.188 107.567 145.06 107.358 144.932 107.151C144.761 106.864 144.55 106.611 144.361 106.34Z" fill="#7B61FE"/>
<path d="M50.8999 2.67773C50.1706 4.76126 50.2925 6.93996 50.2925 9.10625C50.2944 30.827 50.2925 52.5478 50.2963 74.2707C50.2963 75.0611 50.302 75.8597 50.3839 76.6439C50.561 78.3095 51.2541 79.7123 52.3605 80.8751C50.6105 79.882 50.1916 78.0633 50.1287 76.1908C50.0259 73.0914 50.1002 69.9857 50.1002 66.8842C50.1002 46.44 50.1001 25.9958 50.0982 5.55163C50.1001 4.50056 50.2468 3.50742 50.8999 2.67773Z" fill="#FDFDFD"/>
<path d="M85.3357 104.245C85.549 104.356 85.6576 104.559 85.7604 104.779C86.8039 106.982 87.8436 109.188 88.9043 111.381C89.1499 111.888 89.1518 112.326 88.91 112.84C87.9979 114.77 87.1181 116.719 86.2193 118.658C86.0689 118.985 85.9413 119.477 85.4976 119.295C85.0958 119.132 84.6007 118.763 84.6597 118.289C84.734 117.689 84.4674 117.298 84.2656 116.858C80.8855 109.49 77.4922 102.126 74.1045 94.7623C73.6189 93.705 73.6228 93.7009 74.7596 93.7009C76.283 93.6988 77.8064 93.734 79.326 93.6844C80.0362 93.6616 80.4628 93.8561 80.8227 94.5947C81.6072 96.2045 82.4203 97.7955 83.0468 99.4901C83.0011 99.5046 82.9573 99.5191 82.9116 99.5315C82.4527 99.3825 82.3385 98.919 82.1499 98.5321C81.5692 97.3466 81.0645 96.1196 80.4361 94.9589C80.1257 94.3858 79.7278 94.1437 79.1203 94.1582C77.9168 94.1851 76.7114 94.1623 75.506 94.1665C74.4187 94.1706 74.4016 94.2016 74.9119 95.3127C76.0164 97.7169 77.1132 100.125 78.2234 102.525C80.5028 107.448 82.7536 112.386 85.0311 117.311C85.1453 117.557 85.252 117.807 85.3834 118.043C85.5738 118.385 85.7775 118.376 85.9375 118.031C86.7944 116.185 87.6837 114.358 88.4816 112.482C88.6777 112.018 88.4454 111.611 88.2626 111.209C87.3885 109.297 86.3717 107.464 85.5604 105.517C85.4062 105.147 85.151 104.808 85.2443 104.356C85.2767 104.325 85.3072 104.286 85.3357 104.245Z" fill="#FDFDFD"/>
<path d="M45.9375 101.367C45.9108 101.673 45.8594 101.979 45.8594 102.285C45.8537 107.586 45.8708 112.885 45.8403 118.184C45.8365 118.995 46.0403 119.27 46.8001 119.235C48.1597 119.173 49.5231 119.21 50.8847 119.22C51.3207 119.225 51.6178 119.148 51.6026 118.554C51.5169 115.186 51.7435 111.813 51.4731 108.447C51.3626 107.069 50.7323 105.908 50.2582 104.679C51.3836 105.848 51.7321 107.408 51.7835 108.968C51.8863 112.136 51.7987 115.312 51.8254 118.484C51.8311 119.167 51.6178 119.382 51.0008 119.365C49.447 119.328 47.8912 119.328 46.3354 119.365C45.7128 119.38 45.5147 119.154 45.5166 118.478C45.5357 113.03 45.5261 107.58 45.5299 102.132C45.5338 101.807 45.4538 101.408 45.9375 101.367Z" fill="#FDFDFD"/>
<path d="M35.3146 103.448C34.9833 103.727 35.0594 104.125 35.0594 104.497C35.0575 109.082 35.0747 113.665 35.0423 118.25C35.0366 119.028 35.2422 119.268 35.9563 119.237C37.2874 119.179 38.6204 119.191 39.9533 119.233C40.5912 119.251 40.8464 119.069 40.8426 118.316C40.8159 113.009 40.8293 107.7 40.8274 102.393C40.8274 102.033 40.9321 101.592 40.397 101.547C40.8198 101.251 41.113 101.269 41.1492 101.911C41.1587 102.083 41.153 102.254 41.153 102.428C41.153 107.7 41.132 112.97 41.1739 118.242C41.1816 119.175 40.9226 119.421 40.098 119.384C38.6108 119.314 37.1179 119.343 35.6288 119.376C35.0499 119.388 34.8576 119.171 34.8614 118.542C34.8785 113.754 34.8709 108.964 34.8709 104.176C34.8671 103.823 34.829 103.444 35.3146 103.448Z" fill="#FDFDFD"/>
<path d="M115.084 103.651C114.811 103.914 114.845 104.266 114.845 104.609C114.845 109.161 114.861 113.713 114.832 118.263C114.828 118.987 115.021 119.218 115.689 119.194C117.02 119.142 118.355 119.163 119.686 119.185C120.175 119.194 120.351 119.007 120.351 118.467C120.337 112.778 120.335 107.088 120.356 101.4C120.358 100.864 120.141 100.868 119.798 100.941C119.909 100.717 120.054 100.498 120.309 100.583C120.695 100.709 120.553 101.096 120.553 101.377C120.562 105.683 120.558 109.988 120.558 114.294C120.558 115.707 120.537 117.118 120.568 118.532C120.581 119.158 120.387 119.384 119.802 119.37C118.345 119.336 116.885 119.338 115.428 119.367C114.868 119.38 114.642 119.2 114.646 118.55C114.665 113.831 114.655 109.111 114.657 104.392C114.657 104.057 114.596 103.665 115.084 103.651Z" fill="#FDFDFD"/>
<path d="M9.51835 118.809C8.35105 117.392 7.93021 115.608 7.58745 113.835C6.48108 108.122 6.51345 102.437 8.18538 96.8338C8.43674 95.9917 8.71666 95.1454 9.32602 94.502C8.99278 95.8613 8.25964 97.0448 7.96639 98.4393C7.37227 101.264 7.01617 104.123 7.10186 106.997C7.19708 110.21 7.49414 113.421 8.54909 116.488C8.82711 117.29 9.38124 117.944 9.51835 118.809Z" fill="#FDFDFD"/>
<path d="M2.33381 98.4746C1.59307 100.179 0.79138 101.849 0.541924 103.759C-0.0388696 108.187 0.680933 112.234 3.39067 115.73C3.51064 115.886 3.66298 116.024 3.64393 116.26C1.85395 114.683 1.07321 112.451 0.492414 110.171C-0.526355 106.176 0.0677679 102.364 1.97772 98.7912C2.04818 98.6525 2.21194 98.5781 2.33381 98.4746Z" fill="#FDFDFD"/>
<path d="M30.0141 119.345C30.037 118.112 30.0769 116.881 30.0788 115.647C30.0865 111.017 30.0865 106.386 30.0731 101.756C30.0712 101.396 30.2902 100.895 29.7266 100.74C29.9665 100.475 30.176 100.475 30.275 100.86C30.3245 101.052 30.2978 101.27 30.2978 101.474C30.2978 107.1 30.3016 112.726 30.2921 118.352C30.2902 118.695 30.454 119.13 30.0141 119.345Z" fill="#FDFDFD"/>
<path d="M155.77 113.591C154.468 112.052 154.157 110.121 154.161 108.166C154.165 105.807 154.672 103.55 156.014 101.607C156.058 101.415 156.128 101.264 156.351 101.348C155.879 102.536 155.094 103.56 154.831 104.857C154.253 107.709 154.14 110.498 155.656 113.101C155.736 113.235 155.734 113.425 155.77 113.591Z" fill="#FDFDFD"/>
<path d="M101.494 114.048C99.7364 111.946 99.4222 109.405 99.6907 106.727C99.8488 105.153 100.169 103.609 101.111 102.318C101.13 102.972 100.704 103.448 100.529 104.032C99.5365 107.352 99.5308 110.549 101.384 113.564C101.465 113.694 101.46 113.884 101.494 114.048Z" fill="#FDFDFD"/>
<path d="M55.6521 105.302C55.2065 106.46 54.6428 107.563 54.4581 108.84C54.0925 111.37 54.6067 113.648 55.9701 115.719C56.0748 115.879 56.1301 116.077 56.2062 116.257C54.8714 115.02 54.3667 113.303 54.1401 111.54C53.8754 109.496 54.2125 107.499 55.2389 105.699C55.3455 105.517 55.456 105.362 55.6521 105.302Z" fill="#FDFDFD"/>
<path d="M23.4424 105.081C24.4935 106.01 24.5507 107.342 24.5697 108.631C24.6154 111.793 24.583 114.954 24.5887 118.116C24.5887 118.525 24.6306 118.937 24.6516 119.347C24.2441 119.105 24.404 118.68 24.4021 118.333C24.3888 115.73 24.3926 113.125 24.3964 110.522C24.3983 108.639 24.2974 106.783 23.4424 105.081Z" fill="#FDFDFD"/>
<path d="M64.977 101.16C65.1351 101.878 65.6759 102.356 65.952 103.012C66.9308 105.327 67.2392 107.731 66.8984 110.245C66.8717 110.446 66.9003 110.655 66.9022 110.86C66.3157 110.409 66.6813 109.763 66.6984 109.25C66.7898 106.558 66.4871 104.009 64.9123 101.795C64.8113 101.651 64.3505 101.293 64.977 101.16Z" fill="#FDFDFD"/>
<path d="M19.7689 119.339C20.0412 119.175 20.1555 118.937 20.1536 118.586C20.1383 116.225 20.1383 113.864 20.1288 111.503C20.1288 111.412 20.0679 111.319 20.0012 111.137C19.329 111.96 19.2529 113.115 18.4893 113.787C18.8911 112.788 19.289 111.787 19.6965 110.791C19.7784 110.589 19.9441 110.46 20.1536 110.514C20.384 110.574 20.3916 110.802 20.3916 111.011C20.3916 113.614 20.3897 116.219 20.3935 118.821C20.3954 119.312 20.125 119.376 19.7689 119.339Z" fill="#FDFDFD"/>
<path d="M145.313 107.774C145.81 107.975 145.717 107.572 145.717 107.294C145.71 105.316 145.696 103.338 145.683 101.362C146.159 101.422 146.071 101.822 146.073 102.151C146.079 103.978 146.079 105.802 146.071 107.629C146.071 107.888 146.167 108.252 145.841 108.333C145.479 108.42 145.346 108.122 145.313 107.774Z" fill="#FDFDFD"/>
<path d="M95.2612 105.095C94.2767 107.019 93.6674 109.035 93.8635 111.286C93.9511 112.291 94.3148 113.208 94.4995 114.178C93.3589 112.314 93.317 110.286 93.8064 108.209C94.0768 107.065 94.3205 105.881 95.2612 105.095Z" fill="#FDFDFD"/>
<path d="M159.405 102.18C160.405 103.369 160.651 104.876 160.932 106.378C161.214 107.874 160.992 109.365 160.971 110.861C160.586 110.861 160.653 110.644 160.675 110.321C160.813 108.447 160.851 106.566 160.329 104.745C160.079 103.868 159.716 103.032 159.405 102.18Z" fill="#FDFDFD"/>
<path d="M149.345 105.923C148.606 107.907 148.119 109.916 148.521 112.099C148.742 113.299 149.311 114.317 149.72 115.416C148.871 114.559 148.538 113.423 148.319 112.246C147.923 110.129 148.161 108.091 149.046 106.15C149.092 106.049 149.242 105.999 149.345 105.923Z" fill="#FDFDFD"/>
<path d="M104.586 101.739C105.911 103.27 106.25 105.209 106.446 107.187C106.568 108.41 106.484 109.639 106.359 110.86C105.995 110.702 106.073 110.367 106.117 110.073C106.532 107.266 106.027 104.659 104.71 102.217C104.635 102.081 104.626 101.901 104.586 101.739Z" fill="#FDFDFD"/>
<path d="M131.397 103.496C130.761 103.442 130.988 103.978 130.984 104.28C130.959 106.233 131.551 107.975 132.58 109.558C132.721 109.778 132.949 109.945 132.94 110.258C131.582 109.19 131.224 107.545 130.856 105.925C130.708 105.267 130.563 104.59 130.653 103.897C130.733 103.285 130.822 103.237 131.397 103.496Z" fill="#FDFDFD"/>
<path d="M91.0693 96.9785C92.01 97.9054 92.2728 99.2193 92.7298 100.558C93.4363 99.5338 93.8114 98.3875 94.6417 97.6075C94.3161 98.7289 93.5087 99.5503 93.0536 100.595C92.9336 100.872 92.4994 101.007 92.4213 100.539C92.2043 99.2379 91.4768 98.1848 91.0693 96.9785Z" fill="#FDFDFD"/>
<path d="M14.8941 94.0859C15.6939 94.8349 15.8424 95.8219 15.4692 96.7922C14.8313 98.4537 15.1188 99.8565 16.1814 101.152C15.2217 100.626 14.5323 99.0868 14.9436 97.833C15.3683 96.5295 15.3911 95.3294 14.8941 94.0859Z" fill="#FDFDFD"/>
<path d="M131.584 112.972C131.413 112.794 131.24 112.614 130.916 112.277C130.916 114.611 130.914 116.752 130.92 118.892C130.92 119.126 131.135 119.21 131.276 119.339C130.924 119.374 130.651 119.314 130.651 118.823C130.655 116.707 130.651 114.59 130.653 112.474C130.653 112.269 130.648 112.033 130.874 111.967C131.129 111.892 131.297 112.066 131.39 112.3C131.476 112.515 131.522 112.747 131.584 112.972Z" fill="#FDFDFD"/>
<path d="M145.7 117.104C146.407 117.176 146.237 116.626 146.218 116.212C146.138 114.362 145.54 112.686 144.716 111.093C146.125 112.715 146.496 114.716 146.435 116.847C146.42 117.402 146.055 117.379 145.7 117.104Z" fill="#FDFDFD"/>
<path d="M166.769 110.863C166.971 108.861 166.364 107.096 165.415 105.432C165.233 105.113 165.044 104.799 164.857 104.482C166.369 105.556 167.508 109.351 166.769 110.863Z" fill="#FDFDFD"/>
<path d="M116.143 43.6158C117.339 41.3357 117.034 39.2211 115.553 37.2349C117.318 38.3066 117.762 42.2978 116.143 43.6158Z" fill="#FDFDFD"/>
<path d="M72.7201 110.862C72.9962 108.801 72.2116 107.047 71.3643 105.309C72.3621 106.223 72.5906 107.554 72.9391 108.811C73.0457 109.198 73.1009 109.612 73.1238 110.018C73.1447 110.361 73.2799 110.823 72.7201 110.862Z" fill="#FDFDFD"/>
<path d="M25.788 92.4844C24.0894 94.4789 24.118 95.8176 25.9118 98.048C24.912 97.5473 24.2018 96.2645 24.2646 95.0686C24.3274 93.8789 24.9749 92.7802 25.788 92.4844Z" fill="#FDFDFD"/>
<path d="M112.277 110.862C112.336 108.937 111.82 107.179 110.975 105.515C111.95 106.339 112.121 107.582 112.359 108.766C112.494 109.448 112.909 110.193 112.277 110.862Z" fill="#FDFDFD"/>
<path d="M28.9688 98.0501C30.6921 96.5501 30.9111 95.3024 29.8352 93.103C30.9606 93.8313 30.7702 95.0541 30.6178 96.1052C30.4845 97.0197 30.037 97.9239 28.9688 98.0501Z" fill="#FDFDFD"/>
<path d="M129.288 105.484C129.859 103.868 129.623 102.474 128.328 101.373C129.931 102.023 130.446 104.222 129.288 105.484Z" fill="#FDFDFD"/>
<path d="M83.0488 99.4941C84.0771 100.928 84.6598 102.612 85.3358 104.247L85.292 104.288C84.993 104.311 84.8312 104.094 84.7131 103.854C84.1057 102.629 83.5458 101.379 82.9993 100.119C82.9193 99.9348 82.8889 99.7279 83.0012 99.5355L83.0488 99.4941Z" fill="#FDFDFD"/>
<path d="M20.1328 100.717C21.0088 99.5112 21.0088 98.1952 20.5517 96.8193C21.5381 97.8683 21.3211 99.8794 20.1328 100.717Z" fill="#FDFDFD"/>
<path d="M4.55975 95.772C3.81329 96.6782 3.06873 97.5824 2.32227 98.4886C2.71454 97.2369 3.54098 96.4113 4.55975 95.772Z" fill="#FDFDFD"/>
<path d="M123.247 103.229C122.971 103.755 122.683 104.274 122.424 104.81C122.284 105.101 122.07 105.468 122.651 105.503C122.493 105.733 122.264 105.759 122.068 105.635C121.847 105.497 122.005 105.275 122.059 105.095C122.284 104.346 122.603 103.666 123.247 103.229Z" fill="#FDFDFD"/>
<path d="M110.638 104.934C109.992 104.233 109.345 103.529 108.699 102.828C109.636 103.215 110.282 103.916 110.638 104.934Z" fill="#FDFDFD"/>
<path d="M114.832 45.0745C115.272 44.582 115.714 44.0896 116.154 43.5972C115.986 44.3793 115.51 44.8345 114.832 45.0745Z" fill="#FDFDFD"/>
<path d="M151.377 103.221C151.034 103.802 150.558 104.243 150.09 104.694C150.265 103.941 150.747 103.502 151.377 103.221Z" fill="#FDFDFD"/>
<path d="M133.313 115.227C132.854 114.813 132.362 114.431 132.14 113.787C132.654 114.151 133.164 114.515 133.313 115.227Z" fill="#FDFDFD"/>
<path d="M94.4873 114.16C94.91 114.648 95.1671 115.246 95.4413 115.834C94.8148 115.484 94.6263 114.838 94.4873 114.16Z" fill="#FDFDFD"/>
<path d="M124.337 101.979C123.971 102.4 123.604 102.822 123.238 103.242C123.358 102.567 123.768 102.193 124.337 101.979Z" fill="#FDFDFD"/>
<path d="M9.31654 94.514C9.4784 94.1313 9.53363 93.8126 8.97949 93.8726C9.24609 93.6264 9.65169 93.5726 9.78879 93.8354C9.97541 94.1913 9.59075 94.3733 9.31654 94.514Z" fill="#FDFDFD"/>
<path d="M156.733 114.816C156.323 114.48 155.922 114.139 155.76 113.576C156.207 113.876 156.64 114.189 156.733 114.816Z" fill="#FDFDFD"/>
<path d="M95.4336 115.823C95.8125 116.187 96.2181 116.527 96.4105 117.065C95.9439 116.781 95.5155 116.463 95.4336 115.823Z" fill="#FDFDFD"/>
<path d="M28.384 92.0996C27.8204 91.9485 27.251 92.0251 26.6816 92.0396C27.2586 91.752 27.828 91.6527 28.384 92.0996Z" fill="#FDFDFD"/>
<path d="M70.8426 104.505C70.5227 104.147 70.2047 103.792 69.8848 103.434C70.4465 103.537 70.7798 103.878 70.8426 104.505Z" fill="#FDFDFD"/>
<path d="M150.101 104.679C149.922 105.155 149.688 105.59 149.334 105.937C149.374 105.364 149.602 104.925 150.101 104.679Z" fill="#FDFDFD"/>
<path d="M51.6284 1.42188C51.4761 1.91224 51.2266 2.33432 50.8857 2.6964C50.9086 2.11707 51.1695 1.7012 51.6284 1.42188Z" fill="#FDFDFD"/>
<path d="M108.8 117.1C108.199 117.362 107.595 117.311 106.993 117.098C107.597 117.1 108.199 117.1 108.8 117.1Z" fill="#FDFDFD"/>
<path d="M94.6328 97.6221C94.7509 97.1462 95.0803 96.8524 95.4097 96.5586C95.3945 97.1234 95.0327 97.3883 94.6328 97.6221Z" fill="#FDFDFD"/>
<path d="M134.248 116.135C133.864 115.92 133.548 115.62 133.31 115.225C133.812 115.298 134.088 115.647 134.248 116.135Z" fill="#FDFDFD"/>
<path d="M4.01562 116.657C4.4555 116.773 4.74305 117.09 4.96394 117.497C4.48216 117.437 4.24794 117.05 4.01562 116.657Z" fill="#FDFDFD"/>
<path d="M163.267 117.102C162.724 117.36 162.181 117.315 161.641 117.1C162.183 117.1 162.724 117.102 163.267 117.102Z" fill="#FDFDFD"/>
<path d="M69.7305 117.528C69.5306 117.191 69.1954 117.346 68.925 117.27C68.8831 117.179 68.9079 117.123 68.9993 117.1C69.304 117.081 69.6106 117.061 69.9152 117.042C70.1076 116.978 70.3037 116.907 70.2389 117.272L70.2694 117.255C70.1209 117.419 69.9724 117.582 69.7305 117.528Z" fill="#927DFE"/>
<path d="M15.8158 93.8728C15.5187 93.9639 15.1512 93.7197 14.917 94.1025C14.8027 93.9928 14.3476 93.8997 14.8351 93.7321C15.1264 93.6307 15.5206 93.579 15.8158 93.8728Z" fill="#FDFDFD"/>
<path d="M128.531 106.314C128.786 106.033 129.043 105.751 129.299 105.468C129.278 106.004 129.009 106.271 128.531 106.314Z" fill="#FDFDFD"/>
<path d="M126.279 106.763C126.719 106.765 127.157 106.767 127.597 106.769C127.155 107.036 126.717 107.044 126.279 106.763Z" fill="#FDFDFD"/>
<path d="M156.353 101.346C156.24 101.433 156.128 101.517 156.015 101.604C155.816 101.265 155.486 101.41 155.21 101.352C155.589 101.118 155.968 101.004 156.353 101.346Z" fill="#9C88FE"/>
<path d="M57.117 103.428C56.957 103.786 56.7152 104.059 56.3857 104.237C56.4429 103.767 56.6885 103.5 57.117 103.428Z" fill="#FDFDFD"/>
<path d="M16.4002 116.667C16.3126 117.128 16.0556 117.406 15.6328 117.503C15.8137 117.143 16.0708 116.866 16.4002 116.667Z" fill="#FDFDFD"/>
<path d="M163.948 117.486C163.983 117.343 164.247 117.223 163.981 117.054C164.154 116.88 164.396 116.756 164.453 117.089C164.508 117.42 164.2 117.472 163.948 117.486Z" fill="#FDFDFD"/>
<path d="M69.0015 117.102C68.9767 117.16 68.952 117.215 68.9272 117.271C68.4759 117.226 68.0056 117.342 67.5752 117.1C68.0494 117.1 68.5254 117.102 69.0015 117.102Z" fill="#FDFDFD"/>
<path d="M132.152 113.804C131.863 113.601 131.648 113.336 131.575 112.958C131.918 113.117 132.177 113.346 132.152 113.804Z" fill="#FDFDFD"/>
<path d="M50.269 104.7C49.9701 104.502 49.7968 104.189 49.6406 103.862C50.0329 103.98 50.2804 104.224 50.269 104.7Z" fill="#FDFDFD"/>
<path d="M18.122 114.39C18.0858 114.793 17.8535 115.046 17.5622 115.252C17.5298 114.797 17.8059 114.578 18.122 114.39Z" fill="#FDFDFD"/>
<path d="M157.484 115.496C157.173 115.345 156.909 115.136 156.731 114.812C157.139 114.836 157.371 115.089 157.484 115.496Z" fill="#FDFDFD"/>
<path d="M17.5733 115.237C17.4762 115.597 17.301 115.887 16.9678 116.036C16.9982 115.616 17.2287 115.374 17.5733 115.237Z" fill="#FDFDFD"/>
<path d="M95.8085 104.253C95.7743 104.654 95.5191 104.886 95.2506 105.11C95.2258 104.663 95.4963 104.441 95.8085 104.253Z" fill="#FDFDFD"/>
<path d="M149.708 115.403C149.973 115.627 150.22 115.863 150.262 116.256C149.956 116.065 149.687 115.844 149.708 115.403Z" fill="#FDFDFD"/>
<path d="M142.27 104.27C142.626 104.309 142.848 104.532 142.987 104.876C142.628 104.843 142.435 104.576 142.27 104.27Z" fill="#FDFDFD"/>
<path d="M56.1861 104.464C56.148 104.857 55.9157 105.101 55.6415 105.316C55.6148 104.876 55.8852 104.658 56.1861 104.464Z" fill="#FDFDFD"/>
<path d="M97.3594 102.819C97.1347 103.086 96.9329 103.388 96.5635 103.436C96.7368 103.088 96.9481 102.802 97.3594 102.819Z" fill="#FDFDFD"/>
<path d="M122.796 105.478C123.202 105.234 123.607 105.238 124.011 105.486C123.605 105.484 123.2 105.482 122.796 105.478Z" fill="#FDFDFD"/>
<path d="M61.8564 101.965C61.9859 101.698 62.1135 101.429 62.243 101.162C62.6296 101.723 62.1078 101.766 61.8564 101.965Z" fill="#FDFDFD"/>
<path d="M144.725 111.108C144.43 110.907 144.245 110.609 144.099 110.276C144.483 110.396 144.725 110.645 144.725 111.108Z" fill="#FDFDFD"/>
<path d="M90.4717 96.1982C90.8068 96.3451 90.9877 96.6286 91.081 96.9948C90.7288 96.8624 90.5041 96.6162 90.4717 96.1982Z" fill="#FDFDFD"/>
<path d="M96.3916 117.042C96.7172 117.148 96.9686 117.35 97.1 117.704C96.7267 117.657 96.5097 117.414 96.3916 117.042Z" fill="#FDFDFD"/>
<path d="M20.5632 96.8355C20.2718 96.6286 20.0966 96.3224 19.9424 95.9976C20.327 96.1217 20.5746 96.3659 20.5632 96.8355Z" fill="#FDFDFD"/>
<path d="M144.361 106.341C144.685 106.5 144.891 106.757 144.931 107.152C144.632 106.972 144.382 106.75 144.361 106.341Z" fill="#FDFDFD"/>
<path d="M69.7312 117.528C69.9121 117.437 70.0911 117.346 70.272 117.257C70.1235 117.656 69.8892 117.923 69.4551 117.884C69.5484 117.766 69.6398 117.648 69.7312 117.528Z" fill="#FDFDFD"/>
<path d="M14.8426 118.325C14.6978 118.668 14.4693 118.896 14.1113 118.943C14.2732 118.625 14.4712 118.354 14.8426 118.325Z" fill="#FDFDFD"/>
<path d="M101.453 101.754C101.529 101.555 101.605 101.359 101.684 101.16C101.798 101.173 101.986 101.15 101.943 101.33C101.883 101.572 101.685 101.706 101.453 101.754Z" fill="#FDFDFD"/>
<path d="M88.0594 93.7256C88.0309 93.856 88.0004 93.9863 87.9718 94.1146C87.8005 94.0795 87.5377 94.0753 87.591 93.825C87.6386 93.6015 87.8938 93.7401 88.0594 93.7256Z" fill="#FDFDFD"/>
<path d="M109.632 117.271C109.599 117.083 109.441 117.11 109.329 117.06C109.518 116.853 109.763 116.752 109.929 117.006C110.015 117.137 109.778 117.234 109.632 117.271Z" fill="#FDFDFD"/>
<path d="M104.417 101.168C104.478 101.365 104.538 101.559 104.599 101.756C104.379 101.689 104.173 101.561 104.137 101.311C104.114 101.139 104.3 101.174 104.417 101.168Z" fill="#FDFDFD"/>
<path d="M70.2407 117.274C70.1322 117.197 70.0236 117.121 69.917 117.044C70.096 116.85 70.3493 116.771 70.4997 116.968C70.6158 117.121 70.3911 117.226 70.2407 117.274Z" fill="#FDFDFD"/>
<path d="M136.367 112.968C136.641 113.007 136.889 113.102 137.06 113.359C136.759 113.38 136.504 113.297 136.367 112.968Z" fill="#FDFDFD"/>
<path d="M138.213 119.336C138.228 119.206 138.243 119.078 138.259 118.947C138.438 118.972 138.706 118.964 138.676 119.212C138.641 119.471 138.375 119.316 138.213 119.336Z" fill="#FDFDFD"/>
<path d="M63.249 119.808C63.5613 119.808 63.8717 119.808 64.184 119.808C63.8736 120.063 63.5613 120.063 63.249 119.808Z" fill="#FDFDFD"/>
<path d="M102.666 119.808C102.978 119.808 103.289 119.81 103.601 119.81C103.289 120.063 102.978 120.065 102.666 119.808Z" fill="#FDFDFD"/>
<path d="M157.319 119.808C157.632 119.808 157.942 119.806 158.254 119.806C157.942 120.064 157.63 120.062 157.319 119.808Z" fill="#FDFDFD"/>
<path d="M83.0032 99.5335C83.6907 101.162 84.3991 102.778 85.294 104.286C86.2614 106.684 87.4763 108.944 88.5865 111.263C88.8645 111.842 88.8797 112.289 88.596 112.879C87.7277 114.677 86.9279 116.514 86.0976 118.333C86.0024 118.542 85.9624 118.858 85.732 118.894C85.4026 118.943 85.3721 118.565 85.2693 118.339C81.6208 110.468 77.9856 102.59 74.3275 94.723C73.9924 94.003 74.1599 93.8561 74.836 93.8706C76.3879 93.9057 77.9437 93.8995 79.4956 93.8706C80.006 93.8602 80.2821 94.0526 80.5334 94.543C81.3789 96.1941 82.0359 97.9549 83.0032 99.5335Z" fill="#7B61FE"/>
</svg>
