<svg width="110" height="81" viewBox="0 0 110 81" fill="none" xmlns="http://www.w3.org/2000/svg">
<g clip-path="url(#clip0_58_1281)">
<path d="M6.27016 45.2348C6.42946 45.5448 6.18863 45.4443 6.08453 45.4457C5.02591 45.4666 4.09773 45.0672 3.2699 44.3493C3.04664 44.1818 2.87229 43.9471 2.64526 43.7823C2.56373 43.693 2.48221 43.6022 2.39942 43.5128C0.274654 40.7755 -0.318625 37.6444 0.454018 34.1599C0.667247 33.1991 1.08743 32.3486 1.53772 31.5092L1.5302 31.519C1.90649 30.7928 2.44332 30.2286 3.00399 29.6853C3.85816 28.9297 4.82146 28.4856 5.91394 28.4032C6.0331 28.3585 6.17609 28.3055 6.25762 28.4284C6.36674 28.5932 6.22752 28.7175 6.13595 28.8362L6.14348 28.8264C5.13001 30.7299 4.81142 32.8457 4.66718 35.0021C4.47026 37.96 4.65338 40.8733 5.56274 43.6957C5.74085 44.2488 6.01052 44.7348 6.27016 45.2348Z" fill="#7B61FE"/>
<path d="M40.7438 33.8651C38.1537 37.3998 39.8181 42.9861 43.7679 44.0015C44.0075 44.0629 44.2621 44.0559 44.5092 44.0811C44.8014 44.2068 45.1062 44.1132 45.4048 44.1425C45.5929 44.1816 45.8187 44.0392 45.9654 44.2864C45.9943 44.4777 45.8977 44.5657 45.7497 44.6118C44.7074 45.4274 43.5434 45.838 42.2778 45.9106C42.0721 45.9776 41.8677 45.9776 41.662 45.9106C39.7843 45.9092 38.2453 45.0922 37.0248 43.5141C35.3905 41.1008 35.2613 38.5087 36.6586 36.1178L36.6523 36.1276C36.7326 35.9055 36.9132 35.7603 37.0098 35.5522C37.0537 35.5005 37.0976 35.4488 37.1415 35.3986C37.2744 35.1877 37.4375 35.0075 37.6231 34.8525C38.594 33.9182 39.7266 33.4308 40.9997 33.3232C41.1025 33.6137 40.8404 33.6919 40.7438 33.8651Z" fill="#7B61FE"/>
<path d="M103.624 45.9092C101.731 45.9344 100.202 45.0839 98.9752 43.5099C98.8698 43.3046 98.698 43.1538 98.6102 42.9345L98.6165 42.9443C97.3973 40.862 97.3195 38.7266 98.3694 36.5354L98.3619 36.5452C98.5011 36.2407 98.6503 35.9433 98.8673 35.6947L98.8611 35.7044C99.0705 35.2966 99.3992 35.0131 99.709 34.7101C100.458 34.0607 101.272 33.5733 102.233 33.449C102.432 33.3666 102.63 33.2981 102.788 33.5384C102.782 33.9657 102.457 34.2143 102.322 34.5718C101.4 37.0019 101.268 39.39 102.604 41.7083L102.598 41.6985C102.792 41.9946 103.067 42.2167 103.239 42.5351L103.236 42.5323C103.413 42.6706 103.595 42.8032 103.731 42.9946C104.538 43.6873 105.436 44.0923 106.47 44.0769C106.827 44.1761 107.185 44.1719 107.542 44.0783C107.699 44.0671 107.856 44.0574 108.012 44.0462C108.282 44.1691 108.099 44.2501 107.991 44.3381C106.892 45.3101 105.658 45.8827 104.239 45.905C104.034 45.9763 103.828 45.9749 103.624 45.9092Z" fill="#7B61FE"/>
<path d="M64.1294 34.4421C64.9786 33.7536 65.9293 33.3863 66.9767 33.322C67.0519 33.5147 66.9441 33.6209 66.8249 33.7228C66.7497 33.8499 66.6757 33.977 66.6004 34.1041C65.8064 35.7423 65.5192 37.4754 65.7926 39.3217C65.9406 40.3245 66.3357 41.2001 66.8525 42.0199C67.7907 43.2922 68.9698 44.0435 70.4749 44.0798C70.8713 44.1776 71.2689 44.1762 71.6652 44.0812C71.7819 44.0729 71.8973 44.0631 72.0139 44.0547C72.0816 44.0142 72.1494 43.9905 72.2196 44.0477C72.2874 44.1022 72.2384 44.1497 72.2133 44.1986C71.0719 45.2949 69.7424 45.8521 68.241 45.9122C68.0353 45.9764 67.8309 45.9792 67.6252 45.9108C66.2705 45.8633 65.015 45.4974 63.9589 44.4904C63.8096 44.3326 63.6327 44.2125 63.4923 44.0435L63.5048 44.0575C63.2978 43.7712 63.0244 43.5477 62.8601 43.2196L62.8651 43.2279C62.5804 42.9025 62.4362 42.4808 62.2367 42.0981L62.2442 42.1107C61.3838 39.9627 61.5644 37.9209 62.746 35.9797L62.7397 35.9895C62.8262 35.7674 62.9968 35.6138 63.1072 35.4113C63.2728 35.2269 63.4383 35.0426 63.6039 34.8597C63.787 34.7298 63.93 34.5426 64.1294 34.4421Z" fill="#7B61FE"/>
<path d="M89.8234 41.2921C88.8714 40.9877 88.2054 40.2447 87.5657 39.4612C86.635 38.2741 86.1847 36.8859 86.1885 35.3162C86.1898 34.9028 86.2098 34.9028 86.5497 34.8972C88.4111 35.7575 90.2649 36.6443 92.1389 37.4683C93.1937 37.932 94.1194 38.5814 94.9146 39.4738C95.0902 39.6274 95.2194 39.8215 95.3273 40.0352L95.321 40.0254C96.0397 41.0659 96.3232 42.2739 96.3972 43.5574C96.4147 43.8702 96.4799 44.2794 95.9707 44.0825C94.734 43.5532 93.4885 43.0448 92.263 42.4834C91.6008 42.1804 90.8996 41.9723 90.28 41.5547C90.1383 41.4486 89.9652 41.4039 89.8234 41.2921Z" fill="#7B61FE"/>
<path d="M19.7698 45.5964C18.592 45.5964 17.4142 45.5978 16.2377 45.5978C16.0383 45.4163 16.1386 45.1677 16.1386 44.954C16.1298 42.8731 16.1524 40.7908 16.1248 38.7099C16.1123 37.7435 16.0621 36.7603 15.4412 35.9685C15.1189 35.5132 15.6005 35.5425 15.7272 35.4824C17.0969 34.8316 18.3575 33.9727 19.5804 33.0384C19.7159 32.9435 19.8312 32.9812 19.8751 33.1432C19.9165 33.2968 19.8927 33.4658 19.8927 33.6278C19.8927 37.4307 19.8952 41.2335 19.8877 45.0378C19.8852 45.2222 19.9943 45.4596 19.7698 45.5964Z" fill="#7B61FE"/>
<path d="M23.2615 34.8666C24.4807 34.773 25.5543 34.2088 26.6079 33.5818C26.8287 33.4798 26.9203 33.6251 26.9591 33.829C26.9943 34.0105 26.9805 34.199 26.9805 34.3848C26.9805 37.8232 26.9817 41.2615 26.9805 44.7013C26.9805 45.5337 26.9754 45.5337 26.2103 45.5351C25.3135 45.5351 24.4154 45.5155 23.5186 45.5448C23.1273 45.5574 23.0232 45.4149 23.0244 44.989C23.0382 41.8062 23.0307 38.6234 23.0332 35.4392C23.0332 35.2172 22.9755 34.9546 23.2615 34.8666Z" fill="#7B61FE"/>
<path d="M75.8043 35.0035C76.9671 34.6627 77.9768 33.9994 78.9087 33.1754C79.1784 32.9813 79.3515 32.9352 79.3502 33.4184C79.3427 37.3023 79.3427 41.1875 79.3515 45.0714C79.3527 45.4457 79.2285 45.5462 78.9112 45.5407C77.9504 45.5239 76.9896 45.5169 76.0289 45.5435C75.6551 45.5532 75.5798 45.3856 75.5811 45.0114C75.5911 41.8719 75.5861 38.731 75.5886 35.5915C75.5886 35.3666 75.5321 35.1082 75.8043 35.0035Z" fill="#7B61FE"/>
<path d="M30.2585 33.4617C31.2331 33.734 32.0158 34.3499 32.6981 35.1459C32.8787 35.2954 33.0104 35.4895 33.112 35.7116L33.1045 35.7004C33.7367 36.7003 34.0427 37.826 34.0578 39.0326C34.0828 41.0088 34.0515 42.9863 34.0741 44.9639C34.0791 45.4331 33.9436 45.5574 33.5385 45.5448C32.579 45.5141 31.6169 45.5127 30.6561 45.5448C30.2259 45.5602 30.113 45.3661 30.1143 44.9345C30.118 41.3062 30.1155 37.6779 30.118 34.0496C30.118 33.8415 30.1055 33.6265 30.2585 33.4617Z" fill="#7B61FE"/>
<path d="M109.847 39.8719C108.574 39.8705 107.301 39.8705 106.028 39.8691C105.819 39.5982 105.957 39.2979 105.975 39.0116C106.086 37.238 105.868 35.5453 104.997 34.0105C104.868 33.808 104.74 33.6055 104.578 33.3513C106.263 33.4198 107.504 34.315 108.587 35.5635C109.494 36.7115 109.964 38.0424 109.949 39.5773C109.948 39.689 109.967 39.8105 109.847 39.8719Z" fill="#7B61FE"/>
<path d="M73.9552 39.8705C72.6557 39.8705 71.3575 39.8705 70.0581 39.8705C69.8198 39.594 70.0593 39.3203 70.0681 39.0451C70.1308 37.1416 69.9126 35.3177 68.8903 33.713L68.8979 33.7228C68.8051 33.6111 68.6734 33.5133 68.7775 33.3262C69.8135 33.4016 70.7116 33.9044 71.5984 34.4462C72.1101 34.8233 72.5366 35.2981 72.8752 35.8679C72.9492 35.9978 73.0232 36.1291 73.0972 36.259C73.7771 37.3469 74.1383 38.5284 73.9552 39.8705Z" fill="#7B61FE"/>
<path d="M42.7994 33.322C44.0047 33.5008 45.0972 33.9728 46.0317 34.8583C46.2963 35.0398 46.5246 35.2619 46.6626 35.5817C46.778 35.7618 46.8921 35.942 47.0075 36.1222C47.6409 37.0662 47.9507 38.143 48.0448 39.3036C48.0611 39.5047 48.0812 39.7239 47.9006 39.8706C46.6237 39.8706 45.3468 39.8692 44.07 39.8692C43.9169 39.7491 43.9734 39.5731 43.9897 39.4237C44.1716 37.7562 44.0248 36.1459 43.3663 34.6111C43.2396 34.3136 43.0766 34.0552 42.9047 33.7955C42.8107 33.653 42.6363 33.5329 42.7994 33.322Z" fill="#7B61FE"/>
<path d="M13.2614 33.0231C12.4448 33.8708 11.5781 33.9686 10.6575 33.315C9.92622 32.6014 9.65655 31.7201 10.0203 30.702C10.3013 29.9157 10.2385 29.2216 9.80957 28.5457L9.82588 28.5569C9.94754 28.1491 10.216 28.4354 10.4179 28.4019C11.4326 28.6239 12.3683 29.0317 13.1359 29.8361C13.3103 29.9912 13.4458 30.1811 13.5461 30.4017L13.5386 30.3906C14.0039 31.4115 13.9186 32.2201 13.2614 33.0231Z" fill="#7B61FE"/>
<path d="M19.0812 31.223C18.4101 31.5861 17.7391 31.6336 17.068 31.2216C15.8112 30.082 15.7736 28.3726 16.9865 27.4662C17.1822 27.3657 17.3791 27.2665 17.5748 27.1659C17.951 27.0891 18.3273 27.0193 18.6961 27.2064C19.046 27.3782 19.3935 27.5528 19.6531 27.8838C20.5562 28.8558 20.1862 30.7859 19.0812 31.223Z" fill="#7B61FE"/>
<path d="M81.8984 33.8751C82.7137 33.2452 83.5666 32.9226 84.5286 33.4659C85.448 33.998 85.7165 35.2773 85.1608 36.2409L85.1671 36.2297C85.0605 36.4881 84.8823 36.6683 84.6616 36.8009C84.4546 36.8987 84.3154 37.1682 84.0445 37.1082C83.7547 37.178 83.4663 37.1864 83.1765 37.104C82.5669 37.0579 82.2157 36.456 81.6827 36.2423C81.4167 36.132 81.1496 36.1487 80.8824 36.2367L80.8323 36.2283L80.7871 36.2535C80.2904 36.3694 80.4635 35.9993 80.5438 35.7856C80.693 35.3904 80.9351 35.0496 81.1797 34.7186L81.1734 34.727C81.3503 34.3737 81.63 34.1307 81.8984 33.8751Z" fill="#7B61FE"/>
<path d="M58.0032 28.304C60.1317 28.3221 62.2615 28.3389 64.3901 28.3598C64.4264 28.3598 64.4616 28.4045 64.5381 28.4562C63.9473 29.026 63.2838 29.4924 62.8435 30.2145C62.7294 30.5036 62.4961 30.6879 62.3318 30.9337L62.3393 30.9239C61.9994 31.5272 61.5917 32.0817 61.3183 32.7325C61.2656 32.8582 61.2079 32.9909 61.0474 32.949C60.9207 32.9154 60.922 32.7856 60.9006 32.6752C60.7451 31.8722 60.3776 31.1809 59.9862 30.5008L59.9938 30.5105C59.8408 30.3499 59.7254 30.153 59.5924 29.9729C59.112 29.4045 58.5526 28.952 57.9443 28.5679C57.8916 28.4604 57.879 28.364 58.0032 28.304Z" fill="#7C62FE"/>
<path d="M88.4275 43.4304C89.2378 44.1846 90.0531 44.9276 91.0678 45.3298C91.1443 45.4289 91.1556 45.5197 91.0377 45.5923C89.515 45.5923 87.9923 45.5937 86.4696 45.5937C86.1372 45.5504 86.1159 45.3005 86.1184 44.996C86.1284 43.8159 86.1197 42.6372 86.1247 41.4571C86.1259 41.2392 86.0507 40.9334 86.3266 40.8789C86.5499 40.8342 86.5662 41.1428 86.6728 41.2951L86.6653 41.2853C86.8007 41.4682 86.9588 41.633 87.0453 41.8565L87.039 41.8467C87.2786 42.1875 87.5997 42.4486 87.8117 42.8187L87.8092 42.8173C88.0375 42.9919 88.2494 43.1902 88.4275 43.4304Z" fill="#7C63FE"/>
<path d="M9.77657 44.9078C9.94966 44.7235 10.124 44.5377 10.2971 44.3534C10.5041 44.2081 10.6734 44.0224 10.8026 43.7891C10.9268 43.6467 11.0522 43.5042 11.1764 43.3618C11.3081 43.1816 11.426 42.9889 11.5752 42.8227L11.5689 42.8339C11.6505 42.6062 11.8236 42.4526 11.9377 42.2515C12.018 42.116 12.0995 41.9806 12.1798 41.8451C12.4457 41.3968 12.6138 40.8899 12.8571 40.429C12.9411 40.2712 12.9424 39.9555 13.2008 40.0435C13.424 40.1189 13.3651 40.3885 13.3676 40.591C13.3726 40.9862 13.3689 41.3828 13.3689 41.7781C13.3689 42.8492 13.3626 43.919 13.3726 44.9902C13.3751 45.2947 13.3551 45.5474 13.0214 45.5921C11.9477 45.581 10.8728 45.5796 9.79915 45.553C9.62355 45.5488 9.34133 45.7276 9.29492 45.3254C9.46801 45.2039 9.61853 45.0517 9.77657 44.9078Z" fill="#7C63FE"/>
<path d="M95.0882 36.8189C94.7871 36.4893 94.4848 36.1597 94.1838 35.8301C94.0283 35.6905 93.8891 35.5271 93.7109 35.4209C92.8367 34.6556 91.8157 34.1598 90.875 33.4587C92.5695 33.4587 94.2653 33.4587 95.9599 33.4587C96.0653 33.5872 96.0878 33.7436 96.0891 33.9098C96.0954 35.0899 96.1004 36.27 96.0841 37.4502C96.0803 37.6694 96.1468 38.0954 95.7166 37.7867C95.6325 37.6471 95.5485 37.506 95.4644 37.3664C95.3516 37.1722 95.2123 37.0018 95.0882 36.8189Z" fill="#7B61FE"/>
<path d="M33.5273 -33.1523C33.0469 -31.746 33.1272 -30.2754 33.1272 -28.8132C33.1284 -14.1519 33.1272 0.509324 33.1297 15.172C33.1297 15.7055 33.1334 16.2445 33.1874 16.7738C33.304 17.8981 33.7606 18.845 34.4893 19.6298C33.3366 18.9595 33.0607 17.7319 33.0193 16.468C32.9516 14.3759 33.0005 12.2797 33.0005 10.1862C33.0005 -3.61337 33.0005 -17.4129 32.9992 -31.2125C33.0005 -31.922 33.0971 -32.5923 33.5273 -33.1523Z" fill="#FDFDFD"/>
<path d="M56.2092 35.4042C56.3497 35.4796 56.4212 35.6165 56.4889 35.7645C57.1762 37.2519 57.8611 38.7406 58.5597 40.221C58.7215 40.5632 58.7228 40.8592 58.5635 41.2056C57.9627 42.5086 57.3832 43.8242 56.7912 45.1328C56.6921 45.3534 56.608 45.6858 56.3158 45.5629C56.0511 45.4526 55.725 45.204 55.7639 44.8842C55.8128 44.4792 55.6372 44.2152 55.5043 43.9177C53.2779 38.9445 51.0428 33.9741 48.8114 29.0037C48.4915 28.29 48.494 28.2873 49.2429 28.2873C50.2463 28.2859 51.2497 28.3096 52.2506 28.2761C52.7185 28.2607 52.9995 28.392 53.2365 28.8906C53.7533 29.9771 54.2889 31.0511 54.7015 32.1949C54.6714 32.2046 54.6426 32.2144 54.6125 32.2228C54.3102 32.1223 54.2349 31.8094 54.1108 31.5483C53.7282 30.748 53.3958 29.9198 52.9819 29.1364C52.7774 28.7495 52.5153 28.5861 52.1152 28.5959C51.3225 28.6141 50.5285 28.5987 49.7345 28.6015C49.0183 28.6043 49.007 28.6252 49.3432 29.3752C50.0707 30.998 50.7932 32.6236 51.5244 34.2436C53.0258 37.5661 54.5084 40.8997 56.0085 44.2236C56.0838 44.3898 56.154 44.5588 56.2405 44.718C56.366 44.9484 56.5002 44.9428 56.6055 44.7096C57.17 43.4638 57.7557 42.2307 58.2813 40.964C58.4105 40.6511 58.2574 40.376 58.137 40.1051C57.5613 38.8146 56.8915 37.5773 56.3572 36.2631C56.2556 36.0131 56.0875 35.7841 56.149 35.4796C56.1703 35.4587 56.1904 35.4321 56.2092 35.4042Z" fill="#FDFDFD"/>
<path d="M30.2577 33.4617C30.2401 33.6684 30.2063 33.8751 30.2063 34.0817C30.2025 37.6598 30.2138 41.2364 30.1937 44.813C30.1912 45.3605 30.3254 45.5462 30.8259 45.5225C31.7214 45.4806 32.6195 45.5057 33.5163 45.5127C33.8036 45.5155 33.9992 45.4638 33.9892 45.063C33.9327 42.7894 34.082 40.513 33.9039 38.2407C33.8311 37.3106 33.416 36.5272 33.1037 35.6976C33.8449 36.4867 34.0745 37.5397 34.1083 38.5927C34.1761 40.7308 34.1184 42.8746 34.1359 45.0155C34.1397 45.4764 33.9992 45.6217 33.5928 45.6105C32.5693 45.5853 31.5446 45.5853 30.5198 45.6105C30.1097 45.6203 29.9792 45.468 29.9805 45.0114C29.993 41.3342 29.9868 37.6556 29.9893 33.9784C29.9918 33.7591 29.9391 33.4896 30.2577 33.4617Z" fill="#FDFDFD"/>
<path d="M23.2614 34.8667C23.0432 35.0552 23.0934 35.3233 23.0934 35.5747C23.0921 38.6695 23.1034 41.763 23.0821 44.8578C23.0783 45.3829 23.2138 45.5449 23.6841 45.5239C24.5609 45.4848 25.4389 45.4932 26.3169 45.5211C26.7371 45.5337 26.9052 45.4108 26.9027 44.9025C26.8851 41.3202 26.8939 37.7366 26.8926 34.1544C26.8926 33.9114 26.9616 33.6139 26.6091 33.5832C26.8876 33.3835 27.0808 33.3961 27.1046 33.829C27.1109 33.9449 27.1071 34.0608 27.1071 34.1782C27.1071 37.7366 27.0933 41.2937 27.1209 44.8522C27.1259 45.482 26.9553 45.6482 26.4122 45.6231C25.4326 45.5756 24.4493 45.5952 23.4684 45.6175C23.0871 45.6259 22.9604 45.4792 22.9629 45.0547C22.9742 41.823 22.9692 38.5899 22.9692 35.3583C22.9667 35.1194 22.9416 34.8639 23.2614 34.8667Z" fill="#FDFDFD"/>
<path d="M75.8041 35.0034C75.6248 35.1808 75.6474 35.4182 75.6474 35.65C75.6474 38.7225 75.6574 41.7949 75.6386 44.866C75.6361 45.3548 75.7627 45.5112 76.203 45.4945C77.0798 45.4596 77.959 45.4735 78.8358 45.4889C79.1581 45.4945 79.2735 45.3688 79.2735 45.0043C79.2647 41.1637 79.2635 37.3231 79.2773 33.4839C79.2785 33.1222 79.1355 33.125 78.9098 33.1739C78.9825 33.023 79.0778 32.875 79.2459 32.9323C79.5005 33.0175 79.4065 33.2786 79.4065 33.4686C79.4127 36.3748 79.4102 39.2811 79.4102 42.1874C79.4102 43.1412 79.3964 44.0937 79.4165 45.0476C79.4253 45.4707 79.2973 45.623 78.9123 45.6132C77.9527 45.5908 76.9907 45.5922 76.0312 45.6118C75.6624 45.6202 75.5131 45.4987 75.5157 45.0601C75.5282 41.8745 75.5219 38.689 75.5232 35.5034C75.5232 35.2771 75.483 35.0132 75.8041 35.0034Z" fill="#FDFDFD"/>
<path d="M6.27007 45.2346C5.50119 44.278 5.22399 43.0741 4.99822 41.8772C4.26948 38.0213 4.2908 34.1835 5.39207 30.4016C5.55764 29.8332 5.74202 29.262 6.14339 28.8276C5.92389 29.7452 5.44099 30.544 5.24783 31.4853C4.85649 33.3916 4.62193 35.3217 4.67838 37.2616C4.74109 39.4304 4.93676 41.5979 5.63164 43.6677C5.81476 44.2095 6.17976 44.6508 6.27007 45.2346Z" fill="#FDFDFD"/>
<path d="M1.53724 31.5093C1.04932 32.6601 0.521268 33.7871 0.356956 35.0761C-0.0256027 38.0648 0.448519 40.7965 2.23337 43.1567C2.31239 43.2615 2.41274 43.355 2.40019 43.5142C1.22116 42.4501 0.706903 40.9431 0.324344 39.4041C-0.346701 36.7073 0.0446375 34.1348 1.30269 31.723C1.3491 31.6294 1.45697 31.5791 1.53724 31.5093Z" fill="#FDFDFD"/>
<path d="M19.7695 45.5965C19.7845 44.7641 19.8109 43.9331 19.8121 43.1008C19.8171 39.9752 19.8171 36.8497 19.8084 33.7242C19.8071 33.4812 19.9513 33.1432 19.5801 33.0384C19.7381 32.8597 19.8761 32.8597 19.9413 33.1194C19.9739 33.2493 19.9564 33.396 19.9564 33.5342C19.9564 37.3315 19.9589 41.1288 19.9526 44.9261C19.9513 45.1579 20.0592 45.4512 19.7695 45.5965Z" fill="#FDFDFD"/>
<path d="M102.603 41.7125C101.745 40.6734 101.54 39.3704 101.543 38.0506C101.546 36.4585 101.879 34.9349 102.763 33.6235C102.792 33.4936 102.839 33.3917 102.985 33.4489C102.674 34.2506 102.158 34.9419 101.985 35.8175C101.603 37.742 101.529 39.6246 102.528 41.3815C102.58 41.4723 102.579 41.6007 102.603 41.7125Z" fill="#FDFDFD"/>
<path d="M66.8517 42.0212C65.694 40.6023 65.4871 38.8873 65.6639 37.0801C65.768 36.0173 65.9787 34.9755 66.5996 34.104C66.6122 34.5453 66.3312 34.8665 66.2158 35.2604C65.5623 37.5019 65.5586 39.6596 66.779 41.6944C66.8329 41.7824 66.8292 41.9109 66.8517 42.0212Z" fill="#FDFDFD"/>
<path d="M36.6573 36.1179C36.3638 36.9 35.9925 37.6444 35.8709 38.5061C35.6301 40.2141 35.9687 41.7517 36.8668 43.1497C36.9358 43.2572 36.9721 43.3913 37.0223 43.5128C36.1431 42.6776 35.8107 41.5185 35.6614 40.3286C35.4871 38.9488 35.7091 37.6011 36.3851 36.3861C36.4554 36.2632 36.5281 36.1584 36.6573 36.1179Z" fill="#FDFDFD"/>
<path d="M15.4414 35.9685C16.1338 36.5956 16.1714 37.495 16.1839 38.365C16.214 40.499 16.1927 42.633 16.1965 44.7669C16.1965 45.0435 16.2241 45.3214 16.2379 45.5979C15.9695 45.4345 16.0748 45.1482 16.0736 44.9136C16.0648 43.1567 16.0673 41.3984 16.0698 39.6415C16.0711 38.3706 16.0046 37.1179 15.4414 35.9685Z" fill="#FDFDFD"/>
<path d="M42.7995 33.322C42.9036 33.8066 43.2598 34.1292 43.4417 34.572C44.0864 36.1347 44.2896 37.7575 44.0651 39.4544C44.0475 39.5899 44.0663 39.7309 44.0676 39.8692C43.6812 39.5647 43.9221 39.129 43.9334 38.7826C43.9936 36.9657 43.7941 35.2451 42.7568 33.7508C42.6904 33.653 42.3868 33.4114 42.7995 33.322Z" fill="#FDFDFD"/>
<path d="M13.0216 45.5921C13.201 45.4818 13.2762 45.3212 13.275 45.0838C13.2649 43.4903 13.2649 41.8968 13.2587 40.3033C13.2587 40.2418 13.2185 40.179 13.1746 40.0561C12.7319 40.6119 12.6817 41.3912 12.1787 41.8451C12.4434 41.1706 12.7055 40.4946 12.9739 39.8229C13.0279 39.686 13.137 39.5994 13.275 39.6357C13.4267 39.6762 13.4317 39.8299 13.4317 39.9709C13.4317 41.7278 13.4305 43.4861 13.433 45.243C13.4343 45.574 13.2561 45.6173 13.0216 45.5921Z" fill="#FDFDFD"/>
<path d="M95.7158 37.7867C96.0432 37.9222 95.9817 37.6499 95.9817 37.4627C95.9767 36.1276 95.9679 34.7925 95.9592 33.4587C96.2727 33.4992 96.215 33.7688 96.2163 33.9908C96.22 35.224 96.2201 36.4558 96.215 37.689C96.215 37.8635 96.2777 38.1093 96.0633 38.1638C95.8249 38.2225 95.7371 38.0213 95.7158 37.7867Z" fill="#FDFDFD"/>
<path d="M62.7464 35.9783C62.098 37.2771 61.6966 38.6374 61.8258 40.1568C61.8835 40.8356 62.1231 41.4542 62.2447 42.1092C61.4934 40.8509 61.4658 39.4823 61.7882 38.0801C61.9663 37.3078 62.1268 36.509 62.7464 35.9783Z" fill="#FDFDFD"/>
<path d="M104.997 34.0105C105.656 34.8135 105.817 35.8302 106.003 36.8441C106.189 37.8539 106.042 38.8608 106.028 39.8705C105.775 39.8705 105.819 39.7239 105.834 39.506C105.924 38.2407 105.949 36.9712 105.605 35.7423C105.441 35.1501 105.202 34.5859 104.997 34.0105Z" fill="#FDFDFD"/>
<path d="M98.3713 36.5369C97.8846 37.8762 97.5635 39.2323 97.8282 40.7056C97.9736 41.5157 98.3487 42.2028 98.6184 42.9444C98.0589 42.3662 97.8394 41.5995 97.6952 40.8048C97.4343 39.3761 97.5911 38.0005 98.1743 36.6905C98.2044 36.6221 98.3035 36.5885 98.3713 36.5369Z" fill="#FDFDFD"/>
<path d="M68.8887 33.7129C69.7617 34.7464 69.9849 36.055 70.1141 37.3901C70.1944 38.2155 70.1392 39.045 70.0564 39.869C69.8168 39.7629 69.8683 39.5366 69.8971 39.3383C70.1706 37.4431 69.8382 35.6835 68.9702 34.0355C68.9213 33.9433 68.915 33.8218 68.8887 33.7129Z" fill="#FDFDFD"/>
<path d="M86.5496 34.8986C86.1307 34.8623 86.2799 35.224 86.2774 35.4279C86.2611 36.7463 86.6512 37.9222 87.3285 38.9906C87.4213 39.1386 87.5718 39.2518 87.5656 39.4626C86.6712 38.742 86.4354 37.6317 86.1934 36.5382C86.0955 36.0941 86.0002 35.6374 86.0592 35.1696C86.1118 34.7562 86.1708 34.7241 86.5496 34.8986Z" fill="#FDFDFD"/>
<path d="M59.9863 30.4995C60.6059 31.1252 60.779 32.012 61.0801 32.9156C61.5454 32.2243 61.7925 31.4506 62.3394 30.9241C62.1249 31.681 61.5931 32.2355 61.2933 32.9407C61.2143 33.1279 60.9283 33.2186 60.8769 32.903C60.7339 32.0246 60.2547 31.3137 59.9863 30.4995Z" fill="#FDFDFD"/>
<path d="M9.811 28.5471C10.3378 29.0527 10.4356 29.7188 10.1898 30.3738C9.76961 31.4953 9.95901 32.4422 10.6589 33.3164C10.0267 32.9617 9.57269 31.9226 9.84361 31.0763C10.1233 30.1965 10.1384 29.3865 9.811 28.5471Z" fill="#FDFDFD"/>
<path d="M86.6722 41.295C86.5593 41.1749 86.4452 41.0534 86.232 40.8258C86.232 42.4011 86.2307 43.8466 86.2345 45.2906C86.2345 45.4484 86.3762 45.5057 86.469 45.5923C86.237 45.616 86.0576 45.5755 86.0576 45.2445C86.0601 43.8158 86.0576 42.3871 86.0589 40.9584C86.0589 40.8202 86.0551 40.661 86.2044 40.6163C86.3724 40.566 86.4828 40.6833 86.5443 40.8411C86.6007 40.9864 86.6308 41.1428 86.6722 41.295Z" fill="#FDFDFD"/>
<path d="M95.9707 44.0839C96.4361 44.1328 96.3244 43.7613 96.3119 43.482C96.2592 42.2334 95.8654 41.1022 95.3223 40.0269C96.2504 41.1218 96.495 42.4723 96.4549 43.9107C96.4449 44.285 96.204 44.2697 95.9707 44.0839Z" fill="#FDFDFD"/>
<path d="M109.848 39.872C109.981 38.5201 109.581 37.3288 108.956 36.206C108.836 35.9909 108.712 35.7786 108.589 35.5649C109.585 36.2898 110.335 38.8511 109.848 39.872Z" fill="#FDFDFD"/>
<path d="M47.8999 39.8705C48.0818 38.4795 47.565 37.2952 47.0068 36.1221C47.6641 36.7394 47.8146 37.6374 48.0441 38.4865C48.1144 38.7476 48.1508 39.0269 48.1658 39.3007C48.1796 39.5325 48.2687 39.8439 47.8999 39.8705Z" fill="#FDFDFD"/>
<path d="M16.9864 27.4661C15.8676 28.8124 15.8864 29.7159 17.068 31.2215C16.4095 30.8835 15.9416 30.0176 15.983 29.2104C16.0244 28.4074 16.4509 27.6658 16.9864 27.4661Z" fill="#FDFDFD"/>
<path d="M73.9546 39.8705C73.9935 38.5717 73.6536 37.3846 73.0967 36.2617C73.7389 36.8176 73.8518 37.6569 74.0085 38.4557C74.0976 38.9166 74.371 39.4194 73.9546 39.8705Z" fill="#FDFDFD"/>
<path d="M19.0811 31.223C20.2162 30.2105 20.3604 29.3683 19.6518 27.8838C20.393 28.3754 20.2676 29.2008 20.1673 29.9102C20.0795 30.5275 19.7847 31.1378 19.0811 31.223Z" fill="#FDFDFD"/>
<path d="M85.1595 36.2408C85.5358 35.1501 85.3803 34.2088 84.5273 33.4658C85.5835 33.9043 85.9221 35.3889 85.1595 36.2408Z" fill="#FDFDFD"/>
<path d="M54.7028 32.1978C55.3801 33.1656 55.7639 34.3024 56.2092 35.4057L56.1804 35.4336C55.9834 35.449 55.8768 35.3023 55.799 35.1403C55.3989 34.3136 55.0302 33.47 54.6702 32.6195C54.6175 32.4952 54.5974 32.3556 54.6714 32.2257L54.7028 32.1978Z" fill="#FDFDFD"/>
<path d="M13.2617 33.023C13.8387 32.2088 13.8387 31.3206 13.5377 30.3918C14.1874 31.0999 14.0444 32.4574 13.2617 33.023Z" fill="#FDFDFD"/>
<path d="M3.00406 29.6853C2.51238 30.297 2.02196 30.9073 1.53027 31.519C1.78866 30.6741 2.33302 30.1168 3.00406 29.6853Z" fill="#FDFDFD"/>
<path d="M81.1807 34.7185C80.9989 35.0732 80.8095 35.4238 80.6389 35.7855C80.5461 35.9824 80.4056 36.2296 80.7882 36.2533C80.684 36.4084 80.5335 36.4265 80.4043 36.3427C80.2588 36.2492 80.363 36.0997 80.3981 35.9782C80.5461 35.4727 80.7568 35.0132 81.1807 34.7185Z" fill="#FDFDFD"/>
<path d="M72.8755 35.8692C72.4503 35.3958 72.0238 34.9209 71.5986 34.4475C72.2157 34.7087 72.6409 35.1821 72.8755 35.8692Z" fill="#FDFDFD"/>
<path d="M99.7092 34.7129C99.4835 35.1053 99.1699 35.4028 98.8613 35.7073C98.9767 35.1989 99.2941 34.9028 99.7092 34.7129Z" fill="#FDFDFD"/>
<path d="M87.8117 42.8172C87.5094 42.5379 87.1858 42.2795 87.0391 41.8452C87.3777 42.091 87.7139 42.3368 87.8117 42.8172Z" fill="#FDFDFD"/>
<path d="M62.2373 42.0967C62.5158 42.4263 62.6851 42.8299 62.8657 43.2265C62.453 42.9905 62.3289 42.5548 62.2373 42.0967Z" fill="#FDFDFD"/>
<path d="M81.8985 33.875C81.6577 34.1585 81.4156 34.4434 81.1748 34.7269C81.2538 34.2716 81.5235 34.0188 81.8985 33.875Z" fill="#FDFDFD"/>
<path d="M6.13705 28.8361C6.24366 28.5777 6.28004 28.3627 5.91504 28.4032C6.09064 28.237 6.3578 28.2007 6.44811 28.378C6.57103 28.6182 6.31767 28.7411 6.13705 28.8361Z" fill="#FDFDFD"/>
<path d="M103.238 42.5394C102.968 42.3132 102.703 42.0827 102.597 41.7029C102.891 41.9054 103.176 42.1163 103.238 42.5394Z" fill="#FDFDFD"/>
<path d="M62.8613 43.2195C63.1109 43.4653 63.3781 43.6943 63.5048 44.0574C63.1975 43.8661 62.9153 43.651 62.8613 43.2195Z" fill="#FDFDFD"/>
<path d="M18.6965 27.2063C18.3253 27.1044 17.9502 27.156 17.5752 27.1658C17.9552 26.9717 18.3303 26.9046 18.6965 27.2063Z" fill="#FDFDFD"/>
<path d="M46.6631 35.5801C46.4524 35.3385 46.2429 35.0983 46.0322 34.8567C46.4022 34.9265 46.6217 35.157 46.6631 35.5801Z" fill="#FDFDFD"/>
<path d="M98.8688 35.6975C98.7509 36.0187 98.5966 36.312 98.3633 36.5466C98.3896 36.1598 98.5401 35.8637 98.8688 35.6975Z" fill="#FDFDFD"/>
<path d="M71.6649 44.0812C71.2686 44.2586 70.871 44.2237 70.4746 44.0798C70.8722 44.0812 71.2686 44.0812 71.6649 44.0812Z" fill="#FDFDFD"/>
<path d="M62.333 30.9339C62.4108 30.6127 62.6278 30.4144 62.8448 30.2161C62.8347 30.5973 62.5964 30.7761 62.333 30.9339Z" fill="#FDFDFD"/>
<path d="M88.427 43.4304C88.1736 43.2852 87.9654 43.0827 87.8086 42.8159C88.1397 42.8648 88.3216 43.1008 88.427 43.4304Z" fill="#FDFDFD"/>
<path d="M2.64453 43.7822C2.93427 43.8604 3.12367 44.0741 3.26917 44.3492C2.95183 44.3087 2.79755 44.0476 2.64453 43.7822Z" fill="#FDFDFD"/>
<path d="M107.541 44.0825C107.183 44.257 106.826 44.2263 106.47 44.0811C106.827 44.0811 107.183 44.0825 107.541 44.0825Z" fill="#FDFDFD"/>
<path d="M45.9303 44.3702C45.7986 44.1426 45.5778 44.2473 45.3997 44.1956C45.3721 44.1342 45.3884 44.0965 45.4486 44.0811C45.6493 44.0685 45.8513 44.0546 46.052 44.042C46.1786 43.9987 46.3078 43.9512 46.2652 44.197L46.2853 44.1859C46.1874 44.2962 46.0896 44.4065 45.9303 44.3702Z" fill="#927DFE"/>
<path d="M10.4174 28.4032C10.2217 28.4647 9.97964 28.2999 9.82536 28.5582C9.75011 28.4842 9.45033 28.4214 9.77143 28.3082C9.96334 28.2398 10.223 28.2049 10.4174 28.4032Z" fill="#FDFDFD"/>
<path d="M84.6621 36.8007C84.8302 36.6108 84.9995 36.4208 85.1676 36.2295C85.1538 36.5912 84.9769 36.7714 84.6621 36.8007Z" fill="#FDFDFD"/>
<path d="M83.1777 37.1038C83.4675 37.1052 83.756 37.1065 84.0457 37.1079C83.7547 37.2881 83.4662 37.2937 83.1777 37.1038Z" fill="#FDFDFD"/>
<path d="M102.987 33.4475C102.913 33.5062 102.839 33.5635 102.765 33.6221C102.633 33.3931 102.416 33.4908 102.234 33.4517C102.484 33.2939 102.734 33.2171 102.987 33.4475Z" fill="#9C88FE"/>
<path d="M37.6223 34.8525C37.5169 35.0941 37.3576 35.2785 37.1406 35.3986C37.1783 35.0816 37.3401 34.9014 37.6223 34.8525Z" fill="#FDFDFD"/>
<path d="M10.8024 43.7893C10.7447 44.1007 10.5753 44.2879 10.2969 44.3535C10.416 44.1105 10.5854 43.9234 10.8024 43.7893Z" fill="#FDFDFD"/>
<path d="M107.99 44.3424C108.013 44.246 108.187 44.165 108.012 44.0505C108.126 43.9332 108.285 43.8494 108.323 44.0743C108.359 44.2977 108.156 44.3326 107.99 44.3424Z" fill="#FDFDFD"/>
<path d="M45.4502 44.0825C45.4339 44.1216 45.4176 44.1593 45.4013 44.197C45.104 44.1662 44.7942 44.2445 44.5107 44.0811C44.8231 44.0811 45.1366 44.0825 45.4502 44.0825Z" fill="#FDFDFD"/>
<path d="M87.0461 41.8564C86.8554 41.7195 86.7137 41.5407 86.666 41.2852C86.8918 41.3927 87.0624 41.5477 87.0461 41.8564Z" fill="#FDFDFD"/>
<path d="M33.1112 35.7114C32.9143 35.5773 32.8001 35.3664 32.6973 35.1458C32.9556 35.2254 33.1187 35.3902 33.1112 35.7114Z" fill="#FDFDFD"/>
<path d="M11.9369 42.2517C11.913 42.524 11.76 42.6944 11.5681 42.8341C11.5468 42.5268 11.7287 42.3788 11.9369 42.2517Z" fill="#FDFDFD"/>
<path d="M103.732 42.9989C103.527 42.8969 103.353 42.7559 103.236 42.5366C103.505 42.5534 103.658 42.7238 103.732 42.9989Z" fill="#FDFDFD"/>
<path d="M11.5756 42.8242C11.5117 43.0672 11.3963 43.2628 11.1768 43.3633C11.1968 43.0798 11.3486 42.9164 11.5756 42.8242Z" fill="#FDFDFD"/>
<path d="M63.1078 35.4099C63.0852 35.6808 62.9172 35.8373 62.7403 35.9881C62.724 35.6864 62.9021 35.537 63.1078 35.4099Z" fill="#FDFDFD"/>
<path d="M98.6111 42.936C98.7855 43.0869 98.9485 43.2461 98.9761 43.5114C98.7742 43.3829 98.5973 43.2335 98.6111 42.936Z" fill="#FDFDFD"/>
<path d="M93.71 35.4209C93.9445 35.4474 94.0913 35.5983 94.1828 35.8301C93.9458 35.8077 93.8191 35.6276 93.71 35.4209Z" fill="#FDFDFD"/>
<path d="M37.0084 35.5522C36.9833 35.8176 36.8303 35.9824 36.6496 36.1276C36.6321 35.8302 36.8102 35.6835 37.0084 35.5522Z" fill="#FDFDFD"/>
<path d="M64.1288 34.4419C63.9808 34.622 63.8478 34.8259 63.6045 34.858C63.7186 34.6234 63.8579 34.4307 64.1288 34.4419Z" fill="#FDFDFD"/>
<path d="M80.8838 36.2366C81.151 36.0718 81.4181 36.0746 81.684 36.2422C81.4169 36.2408 81.1497 36.2394 80.8838 36.2366Z" fill="#FDFDFD"/>
<path d="M40.7441 33.8651C40.8294 33.685 40.9135 33.5034 40.9988 33.3232C41.2534 33.7017 40.9097 33.731 40.7441 33.8651Z" fill="#FDFDFD"/>
<path d="M95.3287 40.0368C95.1343 39.9013 95.0126 39.7002 94.916 39.4753C95.1694 39.5563 95.3287 39.7239 95.3287 40.0368Z" fill="#FDFDFD"/>
<path d="M59.5918 29.9729C59.8126 30.0721 59.9317 30.2634 59.9932 30.5106C59.7611 30.4212 59.6131 30.255 59.5918 29.9729Z" fill="#FDFDFD"/>
<path d="M63.4922 44.042C63.7067 44.1132 63.8722 44.2501 63.9588 44.4889C63.7129 44.4568 63.57 44.2934 63.4922 44.042Z" fill="#FDFDFD"/>
<path d="M13.5446 30.403C13.3527 30.2634 13.2373 30.0567 13.1357 29.8374C13.3891 29.9212 13.5522 30.086 13.5446 30.403Z" fill="#FDFDFD"/>
<path d="M95.0889 36.8188C95.3021 36.9264 95.4376 37.0996 95.4639 37.3663C95.267 37.2448 95.1027 37.0954 95.0889 36.8188Z" fill="#FDFDFD"/>
<path d="M45.9309 44.3702C46.0501 44.3088 46.168 44.2473 46.2871 44.1873C46.1893 44.4568 46.035 44.637 45.749 44.6104C45.8105 44.5308 45.8707 44.4512 45.9309 44.3702Z" fill="#FDFDFD"/>
<path d="M9.77657 44.908C9.68124 45.1398 9.53073 45.2934 9.29492 45.3255C9.40154 45.1105 9.53198 44.9275 9.77657 44.908Z" fill="#FDFDFD"/>
<path d="M66.8262 33.7228C66.8763 33.5888 66.9265 33.4561 66.9779 33.322C67.0532 33.3304 67.1774 33.315 67.1485 33.4365C67.1096 33.5999 66.9792 33.6907 66.8262 33.7228Z" fill="#FDFDFD"/>
<path d="M58.0026 28.304C57.9838 28.392 57.9637 28.48 57.9449 28.5666C57.832 28.5428 57.659 28.54 57.6941 28.371C57.7254 28.2202 57.8935 28.3138 58.0026 28.304Z" fill="#FDFDFD"/>
<path d="M72.2131 44.1971C72.1918 44.07 72.0877 44.0882 72.0137 44.0547C72.1378 43.915 72.2996 43.8466 72.4088 44.0183C72.4652 44.1063 72.3097 44.172 72.2131 44.1971Z" fill="#FDFDFD"/>
<path d="M68.7774 33.3276C68.8176 33.4603 68.8577 33.5916 68.8979 33.7243C68.7524 33.6796 68.6169 33.593 68.5931 33.424C68.578 33.3081 68.7009 33.3318 68.7774 33.3276Z" fill="#FDFDFD"/>
<path d="M46.2669 44.1984C46.1954 44.1468 46.124 44.0951 46.0537 44.0434C46.1716 43.9121 46.3384 43.8591 46.4375 43.9917C46.514 44.0951 46.366 44.1663 46.2669 44.1984Z" fill="#FDFDFD"/>
<path d="M89.8232 41.2922C90.0039 41.3188 90.1669 41.383 90.2798 41.5562C90.0816 41.5702 89.9136 41.5143 89.8232 41.2922Z" fill="#FDFDFD"/>
<path d="M91.0381 45.5909C91.0481 45.5029 91.0582 45.4164 91.0682 45.3284C91.1861 45.3451 91.3629 45.3395 91.3429 45.5071C91.3203 45.6817 91.1447 45.577 91.0381 45.5909Z" fill="#FDFDFD"/>
<path d="M41.6611 45.9092C41.8668 45.9092 42.0713 45.9092 42.277 45.9092C42.0725 46.081 41.8668 46.081 41.6611 45.9092Z" fill="#FDFDFD"/>
<path d="M67.625 45.9092C67.8307 45.9092 68.0351 45.9106 68.2409 45.9106C68.0351 46.081 67.8307 46.0824 67.625 45.9092Z" fill="#FDFDFD"/>
<path d="M103.624 45.9094C103.83 45.9094 104.034 45.908 104.24 45.908C104.034 46.0825 103.828 46.0811 103.624 45.9094Z" fill="#FDFDFD"/>
<path d="M54.6724 32.2242C55.1252 33.3233 55.5918 34.414 56.1814 35.4321C56.8185 37.0508 57.6188 38.5758 58.35 40.1414C58.5331 40.5324 58.5432 40.8341 58.3563 41.2321C57.7843 42.4457 57.2575 43.6859 56.7107 44.9135C56.648 45.0545 56.6216 45.2682 56.4698 45.292C56.2528 45.3255 56.2328 45.0699 56.165 44.9177C53.7618 39.6051 51.3674 34.2869 48.9579 28.9771C48.7371 28.4911 48.8475 28.392 49.2928 28.4018C50.315 28.4255 51.3398 28.4213 52.362 28.4018C52.6982 28.3948 52.8801 28.5247 53.0456 28.8556C53.6025 29.9701 54.0353 31.1586 54.6724 32.2242Z" fill="#7B61FE"/>
</g>
<defs>
<clipPath id="clip0_58_1281">
<rect width="110" height="81" fill="white"/>
</clipPath>
</defs>
</svg>
