<svg width="110" height="81" viewBox="0 0 110 81" fill="none" xmlns="http://www.w3.org/2000/svg">
<g clip-path="url(#clip0_58_4461)">
<path d="M6.27016 48.2348C6.42946 48.5448 6.18863 48.4443 6.08453 48.4457C5.02591 48.4666 4.09773 48.0672 3.2699 47.3493C3.04664 47.1818 2.87229 46.9471 2.64526 46.7823C2.56373 46.693 2.48221 46.6022 2.39942 46.5128C0.274654 43.7755 -0.318625 40.6444 0.454018 37.1599C0.667247 36.1991 1.08743 35.3486 1.53772 34.5092L1.5302 34.519C1.90649 33.7928 2.44332 33.2286 3.00399 32.6853C3.85816 31.9297 4.82146 31.4856 5.91394 31.4032C6.0331 31.3585 6.17609 31.3055 6.25762 31.4284C6.36674 31.5932 6.22752 31.7175 6.13595 31.8362L6.14348 31.8264C5.13001 33.7299 4.81142 35.8457 4.66718 38.0021C4.47026 40.96 4.65338 43.8733 5.56274 46.6957C5.74085 47.2488 6.01052 47.7348 6.27016 48.2348Z" fill="#7B61FE"/>
<path d="M40.7438 36.8651C38.1537 40.3998 39.8181 45.9861 43.7679 47.0015C44.0075 47.0629 44.2621 47.0559 44.5092 47.0811C44.8014 47.2068 45.1062 47.1132 45.4048 47.1425C45.5929 47.1816 45.8187 47.0392 45.9654 47.2864C45.9943 47.4777 45.8977 47.5657 45.7497 47.6118C44.7074 48.4274 43.5434 48.838 42.2778 48.9106C42.0721 48.9776 41.8677 48.9776 41.662 48.9106C39.7843 48.9092 38.2453 48.0922 37.0248 46.5141C35.3905 44.1008 35.2613 41.5087 36.6586 39.1178L36.6523 39.1276C36.7326 38.9055 36.9132 38.7603 37.0098 38.5522C37.0537 38.5005 37.0976 38.4488 37.1415 38.3986C37.2744 38.1877 37.4375 38.0075 37.6231 37.8525C38.594 36.9182 39.7266 36.4308 40.9997 36.3232C41.1025 36.6137 40.8404 36.6919 40.7438 36.8651Z" fill="#7B61FE"/>
<path d="M103.624 48.9092C101.731 48.9344 100.202 48.0839 98.9752 46.5099C98.8698 46.3046 98.698 46.1538 98.6102 45.9345L98.6165 45.9443C97.3973 43.862 97.3195 41.7266 98.3694 39.5354L98.3619 39.5452C98.5011 39.2407 98.6503 38.9433 98.8673 38.6947L98.8611 38.7044C99.0705 38.2966 99.3992 38.0131 99.709 37.7101C100.458 37.0607 101.272 36.5733 102.233 36.449C102.432 36.3666 102.63 36.2981 102.788 36.5384C102.782 36.9657 102.457 37.2143 102.322 37.5718C101.4 40.0019 101.268 42.39 102.604 44.7083L102.598 44.6985C102.792 44.9946 103.067 45.2167 103.239 45.5351L103.236 45.5323C103.413 45.6706 103.595 45.8032 103.731 45.9946C104.538 46.6873 105.436 47.0923 106.47 47.0769C106.827 47.1761 107.185 47.1719 107.542 47.0783C107.699 47.0671 107.856 47.0574 108.012 47.0462C108.282 47.1691 108.099 47.2501 107.991 47.3381C106.892 48.3101 105.658 48.8827 104.239 48.905C104.034 48.9763 103.828 48.9749 103.624 48.9092Z" fill="#7B61FE"/>
<path d="M64.1294 37.4421C64.9786 36.7536 65.9293 36.3863 66.9767 36.322C67.0519 36.5147 66.9441 36.6209 66.8249 36.7228C66.7497 36.8499 66.6757 36.977 66.6004 37.1041C65.8064 38.7423 65.5192 40.4754 65.7926 42.3217C65.9406 43.3245 66.3357 44.2001 66.8525 45.0199C67.7907 46.2922 68.9698 47.0435 70.4749 47.0798C70.8713 47.1776 71.2689 47.1762 71.6652 47.0812C71.7819 47.0729 71.8973 47.0631 72.0139 47.0547C72.0816 47.0142 72.1494 46.9905 72.2196 47.0477C72.2874 47.1022 72.2384 47.1497 72.2133 47.1986C71.0719 48.2949 69.7424 48.8521 68.241 48.9122C68.0353 48.9764 67.8309 48.9792 67.6252 48.9108C66.2705 48.8633 65.015 48.4974 63.9589 47.4904C63.8096 47.3326 63.6327 47.2125 63.4923 47.0435L63.5048 47.0575C63.2978 46.7712 63.0244 46.5477 62.8601 46.2196L62.8651 46.2279C62.5804 45.9025 62.4362 45.4808 62.2367 45.0981L62.2442 45.1107C61.3838 42.9627 61.5644 40.9209 62.746 38.9797L62.7397 38.9895C62.8262 38.7674 62.9968 38.6138 63.1072 38.4113C63.2728 38.2269 63.4383 38.0426 63.6039 37.8597C63.787 37.7298 63.93 37.5426 64.1294 37.4421Z" fill="#7B61FE"/>
<path d="M89.8234 44.2921C88.8714 43.9877 88.2054 43.2447 87.5657 42.4612C86.635 41.2741 86.1847 39.8859 86.1885 38.3162C86.1898 37.9028 86.2098 37.9028 86.5497 37.8972C88.4111 38.7575 90.2649 39.6443 92.1389 40.4683C93.1937 40.932 94.1194 41.5814 94.9146 42.4738C95.0902 42.6274 95.2194 42.8215 95.3273 43.0352L95.321 43.0254C96.0397 44.0659 96.3232 45.2739 96.3972 46.5574C96.4147 46.8702 96.4799 47.2794 95.9707 47.0825C94.734 46.5532 93.4885 46.0448 92.263 45.4834C91.6008 45.1804 90.8996 44.9723 90.28 44.5547C90.1383 44.4486 89.9652 44.4039 89.8234 44.2921Z" fill="#7B61FE"/>
<path d="M19.7698 48.5964C18.592 48.5964 17.4142 48.5978 16.2377 48.5978C16.0383 48.4163 16.1386 48.1677 16.1386 47.954C16.1298 45.8731 16.1524 43.7908 16.1248 41.7099C16.1123 40.7435 16.0621 39.7603 15.4412 38.9685C15.1189 38.5132 15.6005 38.5425 15.7272 38.4824C17.0969 37.8316 18.3575 36.9727 19.5804 36.0384C19.7159 35.9435 19.8312 35.9812 19.8751 36.1432C19.9165 36.2968 19.8927 36.4658 19.8927 36.6278C19.8927 40.4307 19.8952 44.2335 19.8877 48.0378C19.8852 48.2222 19.9943 48.4596 19.7698 48.5964Z" fill="#7B61FE"/>
<path d="M23.2615 37.8666C24.4807 37.773 25.5543 37.2088 26.6079 36.5818C26.8287 36.4798 26.9203 36.6251 26.9591 36.829C26.9943 37.0105 26.9805 37.199 26.9805 37.3848C26.9805 40.8232 26.9817 44.2615 26.9805 47.7013C26.9805 48.5337 26.9754 48.5337 26.2103 48.5351C25.3135 48.5351 24.4154 48.5155 23.5186 48.5448C23.1273 48.5574 23.0232 48.4149 23.0244 47.989C23.0382 44.8062 23.0307 41.6234 23.0332 38.4392C23.0332 38.2172 22.9755 37.9546 23.2615 37.8666Z" fill="#7B61FE"/>
<path d="M75.8043 38.0035C76.9671 37.6627 77.9768 36.9994 78.9087 36.1754C79.1784 35.9813 79.3515 35.9352 79.3502 36.4184C79.3427 40.3023 79.3427 44.1875 79.3515 48.0714C79.3527 48.4457 79.2285 48.5462 78.9112 48.5407C77.9504 48.5239 76.9896 48.5169 76.0289 48.5435C75.6551 48.5532 75.5798 48.3856 75.5811 48.0114C75.5911 44.8719 75.5861 41.731 75.5886 38.5915C75.5886 38.3666 75.5321 38.1082 75.8043 38.0035Z" fill="#7B61FE"/>
<path d="M30.2585 36.4617C31.2331 36.734 32.0158 37.3499 32.6981 38.1459C32.8787 38.2954 33.0104 38.4895 33.112 38.7116L33.1045 38.7004C33.7367 39.7003 34.0427 40.826 34.0578 42.0326C34.0828 44.0088 34.0515 45.9863 34.0741 47.9639C34.0791 48.4331 33.9436 48.5574 33.5385 48.5448C32.579 48.5141 31.6169 48.5127 30.6561 48.5448C30.2259 48.5602 30.113 48.3661 30.1143 47.9345C30.118 44.3062 30.1155 40.6779 30.118 37.0496C30.118 36.8415 30.1055 36.6265 30.2585 36.4617Z" fill="#7B61FE"/>
<path d="M109.847 42.8719C108.574 42.8705 107.301 42.8705 106.028 42.8691C105.819 42.5982 105.957 42.2979 105.975 42.0116C106.086 40.238 105.868 38.5453 104.997 37.0105C104.868 36.808 104.74 36.6055 104.578 36.3513C106.263 36.4198 107.504 37.315 108.587 38.5635C109.494 39.7115 109.964 41.0424 109.949 42.5773C109.948 42.689 109.967 42.8105 109.847 42.8719Z" fill="#7B61FE"/>
<path d="M73.9552 42.8705C72.6557 42.8705 71.3575 42.8705 70.0581 42.8705C69.8198 42.594 70.0593 42.3203 70.0681 42.0451C70.1308 40.1416 69.9126 38.3177 68.8903 36.713L68.8979 36.7228C68.8051 36.6111 68.6734 36.5133 68.7775 36.3262C69.8135 36.4016 70.7116 36.9044 71.5984 37.4462C72.1101 37.8233 72.5366 38.2981 72.8752 38.8679C72.9492 38.9978 73.0232 39.1291 73.0972 39.259C73.7771 40.3469 74.1383 41.5284 73.9552 42.8705Z" fill="#7B61FE"/>
<path d="M42.7994 36.322C44.0047 36.5008 45.0972 36.9728 46.0317 37.8583C46.2963 38.0398 46.5246 38.2619 46.6626 38.5817C46.778 38.7618 46.8921 38.942 47.0075 39.1222C47.6409 40.0662 47.9507 41.143 48.0448 42.3036C48.0611 42.5047 48.0812 42.7239 47.9006 42.8706C46.6237 42.8706 45.3468 42.8692 44.07 42.8692C43.9169 42.7491 43.9734 42.5731 43.9897 42.4237C44.1716 40.7562 44.0248 39.1459 43.3663 37.6111C43.2396 37.3136 43.0766 37.0552 42.9047 36.7955C42.8107 36.653 42.6363 36.5329 42.7994 36.322Z" fill="#7B61FE"/>
<path d="M13.2614 36.0231C12.4448 36.8708 11.5781 36.9686 10.6575 36.315C9.92622 35.6014 9.65655 34.7201 10.0203 33.702C10.3013 32.9157 10.2385 32.2216 9.80957 31.5457L9.82588 31.5569C9.94754 31.1491 10.216 31.4354 10.4179 31.4019C11.4326 31.6239 12.3683 32.0317 13.1359 32.8361C13.3103 32.9912 13.4458 33.1811 13.5461 33.4017L13.5386 33.3906C14.0039 34.4115 13.9186 35.2201 13.2614 36.0231Z" fill="#7B61FE"/>
<path d="M19.0812 34.223C18.4101 34.5861 17.7391 34.6336 17.068 34.2216C15.8112 33.082 15.7736 31.3726 16.9865 30.4662C17.1822 30.3657 17.3791 30.2665 17.5748 30.1659C17.951 30.0891 18.3273 30.0193 18.6961 30.2064C19.046 30.3782 19.3935 30.5528 19.6531 30.8838C20.5562 31.8558 20.1862 33.7859 19.0812 34.223Z" fill="#7B61FE"/>
<path d="M81.8984 36.8751C82.7137 36.2452 83.5666 35.9226 84.5286 36.4659C85.448 36.998 85.7165 38.2773 85.1608 39.2409L85.1671 39.2297C85.0605 39.4881 84.8823 39.6683 84.6616 39.8009C84.4546 39.8987 84.3154 40.1682 84.0445 40.1082C83.7547 40.178 83.4663 40.1864 83.1765 40.104C82.5669 40.0579 82.2157 39.456 81.6827 39.2423C81.4167 39.132 81.1496 39.1487 80.8824 39.2367L80.8323 39.2283L80.7871 39.2535C80.2904 39.3694 80.4635 38.9993 80.5438 38.7856C80.693 38.3904 80.9351 38.0496 81.1797 37.7186L81.1734 37.727C81.3503 37.3737 81.63 37.1307 81.8984 36.8751Z" fill="#7B61FE"/>
<path d="M58.0032 31.304C60.1317 31.3221 62.2615 31.3389 64.3901 31.3598C64.4264 31.3598 64.4616 31.4045 64.5381 31.4562C63.9473 32.026 63.2838 32.4924 62.8435 33.2145C62.7294 33.5036 62.4961 33.6879 62.3318 33.9337L62.3393 33.9239C61.9994 34.5272 61.5917 35.0817 61.3183 35.7325C61.2656 35.8582 61.2079 35.9909 61.0474 35.949C60.9207 35.9154 60.922 35.7856 60.9006 35.6752C60.7451 34.8722 60.3776 34.1809 59.9862 33.5008L59.9938 33.5105C59.8408 33.3499 59.7254 33.153 59.5924 32.9729C59.112 32.4045 58.5526 31.952 57.9443 31.5679C57.8916 31.4604 57.879 31.364 58.0032 31.304Z" fill="#7C62FE"/>
<path d="M88.4275 46.4304C89.2378 47.1846 90.0531 47.9276 91.0678 48.3298C91.1443 48.4289 91.1556 48.5197 91.0377 48.5923C89.515 48.5923 87.9923 48.5937 86.4696 48.5937C86.1372 48.5504 86.1159 48.3005 86.1184 47.996C86.1284 46.8159 86.1197 45.6372 86.1247 44.4571C86.1259 44.2392 86.0507 43.9334 86.3266 43.8789C86.5499 43.8342 86.5662 44.1428 86.6728 44.2951L86.6653 44.2853C86.8007 44.4682 86.9588 44.633 87.0453 44.8565L87.039 44.8467C87.2786 45.1875 87.5997 45.4486 87.8117 45.8187L87.8092 45.8173C88.0375 45.9919 88.2494 46.1902 88.4275 46.4304Z" fill="#7C63FE"/>
<path d="M9.77657 47.9078C9.94966 47.7235 10.124 47.5377 10.2971 47.3534C10.5041 47.2081 10.6734 47.0224 10.8026 46.7891C10.9268 46.6467 11.0522 46.5042 11.1764 46.3618C11.3081 46.1816 11.426 45.9889 11.5752 45.8227L11.5689 45.8339C11.6505 45.6062 11.8236 45.4526 11.9377 45.2515C12.018 45.116 12.0995 44.9806 12.1798 44.8451C12.4457 44.3968 12.6138 43.8899 12.8571 43.429C12.9411 43.2712 12.9424 42.9555 13.2008 43.0435C13.424 43.1189 13.3651 43.3885 13.3676 43.591C13.3726 43.9862 13.3689 44.3828 13.3689 44.7781C13.3689 45.8492 13.3626 46.919 13.3726 47.9902C13.3751 48.2947 13.3551 48.5474 13.0214 48.5921C11.9477 48.581 10.8728 48.5796 9.79915 48.553C9.62355 48.5488 9.34133 48.7276 9.29492 48.3254C9.46801 48.2039 9.61853 48.0517 9.77657 47.9078Z" fill="#7C63FE"/>
<path d="M95.0882 39.8189C94.7871 39.4893 94.4848 39.1597 94.1838 38.8301C94.0283 38.6905 93.8891 38.5271 93.7109 38.4209C92.8367 37.6556 91.8157 37.1598 90.875 36.4587C92.5695 36.4587 94.2653 36.4587 95.9599 36.4587C96.0653 36.5872 96.0878 36.7436 96.0891 36.9098C96.0954 38.0899 96.1004 39.27 96.0841 40.4502C96.0803 40.6694 96.1468 41.0954 95.7166 40.7867C95.6325 40.6471 95.5485 40.506 95.4644 40.3664C95.3516 40.1722 95.2123 40.0018 95.0882 39.8189Z" fill="#7B61FE"/>
<path d="M33.5273 -30.1523C33.0469 -28.746 33.1272 -27.2754 33.1272 -25.8132C33.1284 -11.1519 33.1272 3.50932 33.1297 18.172C33.1297 18.7055 33.1334 19.2445 33.1874 19.7738C33.304 20.8981 33.7606 21.845 34.4893 22.6298C33.3366 21.9595 33.0607 20.7319 33.0193 19.468C32.9516 17.3759 33.0005 15.2797 33.0005 13.1862C33.0005 -0.613369 33.0005 -14.4129 32.9992 -28.2125C33.0005 -28.922 33.0971 -29.5923 33.5273 -30.1523Z" fill="#FDFDFD"/>
<path d="M56.2092 38.4042C56.3497 38.4796 56.4212 38.6165 56.4889 38.7645C57.1762 40.2519 57.8611 41.7406 58.5597 43.221C58.7215 43.5632 58.7228 43.8592 58.5635 44.2056C57.9627 45.5086 57.3832 46.8242 56.7912 48.1328C56.6921 48.3534 56.608 48.6858 56.3158 48.5629C56.0511 48.4526 55.725 48.204 55.7639 47.8842C55.8128 47.4792 55.6372 47.2152 55.5043 46.9177C53.2779 41.9445 51.0428 36.9741 48.8114 32.0037C48.4915 31.29 48.494 31.2873 49.2429 31.2873C50.2463 31.2859 51.2497 31.3096 52.2506 31.2761C52.7185 31.2607 52.9995 31.392 53.2365 31.8906C53.7533 32.9771 54.2889 34.0511 54.7015 35.1949C54.6714 35.2046 54.6426 35.2144 54.6125 35.2228C54.3102 35.1223 54.2349 34.8094 54.1108 34.5483C53.7282 33.748 53.3958 32.9198 52.9819 32.1364C52.7774 31.7495 52.5153 31.5861 52.1152 31.5959C51.3225 31.6141 50.5285 31.5987 49.7345 31.6015C49.0183 31.6043 49.007 31.6252 49.3432 32.3752C50.0707 33.998 50.7932 35.6236 51.5244 37.2436C53.0258 40.5661 54.5084 43.8997 56.0085 47.2236C56.0838 47.3898 56.154 47.5588 56.2405 47.718C56.366 47.9484 56.5002 47.9428 56.6055 47.7096C57.17 46.4638 57.7557 45.2307 58.2813 43.964C58.4105 43.6511 58.2574 43.376 58.137 43.1051C57.5613 41.8146 56.8915 40.5773 56.3572 39.2631C56.2556 39.0131 56.0875 38.7841 56.149 38.4796C56.1703 38.4587 56.1904 38.4321 56.2092 38.4042Z" fill="#FDFDFD"/>
<path d="M30.2577 36.4617C30.2401 36.6684 30.2063 36.8751 30.2063 37.0817C30.2025 40.6598 30.2138 44.2364 30.1937 47.813C30.1912 48.3605 30.3254 48.5462 30.8259 48.5225C31.7214 48.4806 32.6195 48.5057 33.5163 48.5127C33.8036 48.5155 33.9992 48.4638 33.9892 48.063C33.9327 45.7894 34.082 43.513 33.9039 41.2407C33.8311 40.3106 33.416 39.5272 33.1037 38.6976C33.8449 39.4867 34.0745 40.5397 34.1083 41.5927C34.1761 43.7308 34.1184 45.8746 34.1359 48.0155C34.1397 48.4764 33.9992 48.6217 33.5928 48.6105C32.5693 48.5853 31.5446 48.5853 30.5198 48.6105C30.1097 48.6203 29.9792 48.468 29.9805 48.0114C29.993 44.3342 29.9868 40.6556 29.9893 36.9784C29.9918 36.7591 29.9391 36.4896 30.2577 36.4617Z" fill="#FDFDFD"/>
<path d="M23.2614 37.8667C23.0432 38.0552 23.0934 38.3233 23.0934 38.5747C23.0921 41.6695 23.1034 44.763 23.0821 47.8578C23.0783 48.3829 23.2138 48.5449 23.6841 48.5239C24.5609 48.4848 25.4389 48.4932 26.3169 48.5211C26.7371 48.5337 26.9052 48.4108 26.9027 47.9025C26.8851 44.3202 26.8939 40.7366 26.8926 37.1544C26.8926 36.9114 26.9616 36.6139 26.6091 36.5832C26.8876 36.3835 27.0808 36.3961 27.1046 36.829C27.1109 36.9449 27.1071 37.0608 27.1071 37.1782C27.1071 40.7366 27.0933 44.2937 27.1209 47.8522C27.1259 48.482 26.9553 48.6482 26.4122 48.6231C25.4326 48.5756 24.4493 48.5952 23.4684 48.6175C23.0871 48.6259 22.9604 48.4792 22.9629 48.0547C22.9742 44.823 22.9692 41.5899 22.9692 38.3583C22.9667 38.1194 22.9416 37.8639 23.2614 37.8667Z" fill="#FDFDFD"/>
<path d="M75.8041 38.0034C75.6248 38.1808 75.6474 38.4182 75.6474 38.65C75.6474 41.7225 75.6574 44.7949 75.6386 47.866C75.6361 48.3548 75.7627 48.5112 76.203 48.4945C77.0798 48.4596 77.959 48.4735 78.8358 48.4889C79.1581 48.4945 79.2735 48.3688 79.2735 48.0043C79.2647 44.1637 79.2635 40.3231 79.2773 36.4839C79.2785 36.1222 79.1355 36.125 78.9098 36.1739C78.9825 36.023 79.0778 35.875 79.2459 35.9323C79.5005 36.0175 79.4065 36.2786 79.4065 36.4686C79.4127 39.3748 79.4102 42.2811 79.4102 45.1874C79.4102 46.1412 79.3964 47.0937 79.4165 48.0476C79.4253 48.4707 79.2973 48.623 78.9123 48.6132C77.9527 48.5908 76.9907 48.5922 76.0312 48.6118C75.6624 48.6202 75.5131 48.4987 75.5157 48.0601C75.5282 44.8745 75.5219 41.689 75.5232 38.5034C75.5232 38.2771 75.483 38.0132 75.8041 38.0034Z" fill="#FDFDFD"/>
<path d="M6.27007 48.2346C5.50119 47.278 5.22399 46.0741 4.99822 44.8772C4.26948 41.0213 4.2908 37.1835 5.39207 33.4016C5.55764 32.8332 5.74202 32.262 6.14339 31.8276C5.92389 32.7452 5.44099 33.544 5.24783 34.4853C4.85649 36.3916 4.62193 38.3217 4.67838 40.2616C4.74109 42.4304 4.93676 44.5979 5.63164 46.6677C5.81476 47.2095 6.17976 47.6508 6.27007 48.2346Z" fill="#FDFDFD"/>
<path d="M1.53724 34.5093C1.04932 35.6601 0.521268 36.7871 0.356956 38.0761C-0.0256027 41.0648 0.448519 43.7965 2.23337 46.1567C2.31239 46.2615 2.41274 46.355 2.40019 46.5142C1.22116 45.4501 0.706903 43.9431 0.324344 42.4041C-0.346701 39.7073 0.0446375 37.1348 1.30269 34.723C1.3491 34.6294 1.45697 34.5791 1.53724 34.5093Z" fill="#FDFDFD"/>
<path d="M19.7695 48.5965C19.7845 47.7641 19.8109 46.9331 19.8121 46.1008C19.8171 42.9752 19.8171 39.8497 19.8084 36.7242C19.8071 36.4812 19.9513 36.1432 19.5801 36.0384C19.7381 35.8597 19.8761 35.8597 19.9413 36.1194C19.9739 36.2493 19.9564 36.396 19.9564 36.5342C19.9564 40.3315 19.9589 44.1288 19.9526 47.9261C19.9513 48.1579 20.0592 48.4512 19.7695 48.5965Z" fill="#FDFDFD"/>
<path d="M102.603 44.7125C101.745 43.6734 101.54 42.3704 101.543 41.0506C101.546 39.4585 101.879 37.9349 102.763 36.6235C102.792 36.4936 102.839 36.3917 102.985 36.4489C102.674 37.2506 102.158 37.9419 101.985 38.8175C101.603 40.742 101.529 42.6246 102.528 44.3815C102.58 44.4723 102.579 44.6007 102.603 44.7125Z" fill="#FDFDFD"/>
<path d="M66.8517 45.0212C65.694 43.6023 65.4871 41.8873 65.6639 40.0801C65.768 39.0173 65.9787 37.9755 66.5996 37.104C66.6122 37.5453 66.3312 37.8665 66.2158 38.2604C65.5623 40.5019 65.5586 42.6596 66.779 44.6944C66.8329 44.7824 66.8292 44.9109 66.8517 45.0212Z" fill="#FDFDFD"/>
<path d="M36.6573 39.1179C36.3638 39.9 35.9925 40.6444 35.8709 41.5061C35.6301 43.2141 35.9687 44.7517 36.8668 46.1497C36.9358 46.2572 36.9721 46.3913 37.0223 46.5128C36.1431 45.6776 35.8107 44.5185 35.6614 43.3286C35.4871 41.9488 35.7091 40.6011 36.3851 39.3861C36.4554 39.2632 36.5281 39.1584 36.6573 39.1179Z" fill="#FDFDFD"/>
<path d="M15.4414 38.9685C16.1338 39.5956 16.1714 40.495 16.1839 41.365C16.214 43.499 16.1927 45.633 16.1965 47.7669C16.1965 48.0435 16.2241 48.3214 16.2379 48.5979C15.9695 48.4345 16.0748 48.1482 16.0736 47.9136C16.0648 46.1567 16.0673 44.3984 16.0698 42.6415C16.0711 41.3706 16.0046 40.1179 15.4414 38.9685Z" fill="#FDFDFD"/>
<path d="M42.7995 36.322C42.9036 36.8066 43.2598 37.1292 43.4417 37.572C44.0864 39.1347 44.2896 40.7575 44.0651 42.4544C44.0475 42.5899 44.0663 42.7309 44.0676 42.8692C43.6812 42.5647 43.9221 42.129 43.9334 41.7826C43.9936 39.9657 43.7941 38.2451 42.7568 36.7508C42.6904 36.653 42.3868 36.4114 42.7995 36.322Z" fill="#FDFDFD"/>
<path d="M13.0216 48.5921C13.201 48.4818 13.2762 48.3212 13.275 48.0838C13.2649 46.4903 13.2649 44.8968 13.2587 43.3033C13.2587 43.2418 13.2185 43.179 13.1746 43.0561C12.7319 43.6119 12.6817 44.3912 12.1787 44.8451C12.4434 44.1706 12.7055 43.4946 12.9739 42.8229C13.0279 42.686 13.137 42.5994 13.275 42.6357C13.4267 42.6762 13.4317 42.8299 13.4317 42.9709C13.4317 44.7278 13.4305 46.4861 13.433 48.243C13.4343 48.574 13.2561 48.6173 13.0216 48.5921Z" fill="#FDFDFD"/>
<path d="M95.7158 40.7867C96.0432 40.9222 95.9817 40.6499 95.9817 40.4627C95.9767 39.1276 95.9679 37.7925 95.9592 36.4587C96.2727 36.4992 96.215 36.7688 96.2163 36.9908C96.22 38.224 96.2201 39.4558 96.215 40.689C96.215 40.8635 96.2777 41.1093 96.0633 41.1638C95.8249 41.2225 95.7371 41.0213 95.7158 40.7867Z" fill="#FDFDFD"/>
<path d="M62.7464 38.9783C62.098 40.2771 61.6966 41.6374 61.8258 43.1568C61.8835 43.8356 62.1231 44.4542 62.2447 45.1092C61.4934 43.8509 61.4658 42.4823 61.7882 41.0801C61.9663 40.3078 62.1268 39.509 62.7464 38.9783Z" fill="#FDFDFD"/>
<path d="M104.997 37.0105C105.656 37.8135 105.817 38.8302 106.003 39.8441C106.189 40.8539 106.042 41.8608 106.028 42.8705C105.775 42.8705 105.819 42.7239 105.834 42.506C105.924 41.2407 105.949 39.9712 105.605 38.7423C105.441 38.1501 105.202 37.5859 104.997 37.0105Z" fill="#FDFDFD"/>
<path d="M98.3713 39.5369C97.8846 40.8762 97.5635 42.2323 97.8282 43.7056C97.9736 44.5157 98.3487 45.2028 98.6184 45.9444C98.0589 45.3662 97.8394 44.5995 97.6952 43.8048C97.4343 42.3761 97.5911 41.0005 98.1743 39.6905C98.2044 39.6221 98.3035 39.5885 98.3713 39.5369Z" fill="#FDFDFD"/>
<path d="M68.8887 36.7129C69.7617 37.7464 69.9849 39.055 70.1141 40.3901C70.1944 41.2155 70.1392 42.045 70.0564 42.869C69.8168 42.7629 69.8683 42.5366 69.8971 42.3383C70.1706 40.4431 69.8382 38.6835 68.9702 37.0355C68.9213 36.9433 68.915 36.8218 68.8887 36.7129Z" fill="#FDFDFD"/>
<path d="M86.5496 37.8986C86.1307 37.8623 86.2799 38.224 86.2774 38.4279C86.2611 39.7463 86.6512 40.9222 87.3285 41.9906C87.4213 42.1386 87.5718 42.2518 87.5656 42.4626C86.6712 41.742 86.4354 40.6317 86.1934 39.5382C86.0955 39.0941 86.0002 38.6374 86.0592 38.1696C86.1118 37.7562 86.1708 37.7241 86.5496 37.8986Z" fill="#FDFDFD"/>
<path d="M59.9863 33.4995C60.6059 34.1252 60.779 35.012 61.0801 35.9156C61.5454 35.2243 61.7925 34.4506 62.3394 33.9241C62.1249 34.681 61.5931 35.2355 61.2933 35.9407C61.2143 36.1279 60.9283 36.2186 60.8769 35.903C60.7339 35.0246 60.2547 34.3137 59.9863 33.4995Z" fill="#FDFDFD"/>
<path d="M9.811 31.5471C10.3378 32.0527 10.4356 32.7188 10.1898 33.3738C9.76961 34.4953 9.95901 35.4422 10.6589 36.3164C10.0267 35.9617 9.57269 34.9226 9.84361 34.0763C10.1233 33.1965 10.1384 32.3865 9.811 31.5471Z" fill="#FDFDFD"/>
<path d="M86.6722 44.295C86.5593 44.1749 86.4452 44.0534 86.232 43.8258C86.232 45.4011 86.2307 46.8466 86.2345 48.2906C86.2345 48.4484 86.3762 48.5057 86.469 48.5923C86.237 48.616 86.0576 48.5755 86.0576 48.2445C86.0601 46.8158 86.0576 45.3871 86.0589 43.9584C86.0589 43.8202 86.0551 43.661 86.2044 43.6163C86.3724 43.566 86.4828 43.6833 86.5443 43.8411C86.6007 43.9864 86.6308 44.1428 86.6722 44.295Z" fill="#FDFDFD"/>
<path d="M95.9707 47.0839C96.4361 47.1328 96.3244 46.7613 96.3119 46.482C96.2592 45.2334 95.8654 44.1022 95.3223 43.0269C96.2504 44.1218 96.495 45.4723 96.4549 46.9107C96.4449 47.285 96.204 47.2697 95.9707 47.0839Z" fill="#FDFDFD"/>
<path d="M109.848 42.872C109.981 41.5201 109.581 40.3288 108.956 39.206C108.836 38.9909 108.712 38.7786 108.589 38.5649C109.585 39.2898 110.335 41.8511 109.848 42.872Z" fill="#FDFDFD"/>
<path d="M47.8999 42.8705C48.0818 41.4795 47.565 40.2952 47.0068 39.1221C47.6641 39.7394 47.8146 40.6374 48.0441 41.4865C48.1144 41.7476 48.1508 42.0269 48.1658 42.3007C48.1796 42.5325 48.2687 42.8439 47.8999 42.8705Z" fill="#FDFDFD"/>
<path d="M16.9864 30.4661C15.8676 31.8124 15.8864 32.7159 17.068 34.2215C16.4095 33.8835 15.9416 33.0176 15.983 32.2104C16.0244 31.4074 16.4509 30.6658 16.9864 30.4661Z" fill="#FDFDFD"/>
<path d="M73.9546 42.8705C73.9935 41.5717 73.6536 40.3846 73.0967 39.2617C73.7389 39.8176 73.8518 40.6569 74.0085 41.4557C74.0976 41.9166 74.371 42.4194 73.9546 42.8705Z" fill="#FDFDFD"/>
<path d="M19.0811 34.223C20.2162 33.2105 20.3604 32.3683 19.6518 30.8838C20.393 31.3754 20.2676 32.2008 20.1673 32.9102C20.0795 33.5275 19.7847 34.1378 19.0811 34.223Z" fill="#FDFDFD"/>
<path d="M85.1595 39.2408C85.5358 38.1501 85.3803 37.2088 84.5273 36.4658C85.5835 36.9043 85.9221 38.3889 85.1595 39.2408Z" fill="#FDFDFD"/>
<path d="M54.7028 35.1978C55.3801 36.1656 55.7639 37.3024 56.2092 38.4057L56.1804 38.4336C55.9834 38.449 55.8768 38.3023 55.799 38.1403C55.3989 37.3136 55.0302 36.47 54.6702 35.6195C54.6175 35.4952 54.5974 35.3556 54.6714 35.2257L54.7028 35.1978Z" fill="#FDFDFD"/>
<path d="M13.2617 36.023C13.8387 35.2088 13.8387 34.3206 13.5377 33.3918C14.1874 34.0999 14.0444 35.4574 13.2617 36.023Z" fill="#FDFDFD"/>
<path d="M3.00406 32.6853C2.51238 33.297 2.02196 33.9073 1.53027 34.519C1.78866 33.6741 2.33302 33.1168 3.00406 32.6853Z" fill="#FDFDFD"/>
<path d="M81.1807 37.7185C80.9989 38.0732 80.8095 38.4238 80.6389 38.7855C80.5461 38.9824 80.4056 39.2296 80.7882 39.2533C80.684 39.4084 80.5335 39.4265 80.4043 39.3427C80.2588 39.2492 80.363 39.0997 80.3981 38.9782C80.5461 38.4727 80.7568 38.0132 81.1807 37.7185Z" fill="#FDFDFD"/>
<path d="M72.8755 38.8692C72.4503 38.3958 72.0238 37.9209 71.5986 37.4475C72.2157 37.7087 72.6409 38.1821 72.8755 38.8692Z" fill="#FDFDFD"/>
<path d="M99.7092 37.7129C99.4835 38.1053 99.1699 38.4028 98.8613 38.7073C98.9767 38.1989 99.2941 37.9028 99.7092 37.7129Z" fill="#FDFDFD"/>
<path d="M87.8117 45.8172C87.5094 45.5379 87.1858 45.2795 87.0391 44.8452C87.3777 45.091 87.7139 45.3368 87.8117 45.8172Z" fill="#FDFDFD"/>
<path d="M62.2373 45.0967C62.5158 45.4263 62.6851 45.8299 62.8657 46.2265C62.453 45.9905 62.3289 45.5548 62.2373 45.0967Z" fill="#FDFDFD"/>
<path d="M81.8985 36.875C81.6577 37.1585 81.4156 37.4434 81.1748 37.7269C81.2538 37.2716 81.5235 37.0188 81.8985 36.875Z" fill="#FDFDFD"/>
<path d="M6.13705 31.8361C6.24366 31.5777 6.28004 31.3627 5.91504 31.4032C6.09064 31.237 6.3578 31.2007 6.44811 31.378C6.57103 31.6182 6.31767 31.7411 6.13705 31.8361Z" fill="#FDFDFD"/>
<path d="M103.238 45.5394C102.968 45.3132 102.703 45.0827 102.597 44.7029C102.891 44.9054 103.176 45.1163 103.238 45.5394Z" fill="#FDFDFD"/>
<path d="M62.8613 46.2195C63.1109 46.4653 63.3781 46.6943 63.5048 47.0574C63.1975 46.8661 62.9153 46.651 62.8613 46.2195Z" fill="#FDFDFD"/>
<path d="M18.6965 30.2063C18.3253 30.1044 17.9502 30.156 17.5752 30.1658C17.9552 29.9717 18.3303 29.9046 18.6965 30.2063Z" fill="#FDFDFD"/>
<path d="M46.6631 38.5801C46.4524 38.3385 46.2429 38.0983 46.0322 37.8567C46.4022 37.9265 46.6217 38.157 46.6631 38.5801Z" fill="#FDFDFD"/>
<path d="M98.8688 38.6975C98.7509 39.0187 98.5966 39.312 98.3633 39.5466C98.3896 39.1598 98.5401 38.8637 98.8688 38.6975Z" fill="#FDFDFD"/>
<path d="M71.6649 47.0812C71.2686 47.2586 70.871 47.2237 70.4746 47.0798C70.8722 47.0812 71.2686 47.0812 71.6649 47.0812Z" fill="#FDFDFD"/>
<path d="M62.333 33.9339C62.4108 33.6127 62.6278 33.4144 62.8448 33.2161C62.8347 33.5973 62.5964 33.7761 62.333 33.9339Z" fill="#FDFDFD"/>
<path d="M88.427 46.4304C88.1736 46.2852 87.9654 46.0827 87.8086 45.8159C88.1397 45.8648 88.3216 46.1008 88.427 46.4304Z" fill="#FDFDFD"/>
<path d="M2.64453 46.7822C2.93427 46.8604 3.12367 47.0741 3.26917 47.3492C2.95183 47.3087 2.79755 47.0476 2.64453 46.7822Z" fill="#FDFDFD"/>
<path d="M107.541 47.0825C107.183 47.257 106.826 47.2263 106.47 47.0811C106.827 47.0811 107.183 47.0825 107.541 47.0825Z" fill="#FDFDFD"/>
<path d="M45.9303 47.3702C45.7986 47.1426 45.5778 47.2473 45.3997 47.1956C45.3721 47.1342 45.3884 47.0965 45.4486 47.0811C45.6493 47.0685 45.8513 47.0546 46.052 47.042C46.1786 46.9987 46.3078 46.9512 46.2652 47.197L46.2853 47.1859C46.1874 47.2962 46.0896 47.4065 45.9303 47.3702Z" fill="#927DFE"/>
<path d="M10.4174 31.4032C10.2217 31.4647 9.97964 31.2999 9.82536 31.5582C9.75011 31.4842 9.45033 31.4214 9.77143 31.3082C9.96334 31.2398 10.223 31.2049 10.4174 31.4032Z" fill="#FDFDFD"/>
<path d="M84.6621 39.8007C84.8302 39.6108 84.9995 39.4208 85.1676 39.2295C85.1538 39.5912 84.9769 39.7714 84.6621 39.8007Z" fill="#FDFDFD"/>
<path d="M83.1777 40.1038C83.4675 40.1052 83.756 40.1065 84.0457 40.1079C83.7547 40.2881 83.4662 40.2937 83.1777 40.1038Z" fill="#FDFDFD"/>
<path d="M102.987 36.4475C102.913 36.5062 102.839 36.5635 102.765 36.6221C102.633 36.3931 102.416 36.4908 102.234 36.4517C102.484 36.2939 102.734 36.2171 102.987 36.4475Z" fill="#9C88FE"/>
<path d="M37.6223 37.8525C37.5169 38.0941 37.3576 38.2785 37.1406 38.3986C37.1783 38.0816 37.3401 37.9014 37.6223 37.8525Z" fill="#FDFDFD"/>
<path d="M10.8024 46.7893C10.7447 47.1007 10.5753 47.2879 10.2969 47.3535C10.416 47.1105 10.5854 46.9234 10.8024 46.7893Z" fill="#FDFDFD"/>
<path d="M107.99 47.3424C108.013 47.246 108.187 47.165 108.012 47.0505C108.126 46.9332 108.285 46.8494 108.323 47.0743C108.359 47.2977 108.156 47.3326 107.99 47.3424Z" fill="#FDFDFD"/>
<path d="M45.4502 47.0825C45.4339 47.1216 45.4176 47.1593 45.4013 47.197C45.104 47.1662 44.7942 47.2445 44.5107 47.0811C44.8231 47.0811 45.1366 47.0825 45.4502 47.0825Z" fill="#FDFDFD"/>
<path d="M87.0461 44.8564C86.8554 44.7195 86.7137 44.5407 86.666 44.2852C86.8918 44.3927 87.0624 44.5477 87.0461 44.8564Z" fill="#FDFDFD"/>
<path d="M33.1112 38.7114C32.9143 38.5773 32.8001 38.3664 32.6973 38.1458C32.9556 38.2254 33.1187 38.3902 33.1112 38.7114Z" fill="#FDFDFD"/>
<path d="M11.9369 45.2517C11.913 45.524 11.76 45.6944 11.5681 45.8341C11.5468 45.5268 11.7287 45.3788 11.9369 45.2517Z" fill="#FDFDFD"/>
<path d="M103.732 45.9989C103.527 45.8969 103.353 45.7559 103.236 45.5366C103.505 45.5534 103.658 45.7238 103.732 45.9989Z" fill="#FDFDFD"/>
<path d="M11.5756 45.8242C11.5117 46.0672 11.3963 46.2628 11.1768 46.3633C11.1968 46.0798 11.3486 45.9164 11.5756 45.8242Z" fill="#FDFDFD"/>
<path d="M63.1078 38.4099C63.0852 38.6808 62.9172 38.8373 62.7403 38.9881C62.724 38.6864 62.9021 38.537 63.1078 38.4099Z" fill="#FDFDFD"/>
<path d="M98.6111 45.936C98.7855 46.0869 98.9485 46.2461 98.9761 46.5114C98.7742 46.3829 98.5973 46.2335 98.6111 45.936Z" fill="#FDFDFD"/>
<path d="M93.71 38.4209C93.9445 38.4474 94.0913 38.5983 94.1828 38.8301C93.9458 38.8077 93.8191 38.6276 93.71 38.4209Z" fill="#FDFDFD"/>
<path d="M37.0084 38.5522C36.9833 38.8176 36.8303 38.9824 36.6496 39.1276C36.6321 38.8302 36.8102 38.6835 37.0084 38.5522Z" fill="#FDFDFD"/>
<path d="M64.1288 37.4419C63.9808 37.622 63.8478 37.8259 63.6045 37.858C63.7186 37.6234 63.8579 37.4307 64.1288 37.4419Z" fill="#FDFDFD"/>
<path d="M80.8838 39.2366C81.151 39.0718 81.4181 39.0746 81.684 39.2422C81.4169 39.2408 81.1497 39.2394 80.8838 39.2366Z" fill="#FDFDFD"/>
<path d="M40.7441 36.8651C40.8294 36.685 40.9135 36.5034 40.9988 36.3232C41.2534 36.7017 40.9097 36.731 40.7441 36.8651Z" fill="#FDFDFD"/>
<path d="M95.3287 43.0368C95.1343 42.9013 95.0126 42.7002 94.916 42.4753C95.1694 42.5563 95.3287 42.7239 95.3287 43.0368Z" fill="#FDFDFD"/>
<path d="M59.5918 32.9729C59.8126 33.0721 59.9317 33.2634 59.9932 33.5106C59.7611 33.4212 59.6131 33.255 59.5918 32.9729Z" fill="#FDFDFD"/>
<path d="M63.4922 47.042C63.7067 47.1132 63.8722 47.2501 63.9588 47.4889C63.7129 47.4568 63.57 47.2934 63.4922 47.042Z" fill="#FDFDFD"/>
<path d="M13.5446 33.403C13.3527 33.2634 13.2373 33.0567 13.1357 32.8374C13.3891 32.9212 13.5522 33.086 13.5446 33.403Z" fill="#FDFDFD"/>
<path d="M95.0889 39.8188C95.3021 39.9264 95.4376 40.0996 95.4639 40.3663C95.267 40.2448 95.1027 40.0954 95.0889 39.8188Z" fill="#FDFDFD"/>
<path d="M45.9309 47.3702C46.0501 47.3088 46.168 47.2473 46.2871 47.1873C46.1893 47.4568 46.035 47.637 45.749 47.6104C45.8105 47.5308 45.8707 47.4512 45.9309 47.3702Z" fill="#FDFDFD"/>
<path d="M9.77657 47.908C9.68124 48.1398 9.53073 48.2934 9.29492 48.3255C9.40154 48.1105 9.53198 47.9275 9.77657 47.908Z" fill="#FDFDFD"/>
<path d="M66.8262 36.7228C66.8763 36.5888 66.9265 36.4561 66.9779 36.322C67.0532 36.3304 67.1774 36.315 67.1485 36.4365C67.1096 36.5999 66.9792 36.6907 66.8262 36.7228Z" fill="#FDFDFD"/>
<path d="M58.0026 31.304C57.9838 31.392 57.9637 31.48 57.9449 31.5666C57.832 31.5428 57.659 31.54 57.6941 31.371C57.7254 31.2202 57.8935 31.3138 58.0026 31.304Z" fill="#FDFDFD"/>
<path d="M72.2131 47.1971C72.1918 47.07 72.0877 47.0882 72.0137 47.0547C72.1378 46.915 72.2996 46.8466 72.4088 47.0183C72.4652 47.1063 72.3097 47.172 72.2131 47.1971Z" fill="#FDFDFD"/>
<path d="M68.7774 36.3276C68.8176 36.4603 68.8577 36.5916 68.8979 36.7243C68.7524 36.6796 68.6169 36.593 68.5931 36.424C68.578 36.3081 68.7009 36.3318 68.7774 36.3276Z" fill="#FDFDFD"/>
<path d="M46.2669 47.1984C46.1954 47.1468 46.124 47.0951 46.0537 47.0434C46.1716 46.9121 46.3384 46.8591 46.4375 46.9917C46.514 47.0951 46.366 47.1663 46.2669 47.1984Z" fill="#FDFDFD"/>
<path d="M89.8232 44.2922C90.0039 44.3188 90.1669 44.383 90.2798 44.5562C90.0816 44.5702 89.9136 44.5143 89.8232 44.2922Z" fill="#FDFDFD"/>
<path d="M91.0381 48.5909C91.0481 48.5029 91.0582 48.4164 91.0682 48.3284C91.1861 48.3451 91.3629 48.3395 91.3429 48.5071C91.3203 48.6817 91.1447 48.577 91.0381 48.5909Z" fill="#FDFDFD"/>
<path d="M41.6611 48.9092C41.8668 48.9092 42.0713 48.9092 42.277 48.9092C42.0725 49.081 41.8668 49.081 41.6611 48.9092Z" fill="#FDFDFD"/>
<path d="M67.625 48.9092C67.8307 48.9092 68.0351 48.9106 68.2409 48.9106C68.0351 49.081 67.8307 49.0824 67.625 48.9092Z" fill="#FDFDFD"/>
<path d="M103.624 48.9094C103.83 48.9094 104.034 48.908 104.24 48.908C104.034 49.0825 103.828 49.0811 103.624 48.9094Z" fill="#FDFDFD"/>
<path d="M54.6724 35.2242C55.1252 36.3233 55.5918 37.414 56.1814 38.4321C56.8185 40.0508 57.6188 41.5758 58.35 43.1414C58.5331 43.5324 58.5432 43.8341 58.3563 44.2321C57.7843 45.4457 57.2575 46.6859 56.7107 47.9135C56.648 48.0545 56.6216 48.2682 56.4698 48.292C56.2528 48.3255 56.2328 48.0699 56.165 47.9177C53.7618 42.6051 51.3674 37.2869 48.9579 31.9771C48.7371 31.4911 48.8475 31.392 49.2928 31.4018C50.315 31.4255 51.3398 31.4213 52.362 31.4018C52.6982 31.3948 52.8801 31.5247 53.0456 31.8556C53.6025 32.9701 54.0353 34.1586 54.6724 35.2242Z" fill="#7B61FE"/>
</g>
<defs>
<clipPath id="clip0_58_4461">
<rect width="110" height="81" fill="white"/>
</clipPath>
</defs>
</svg>
