<svg width="110" height="81" viewBox="0 0 110 81" fill="none" xmlns="http://www.w3.org/2000/svg">
<g clip-path="url(#clip0_58_3530)">
<path d="M6.27016 48.2348C6.42946 48.5448 6.18863 48.4443 6.08453 48.4457C5.02591 48.4666 4.09773 48.0672 3.2699 47.3493C3.04664 47.1818 2.87229 46.9471 2.64526 46.7823C2.56373 46.693 2.48221 46.6022 2.39942 46.5128C0.274654 43.7755 -0.318625 40.6444 0.454018 37.1599C0.667247 36.1991 1.08743 35.3486 1.53772 34.5092L1.5302 34.519C1.90649 33.7928 2.44332 33.2286 3.00399 32.6853C3.85816 31.9297 4.82146 31.4856 5.91394 31.4032C6.0331 31.3585 6.17609 31.3055 6.25762 31.4284C6.36674 31.5932 6.22752 31.7175 6.13595 31.8362L6.14348 31.8264C5.13001 33.7299 4.81142 35.8457 4.66718 38.0021C4.47026 40.96 4.65338 43.8733 5.56274 46.6957C5.74085 47.2488 6.01052 47.7348 6.27016 48.2348Z" fill="#7B61FE"/>
<path d="M40.7438 36.8651C38.1537 40.3998 39.8181 45.9861 43.7679 47.0015C44.0075 47.0629 44.2621 47.0559 44.5092 47.0811C44.8014 47.2068 45.1062 47.1132 45.4048 47.1425C45.5929 47.1816 45.8187 47.0392 45.9654 47.2864C45.9943 47.4777 45.8977 47.5657 45.7497 47.6118C44.7074 48.4274 43.5434 48.838 42.2778 48.9106C42.0721 48.9776 41.8677 48.9776 41.662 48.9106C39.7843 48.9092 38.2453 48.0922 37.0248 46.5141C35.3905 44.1008 35.2613 41.5087 36.6586 39.1178L36.6523 39.1276C36.7326 38.9055 36.9132 38.7603 37.0098 38.5522C37.0537 38.5005 37.0976 38.4488 37.1415 38.3986C37.2744 38.1877 37.4375 38.0075 37.6231 37.8525C38.594 36.9182 39.7266 36.4308 40.9997 36.3232C41.1025 36.6137 40.8404 36.6919 40.7438 36.8651Z" fill="#7B61FE"/>
<path d="M103.624 48.9092C101.731 48.9344 100.202 48.0839 98.9752 46.5099C98.8698 46.3046 98.698 46.1538 98.6102 45.9345L98.6165 45.9443C97.3973 43.862 97.3195 41.7266 98.3694 39.5354L98.3619 39.5452C98.5011 39.2407 98.6503 38.9433 98.8673 38.6947L98.8611 38.7044C99.0705 38.2966 99.3992 38.0131 99.709 37.7101C100.458 37.0607 101.272 36.5733 102.233 36.449C102.432 36.3666 102.63 36.2981 102.788 36.5384C102.782 36.9657 102.457 37.2143 102.322 37.5718C101.4 40.0019 101.268 42.39 102.604 44.7083L102.598 44.6985C102.792 44.9946 103.067 45.2167 103.239 45.5351L103.236 45.5323C103.413 45.6706 103.595 45.8032 103.731 45.9946C104.538 46.6873 105.436 47.0923 106.47 47.0769C106.827 47.1761 107.185 47.1719 107.542 47.0783C107.699 47.0671 107.856 47.0574 108.012 47.0462C108.282 47.1691 108.099 47.2501 107.991 47.3381C106.892 48.3101 105.658 48.8827 104.239 48.905C104.034 48.9763 103.828 48.9749 103.624 48.9092Z" fill="#7B61FE"/>
<path d="M64.1294 37.4418C64.9786 36.7533 65.9293 36.386 66.9767 36.3218C67.0519 36.5145 66.9441 36.6206 66.8249 36.7226C66.7497 36.8497 66.6757 36.9768 66.6004 37.1039C65.8064 38.742 65.5192 40.4752 65.7926 42.3215C65.9406 43.3242 66.3357 44.1999 66.8525 45.0196C67.7907 46.2919 68.9698 47.0433 70.4749 47.0796C70.8713 47.1774 71.2689 47.176 71.6652 47.081C71.7819 47.0726 71.8973 47.0628 72.0139 47.0545C72.0816 47.014 72.1494 46.9902 72.2196 47.0475C72.2874 47.1019 72.2384 47.1494 72.2133 47.1983C71.0719 48.2946 69.7424 48.8519 68.241 48.9119C68.0353 48.9762 67.8309 48.9789 67.6252 48.9105C66.2705 48.863 65.015 48.4971 63.9589 47.4902C63.8096 47.3324 63.6327 47.2123 63.4923 47.0433L63.5048 47.0573C63.2978 46.771 63.0244 46.5475 62.8601 46.2193L62.8651 46.2277C62.5804 45.9023 62.4362 45.4805 62.2367 45.0979L62.2442 45.1104C61.3838 42.9625 61.5644 40.9207 62.746 38.9795L62.7397 38.9892C62.8262 38.7672 62.9968 38.6136 63.1072 38.4111C63.2728 38.2267 63.4383 38.0424 63.6039 37.8594C63.787 37.7295 63.93 37.5424 64.1294 37.4418Z" fill="#7B61FE"/>
<path d="M89.8234 44.2924C88.8714 43.9879 88.2054 43.245 87.5657 42.4615C86.635 41.2744 86.1847 39.8862 86.1885 38.3164C86.1898 37.903 86.2098 37.903 86.5497 37.8975C88.4111 38.7578 90.2649 39.6446 92.1389 40.4686C93.1937 40.9322 94.1194 41.5816 94.9146 42.474C95.0902 42.6277 95.2194 42.8218 95.3273 43.0355L95.321 43.0257C96.0397 44.0661 96.3232 45.2742 96.3972 46.5576C96.4147 46.8705 96.4799 47.2797 95.9707 47.0827C94.734 46.5534 93.4885 46.0451 92.263 45.4837C91.6008 45.1806 90.8996 44.9725 90.28 44.5549C90.1383 44.4488 89.9652 44.4041 89.8234 44.2924Z" fill="#7B61FE"/>
<path d="M19.7698 48.5967C18.592 48.5967 17.4142 48.5981 16.2377 48.5981C16.0383 48.4165 16.1386 48.1679 16.1386 47.9543C16.1298 45.8734 16.1524 43.7911 16.1248 41.7102C16.1123 40.7437 16.0621 39.7606 15.4412 38.9687C15.1189 38.5134 15.6005 38.5427 15.7272 38.4827C17.0969 37.8319 18.3575 36.973 19.5804 36.0387C19.7159 35.9437 19.8312 35.9814 19.8751 36.1434C19.9165 36.297 19.8927 36.466 19.8927 36.628C19.8927 40.4309 19.8952 44.2338 19.8877 48.0381C19.8852 48.2224 19.9943 48.4598 19.7698 48.5967Z" fill="#7B61FE"/>
<path d="M23.2615 37.8666C24.4807 37.773 25.5543 37.2088 26.6079 36.5818C26.8287 36.4798 26.9203 36.6251 26.9591 36.829C26.9943 37.0105 26.9805 37.199 26.9805 37.3848C26.9805 40.8232 26.9817 44.2615 26.9805 47.7013C26.9805 48.5337 26.9754 48.5337 26.2103 48.5351C25.3135 48.5351 24.4154 48.5155 23.5186 48.5448C23.1273 48.5574 23.0232 48.4149 23.0244 47.989C23.0382 44.8062 23.0307 41.6234 23.0332 38.4392C23.0332 38.2172 22.9755 37.9546 23.2615 37.8666Z" fill="#7B61FE"/>
<path d="M75.8043 38.0033C76.9671 37.6625 77.9768 36.9991 78.9087 36.1751C79.1784 35.981 79.3515 35.9349 79.3502 36.4181C79.3427 40.302 79.3427 44.1873 79.3515 48.0712C79.3527 48.4454 79.2285 48.546 78.9112 48.5404C77.9504 48.5237 76.9896 48.5167 76.0289 48.5432C75.6551 48.553 75.5798 48.3854 75.5811 48.0111C75.5911 44.8716 75.5861 41.7307 75.5886 38.5912C75.5886 38.3664 75.5321 38.108 75.8043 38.0033Z" fill="#7B61FE"/>
<path d="M30.2585 36.4614C31.2331 36.7338 32.0158 37.3496 32.6981 38.1457C32.8787 38.2951 33.0104 38.4893 33.112 38.7113L33.1045 38.7001C33.7367 39.7001 34.0427 40.8257 34.0578 42.0324C34.0828 44.0085 34.0515 45.9861 34.0741 47.9636C34.0791 48.4329 33.9436 48.5572 33.5385 48.5446C32.579 48.5139 31.6169 48.5125 30.6561 48.5446C30.2259 48.56 30.113 48.3658 30.1143 47.9343C30.118 44.306 30.1155 40.6777 30.118 37.0494C30.118 36.8413 30.1055 36.6262 30.2585 36.4614Z" fill="#7B61FE"/>
<path d="M109.847 42.8717C108.574 42.8703 107.301 42.8703 106.028 42.8689C105.819 42.598 105.957 42.2977 105.975 42.0114C106.086 40.2377 105.868 38.5451 104.997 37.0103C104.868 36.8078 104.74 36.6053 104.578 36.3511C106.263 36.4195 107.504 37.3147 108.587 38.5632C109.494 39.7112 109.964 41.0422 109.949 42.577C109.948 42.6887 109.967 42.8102 109.847 42.8717Z" fill="#7B61FE"/>
<path d="M73.9552 42.8705C72.6557 42.8705 71.3575 42.8705 70.0581 42.8705C69.8198 42.594 70.0593 42.3203 70.0681 42.0451C70.1308 40.1416 69.9126 38.3177 68.8903 36.713L68.8979 36.7228C68.8051 36.6111 68.6734 36.5133 68.7775 36.3262C69.8135 36.4016 70.7116 36.9044 71.5984 37.4462C72.1101 37.8233 72.5366 38.2981 72.8752 38.8679C72.9492 38.9978 73.0232 39.1291 73.0972 39.259C73.7771 40.3469 74.1383 41.5284 73.9552 42.8705Z" fill="#7B61FE"/>
<path d="M42.7994 36.3218C44.0047 36.5005 45.0972 36.9726 46.0317 37.858C46.2963 38.0396 46.5246 38.2616 46.6626 38.5814C46.778 38.7616 46.8921 38.9418 47.0075 39.1219C47.6409 40.066 47.9507 41.1428 48.0448 42.3033C48.0611 42.5044 48.0812 42.7237 47.9006 42.8703C46.6237 42.8703 45.3468 42.8689 44.07 42.8689C43.9169 42.7488 43.9734 42.5729 43.9897 42.4234C44.1716 40.7559 44.0248 39.1457 43.3663 37.6108C43.2396 37.3133 43.0766 37.055 42.9047 36.7952C42.8107 36.6528 42.6363 36.5327 42.7994 36.3218Z" fill="#7B61FE"/>
<path d="M13.2614 36.0229C12.4448 36.8706 11.5781 36.9684 10.6575 36.3148C9.92622 35.6011 9.65655 34.7199 10.0203 33.7018C10.3013 32.9155 10.2385 32.2214 9.80957 31.5455L9.82588 31.5566C9.94754 31.1488 10.216 31.4351 10.4179 31.4016C11.4326 31.6237 12.3683 32.0315 13.1359 32.8359C13.3103 32.9909 13.4458 33.1808 13.5461 33.4015L13.5386 33.3903C14.0039 34.4112 13.9186 35.2198 13.2614 36.0229Z" fill="#7B61FE"/>
<path d="M19.0812 34.223C18.4101 34.5861 17.7391 34.6336 17.068 34.2216C15.8112 33.082 15.7736 31.3726 16.9865 30.4662C17.1822 30.3657 17.3791 30.2665 17.5748 30.1659C17.951 30.0891 18.3273 30.0193 18.6961 30.2064C19.046 30.3782 19.3935 30.5528 19.6531 30.8838C20.5562 31.8558 20.1862 33.7859 19.0812 34.223Z" fill="#7B61FE"/>
<path d="M81.8984 36.8749C82.7137 36.245 83.5666 35.9224 84.5286 36.4657C85.448 36.9978 85.7165 38.277 85.1608 39.2407L85.1671 39.2295C85.0605 39.4879 84.8823 39.668 84.6616 39.8007C84.4546 39.8984 84.3154 40.168 84.0445 40.1079C83.7547 40.1778 83.4663 40.1861 83.1765 40.1037C82.5669 40.0577 82.2157 39.4557 81.6827 39.2421C81.4167 39.1317 81.1496 39.1485 80.8824 39.2365L80.8323 39.2281L80.7871 39.2532C80.2904 39.3691 80.4635 38.999 80.5438 38.7854C80.693 38.3901 80.9351 38.0494 81.1797 37.7184L81.1734 37.7268C81.3503 37.3734 81.63 37.1304 81.8984 36.8749Z" fill="#7B61FE"/>
<path d="M58.0032 31.3042C60.1317 31.3224 62.2615 31.3391 64.3901 31.3601C64.4264 31.3601 64.4616 31.4048 64.5381 31.4564C63.9473 32.0262 63.2838 32.4927 62.8435 33.2147C62.7294 33.5038 62.4961 33.6882 62.3318 33.9339L62.3393 33.9242C61.9994 34.5275 61.5917 35.0819 61.3183 35.7327C61.2656 35.8584 61.2079 35.9911 61.0474 35.9492C60.9207 35.9157 60.922 35.7858 60.9006 35.6755C60.7451 34.8724 60.3776 34.1811 59.9862 33.501L59.9938 33.5108C59.8408 33.3502 59.7254 33.1533 59.5924 32.9731C59.112 32.4047 58.5526 31.9522 57.9443 31.5681C57.8916 31.4606 57.879 31.3643 58.0032 31.3042Z" fill="#7C62FE"/>
<path d="M88.4275 46.4304C89.2378 47.1846 90.0531 47.9276 91.0678 48.3298C91.1443 48.4289 91.1556 48.5197 91.0377 48.5923C89.515 48.5923 87.9923 48.5937 86.4696 48.5937C86.1372 48.5504 86.1159 48.3005 86.1184 47.996C86.1284 46.8159 86.1197 45.6372 86.1247 44.4571C86.1259 44.2392 86.0507 43.9334 86.3266 43.8789C86.5499 43.8342 86.5662 44.1428 86.6728 44.2951L86.6653 44.2853C86.8007 44.4682 86.9588 44.633 87.0453 44.8565L87.039 44.8467C87.2786 45.1875 87.5997 45.4486 87.8117 45.8187L87.8092 45.8173C88.0375 45.9919 88.2494 46.1902 88.4275 46.4304Z" fill="#7C63FE"/>
<path d="M9.77657 47.9078C9.94966 47.7235 10.124 47.5377 10.2971 47.3534C10.5041 47.2081 10.6734 47.0224 10.8026 46.7891C10.9268 46.6467 11.0522 46.5042 11.1764 46.3618C11.3081 46.1816 11.426 45.9889 11.5752 45.8227L11.5689 45.8339C11.6505 45.6062 11.8236 45.4526 11.9377 45.2515C12.018 45.116 12.0995 44.9806 12.1798 44.8451C12.4457 44.3968 12.6138 43.8899 12.8571 43.429C12.9411 43.2712 12.9424 42.9555 13.2008 43.0435C13.424 43.1189 13.3651 43.3885 13.3676 43.591C13.3726 43.9862 13.3689 44.3828 13.3689 44.7781C13.3689 45.8492 13.3626 46.919 13.3726 47.9902C13.3751 48.2947 13.3551 48.5474 13.0214 48.5921C11.9477 48.581 10.8728 48.5796 9.79915 48.553C9.62355 48.5488 9.34133 48.7276 9.29492 48.3254C9.46801 48.2039 9.61853 48.0517 9.77657 47.9078Z" fill="#7C63FE"/>
<path d="M95.0882 39.8191C94.7871 39.4895 94.4848 39.16 94.1838 38.8304C94.0283 38.6907 93.8891 38.5273 93.7109 38.4212C92.8367 37.6558 91.8157 37.1601 90.875 36.459C92.5695 36.459 94.2653 36.459 95.9599 36.459C96.0653 36.5875 96.0878 36.7439 96.0891 36.9101C96.0954 38.0902 96.1004 39.2703 96.0841 40.4504C96.0803 40.6697 96.1468 41.0956 95.7166 40.787C95.6325 40.6473 95.5485 40.5063 95.4644 40.3666C95.3516 40.1725 95.2123 40.0021 95.0882 39.8191Z" fill="#7B61FE"/>
<path d="M33.5273 -30.1523C33.0469 -28.746 33.1272 -27.2754 33.1272 -25.8132C33.1284 -11.1519 33.1272 3.50932 33.1297 18.172C33.1297 18.7055 33.1334 19.2445 33.1874 19.7738C33.304 20.8981 33.7606 21.845 34.4893 22.6298C33.3366 21.9595 33.0607 20.7319 33.0193 19.468C32.9516 17.3759 33.0005 15.2797 33.0005 13.1862C33.0005 -0.613369 33.0005 -14.4129 32.9992 -28.2125C33.0005 -28.922 33.0971 -29.5923 33.5273 -30.1523Z" fill="#FDFDFD"/>
<path d="M56.2092 38.4042C56.3497 38.4796 56.4212 38.6165 56.4889 38.7645C57.1762 40.2519 57.8611 41.7406 58.5597 43.221C58.7215 43.5632 58.7228 43.8592 58.5635 44.2056C57.9627 45.5086 57.3832 46.8242 56.7912 48.1328C56.6921 48.3534 56.608 48.6858 56.3158 48.5629C56.0511 48.4526 55.725 48.204 55.7639 47.8842C55.8128 47.4792 55.6372 47.2152 55.5043 46.9177C53.2779 41.9445 51.0428 36.9741 48.8114 32.0037C48.4915 31.29 48.494 31.2873 49.2429 31.2873C50.2463 31.2859 51.2497 31.3096 52.2506 31.2761C52.7185 31.2607 52.9995 31.392 53.2365 31.8906C53.7533 32.9771 54.2889 34.0511 54.7015 35.1949C54.6714 35.2046 54.6426 35.2144 54.6125 35.2228C54.3102 35.1223 54.2349 34.8094 54.1108 34.5483C53.7282 33.748 53.3958 32.9198 52.9819 32.1364C52.7774 31.7495 52.5153 31.5861 52.1152 31.5959C51.3225 31.6141 50.5285 31.5987 49.7345 31.6015C49.0183 31.6043 49.007 31.6252 49.3432 32.3752C50.0707 33.998 50.7932 35.6236 51.5244 37.2436C53.0258 40.5661 54.5084 43.8997 56.0085 47.2236C56.0838 47.3898 56.154 47.5588 56.2405 47.718C56.366 47.9484 56.5002 47.9428 56.6055 47.7096C57.17 46.4638 57.7557 45.2307 58.2813 43.964C58.4105 43.6511 58.2574 43.376 58.137 43.1051C57.5613 41.8146 56.8915 40.5773 56.3572 39.2631C56.2556 39.0131 56.0875 38.7841 56.149 38.4796C56.1703 38.4587 56.1904 38.4321 56.2092 38.4042Z" fill="#FDFDFD"/>
<path d="M30.2577 36.4614C30.2401 36.6681 30.2063 36.8748 30.2063 37.0815C30.2025 40.6595 30.2138 44.2362 30.1937 47.8128C30.1912 48.3602 30.3254 48.546 30.8259 48.5223C31.7214 48.4804 32.6195 48.5055 33.5163 48.5125C33.8036 48.5153 33.9992 48.4636 33.9892 48.0628C33.9327 45.7892 34.082 43.5127 33.9039 41.2405C33.8311 40.3104 33.416 39.5269 33.1037 38.6973C33.8449 39.4864 34.0745 40.5394 34.1083 41.5924C34.1761 43.7306 34.1184 45.8743 34.1359 48.0153C34.1397 48.4762 33.9992 48.6214 33.5928 48.6102C32.5693 48.5851 31.5446 48.5851 30.5198 48.6102C30.1097 48.62 29.9792 48.4678 29.9805 48.0111C29.993 44.3339 29.9868 40.6553 29.9893 36.9782C29.9918 36.7589 29.9391 36.4894 30.2577 36.4614Z" fill="#FDFDFD"/>
<path d="M23.2614 37.8664C23.0432 38.055 23.0934 38.3231 23.0934 38.5745C23.0921 41.6693 23.1034 44.7627 23.0821 47.8575C23.0783 48.3826 23.2138 48.5446 23.6841 48.5237C24.5609 48.4846 25.4389 48.493 26.3169 48.5209C26.7371 48.5335 26.9052 48.4106 26.9027 47.9022C26.8851 44.32 26.8939 40.7364 26.8926 37.1542C26.8926 36.9112 26.9616 36.6137 26.6091 36.583C26.8876 36.3833 27.0808 36.3958 27.1046 36.8288C27.1109 36.9447 27.1071 37.0606 27.1071 37.1779C27.1071 40.7364 27.0933 44.2935 27.1209 47.8519C27.1259 48.4818 26.9553 48.648 26.4122 48.6228C25.4326 48.5754 24.4493 48.5949 23.4684 48.6173C23.0871 48.6256 22.9604 48.479 22.9629 48.0544C22.9742 44.8228 22.9692 41.5897 22.9692 38.358C22.9667 38.1192 22.9416 37.8636 23.2614 37.8664Z" fill="#FDFDFD"/>
<path d="M75.8041 38.0036C75.6248 38.181 75.6474 38.4184 75.6474 38.6503C75.6474 41.7227 75.6574 44.7952 75.6386 47.8663C75.6361 48.3551 75.7627 48.5115 76.203 48.4947C77.0798 48.4598 77.959 48.4738 78.8358 48.4891C79.1581 48.4947 79.2735 48.369 79.2735 48.0045C79.2647 44.1639 79.2635 40.3234 79.2773 36.4842C79.2785 36.1225 79.1355 36.1252 78.9098 36.1741C78.9825 36.0233 79.0778 35.8753 79.2459 35.9325C79.5005 36.0177 79.4065 36.2789 79.4065 36.4688C79.4127 39.3751 79.4102 42.2813 79.4102 45.1876C79.4102 46.1415 79.3964 47.094 79.4165 48.0478C79.4253 48.471 79.2973 48.6232 78.9123 48.6134C77.9527 48.5911 76.9907 48.5925 76.0312 48.612C75.6624 48.6204 75.5131 48.4989 75.5157 48.0604C75.5282 44.8748 75.5219 41.6892 75.5232 38.5036C75.5232 38.2774 75.483 38.0134 75.8041 38.0036Z" fill="#FDFDFD"/>
<path d="M6.27007 48.2346C5.50119 47.278 5.22399 46.0741 4.99822 44.8772C4.26948 41.0213 4.2908 37.1835 5.39207 33.4016C5.55764 32.8332 5.74202 32.262 6.14339 31.8276C5.92389 32.7452 5.44099 33.544 5.24783 34.4853C4.85649 36.3916 4.62193 38.3217 4.67838 40.2616C4.74109 42.4304 4.93676 44.5979 5.63164 46.6677C5.81476 47.2095 6.17976 47.6508 6.27007 48.2346Z" fill="#FDFDFD"/>
<path d="M1.53724 34.5093C1.04932 35.6601 0.521268 36.7871 0.356956 38.0761C-0.0256027 41.0648 0.448519 43.7965 2.23337 46.1567C2.31239 46.2615 2.41274 46.355 2.40019 46.5142C1.22116 45.4501 0.706903 43.9431 0.324344 42.4041C-0.346701 39.7073 0.0446375 37.1348 1.30269 34.723C1.3491 34.6294 1.45697 34.5791 1.53724 34.5093Z" fill="#FDFDFD"/>
<path d="M19.7695 48.5965C19.7845 47.7641 19.8109 46.9331 19.8121 46.1008C19.8171 42.9752 19.8171 39.8497 19.8084 36.7242C19.8071 36.4812 19.9513 36.1432 19.5801 36.0384C19.7381 35.8597 19.8761 35.8597 19.9413 36.1194C19.9739 36.2493 19.9564 36.396 19.9564 36.5342C19.9564 40.3315 19.9589 44.1288 19.9526 47.9261C19.9513 48.1579 20.0592 48.4512 19.7695 48.5965Z" fill="#FDFDFD"/>
<path d="M102.603 44.7125C101.745 43.6734 101.54 42.3704 101.543 41.0506C101.546 39.4585 101.879 37.9349 102.763 36.6235C102.792 36.4936 102.839 36.3917 102.985 36.4489C102.674 37.2506 102.158 37.9419 101.985 38.8175C101.603 40.742 101.529 42.6246 102.528 44.3815C102.58 44.4723 102.579 44.6007 102.603 44.7125Z" fill="#FDFDFD"/>
<path d="M66.8517 45.0212C65.694 43.6023 65.4871 41.8873 65.6639 40.0801C65.768 39.0173 65.9787 37.9755 66.5996 37.104C66.6122 37.5453 66.3312 37.8665 66.2158 38.2604C65.5623 40.5019 65.5586 42.6596 66.779 44.6944C66.8329 44.7824 66.8292 44.9109 66.8517 45.0212Z" fill="#FDFDFD"/>
<path d="M36.6573 39.1177C36.3638 39.8998 35.9925 40.6441 35.8709 41.5058C35.6301 43.2138 35.9687 44.7515 36.8668 46.1494C36.9358 46.257 36.9721 46.391 37.0223 46.5125C36.1431 45.6774 35.8107 44.5182 35.6614 43.3284C35.4871 41.9485 35.7091 40.6008 36.3851 39.3858C36.4554 39.2629 36.5281 39.1582 36.6573 39.1177Z" fill="#FDFDFD"/>
<path d="M15.4414 38.9683C16.1338 39.5953 16.1714 40.4947 16.1839 41.3648C16.214 43.4987 16.1927 45.6327 16.1965 47.7667C16.1965 48.0432 16.2241 48.3211 16.2379 48.5977C15.9695 48.4343 16.0748 48.148 16.0736 47.9133C16.0648 46.1564 16.0673 44.3981 16.0698 42.6413C16.0711 41.3704 16.0046 40.1176 15.4414 38.9683Z" fill="#FDFDFD"/>
<path d="M42.7995 36.3218C42.9036 36.8064 43.2598 37.129 43.4417 37.5717C44.0864 39.1345 44.2896 40.7573 44.0651 42.4541C44.0475 42.5896 44.0663 42.7307 44.0676 42.8689C43.6812 42.5645 43.9221 42.1287 43.9334 41.7824C43.9936 39.9654 43.7941 38.2449 42.7568 36.7505C42.6904 36.6528 42.3868 36.4112 42.7995 36.3218Z" fill="#FDFDFD"/>
<path d="M13.0216 48.5921C13.201 48.4818 13.2762 48.3212 13.275 48.0838C13.2649 46.4903 13.2649 44.8968 13.2587 43.3033C13.2587 43.2418 13.2185 43.179 13.1746 43.0561C12.7319 43.6119 12.6817 44.3912 12.1787 44.8451C12.4434 44.1706 12.7055 43.4946 12.9739 42.8229C13.0279 42.686 13.137 42.5994 13.275 42.6357C13.4267 42.6762 13.4317 42.8299 13.4317 42.9709C13.4317 44.7278 13.4305 46.4861 13.433 48.243C13.4343 48.574 13.2561 48.6173 13.0216 48.5921Z" fill="#FDFDFD"/>
<path d="M95.7158 40.787C96.0432 40.9224 95.9817 40.6501 95.9817 40.463C95.9767 39.1278 95.9679 37.7927 95.9592 36.459C96.2727 36.4995 96.215 36.769 96.2163 36.9911C96.22 38.2243 96.2201 39.456 96.215 40.6892C96.215 40.8638 96.2777 41.1096 96.0633 41.164C95.8249 41.2227 95.7371 41.0216 95.7158 40.787Z" fill="#FDFDFD"/>
<path d="M62.7464 38.978C62.098 40.2768 61.6966 41.6371 61.8258 43.1566C61.8835 43.8353 62.1231 44.454 62.2447 45.109C61.4934 43.8507 61.4658 42.482 61.7882 41.0799C61.9663 40.3076 62.1268 39.5087 62.7464 38.978Z" fill="#FDFDFD"/>
<path d="M104.997 37.0103C105.656 37.8133 105.817 38.83 106.003 39.8439C106.189 40.8536 106.042 41.8606 106.028 42.8703C105.775 42.8703 105.819 42.7236 105.834 42.5058C105.924 41.2405 105.949 39.971 105.605 38.742C105.441 38.1499 105.202 37.5856 104.997 37.0103Z" fill="#FDFDFD"/>
<path d="M98.3713 39.5366C97.8846 40.8759 97.5635 42.232 97.8282 43.7054C97.9736 44.5154 98.3487 45.2025 98.6184 45.9441C98.0589 45.3659 97.8394 44.5992 97.6952 43.8046C97.4343 42.3759 97.5911 41.0002 98.1743 39.6902C98.2044 39.6218 98.3035 39.5883 98.3713 39.5366Z" fill="#FDFDFD"/>
<path d="M68.8887 36.7129C69.7617 37.7464 69.9849 39.055 70.1141 40.3901C70.1944 41.2155 70.1392 42.045 70.0564 42.869C69.8168 42.7629 69.8683 42.5366 69.8971 42.3383C70.1706 40.4431 69.8382 38.6835 68.9702 37.0355C68.9213 36.9433 68.915 36.8218 68.8887 36.7129Z" fill="#FDFDFD"/>
<path d="M86.5496 37.8989C86.1307 37.8626 86.2799 38.2243 86.2774 38.4282C86.2611 39.7466 86.6512 40.9225 87.3285 41.9909C87.4213 42.1389 87.5718 42.252 87.5656 42.4629C86.6712 41.7423 86.4354 40.632 86.1934 39.5385C86.0955 39.0944 86.0002 38.6377 86.0592 38.1698C86.1118 37.7564 86.1708 37.7243 86.5496 37.8989Z" fill="#FDFDFD"/>
<path d="M59.9863 33.4995C60.6059 34.1252 60.779 35.012 61.0801 35.9156C61.5454 35.2243 61.7925 34.4506 62.3394 33.9241C62.1249 34.681 61.5931 35.2355 61.2933 35.9407C61.2143 36.1279 60.9283 36.2186 60.8769 35.903C60.7339 35.0246 60.2547 34.3137 59.9863 33.4995Z" fill="#FDFDFD"/>
<path d="M9.811 31.5469C10.3378 32.0524 10.4356 32.7186 10.1898 33.3736C9.76961 34.495 9.95901 35.4419 10.6589 36.3162C10.0267 35.9615 9.57269 34.9224 9.84361 34.0761C10.1233 33.1962 10.1384 32.3862 9.811 31.5469Z" fill="#FDFDFD"/>
<path d="M86.6722 44.295C86.5593 44.1749 86.4452 44.0534 86.232 43.8258C86.232 45.4011 86.2307 46.8466 86.2345 48.2906C86.2345 48.4484 86.3762 48.5057 86.469 48.5923C86.237 48.616 86.0576 48.5755 86.0576 48.2445C86.0601 46.8158 86.0576 45.3871 86.0589 43.9584C86.0589 43.8202 86.0551 43.661 86.2044 43.6163C86.3724 43.566 86.4828 43.6833 86.5443 43.8411C86.6007 43.9864 86.6308 44.1428 86.6722 44.295Z" fill="#FDFDFD"/>
<path d="M95.9707 47.0839C96.4361 47.1328 96.3244 46.7613 96.3119 46.482C96.2592 45.2334 95.8654 44.1022 95.3223 43.0269C96.2504 44.1218 96.495 45.4723 96.4549 46.9107C96.4449 47.285 96.204 47.2697 95.9707 47.0839Z" fill="#FDFDFD"/>
<path d="M109.848 42.872C109.981 41.5201 109.581 40.3288 108.956 39.206C108.836 38.9909 108.712 38.7786 108.589 38.5649C109.585 39.2898 110.335 41.8511 109.848 42.872Z" fill="#FDFDFD"/>
<path d="M47.8999 42.8705C48.0818 41.4795 47.565 40.2952 47.0068 39.1221C47.6641 39.7394 47.8146 40.6374 48.0441 41.4865C48.1144 41.7476 48.1508 42.0269 48.1658 42.3007C48.1796 42.5325 48.2687 42.8439 47.8999 42.8705Z" fill="#FDFDFD"/>
<path d="M16.9864 30.4663C15.8676 31.8126 15.8864 32.7162 17.068 34.2217C16.4095 33.8837 15.9416 33.0179 15.983 32.2106C16.0244 31.4076 16.4509 30.666 16.9864 30.4663Z" fill="#FDFDFD"/>
<path d="M73.9546 42.8705C73.9935 41.5717 73.6536 40.3846 73.0967 39.2617C73.7389 39.8176 73.8518 40.6569 74.0085 41.4557C74.0976 41.9166 74.371 42.4194 73.9546 42.8705Z" fill="#FDFDFD"/>
<path d="M19.0811 34.223C20.2162 33.2105 20.3604 32.3683 19.6518 30.8838C20.393 31.3754 20.2676 32.2008 20.1673 32.9102C20.0795 33.5275 19.7847 34.1378 19.0811 34.223Z" fill="#FDFDFD"/>
<path d="M85.1595 39.2408C85.5358 38.1501 85.3803 37.2088 84.5273 36.4658C85.5835 36.9043 85.9221 38.3889 85.1595 39.2408Z" fill="#FDFDFD"/>
<path d="M54.7028 35.1978C55.3801 36.1656 55.7639 37.3024 56.2092 38.4057L56.1804 38.4336C55.9834 38.449 55.8768 38.3023 55.799 38.1403C55.3989 37.3136 55.0302 36.47 54.6702 35.6195C54.6175 35.4952 54.5974 35.3556 54.6714 35.2257L54.7028 35.1978Z" fill="#FDFDFD"/>
<path d="M13.2617 36.0232C13.8387 35.209 13.8387 34.3208 13.5377 33.3921C14.1874 34.1002 14.0444 35.4576 13.2617 36.0232Z" fill="#FDFDFD"/>
<path d="M3.00406 32.6851C2.51238 33.2968 2.02196 33.9071 1.53027 34.5188C1.78866 33.6738 2.33302 33.1166 3.00406 32.6851Z" fill="#FDFDFD"/>
<path d="M81.1807 37.7188C80.9989 38.0735 80.8095 38.424 80.6389 38.7857C80.5461 38.9826 80.4056 39.2298 80.7882 39.2536C80.684 39.4086 80.5335 39.4268 80.4043 39.343C80.2588 39.2494 80.363 39.1 80.3981 38.9785C80.5461 38.4729 80.7568 38.0134 81.1807 37.7188Z" fill="#FDFDFD"/>
<path d="M72.8755 38.8695C72.4503 38.396 72.0238 37.9212 71.5986 37.4478C72.2157 37.7089 72.6409 38.1824 72.8755 38.8695Z" fill="#FDFDFD"/>
<path d="M99.7092 37.7129C99.4835 38.1053 99.1699 38.4028 98.8613 38.7073C98.9767 38.1989 99.2941 37.9028 99.7092 37.7129Z" fill="#FDFDFD"/>
<path d="M87.8117 45.8172C87.5094 45.5379 87.1858 45.2795 87.0391 44.8452C87.3777 45.091 87.7139 45.3368 87.8117 45.8172Z" fill="#FDFDFD"/>
<path d="M62.2373 45.0967C62.5158 45.4263 62.6851 45.8299 62.8657 46.2265C62.453 45.9905 62.3289 45.5548 62.2373 45.0967Z" fill="#FDFDFD"/>
<path d="M81.8985 36.875C81.6577 37.1585 81.4156 37.4434 81.1748 37.7269C81.2538 37.2716 81.5235 37.0188 81.8985 36.875Z" fill="#FDFDFD"/>
<path d="M6.13705 31.8361C6.24366 31.5777 6.28004 31.3627 5.91504 31.4032C6.09064 31.237 6.3578 31.2007 6.44811 31.378C6.57103 31.6182 6.31767 31.7411 6.13705 31.8361Z" fill="#FDFDFD"/>
<path d="M103.238 45.5392C102.968 45.3129 102.703 45.0825 102.597 44.7026C102.891 44.9051 103.176 45.116 103.238 45.5392Z" fill="#FDFDFD"/>
<path d="M62.8613 46.2192C63.1109 46.465 63.3781 46.6941 63.5048 47.0572C63.1975 46.8659 62.9153 46.6508 62.8613 46.2192Z" fill="#FDFDFD"/>
<path d="M18.6965 30.2063C18.3253 30.1044 17.9502 30.156 17.5752 30.1658C17.9552 29.9717 18.3303 29.9046 18.6965 30.2063Z" fill="#FDFDFD"/>
<path d="M46.6631 38.5804C46.4524 38.3388 46.2429 38.0985 46.0322 37.8569C46.4022 37.9268 46.6217 38.1572 46.6631 38.5804Z" fill="#FDFDFD"/>
<path d="M98.8688 38.6978C98.7509 39.019 98.5966 39.3122 98.3633 39.5469C98.3896 39.16 98.5401 38.8639 98.8688 38.6978Z" fill="#FDFDFD"/>
<path d="M71.6649 47.081C71.2686 47.2584 70.871 47.2234 70.4746 47.0796C70.8722 47.081 71.2686 47.081 71.6649 47.081Z" fill="#FDFDFD"/>
<path d="M62.333 33.9337C62.4108 33.6124 62.6278 33.4141 62.8448 33.2158C62.8347 33.5971 62.5964 33.7758 62.333 33.9337Z" fill="#FDFDFD"/>
<path d="M88.427 46.4304C88.1736 46.2852 87.9654 46.0827 87.8086 45.8159C88.1397 45.8648 88.3216 46.1008 88.427 46.4304Z" fill="#FDFDFD"/>
<path d="M2.64453 46.7822C2.93427 46.8604 3.12367 47.0741 3.26917 47.3492C2.95183 47.3087 2.79755 47.0476 2.64453 46.7822Z" fill="#FDFDFD"/>
<path d="M107.541 47.0825C107.183 47.257 106.826 47.2263 106.47 47.0811C106.827 47.0811 107.183 47.0825 107.541 47.0825Z" fill="#FDFDFD"/>
<path d="M45.9303 47.3704C45.7986 47.1428 45.5778 47.2475 45.3997 47.1959C45.3721 47.1344 45.3884 47.0967 45.4486 47.0814C45.6493 47.0688 45.8513 47.0548 46.052 47.0423C46.1786 46.999 46.3078 46.9515 46.2652 47.1973L46.2853 47.1861C46.1874 47.2964 46.0896 47.4068 45.9303 47.3704Z" fill="#927DFE"/>
<path d="M10.4174 31.4032C10.2217 31.4647 9.97964 31.2999 9.82536 31.5582C9.75011 31.4842 9.45033 31.4214 9.77143 31.3082C9.96334 31.2398 10.223 31.2049 10.4174 31.4032Z" fill="#FDFDFD"/>
<path d="M84.6621 39.8007C84.8302 39.6108 84.9995 39.4208 85.1676 39.2295C85.1538 39.5912 84.9769 39.7714 84.6621 39.8007Z" fill="#FDFDFD"/>
<path d="M83.1777 40.104C83.4675 40.1054 83.756 40.1068 84.0457 40.1082C83.7547 40.2883 83.4662 40.2939 83.1777 40.104Z" fill="#FDFDFD"/>
<path d="M102.987 36.4478C102.913 36.5064 102.839 36.5637 102.765 36.6224C102.633 36.3933 102.416 36.4911 102.234 36.452C102.484 36.2942 102.734 36.2174 102.987 36.4478Z" fill="#9C88FE"/>
<path d="M37.6223 37.8525C37.5169 38.0941 37.3576 38.2785 37.1406 38.3986C37.1783 38.0816 37.3401 37.9014 37.6223 37.8525Z" fill="#FDFDFD"/>
<path d="M10.8024 46.7891C10.7447 47.1005 10.5753 47.2876 10.2969 47.3533C10.416 47.1103 10.5854 46.9231 10.8024 46.7891Z" fill="#FDFDFD"/>
<path d="M107.99 47.3424C108.013 47.246 108.187 47.165 108.012 47.0505C108.126 46.9332 108.285 46.8494 108.323 47.0743C108.359 47.2977 108.156 47.3326 107.99 47.3424Z" fill="#FDFDFD"/>
<path d="M45.4502 47.0825C45.4339 47.1216 45.4176 47.1593 45.4013 47.197C45.104 47.1662 44.7942 47.2445 44.5107 47.0811C44.8231 47.0811 45.1366 47.0825 45.4502 47.0825Z" fill="#FDFDFD"/>
<path d="M87.0461 44.8564C86.8554 44.7195 86.7137 44.5407 86.666 44.2852C86.8918 44.3927 87.0624 44.5477 87.0461 44.8564Z" fill="#FDFDFD"/>
<path d="M33.1112 38.7116C32.9143 38.5775 32.8001 38.3667 32.6973 38.146C32.9556 38.2256 33.1187 38.3904 33.1112 38.7116Z" fill="#FDFDFD"/>
<path d="M11.9369 45.2515C11.913 45.5238 11.76 45.6942 11.5681 45.8338C11.5468 45.5266 11.7287 45.3786 11.9369 45.2515Z" fill="#FDFDFD"/>
<path d="M103.732 45.9989C103.527 45.8969 103.353 45.7559 103.236 45.5366C103.505 45.5534 103.658 45.7238 103.732 45.9989Z" fill="#FDFDFD"/>
<path d="M11.5756 45.8242C11.5117 46.0672 11.3963 46.2628 11.1768 46.3633C11.1968 46.0798 11.3486 45.9164 11.5756 45.8242Z" fill="#FDFDFD"/>
<path d="M63.1078 38.4097C63.0852 38.6806 62.9172 38.837 62.7403 38.9878C62.724 38.6862 62.9021 38.5368 63.1078 38.4097Z" fill="#FDFDFD"/>
<path d="M98.6111 45.936C98.7855 46.0869 98.9485 46.2461 98.9761 46.5114C98.7742 46.3829 98.5973 46.2335 98.6111 45.936Z" fill="#FDFDFD"/>
<path d="M93.71 38.4209C93.9445 38.4474 94.0913 38.5983 94.1828 38.8301C93.9458 38.8077 93.8191 38.6276 93.71 38.4209Z" fill="#FDFDFD"/>
<path d="M37.0084 38.5522C36.9833 38.8176 36.8303 38.9824 36.6496 39.1276C36.6321 38.8302 36.8102 38.6835 37.0084 38.5522Z" fill="#FDFDFD"/>
<path d="M64.1288 37.4419C63.9808 37.622 63.8478 37.8259 63.6045 37.858C63.7186 37.6234 63.8579 37.4307 64.1288 37.4419Z" fill="#FDFDFD"/>
<path d="M80.8838 39.2366C81.151 39.0718 81.4181 39.0746 81.684 39.2422C81.4169 39.2408 81.1497 39.2394 80.8838 39.2366Z" fill="#FDFDFD"/>
<path d="M40.7441 36.8651C40.8294 36.685 40.9135 36.5034 40.9988 36.3232C41.2534 36.7017 40.9097 36.731 40.7441 36.8651Z" fill="#FDFDFD"/>
<path d="M95.3287 43.0365C95.1343 42.9011 95.0126 42.6999 94.916 42.4751C95.1694 42.5561 95.3287 42.7237 95.3287 43.0365Z" fill="#FDFDFD"/>
<path d="M59.5918 32.9731C59.8126 33.0723 59.9317 33.2636 59.9932 33.5108C59.7611 33.4214 59.6131 33.2553 59.5918 32.9731Z" fill="#FDFDFD"/>
<path d="M63.4922 47.042C63.7067 47.1132 63.8722 47.2501 63.9588 47.4889C63.7129 47.4568 63.57 47.2934 63.4922 47.042Z" fill="#FDFDFD"/>
<path d="M13.5446 33.403C13.3527 33.2634 13.2373 33.0567 13.1357 32.8374C13.3891 32.9212 13.5522 33.086 13.5446 33.403Z" fill="#FDFDFD"/>
<path d="M95.0889 39.8188C95.3021 39.9264 95.4376 40.0996 95.4639 40.3663C95.267 40.2448 95.1027 40.0954 95.0889 39.8188Z" fill="#FDFDFD"/>
<path d="M45.9309 47.3705C46.0501 47.309 46.168 47.2476 46.2871 47.1875C46.1893 47.457 46.035 47.6372 45.749 47.6107C45.8105 47.5311 45.8707 47.4515 45.9309 47.3705Z" fill="#FDFDFD"/>
<path d="M9.77657 47.9077C9.68124 48.1395 9.53073 48.2932 9.29492 48.3253C9.40154 48.1102 9.53198 47.9273 9.77657 47.9077Z" fill="#FDFDFD"/>
<path d="M66.8262 36.7226C66.8763 36.5885 66.9265 36.4558 66.9779 36.3218C67.0532 36.3302 67.1774 36.3148 67.1485 36.4363C67.1096 36.5997 66.9792 36.6905 66.8262 36.7226Z" fill="#FDFDFD"/>
<path d="M58.0026 31.304C57.9838 31.392 57.9637 31.48 57.9449 31.5666C57.832 31.5428 57.659 31.54 57.6941 31.371C57.7254 31.2202 57.8935 31.3138 58.0026 31.304Z" fill="#FDFDFD"/>
<path d="M72.2131 47.1971C72.1918 47.07 72.0877 47.0882 72.0137 47.0547C72.1378 46.915 72.2996 46.8466 72.4088 47.0183C72.4652 47.1063 72.3097 47.172 72.2131 47.1971Z" fill="#FDFDFD"/>
<path d="M68.7774 36.3276C68.8176 36.4603 68.8577 36.5916 68.8979 36.7243C68.7524 36.6796 68.6169 36.593 68.5931 36.424C68.578 36.3081 68.7009 36.3318 68.7774 36.3276Z" fill="#FDFDFD"/>
<path d="M46.2669 47.1987C46.1954 47.147 46.124 47.0953 46.0537 47.0437C46.1716 46.9124 46.3384 46.8593 46.4375 46.992C46.514 47.0953 46.366 47.1666 46.2669 47.1987Z" fill="#FDFDFD"/>
<path d="M89.8232 44.292C90.0039 44.3185 90.1669 44.3828 90.2798 44.5559C90.0816 44.5699 89.9136 44.514 89.8232 44.292Z" fill="#FDFDFD"/>
<path d="M91.0381 48.5907C91.0481 48.5027 91.0582 48.4161 91.0682 48.3281C91.1861 48.3449 91.3629 48.3393 91.3429 48.5069C91.3203 48.6815 91.1447 48.5767 91.0381 48.5907Z" fill="#FDFDFD"/>
<path d="M41.6611 48.9092C41.8668 48.9092 42.0713 48.9092 42.277 48.9092C42.0725 49.081 41.8668 49.081 41.6611 48.9092Z" fill="#FDFDFD"/>
<path d="M67.625 48.9092C67.8307 48.9092 68.0351 48.9106 68.2409 48.9106C68.0351 49.081 67.8307 49.0824 67.625 48.9092Z" fill="#FDFDFD"/>
<path d="M103.624 48.9091C103.83 48.9091 104.034 48.9077 104.24 48.9077C104.034 49.0823 103.828 49.0809 103.624 48.9091Z" fill="#FDFDFD"/>
<path d="M54.6724 35.2244C55.1252 36.3235 55.5918 37.4143 56.1814 38.4324C56.8185 40.051 57.6188 41.5761 58.35 43.1416C58.5331 43.5327 58.5432 43.8343 58.3563 44.2323C57.7843 45.446 57.2575 46.6861 56.7107 47.9137C56.648 48.0548 56.6216 48.2685 56.4698 48.2922C56.2528 48.3257 56.2328 48.0701 56.165 47.9179C53.7618 42.6053 51.3674 37.2872 48.9579 31.9774C48.7371 31.4914 48.8475 31.3922 49.2928 31.402C50.315 31.4257 51.3398 31.4216 52.362 31.402C52.6982 31.395 52.8801 31.5249 53.0456 31.8559C53.6025 32.9704 54.0353 34.1588 54.6724 35.2244Z" fill="#7B61FE"/>
</g>
<defs>
<clipPath id="clip0_58_3530">
<rect width="110" height="81" fill="white"/>
</clipPath>
</defs>
</svg>
