<svg width="110" height="81" viewBox="0 0 110 81" fill="none" xmlns="http://www.w3.org/2000/svg">
<g clip-path="url(#clip0_137_2664)">
<path d="M6.26967 48.2348C6.42897 48.5448 6.18815 48.4443 6.08404 48.4457C5.02542 48.4666 4.09724 48.0672 3.26941 47.3493C3.04615 47.1818 2.8718 46.9471 2.64478 46.7823C2.56325 46.693 2.48172 46.6022 2.39893 46.5128C0.274166 43.7755 -0.319113 40.6444 0.45353 37.1599C0.666759 36.1991 1.08695 35.3486 1.53724 34.5092L1.52971 34.519C1.906 33.7928 2.44283 33.2286 3.0035 32.6853C3.85767 31.9297 4.82097 31.4856 5.91346 31.4032C6.03261 31.3585 6.1756 31.3055 6.25713 31.4284C6.36625 31.5932 6.22703 31.7175 6.13547 31.8362L6.14299 31.8264C5.12952 33.7299 4.81093 35.8457 4.66669 38.0021C4.46977 40.96 4.65289 43.8733 5.56225 46.6957C5.74036 47.2488 6.01004 47.7348 6.26967 48.2348Z" fill="#7B61FE"/>
<path d="M40.7438 36.8652C38.1537 40.4 39.8181 45.9863 43.7679 47.0016C44.0075 47.063 44.2621 47.056 44.5092 47.0812C44.8014 47.2069 45.1062 47.1133 45.4048 47.1426C45.5929 47.1817 45.8187 47.0393 45.9654 47.2865C45.9943 47.4778 45.8977 47.5658 45.7497 47.6119C44.7074 48.4275 43.5434 48.8381 42.2778 48.9107C42.0721 48.9777 41.8677 48.9777 41.662 48.9107C39.7843 48.9093 38.2453 48.0923 37.0248 46.5142C35.3905 44.1009 35.2613 41.5088 36.6586 39.1179L36.6523 39.1277C36.7326 38.9056 36.9132 38.7604 37.0098 38.5523C37.0537 38.5006 37.0976 38.449 37.1415 38.3987C37.2744 38.1878 37.4375 38.0076 37.6231 37.8526C38.594 36.9183 39.7266 36.4309 40.9997 36.3234C41.1025 36.6139 40.8404 36.6921 40.7438 36.8652Z" fill="#7B61FE"/>
<path d="M103.624 48.9092C101.731 48.9344 100.202 48.0839 98.9757 46.5099C98.8703 46.3046 98.6985 46.1538 98.6107 45.9345L98.617 45.9443C97.3978 43.862 97.32 41.7266 98.3699 39.5354L98.3624 39.5452C98.5016 39.2407 98.6508 38.9433 98.8678 38.6947L98.8616 38.7044C99.071 38.2966 99.3996 38.0131 99.7095 37.7101C100.458 37.0607 101.272 36.5733 102.233 36.449C102.433 36.3666 102.631 36.2981 102.789 36.5384C102.782 36.9657 102.458 37.2143 102.322 37.5718C101.4 40.0019 101.269 42.39 102.604 44.7083L102.598 44.6985C102.793 44.9946 103.067 45.2167 103.239 45.5351L103.237 45.5323C103.413 45.6706 103.595 45.8032 103.732 45.9946C104.538 46.6873 105.437 47.0923 106.47 47.0769C106.828 47.1761 107.185 47.1719 107.543 47.0783C107.699 47.0671 107.856 47.0574 108.013 47.0462C108.283 47.1691 108.099 47.2501 107.992 47.3381C106.893 48.3101 105.659 48.8827 104.24 48.905C104.034 48.9763 103.829 48.9749 103.624 48.9092Z" fill="#7B61FE"/>
<path d="M64.129 37.442C64.9781 36.7534 65.9289 36.3861 66.9762 36.3219C67.0514 36.5146 66.9436 36.6208 66.8244 36.7227C66.7492 36.8498 66.6752 36.9769 66.5999 37.104C65.8059 38.7422 65.5187 40.4753 65.7921 42.3216C65.9401 43.3243 66.3353 44.2 66.852 45.0198C67.7902 46.292 68.9693 47.0434 70.4744 47.0797C70.8708 47.1775 71.2684 47.1761 71.6647 47.0811C71.7814 47.0727 71.8968 47.063 72.0134 47.0546C72.0812 47.0141 72.1489 46.9903 72.2191 47.0476C72.2869 47.1021 72.2379 47.1496 72.2129 47.1984C71.0715 48.2947 69.7419 48.852 68.2405 48.912C68.0348 48.9763 67.8304 48.9791 67.6247 48.9106C66.27 48.8632 65.0145 48.4972 63.9584 47.4903C63.8091 47.3325 63.6323 47.2124 63.4918 47.0434L63.5043 47.0574C63.2974 46.7711 63.0239 46.5476 62.8596 46.2194L62.8646 46.2278C62.5799 45.9024 62.4357 45.4806 62.2362 45.098L62.2438 45.1105C61.3833 42.9626 61.5639 40.9208 62.7455 38.9796L62.7392 38.9894C62.8257 38.7673 62.9963 38.6137 63.1067 38.4112C63.2723 38.2268 63.4378 38.0425 63.6034 37.8595C63.7865 37.7296 63.9295 37.5425 64.129 37.442Z" fill="#7B61FE"/>
<path d="M89.8229 44.2921C88.8709 43.9877 88.2049 43.2447 87.5652 42.4612C86.6345 41.2741 86.1842 39.8859 86.188 38.3162C86.1893 37.9028 86.2093 37.9028 86.5492 37.8972C88.4106 38.7575 90.2645 39.6443 92.1384 40.4683C93.1932 40.932 94.1189 41.5814 94.9141 42.4738C95.0897 42.6274 95.2189 42.8215 95.3268 43.0352L95.3205 43.0254C96.0392 44.0659 96.3227 45.2739 96.3967 46.5574C96.4142 46.8702 96.4795 47.2794 95.9702 47.0825C94.7335 46.5532 93.488 46.0448 92.2625 45.4834C91.6003 45.1804 90.8991 44.9723 90.2795 44.5547C90.1378 44.4486 89.9647 44.4039 89.8229 44.2921Z" fill="#7B61FE"/>
<path d="M19.7698 48.5964C18.592 48.5964 17.4142 48.5978 16.2377 48.5978C16.0383 48.4163 16.1386 48.1677 16.1386 47.954C16.1298 45.8731 16.1524 43.7908 16.1248 41.7099C16.1123 40.7435 16.0621 39.7603 15.4412 38.9685C15.1189 38.5132 15.6005 38.5425 15.7272 38.4824C17.0969 37.8316 18.3575 36.9727 19.5804 36.0384C19.7159 35.9435 19.8312 35.9812 19.8751 36.1432C19.9165 36.2968 19.8927 36.4658 19.8927 36.6278C19.8927 40.4307 19.8952 44.2335 19.8877 48.0378C19.8852 48.2222 19.9943 48.4596 19.7698 48.5964Z" fill="#7B61FE"/>
<path d="M23.2615 37.8666C24.4807 37.773 25.5543 37.2088 26.6079 36.5818C26.8287 36.4798 26.9203 36.6251 26.9591 36.829C26.9943 37.0105 26.9805 37.199 26.9805 37.3848C26.9805 40.8232 26.9817 44.2615 26.9805 47.7013C26.9805 48.5337 26.9754 48.5337 26.2103 48.5351C25.3135 48.5351 24.4154 48.5155 23.5186 48.5448C23.1273 48.5574 23.0232 48.4149 23.0244 47.989C23.0382 44.8062 23.0307 41.6234 23.0332 38.4392C23.0332 38.2172 22.9755 37.9546 23.2615 37.8666Z" fill="#7B61FE"/>
<path d="M75.8038 38.0034C76.9666 37.6626 77.9763 36.9992 78.9082 36.1753C79.1779 35.9811 79.351 35.935 79.3497 36.4183C79.3422 40.3021 79.3422 44.1874 79.351 48.0713C79.3522 48.4456 79.2281 48.5461 78.9107 48.5405C77.9499 48.5238 76.9892 48.5168 76.0284 48.5433C75.6546 48.5531 75.5793 48.3855 75.5806 48.0112C75.5906 44.8717 75.5856 41.7308 75.5881 38.5913C75.5881 38.3665 75.5317 38.1081 75.8038 38.0034Z" fill="#7B61FE"/>
<path d="M30.258 36.4615C31.2326 36.7339 32.0153 37.3498 32.6976 38.1458C32.8782 38.2953 33.0099 38.4894 33.1115 38.7114L33.104 38.7003C33.7362 39.7002 34.0422 40.8258 34.0573 42.0325C34.0824 44.0086 34.051 45.9862 34.0736 47.9637C34.0786 48.433 33.9431 48.5573 33.538 48.5447C32.5785 48.514 31.6164 48.5126 30.6556 48.5447C30.2254 48.5601 30.1125 48.366 30.1138 47.9344C30.1175 44.3061 30.115 40.6778 30.1175 37.0495C30.1175 36.8414 30.105 36.6263 30.258 36.4615Z" fill="#7B61FE"/>
<path d="M109.848 42.8719C108.575 42.8705 107.302 42.8705 106.029 42.8691C105.819 42.5982 105.957 42.2979 105.976 42.0116C106.086 40.238 105.868 38.5453 104.998 37.0105C104.868 36.808 104.74 36.6055 104.579 36.3513C106.263 36.4198 107.505 37.315 108.587 38.5635C109.494 39.7115 109.965 41.0424 109.949 42.5773C109.948 42.689 109.967 42.8105 109.848 42.8719Z" fill="#7B61FE"/>
<path d="M73.9552 42.8705C72.6557 42.8705 71.3575 42.8705 70.0581 42.8705C69.8198 42.594 70.0593 42.3203 70.0681 42.0451C70.1308 40.1416 69.9126 38.3177 68.8903 36.713L68.8979 36.7228C68.8051 36.6111 68.6734 36.5133 68.7775 36.3262C69.8135 36.4016 70.7116 36.9044 71.5984 37.4462C72.1101 37.8233 72.5366 38.2981 72.8752 38.8679C72.9492 38.9978 73.0232 39.1291 73.0972 39.259C73.7771 40.3469 74.1383 41.5284 73.9552 42.8705Z" fill="#7B61FE"/>
<path d="M42.7999 36.3219C44.0052 36.5007 45.0977 36.9727 46.0322 37.8581C46.2968 38.0397 46.5251 38.2617 46.6631 38.5816C46.7785 38.7617 46.8926 38.9419 47.008 39.122C47.6414 40.0661 47.9512 41.1429 48.0453 42.3034C48.0616 42.5045 48.0817 42.7238 47.901 42.8704C46.6242 42.8704 45.3473 42.869 44.0704 42.869C43.9174 42.7489 43.9739 42.573 43.9902 42.4235C44.172 40.756 44.0253 39.1458 43.3668 37.6109C43.2401 37.3135 43.077 37.0551 42.9052 36.7953C42.8111 36.6529 42.6368 36.5328 42.7999 36.3219Z" fill="#7B61FE"/>
<path d="M13.2614 36.0231C12.4448 36.8708 11.5781 36.9686 10.6575 36.315C9.92622 35.6014 9.65655 34.7201 10.0203 33.702C10.3013 32.9157 10.2385 32.2216 9.80957 31.5457L9.82588 31.5569C9.94754 31.1491 10.216 31.4354 10.4179 31.4019C11.4326 31.6239 12.3683 32.0317 13.1359 32.8361C13.3103 32.9912 13.4458 33.1811 13.5461 33.4017L13.5386 33.3906C14.0039 34.4115 13.9186 35.2201 13.2614 36.0231Z" fill="#7B61FE"/>
<path d="M19.0812 34.2229C18.4101 34.586 17.7391 34.6335 17.068 34.2215C15.8112 33.0819 15.7736 31.3725 16.9865 30.4661C17.1822 30.3655 17.3791 30.2664 17.5748 30.1658C17.951 30.089 18.3273 30.0192 18.6961 30.2063C19.046 30.3781 19.3935 30.5527 19.6531 30.8837C20.5562 31.8557 20.1862 33.7858 19.0812 34.2229Z" fill="#7B61FE"/>
<path d="M81.8984 36.875C82.7137 36.2451 83.5666 35.9225 84.5286 36.4658C85.448 36.9979 85.7165 38.2771 85.1608 39.2408L85.1671 39.2296C85.0605 39.488 84.8823 39.6681 84.6616 39.8008C84.4546 39.8986 84.3154 40.1681 84.0445 40.1081C83.7547 40.1779 83.4663 40.1863 83.1765 40.1039C82.5669 40.0578 82.2157 39.4559 81.6827 39.2422C81.4167 39.1318 81.1496 39.1486 80.8824 39.2366L80.8323 39.2282L80.7871 39.2533C80.2904 39.3693 80.4635 38.9992 80.5438 38.7855C80.693 38.3903 80.9351 38.0495 81.1797 37.7185L81.1734 37.7269C81.3503 37.3736 81.63 37.1306 81.8984 36.875Z" fill="#7B61FE"/>
<path d="M58.0032 31.3041C60.1317 31.3222 62.2615 31.339 64.3901 31.3599C64.4264 31.3599 64.4616 31.4046 64.5381 31.4563C63.9473 32.0261 63.2838 32.4926 62.8435 33.2146C62.7294 33.5037 62.4961 33.688 62.3318 33.9338L62.3393 33.9241C61.9994 34.5274 61.5917 35.0818 61.3183 35.7326C61.2656 35.8583 61.2079 35.991 61.0474 35.9491C60.9207 35.9156 60.922 35.7857 60.9006 35.6754C60.7451 34.8723 60.3776 34.181 59.9862 33.5009L59.9938 33.5107C59.8408 33.3501 59.7254 33.1531 59.5924 32.973C59.112 32.4046 58.5526 31.9521 57.9443 31.568C57.8916 31.4605 57.879 31.3641 58.0032 31.3041Z" fill="#7C62FE"/>
<path d="M88.4271 46.4303C89.2373 47.1845 90.0526 47.9274 91.0673 48.3297C91.1439 48.4288 91.1551 48.5196 91.0372 48.5922C89.5145 48.5922 87.9918 48.5936 86.4691 48.5936C86.1367 48.5503 86.1154 48.3003 86.1179 47.9959C86.128 46.8158 86.1192 45.6371 86.1242 44.457C86.1254 44.2391 86.0502 43.9332 86.3261 43.8788C86.5494 43.8341 86.5657 44.1427 86.6723 44.295L86.6648 44.2852C86.8002 44.4681 86.9583 44.6329 87.0448 44.8564L87.0386 44.8466C87.2781 45.1874 87.5992 45.4485 87.8112 45.8186L87.8087 45.8172C88.037 45.9918 88.249 46.1901 88.4271 46.4303Z" fill="#7C63FE"/>
<path d="M9.77706 47.9079C9.95015 47.7236 10.1245 47.5378 10.2976 47.3535C10.5045 47.2082 10.6739 47.0225 10.8031 46.7893C10.9272 46.6468 11.0527 46.5044 11.1768 46.3619C11.3085 46.1818 11.4264 45.989 11.5757 45.8228L11.5694 45.834C11.651 45.6064 11.8241 45.4527 11.9382 45.2516C12.0185 45.1162 12.1 44.9807 12.1803 44.8452C12.4462 44.3969 12.6143 43.89 12.8576 43.4291C12.9416 43.2713 12.9429 42.9557 13.2013 43.0437C13.4245 43.1191 13.3656 43.3886 13.3681 43.5911C13.3731 43.9863 13.3693 44.383 13.3693 44.7782C13.3693 45.8494 13.3631 46.9191 13.3731 47.9903C13.3756 48.2948 13.3555 48.5476 13.0219 48.5922C11.9482 48.5811 10.8733 48.5797 9.79963 48.5531C9.62403 48.549 9.34182 48.7277 9.29541 48.3255C9.4685 48.204 9.61902 48.0518 9.77706 47.9079Z" fill="#7C63FE"/>
<path d="M95.0886 39.819C94.7876 39.4894 94.4853 39.1598 94.1843 38.8302C94.0288 38.6906 93.8895 38.5272 93.7114 38.421C92.8372 37.6557 91.8162 37.1599 90.8755 36.4589C92.57 36.4589 94.2658 36.4589 95.9604 36.4589C96.0657 36.5873 96.0883 36.7438 96.0896 36.91C96.0958 38.0901 96.1009 39.2702 96.0846 40.4503C96.0808 40.6695 96.1473 41.0955 95.717 40.7868C95.633 40.6472 95.549 40.5061 95.4649 40.3665C95.352 40.1724 95.2128 40.002 95.0886 39.819Z" fill="#7B61FE"/>
<path d="M33.5268 -30.1522C33.0464 -28.7459 33.1267 -27.2753 33.1267 -25.8131C33.1279 -11.1518 33.1267 3.50945 33.1292 18.1721C33.1292 18.7056 33.1329 19.2447 33.1869 19.774C33.3035 20.8982 33.7601 21.8451 34.4888 22.63C33.3361 21.9596 33.0602 20.732 33.0188 19.4681C32.9511 17.376 33 15.2798 33 13.1863C33 -0.613247 33 -14.4128 32.9987 -28.2124C33 -28.9218 33.0966 -29.5922 33.5268 -30.1522Z" fill="#FDFDFD"/>
<path d="M56.2092 38.4042C56.3497 38.4796 56.4212 38.6165 56.4889 38.7645C57.1762 40.2519 57.8611 41.7406 58.5597 43.221C58.7215 43.5632 58.7228 43.8592 58.5635 44.2056C57.9627 45.5086 57.3832 46.8242 56.7912 48.1328C56.6921 48.3534 56.608 48.6858 56.3158 48.5629C56.0511 48.4526 55.725 48.204 55.7639 47.8842C55.8128 47.4792 55.6372 47.2152 55.5043 46.9177C53.2779 41.9445 51.0428 36.9741 48.8114 32.0037C48.4915 31.29 48.494 31.2873 49.2429 31.2873C50.2463 31.2859 51.2497 31.3096 52.2506 31.2761C52.7185 31.2607 52.9995 31.392 53.2365 31.8906C53.7533 32.9771 54.2889 34.0511 54.7015 35.1949C54.6714 35.2046 54.6426 35.2144 54.6125 35.2228C54.3102 35.1223 54.2349 34.8094 54.1108 34.5483C53.7282 33.748 53.3958 32.9198 52.9819 32.1364C52.7774 31.7495 52.5153 31.5861 52.1152 31.5959C51.3225 31.6141 50.5285 31.5987 49.7345 31.6015C49.0183 31.6043 49.007 31.6252 49.3432 32.3752C50.0707 33.998 50.7932 35.6236 51.5244 37.2436C53.0258 40.5661 54.5084 43.8997 56.0085 47.2236C56.0838 47.3898 56.154 47.5588 56.2405 47.718C56.366 47.9484 56.5002 47.9428 56.6055 47.7096C57.17 46.4638 57.7557 45.2307 58.2813 43.964C58.4105 43.6511 58.2574 43.376 58.137 43.1051C57.5613 41.8146 56.8915 40.5773 56.3572 39.2631C56.2556 39.0131 56.0875 38.7841 56.149 38.4796C56.1703 38.4587 56.1904 38.4321 56.2092 38.4042Z" fill="#FDFDFD"/>
<path d="M30.2582 36.4615C30.2406 36.6682 30.2067 36.8749 30.2067 37.0816C30.203 40.6597 30.2143 44.2363 30.1942 47.8129C30.1917 48.3604 30.3259 48.5461 30.8264 48.5224C31.7219 48.4805 32.62 48.5056 33.5168 48.5126C33.804 48.5154 33.9997 48.4637 33.9897 48.0629C33.9332 45.7893 34.0825 43.5129 33.9044 41.2406C33.8316 40.3105 33.4165 39.527 33.1041 38.6975C33.8454 39.4865 34.075 40.5395 34.1088 41.5926C34.1766 43.7307 34.1189 45.8745 34.1364 48.0154C34.1402 48.4763 33.9997 48.6215 33.5933 48.6104C32.5698 48.5852 31.5451 48.5852 30.5203 48.6104C30.1102 48.6201 29.9797 48.4679 29.981 48.0112C29.9935 44.334 29.9872 40.6555 29.9897 36.9783C29.9923 36.759 29.9396 36.4895 30.2582 36.4615Z" fill="#FDFDFD"/>
<path d="M23.2614 37.8665C23.0432 38.0551 23.0934 38.3232 23.0934 38.5746C23.0921 41.6694 23.1034 44.7628 23.0821 47.8576C23.0783 48.3828 23.2138 48.5448 23.6841 48.5238C24.5609 48.4847 25.4389 48.4931 26.3169 48.521C26.7371 48.5336 26.9052 48.4107 26.9027 47.9023C26.8851 44.3201 26.8939 40.7365 26.8926 37.1543C26.8926 36.9113 26.9616 36.6138 26.6091 36.5831C26.8876 36.3834 27.0808 36.3959 27.1046 36.8289C27.1109 36.9448 27.1071 37.0607 27.1071 37.178C27.1071 40.7365 27.0933 44.2936 27.1209 47.8521C27.1259 48.4819 26.9553 48.6481 26.4122 48.623C25.4326 48.5755 24.4493 48.595 23.4684 48.6174C23.0871 48.6258 22.9604 48.4791 22.9629 48.0546C22.9742 44.8229 22.9692 41.5898 22.9692 38.3581C22.9667 38.1193 22.9416 37.8637 23.2614 37.8665Z" fill="#FDFDFD"/>
<path d="M75.8041 38.0034C75.6248 38.1808 75.6474 38.4182 75.6474 38.65C75.6474 41.7225 75.6574 44.7949 75.6386 47.866C75.6361 48.3548 75.7627 48.5112 76.203 48.4945C77.0798 48.4596 77.959 48.4735 78.8358 48.4889C79.1581 48.4945 79.2735 48.3688 79.2735 48.0043C79.2647 44.1637 79.2635 40.3231 79.2773 36.4839C79.2785 36.1222 79.1355 36.125 78.9098 36.1739C78.9825 36.023 79.0778 35.875 79.2459 35.9323C79.5005 36.0175 79.4065 36.2786 79.4065 36.4686C79.4127 39.3748 79.4102 42.2811 79.4102 45.1874C79.4102 46.1412 79.3964 47.0937 79.4165 48.0476C79.4253 48.4707 79.2973 48.623 78.9123 48.6132C77.9527 48.5908 76.9907 48.5922 76.0312 48.6118C75.6624 48.6202 75.5131 48.4987 75.5157 48.0601C75.5282 44.8745 75.5219 41.689 75.5232 38.5034C75.5232 38.2771 75.483 38.0132 75.8041 38.0034Z" fill="#FDFDFD"/>
<path d="M6.26958 48.2347C5.5007 47.2781 5.22351 46.0742 4.99773 44.8774C4.26899 41.0214 4.29031 37.1836 5.39158 33.4017C5.55715 32.8333 5.74153 32.2621 6.1429 31.8278C5.9234 32.7453 5.4405 33.5442 5.24734 34.4854C4.856 36.3918 4.62145 38.3218 4.67789 40.2617C4.7406 42.4306 4.93627 44.598 5.63115 46.6678C5.81428 47.2096 6.17927 47.651 6.26958 48.2347Z" fill="#FDFDFD"/>
<path d="M1.53724 34.5092C1.04932 35.6599 0.521268 36.787 0.356956 38.076C-0.0256027 41.0647 0.448519 43.7964 2.23337 46.1566C2.31239 46.2613 2.41274 46.3549 2.40019 46.5141C1.22116 45.4499 0.706903 43.943 0.324344 42.404C-0.346701 39.7072 0.0446375 37.1347 1.30269 34.7228C1.3491 34.6293 1.45697 34.579 1.53724 34.5092Z" fill="#FDFDFD"/>
<path d="M19.77 48.5965C19.785 47.7641 19.8114 46.9331 19.8126 46.1008C19.8176 42.9752 19.8176 39.8497 19.8088 36.7242C19.8076 36.4812 19.9518 36.1432 19.5806 36.0384C19.7386 35.8597 19.8766 35.8597 19.9418 36.1194C19.9744 36.2493 19.9569 36.396 19.9569 36.5342C19.9569 40.3315 19.9594 44.1288 19.9531 47.9261C19.9518 48.1579 20.0597 48.4512 19.77 48.5965Z" fill="#FDFDFD"/>
<path d="M102.603 44.7126C101.745 43.6735 101.54 42.3705 101.543 41.0508C101.546 39.4587 101.879 37.935 102.763 36.6236C102.792 36.4937 102.839 36.3918 102.985 36.449C102.674 37.2507 102.158 37.942 101.985 38.8176C101.603 40.7421 101.529 42.6247 102.528 44.3816C102.58 44.4724 102.579 44.6009 102.603 44.7126Z" fill="#FDFDFD"/>
<path d="M66.8522 45.0212C65.6945 43.6023 65.4876 41.8873 65.6644 40.0801C65.7685 39.0173 65.9792 37.9755 66.6001 37.104C66.6126 37.5453 66.3317 37.8665 66.2163 38.2604C65.5628 40.5019 65.559 42.6596 66.7795 44.6944C66.8334 44.7824 66.8296 44.9109 66.8522 45.0212Z" fill="#FDFDFD"/>
<path d="M36.6573 39.1179C36.3638 39.9 35.9925 40.6444 35.8709 41.5061C35.6301 43.2141 35.9687 44.7517 36.8668 46.1497C36.9358 46.2572 36.9721 46.3913 37.0223 46.5128C36.1431 45.6776 35.8107 44.5185 35.6614 43.3286C35.4871 41.9488 35.7091 40.6011 36.3851 39.3861C36.4554 39.2632 36.5281 39.1584 36.6573 39.1179Z" fill="#FDFDFD"/>
<path d="M15.4414 38.9685C16.1338 39.5956 16.1714 40.495 16.1839 41.365C16.214 43.499 16.1927 45.633 16.1965 47.7669C16.1965 48.0435 16.2241 48.3214 16.2379 48.5979C15.9695 48.4345 16.0748 48.1482 16.0736 47.9136C16.0648 46.1567 16.0673 44.3984 16.0698 42.6415C16.0711 41.3706 16.0046 40.1179 15.4414 38.9685Z" fill="#FDFDFD"/>
<path d="M42.8 36.3219C42.9041 36.8065 43.2603 37.1291 43.4422 37.5718C44.0869 39.1346 44.2901 40.7574 44.0655 42.4543C44.048 42.5897 44.0668 42.7308 44.068 42.869C43.6817 42.5646 43.9225 42.1289 43.9338 41.7825C43.994 39.9656 43.7946 38.245 42.7573 36.7506C42.6908 36.6529 42.3873 36.4113 42.8 36.3219Z" fill="#FDFDFD"/>
<path d="M13.0216 48.5923C13.201 48.4819 13.2762 48.3213 13.275 48.0839C13.2649 46.4904 13.2649 44.8969 13.2587 43.3034C13.2587 43.242 13.2185 43.1791 13.1746 43.0562C12.7319 43.6121 12.6817 44.3913 12.1787 44.8452C12.4434 44.1707 12.7055 43.4948 12.9739 42.823C13.0279 42.6861 13.137 42.5995 13.275 42.6359C13.4267 42.6764 13.4317 42.83 13.4317 42.971C13.4317 44.7279 13.4305 46.4862 13.433 48.2431C13.4343 48.5741 13.2561 48.6174 13.0216 48.5923Z" fill="#FDFDFD"/>
<path d="M95.7158 40.7868C96.0432 40.9223 95.9817 40.65 95.9817 40.4628C95.9767 39.1277 95.9679 37.7926 95.9592 36.4589C96.2727 36.4994 96.215 36.7689 96.2163 36.991C96.22 38.2241 96.2201 39.4559 96.215 40.6891C96.215 40.8637 96.2777 41.1095 96.0633 41.1639C95.8249 41.2226 95.7371 41.0215 95.7158 40.7868Z" fill="#FDFDFD"/>
<path d="M62.7469 38.9783C62.0985 40.2771 61.6971 41.6374 61.8263 43.1568C61.884 43.8356 62.1235 44.4542 62.2452 45.1092C61.4939 43.8509 61.4663 42.4823 61.7886 41.0801C61.9668 40.3078 62.1273 39.509 62.7469 38.9783Z" fill="#FDFDFD"/>
<path d="M104.998 37.0105C105.656 37.8135 105.818 38.8302 106.004 39.8441C106.189 40.8539 106.042 41.8608 106.029 42.8705C105.775 42.8705 105.819 42.7239 105.834 42.506C105.924 41.2407 105.95 39.9712 105.606 38.7423C105.442 38.1501 105.202 37.5859 104.998 37.0105Z" fill="#FDFDFD"/>
<path d="M98.3713 39.5369C97.8846 40.8762 97.5635 42.2323 97.8282 43.7056C97.9736 44.5157 98.3487 45.2028 98.6184 45.9444C98.0589 45.3662 97.8394 44.5995 97.6952 43.8048C97.4343 42.3761 97.5911 41.0005 98.1743 39.6905C98.2044 39.6221 98.3035 39.5885 98.3713 39.5369Z" fill="#FDFDFD"/>
<path d="M68.8892 36.713C69.7621 37.7465 69.9854 39.0551 70.1146 40.3902C70.1949 41.2156 70.1397 42.0451 70.0569 42.8691C69.8173 42.763 69.8688 42.5367 69.8976 42.3384C70.171 40.4433 69.8387 38.6836 68.9707 37.0356C68.9218 36.9434 68.9155 36.8219 68.8892 36.713Z" fill="#FDFDFD"/>
<path d="M86.5496 37.8986C86.1307 37.8623 86.2799 38.224 86.2774 38.4279C86.2611 39.7463 86.6512 40.9222 87.3285 41.9906C87.4213 42.1386 87.5718 42.2518 87.5656 42.4626C86.6712 41.742 86.4354 40.6317 86.1934 39.5382C86.0955 39.0941 86.0002 38.6374 86.0592 38.1696C86.1118 37.7562 86.1708 37.7241 86.5496 37.8986Z" fill="#FDFDFD"/>
<path d="M59.9858 33.4995C60.6055 34.1252 60.7786 35.012 61.0796 35.9156C61.5449 35.2243 61.792 34.4506 62.3389 33.9241C62.1244 34.681 61.5926 35.2355 61.2928 35.9407C61.2138 36.1279 60.9278 36.2186 60.8764 35.903C60.7334 35.0246 60.2543 34.3137 59.9858 33.4995Z" fill="#FDFDFD"/>
<path d="M9.81051 31.547C10.3373 32.0526 10.4352 32.7187 10.1893 33.3737C9.76912 34.4952 9.95852 35.442 10.6584 36.3163C10.0263 35.9616 9.5722 34.9225 9.84313 34.0762C10.1228 33.1964 10.1379 32.3863 9.81051 31.547Z" fill="#FDFDFD"/>
<path d="M86.6722 44.295C86.5593 44.1749 86.4452 44.0534 86.232 43.8258C86.232 45.4011 86.2307 46.8466 86.2345 48.2906C86.2345 48.4484 86.3762 48.5057 86.469 48.5923C86.237 48.616 86.0576 48.5755 86.0576 48.2445C86.0601 46.8158 86.0576 45.3871 86.0589 43.9584C86.0589 43.8202 86.0551 43.661 86.2044 43.6163C86.3724 43.566 86.4828 43.6833 86.5443 43.8411C86.6007 43.9864 86.6308 44.1428 86.6722 44.295Z" fill="#FDFDFD"/>
<path d="M95.9703 47.0839C96.4356 47.1328 96.324 46.7613 96.3114 46.482C96.2587 45.2334 95.8649 44.1022 95.3218 43.0269C96.25 44.1218 96.4945 45.4723 96.4544 46.9107C96.4444 47.285 96.2035 47.2697 95.9703 47.0839Z" fill="#FDFDFD"/>
<path d="M109.848 42.8719C109.981 41.52 109.581 40.3287 108.956 39.2058C108.835 38.9908 108.711 38.7785 108.588 38.5648C109.584 39.2896 110.334 41.851 109.848 42.8719Z" fill="#FDFDFD"/>
<path d="M47.8999 42.8705C48.0818 41.4795 47.565 40.2952 47.0068 39.1221C47.6641 39.7394 47.8146 40.6374 48.0441 41.4865C48.1144 41.7476 48.1508 42.0269 48.1658 42.3007C48.1796 42.5325 48.2687 42.8439 47.8999 42.8705Z" fill="#FDFDFD"/>
<path d="M16.9864 30.4661C15.8676 31.8124 15.8864 32.7159 17.068 34.2215C16.4095 33.8835 15.9416 33.0176 15.983 32.2104C16.0244 31.4074 16.4509 30.6658 16.9864 30.4661Z" fill="#FDFDFD"/>
<path d="M73.9551 42.8705C73.994 41.5717 73.6541 40.3846 73.0972 39.2617C73.7394 39.8176 73.8522 40.6569 74.009 41.4557C74.0981 41.9166 74.3715 42.4194 73.9551 42.8705Z" fill="#FDFDFD"/>
<path d="M19.0811 34.2229C20.2162 33.2104 20.3604 32.3682 19.6518 30.8837C20.393 31.3753 20.2676 32.2006 20.1673 32.9101C20.0795 33.5274 19.7847 34.1377 19.0811 34.2229Z" fill="#FDFDFD"/>
<path d="M85.1595 39.2408C85.5358 38.1501 85.3803 37.2088 84.5273 36.4658C85.5835 36.9043 85.9221 38.3889 85.1595 39.2408Z" fill="#FDFDFD"/>
<path d="M54.7028 35.1978C55.3801 36.1656 55.7639 37.3024 56.2092 38.4057L56.1804 38.4336C55.9834 38.449 55.8768 38.3023 55.799 38.1403C55.3989 37.3136 55.0302 36.47 54.6702 35.6195C54.6175 35.4952 54.5974 35.3556 54.6714 35.2257L54.7028 35.1978Z" fill="#FDFDFD"/>
<path d="M13.2612 36.0231C13.8382 35.2089 13.8382 34.3207 13.5372 33.392C14.1869 34.1 14.0439 35.4575 13.2612 36.0231Z" fill="#FDFDFD"/>
<path d="M3.00358 32.6853C2.51189 33.297 2.02147 33.9073 1.52979 34.519C1.78817 33.6741 2.33253 33.1168 3.00358 32.6853Z" fill="#FDFDFD"/>
<path d="M81.1812 37.7185C80.9994 38.0732 80.81 38.4238 80.6394 38.7855C80.5466 38.9824 80.4061 39.2296 80.7886 39.2533C80.6845 39.4084 80.534 39.4265 80.4048 39.3427C80.2593 39.2492 80.3634 39.0997 80.3986 38.9782C80.5466 38.4727 80.7573 38.0132 81.1812 37.7185Z" fill="#FDFDFD"/>
<path d="M72.875 38.8693C72.4498 38.3959 72.0233 37.9211 71.5981 37.4476C72.2153 37.7088 72.6405 38.1822 72.875 38.8693Z" fill="#FDFDFD"/>
<path d="M99.7092 37.7129C99.4835 38.1053 99.1699 38.4028 98.8613 38.7073C98.9767 38.1989 99.2941 37.9028 99.7092 37.7129Z" fill="#FDFDFD"/>
<path d="M87.8112 45.8172C87.5089 45.5379 87.1853 45.2795 87.0386 44.8452C87.3772 45.091 87.7134 45.3368 87.8112 45.8172Z" fill="#FDFDFD"/>
<path d="M62.2373 45.0967C62.5158 45.4263 62.6851 45.8299 62.8657 46.2265C62.453 45.9905 62.3289 45.5548 62.2373 45.0967Z" fill="#FDFDFD"/>
<path d="M81.8985 36.875C81.6577 37.1585 81.4156 37.4434 81.1748 37.7269C81.2538 37.2716 81.5235 37.0188 81.8985 36.875Z" fill="#FDFDFD"/>
<path d="M6.13705 31.8361C6.24366 31.5777 6.28004 31.3627 5.91504 31.4032C6.09064 31.237 6.3578 31.2007 6.44811 31.378C6.57103 31.6182 6.31767 31.7411 6.13705 31.8361Z" fill="#FDFDFD"/>
<path d="M103.238 45.5393C102.968 45.3131 102.703 45.0826 102.597 44.7028C102.891 44.9053 103.176 45.1161 103.238 45.5393Z" fill="#FDFDFD"/>
<path d="M62.8608 46.2195C63.1104 46.4653 63.3776 46.6943 63.5043 47.0574C63.197 46.8661 62.9148 46.651 62.8608 46.2195Z" fill="#FDFDFD"/>
<path d="M18.696 30.2063C18.3248 30.1044 17.9497 30.156 17.5747 30.1658C17.9548 29.9717 18.3298 29.9046 18.696 30.2063Z" fill="#FDFDFD"/>
<path d="M46.6631 38.5802C46.4524 38.3386 46.2429 38.0984 46.0322 37.8568C46.4022 37.9266 46.6217 38.1571 46.6631 38.5802Z" fill="#FDFDFD"/>
<path d="M98.8693 38.6975C98.7513 39.0187 98.5971 39.312 98.3638 39.5466C98.3901 39.1598 98.5406 38.8637 98.8693 38.6975Z" fill="#FDFDFD"/>
<path d="M71.6649 47.0811C71.2686 47.2585 70.871 47.2236 70.4746 47.0797C70.8722 47.0811 71.2686 47.0811 71.6649 47.0811Z" fill="#FDFDFD"/>
<path d="M62.333 33.9338C62.4108 33.6126 62.6278 33.4143 62.8448 33.2159C62.8347 33.5972 62.5964 33.776 62.333 33.9338Z" fill="#FDFDFD"/>
<path d="M88.427 46.4304C88.1736 46.2852 87.9654 46.0827 87.8086 45.8159C88.1397 45.8648 88.3216 46.1008 88.427 46.4304Z" fill="#FDFDFD"/>
<path d="M2.64502 46.7822C2.93476 46.8604 3.12416 47.0741 3.26966 47.3492C2.95232 47.3087 2.79804 47.0476 2.64502 46.7822Z" fill="#FDFDFD"/>
<path d="M107.541 47.0826C107.184 47.2571 106.826 47.2264 106.47 47.0812C106.828 47.0812 107.184 47.0826 107.541 47.0826Z" fill="#FDFDFD"/>
<path d="M45.9303 47.3702C45.7986 47.1426 45.5778 47.2473 45.3997 47.1956C45.3721 47.1342 45.3884 47.0965 45.4486 47.0811C45.6493 47.0685 45.8513 47.0546 46.052 47.042C46.1786 46.9987 46.3078 46.9512 46.2652 47.197L46.2853 47.1859C46.1874 47.2962 46.0896 47.4065 45.9303 47.3702Z" fill="#927DFE"/>
<path d="M10.4179 31.4032C10.2222 31.4647 9.98013 31.2999 9.82585 31.5582C9.7506 31.4842 9.45082 31.4214 9.77192 31.3082C9.96383 31.2398 10.2235 31.2049 10.4179 31.4032Z" fill="#FDFDFD"/>
<path d="M84.6616 39.8008C84.8297 39.6109 84.999 39.4209 85.1671 39.2296C85.1533 39.5913 84.9764 39.7715 84.6616 39.8008Z" fill="#FDFDFD"/>
<path d="M83.1777 40.1039C83.4675 40.1053 83.756 40.1067 84.0457 40.1081C83.7547 40.2882 83.4662 40.2938 83.1777 40.1039Z" fill="#FDFDFD"/>
<path d="M102.987 36.4477C102.913 36.5063 102.839 36.5636 102.765 36.6222C102.633 36.3932 102.416 36.491 102.234 36.4519C102.484 36.294 102.734 36.2172 102.987 36.4477Z" fill="#9C88FE"/>
<path d="M37.6223 37.8525C37.5169 38.0941 37.3576 38.2785 37.1406 38.3986C37.1783 38.0816 37.3401 37.9014 37.6223 37.8525Z" fill="#FDFDFD"/>
<path d="M10.8028 46.7893C10.7451 47.1007 10.5758 47.2879 10.2974 47.3535C10.4165 47.1105 10.5858 46.9234 10.8028 46.7893Z" fill="#FDFDFD"/>
<path d="M107.99 47.3423C108.013 47.2459 108.187 47.1649 108.012 47.0504C108.126 46.9331 108.285 46.8493 108.323 47.0741C108.359 47.2976 108.156 47.3325 107.99 47.3423Z" fill="#FDFDFD"/>
<path d="M45.4502 47.0826C45.4339 47.1217 45.4176 47.1594 45.4013 47.1971C45.104 47.1664 44.7942 47.2446 44.5107 47.0812C44.8231 47.0812 45.1366 47.0826 45.4502 47.0826Z" fill="#FDFDFD"/>
<path d="M87.0461 44.8564C86.8554 44.7195 86.7137 44.5407 86.666 44.2852C86.8918 44.3927 87.0624 44.5477 87.0461 44.8564Z" fill="#FDFDFD"/>
<path d="M33.1117 38.7115C32.9147 38.5774 32.8006 38.3665 32.6978 38.1459C32.9561 38.2255 33.1192 38.3903 33.1117 38.7115Z" fill="#FDFDFD"/>
<path d="M11.9369 45.2517C11.913 45.524 11.76 45.6944 11.5681 45.8341C11.5468 45.5268 11.7287 45.3788 11.9369 45.2517Z" fill="#FDFDFD"/>
<path d="M103.732 45.9988C103.527 45.8968 103.353 45.7558 103.236 45.5365C103.505 45.5533 103.658 45.7236 103.732 45.9988Z" fill="#FDFDFD"/>
<path d="M11.5756 45.8242C11.5117 46.0672 11.3963 46.2628 11.1768 46.3633C11.1968 46.0798 11.3486 45.9164 11.5756 45.8242Z" fill="#FDFDFD"/>
<path d="M63.1078 38.4098C63.0852 38.6807 62.9172 38.8371 62.7403 38.988C62.724 38.6863 62.9021 38.5369 63.1078 38.4098Z" fill="#FDFDFD"/>
<path d="M98.6106 45.9359C98.785 46.0867 98.948 46.246 98.9756 46.5113C98.7737 46.3828 98.5968 46.2334 98.6106 45.9359Z" fill="#FDFDFD"/>
<path d="M93.71 38.421C93.9445 38.4476 94.0913 38.5984 94.1828 38.8302C93.9458 38.8079 93.8191 38.6277 93.71 38.421Z" fill="#FDFDFD"/>
<path d="M37.0088 38.5522C36.9838 38.8176 36.8307 38.9824 36.6501 39.1276C36.6326 38.8302 36.8107 38.6835 37.0088 38.5522Z" fill="#FDFDFD"/>
<path d="M64.1288 37.442C63.9808 37.6221 63.8478 37.8261 63.6045 37.8582C63.7186 37.6235 63.8579 37.4308 64.1288 37.442Z" fill="#FDFDFD"/>
<path d="M80.8838 39.2366C81.151 39.0718 81.4181 39.0746 81.684 39.2422C81.4169 39.2408 81.1497 39.2394 80.8838 39.2366Z" fill="#FDFDFD"/>
<path d="M40.7441 36.8652C40.8294 36.6851 40.9135 36.5035 40.9988 36.3234C41.2534 36.7018 40.9097 36.7312 40.7441 36.8652Z" fill="#FDFDFD"/>
<path d="M95.3282 43.0366C95.1338 42.9012 95.0121 42.7001 94.9155 42.4752C95.1689 42.5562 95.3282 42.7238 95.3282 43.0366Z" fill="#FDFDFD"/>
<path d="M59.5923 32.9729C59.813 33.0721 59.9322 33.2634 59.9937 33.5106C59.7616 33.4212 59.6136 33.255 59.5923 32.9729Z" fill="#FDFDFD"/>
<path d="M63.4917 47.042C63.7062 47.1132 63.8717 47.2501 63.9583 47.4889C63.7125 47.4568 63.5695 47.2934 63.4917 47.042Z" fill="#FDFDFD"/>
<path d="M13.5446 33.4031C13.3527 33.2635 13.2373 33.0568 13.1357 32.8375C13.3891 32.9213 13.5522 33.0861 13.5446 33.4031Z" fill="#FDFDFD"/>
<path d="M95.0884 39.819C95.3016 39.9265 95.4371 40.0997 95.4634 40.3664C95.2665 40.2449 95.1022 40.0955 95.0884 39.819Z" fill="#FDFDFD"/>
<path d="M45.9304 47.3702C46.0496 47.3088 46.1675 47.2473 46.2866 47.1873C46.1888 47.4568 46.0345 47.637 45.7485 47.6104C45.81 47.5308 45.8702 47.4512 45.9304 47.3702Z" fill="#FDFDFD"/>
<path d="M9.77706 47.908C9.68173 48.1398 9.53122 48.2934 9.29541 48.3255C9.40202 48.1105 9.53247 47.9275 9.77706 47.908Z" fill="#FDFDFD"/>
<path d="M66.8257 36.7227C66.8759 36.5886 66.926 36.456 66.9774 36.3219C67.0527 36.3303 67.1769 36.3149 67.148 36.4364C67.1091 36.5998 66.9787 36.6906 66.8257 36.7227Z" fill="#FDFDFD"/>
<path d="M58.0031 31.304C57.9843 31.392 57.9642 31.48 57.9454 31.5666C57.8325 31.5428 57.6594 31.54 57.6946 31.371C57.7259 31.2202 57.894 31.3138 58.0031 31.304Z" fill="#FDFDFD"/>
<path d="M72.2131 47.1971C72.1918 47.07 72.0877 47.0882 72.0137 47.0547C72.1378 46.915 72.2996 46.8466 72.4088 47.0183C72.4652 47.1063 72.3097 47.172 72.2131 47.1971Z" fill="#FDFDFD"/>
<path d="M68.7774 36.3275C68.8176 36.4602 68.8577 36.5915 68.8979 36.7241C68.7524 36.6795 68.6169 36.5929 68.5931 36.4239C68.578 36.308 68.7009 36.3317 68.7774 36.3275Z" fill="#FDFDFD"/>
<path d="M46.2664 47.1984C46.195 47.1468 46.1235 47.0951 46.0532 47.0434C46.1711 46.9121 46.3379 46.8591 46.437 46.9917C46.5135 47.0951 46.3655 47.1663 46.2664 47.1984Z" fill="#FDFDFD"/>
<path d="M89.8232 44.2922C90.0039 44.3188 90.1669 44.383 90.2798 44.5562C90.0816 44.5702 89.9136 44.5143 89.8232 44.2922Z" fill="#FDFDFD"/>
<path d="M91.0386 48.5908C91.0486 48.5028 91.0586 48.4162 91.0687 48.3282C91.1866 48.345 91.3634 48.3394 91.3434 48.507C91.3208 48.6816 91.1452 48.5768 91.0386 48.5908Z" fill="#FDFDFD"/>
<path d="M41.6606 48.9093C41.8663 48.9093 42.0708 48.9093 42.2765 48.9093C42.0721 49.0811 41.8663 49.0811 41.6606 48.9093Z" fill="#FDFDFD"/>
<path d="M67.6245 48.9093C67.8302 48.9093 68.0347 48.9107 68.2404 48.9107C68.0347 49.0811 67.8302 49.0825 67.6245 48.9093Z" fill="#FDFDFD"/>
<path d="M103.624 48.9092C103.83 48.9092 104.034 48.9078 104.24 48.9078C104.034 49.0824 103.828 49.081 103.624 48.9092Z" fill="#FDFDFD"/>
<path d="M54.6729 35.2242C55.1257 36.3233 55.5923 37.414 56.1818 38.4321C56.819 40.0508 57.6193 41.5758 58.3505 43.1414C58.5336 43.5324 58.5437 43.8341 58.3568 44.2321C57.7848 45.4457 57.258 46.6859 56.7112 47.9135C56.6484 48.0545 56.6221 48.2682 56.4703 48.292C56.2533 48.3255 56.2333 48.0699 56.1655 47.9177C53.7623 42.6051 51.3679 37.2869 48.9584 31.9771C48.7376 31.4911 48.848 31.392 49.2933 31.4018C50.3155 31.4255 51.3403 31.4213 52.3625 31.4018C52.6987 31.3948 52.8806 31.5247 53.0461 31.8556C53.603 32.9701 54.0358 34.1586 54.6729 35.2242Z" fill="#7B61FE"/>
</g>
<defs>
<clipPath id="clip0_137_2664">
<rect width="110" height="81" fill="white"/>
</clipPath>
</defs>
</svg>
