<svg width="23" height="22" viewBox="0 0 23 22" fill="none" xmlns="http://www.w3.org/2000/svg">
<path d="M5.74961 18.3334H9.96628C10.2712 18.3331 10.5635 18.2171 10.7791 18.0109C10.9946 17.8047 11.1159 17.5251 11.1163 17.2334V7.7001C11.1159 7.40846 10.9946 7.12887 10.7791 6.92266C10.5635 6.71644 10.2712 6.60044 9.96628 6.6001H5.74961C5.44472 6.60044 5.15242 6.71644 4.93683 6.92266C4.72124 7.12887 4.59996 7.40846 4.59961 7.7001V17.2334C4.59996 17.5251 4.72124 17.8047 4.93683 18.0109C5.15242 18.2171 5.44472 18.3331 5.74961 18.3334ZM6.13294 8.06676H9.58294V16.8668H6.13294V8.06676Z" fill="black"/>
<path d="M19.5503 0H15.3336C15.0287 0.000339645 14.7364 0.116341 14.5208 0.322558C14.3052 0.528774 14.1839 0.808366 14.1836 1.1V17.2333C14.1839 17.525 14.3052 17.8046 14.5208 18.0108C14.7364 18.217 15.0287 18.333 15.3336 18.3333H19.5503C19.8552 18.333 20.1475 18.217 20.363 18.0108C20.5786 17.8046 20.6999 17.525 20.7003 17.2333V1.1C20.6999 0.808366 20.5786 0.528774 20.363 0.322558C20.1475 0.116341 19.8552 0.000339645 19.5503 0ZM19.1669 16.8667H15.7169V1.46667H19.1669V16.8667Z" fill="black"/>
<path d="M1.53333 0H0V22H23V20.5333H1.53333V0Z" fill="black"/>
</svg>
