<svg width="110" height="81" viewBox="0 0 110 81" fill="none" xmlns="http://www.w3.org/2000/svg">
<path d="M6.26967 79.2348C6.42897 79.5448 6.18815 79.4443 6.08404 79.4457C5.02542 79.4666 4.09724 79.0672 3.26941 78.3493C3.04615 78.1818 2.8718 77.9471 2.64478 77.7823C2.56325 77.693 2.48172 77.6022 2.39893 77.5128C0.274166 74.7755 -0.319113 71.6444 0.45353 68.1599C0.666759 67.1991 1.08695 66.3486 1.53724 65.5092L1.52971 65.519C1.906 64.7928 2.44283 64.2286 3.0035 63.6853C3.85767 62.9297 4.82097 62.4856 5.91346 62.4032C6.03261 62.3585 6.1756 62.3055 6.25713 62.4284C6.36625 62.5932 6.22703 62.7175 6.13547 62.8362L6.14299 62.8264C5.12952 64.7299 4.81093 66.8457 4.66669 69.0021C4.46977 71.96 4.65289 74.8733 5.56225 77.6957C5.74036 78.2488 6.01004 78.7348 6.26967 79.2348Z" fill="#7B61FE"/>
<path d="M40.7438 67.8651C38.1537 71.3998 39.8181 76.9861 43.7679 78.0015C44.0075 78.0629 44.2621 78.0559 44.5092 78.0811C44.8014 78.2068 45.1062 78.1132 45.4048 78.1425C45.5929 78.1816 45.8187 78.0392 45.9654 78.2864C45.9943 78.4777 45.8977 78.5657 45.7497 78.6118C44.7074 79.4274 43.5434 79.838 42.2778 79.9106C42.0721 79.9776 41.8677 79.9776 41.662 79.9106C39.7843 79.9092 38.2453 79.0922 37.0248 77.5141C35.3905 75.1008 35.2613 72.5087 36.6586 70.1178L36.6523 70.1276C36.7326 69.9055 36.9132 69.7603 37.0098 69.5522C37.0537 69.5005 37.0976 69.4488 37.1415 69.3986C37.2744 69.1877 37.4375 69.0075 37.6231 68.8525C38.594 67.9182 39.7266 67.4308 40.9997 67.3232C41.1025 67.6137 40.8404 67.6919 40.7438 67.8651Z" fill="#7B61FE"/>
<path d="M103.624 79.9092C101.731 79.9344 100.202 79.0838 98.9757 77.5099C98.8703 77.3046 98.6985 77.1538 98.6107 76.9345L98.617 76.9443C97.3978 74.862 97.32 72.7266 98.3699 70.5354L98.3624 70.5452C98.5016 70.2407 98.6508 69.9433 98.8678 69.6947L98.8616 69.7044C99.071 69.2966 99.3996 69.0131 99.7095 68.7101C100.458 68.0607 101.272 67.5733 102.233 67.449C102.433 67.3666 102.631 67.2981 102.789 67.5384C102.782 67.9657 102.458 68.2143 102.322 68.5718C101.4 71.0019 101.269 73.39 102.604 75.7083L102.598 75.6985C102.793 75.9946 103.067 76.2167 103.239 76.5351L103.237 76.5323C103.413 76.6706 103.595 76.8032 103.732 76.9946C104.538 77.6873 105.437 78.0923 106.47 78.0769C106.828 78.1761 107.185 78.1719 107.543 78.0783C107.699 78.0671 107.856 78.0574 108.013 78.0462C108.283 78.1691 108.099 78.2501 107.992 78.3381C106.893 79.3101 105.659 79.8827 104.24 79.905C104.034 79.9763 103.829 79.9749 103.624 79.9092Z" fill="#7B61FE"/>
<path d="M64.129 68.4421C64.9781 67.7536 65.9289 67.3863 66.9762 67.322C67.0514 67.5147 66.9436 67.6209 66.8244 67.7228C66.7492 67.8499 66.6752 67.977 66.5999 68.1041C65.8059 69.7423 65.5187 71.4754 65.7921 73.3217C65.9401 74.3245 66.3353 75.2001 66.852 76.0199C67.7902 77.2922 68.9693 78.0435 70.4744 78.0798C70.8708 78.1776 71.2684 78.1762 71.6647 78.0812C71.7814 78.0729 71.8968 78.0631 72.0134 78.0547C72.0812 78.0142 72.1489 77.9905 72.2191 78.0477C72.2869 78.1022 72.2379 78.1497 72.2129 78.1986C71.0715 79.2949 69.7419 79.8521 68.2405 79.9122C68.0348 79.9764 67.8304 79.9792 67.6247 79.9108C66.27 79.8633 65.0145 79.4974 63.9584 78.4904C63.8091 78.3326 63.6323 78.2125 63.4918 78.0435L63.5043 78.0575C63.2974 77.7712 63.0239 77.5477 62.8596 77.2196L62.8646 77.2279C62.5799 76.9025 62.4357 76.4808 62.2362 76.0981L62.2438 76.1107C61.3833 73.9627 61.5639 71.9209 62.7455 69.9797L62.7392 69.9895C62.8257 69.7674 62.9963 69.6138 63.1067 69.4113C63.2723 69.2269 63.4378 69.0426 63.6034 68.8597C63.7865 68.7298 63.9295 68.5426 64.129 68.4421Z" fill="#7B61FE"/>
<path d="M89.8229 75.2921C88.8709 74.9877 88.2049 74.2447 87.5652 73.4612C86.6345 72.2741 86.1842 70.8859 86.188 69.3162C86.1893 68.9028 86.2093 68.9028 86.5492 68.8972C88.4106 69.7575 90.2645 70.6443 92.1384 71.4683C93.1932 71.932 94.1189 72.5814 94.9141 73.4738C95.0897 73.6274 95.2189 73.8215 95.3268 74.0352L95.3205 74.0254C96.0392 75.0659 96.3227 76.2739 96.3967 77.5574C96.4142 77.8702 96.4795 78.2794 95.9702 78.0825C94.7335 77.5532 93.488 77.0448 92.2625 76.4834C91.6003 76.1804 90.8991 75.9723 90.2795 75.5547C90.1378 75.4486 89.9647 75.4039 89.8229 75.2921Z" fill="#7B61FE"/>
<path d="M19.7698 79.5964C18.592 79.5964 17.4142 79.5978 16.2377 79.5978C16.0383 79.4163 16.1386 79.1677 16.1386 78.954C16.1298 76.8731 16.1524 74.7908 16.1248 72.7099C16.1123 71.7435 16.0621 70.7603 15.4412 69.9685C15.1189 69.5132 15.6005 69.5425 15.7272 69.4824C17.0969 68.8316 18.3575 67.9727 19.5804 67.0384C19.7159 66.9435 19.8312 66.9812 19.8751 67.1432C19.9165 67.2968 19.8927 67.4658 19.8927 67.6278C19.8927 71.4307 19.8952 75.2335 19.8877 79.0378C19.8852 79.2222 19.9943 79.4596 19.7698 79.5964Z" fill="#7B61FE"/>
<path d="M23.2615 68.8666C24.4807 68.773 25.5543 68.2088 26.6079 67.5818C26.8287 67.4798 26.9202 67.6251 26.9591 67.829C26.9943 68.0105 26.9805 68.199 26.9805 68.3848C26.9805 71.8232 26.9817 75.2615 26.9805 78.7013C26.9805 79.5337 26.9754 79.5337 26.2103 79.5351C25.3135 79.5351 24.4154 79.5155 23.5186 79.5448C23.1273 79.5574 23.0232 79.4149 23.0244 78.989C23.0382 75.8062 23.0307 72.6234 23.0332 69.4392C23.0332 69.2172 22.9755 68.9546 23.2615 68.8666Z" fill="#7B61FE"/>
<path d="M75.8038 69.0035C76.9666 68.6627 77.9763 67.9994 78.9082 67.1754C79.1779 66.9813 79.351 66.9352 79.3497 67.4184C79.3422 71.3023 79.3422 75.1875 79.351 79.0714C79.3522 79.4457 79.2281 79.5462 78.9107 79.5407C77.9499 79.5239 76.9892 79.5169 76.0284 79.5435C75.6546 79.5532 75.5793 79.3856 75.5806 79.0114C75.5906 75.8719 75.5856 72.731 75.5881 69.5915C75.5881 69.3666 75.5317 69.1082 75.8038 69.0035Z" fill="#7B61FE"/>
<path d="M30.258 67.4617C31.2326 67.734 32.0153 68.3499 32.6976 69.1459C32.8782 69.2954 33.0099 69.4895 33.1115 69.7116L33.104 69.7004C33.7362 70.7003 34.0422 71.826 34.0573 73.0326C34.0824 75.0088 34.051 76.9863 34.0736 78.9639C34.0786 79.4331 33.9431 79.5574 33.538 79.5448C32.5785 79.5141 31.6164 79.5127 30.6556 79.5448C30.2254 79.5602 30.1125 79.3661 30.1138 78.9345C30.1175 75.3062 30.115 71.6779 30.1175 68.0496C30.1175 67.8415 30.105 67.6265 30.258 67.4617Z" fill="#7B61FE"/>
<path d="M109.848 73.8719C108.575 73.8705 107.302 73.8705 106.029 73.8691C105.819 73.5982 105.957 73.2979 105.976 73.0116C106.086 71.238 105.868 69.5453 104.998 68.0105C104.868 67.808 104.74 67.6055 104.579 67.3513C106.263 67.4198 107.505 68.315 108.587 69.5635C109.494 70.7115 109.965 72.0424 109.949 73.5773C109.948 73.689 109.967 73.8105 109.848 73.8719Z" fill="#7B61FE"/>
<path d="M73.9552 73.8705C72.6557 73.8705 71.3575 73.8705 70.0581 73.8705C69.8198 73.594 70.0593 73.3203 70.0681 73.0451C70.1308 71.1416 69.9126 69.3177 68.8903 67.713L68.8979 67.7228C68.8051 67.6111 68.6734 67.5133 68.7775 67.3262C69.8135 67.4016 70.7116 67.9044 71.5984 68.4462C72.1101 68.8233 72.5366 69.2981 72.8752 69.8679C72.9492 69.9978 73.0232 70.1291 73.0972 70.259C73.7771 71.3469 74.1383 72.5284 73.9552 73.8705Z" fill="#7B61FE"/>
<path d="M42.7999 67.322C44.0052 67.5008 45.0977 67.9728 46.0322 68.8583C46.2968 69.0398 46.5251 69.2619 46.6631 69.5817C46.7785 69.7618 46.8926 69.942 47.008 70.1222C47.6414 71.0662 47.9512 72.143 48.0453 73.3036C48.0616 73.5047 48.0817 73.7239 47.901 73.8706C46.6242 73.8706 45.3473 73.8692 44.0704 73.8692C43.9174 73.7491 43.9739 73.5731 43.9902 73.4237C44.172 71.7562 44.0253 70.1459 43.3668 68.6111C43.2401 68.3136 43.077 68.0552 42.9052 67.7955C42.8111 67.653 42.6368 67.5329 42.7999 67.322Z" fill="#7B61FE"/>
<path d="M13.2614 67.0231C12.4448 67.8708 11.5781 67.9686 10.6575 67.315C9.92622 66.6014 9.65655 65.7201 10.0203 64.702C10.3013 63.9157 10.2385 63.2216 9.80957 62.5457L9.82588 62.5569C9.94754 62.1491 10.216 62.4354 10.4179 62.4019C11.4326 62.6239 12.3683 63.0317 13.1359 63.8361C13.3103 63.9912 13.4458 64.1811 13.5461 64.4017L13.5386 64.3906C14.0039 65.4115 13.9186 66.2201 13.2614 67.0231Z" fill="#7B61FE"/>
<path d="M19.0812 65.223C18.4101 65.5861 17.7391 65.6336 17.068 65.2216C15.8112 64.082 15.7736 62.3726 16.9865 61.4662C17.1822 61.3657 17.3791 61.2665 17.5748 61.1659C17.951 61.0891 18.3273 61.0193 18.6961 61.2064C19.046 61.3782 19.3935 61.5528 19.6531 61.8838C20.5562 62.8558 20.1862 64.7859 19.0812 65.223Z" fill="#7B61FE"/>
<path d="M81.8984 67.8751C82.7137 67.2452 83.5666 66.9226 84.5286 67.4659C85.448 67.998 85.7165 69.2773 85.1608 70.2409L85.1671 70.2297C85.0605 70.4881 84.8823 70.6683 84.6616 70.8009C84.4546 70.8987 84.3154 71.1682 84.0445 71.1082C83.7547 71.178 83.4663 71.1864 83.1765 71.104C82.5669 71.0579 82.2157 70.456 81.6827 70.2423C81.4167 70.132 81.1496 70.1487 80.8824 70.2367L80.8323 70.2283L80.7871 70.2535C80.2904 70.3694 80.4635 69.9993 80.5438 69.7856C80.693 69.3904 80.9351 69.0496 81.1797 68.7186L81.1734 68.727C81.3503 68.3737 81.63 68.1307 81.8984 67.8751Z" fill="#7B61FE"/>
<path d="M58.0032 62.304C60.1317 62.3221 62.2615 62.3389 64.3901 62.3598C64.4264 62.3598 64.4616 62.4045 64.5381 62.4562C63.9473 63.026 63.2838 63.4924 62.8435 64.2145C62.7294 64.5036 62.4961 64.6879 62.3318 64.9337L62.3393 64.9239C61.9994 65.5272 61.5917 66.0817 61.3183 66.7325C61.2656 66.8582 61.2079 66.9909 61.0474 66.949C60.9207 66.9154 60.922 66.7856 60.9006 66.6752C60.7451 65.8722 60.3776 65.1809 59.9862 64.5008L59.9938 64.5105C59.8408 64.3499 59.7254 64.153 59.5924 63.9729C59.112 63.4045 58.5526 62.952 57.9443 62.5679C57.8916 62.4604 57.879 62.364 58.0032 62.304Z" fill="#7C62FE"/>
<path d="M88.4271 77.4304C89.2373 78.1846 90.0526 78.9276 91.0673 79.3298C91.1439 79.4289 91.1551 79.5197 91.0372 79.5923C89.5145 79.5923 87.9918 79.5937 86.4691 79.5937C86.1367 79.5504 86.1154 79.3005 86.1179 78.996C86.128 77.8159 86.1192 76.6372 86.1242 75.4571C86.1254 75.2392 86.0502 74.9334 86.3261 74.8789C86.5494 74.8342 86.5657 75.1428 86.6723 75.2951L86.6648 75.2853C86.8002 75.4682 86.9583 75.633 87.0448 75.8565L87.0386 75.8467C87.2781 76.1875 87.5992 76.4486 87.8112 76.8187L87.8087 76.8173C88.037 76.9919 88.249 77.1902 88.4271 77.4304Z" fill="#7C63FE"/>
<path d="M9.77706 78.9078C9.95015 78.7235 10.1245 78.5377 10.2976 78.3534C10.5045 78.2081 10.6739 78.0224 10.8031 77.7891C10.9272 77.6467 11.0527 77.5042 11.1768 77.3618C11.3085 77.1816 11.4264 76.9889 11.5757 76.8227L11.5694 76.8339C11.651 76.6062 11.8241 76.4526 11.9382 76.2515C12.0185 76.116 12.1 75.9806 12.1803 75.8451C12.4462 75.3968 12.6143 74.8899 12.8576 74.429C12.9416 74.2712 12.9429 73.9555 13.2013 74.0435C13.4245 74.1189 13.3656 74.3885 13.3681 74.591C13.3731 74.9862 13.3693 75.3828 13.3693 75.7781C13.3693 76.8492 13.3631 77.919 13.3731 78.9902C13.3756 79.2947 13.3555 79.5474 13.0219 79.5921C11.9482 79.581 10.8733 79.5796 9.79963 79.553C9.62403 79.5488 9.34182 79.7276 9.29541 79.3254C9.4685 79.2039 9.61902 79.0517 9.77706 78.9078Z" fill="#7C63FE"/>
<path d="M95.0886 70.8189C94.7876 70.4893 94.4853 70.1597 94.1843 69.8301C94.0288 69.6905 93.8895 69.5271 93.7114 69.4209C92.8372 68.6556 91.8162 68.1598 90.8755 67.4587C92.57 67.4587 94.2658 67.4587 95.9604 67.4587C96.0657 67.5872 96.0883 67.7436 96.0896 67.9098C96.0958 69.0899 96.1009 70.27 96.0846 71.4502C96.0808 71.6694 96.1473 72.0954 95.717 71.7867C95.633 71.6471 95.549 71.506 95.4649 71.3664C95.352 71.1722 95.2128 71.0018 95.0886 70.8189Z" fill="#7B61FE"/>
<path d="M33.5268 0.847656C33.0464 2.25401 33.1267 3.7246 33.1267 5.18682C33.1279 19.8481 33.1267 34.5093 33.1292 49.172C33.1292 49.7055 33.1329 50.2445 33.1869 50.7738C33.3035 51.8981 33.7601 52.845 34.4888 53.6298C33.3361 52.9595 33.0602 51.7319 33.0188 50.468C32.9511 48.3759 33 46.2797 33 44.1862C33 30.3866 33 16.5871 32.9987 2.7875C33 2.07804 33.0966 1.40768 33.5268 0.847656Z" fill="#FDFDFD"/>
<path d="M56.2092 69.4042C56.3497 69.4796 56.4212 69.6165 56.4889 69.7645C57.1762 71.2519 57.8611 72.7406 58.5597 74.221C58.7215 74.5632 58.7228 74.8592 58.5635 75.2056C57.9627 76.5086 57.3832 77.8242 56.7912 79.1328C56.6921 79.3534 56.608 79.6858 56.3158 79.5629C56.0511 79.4526 55.725 79.204 55.7639 78.8842C55.8128 78.4792 55.6372 78.2152 55.5043 77.9177C53.2779 72.9445 51.0428 67.9741 48.8114 63.0037C48.4915 62.29 48.494 62.2873 49.2429 62.2873C50.2463 62.2859 51.2497 62.3096 52.2506 62.2761C52.7185 62.2607 52.9995 62.392 53.2365 62.8906C53.7533 63.9771 54.2889 65.0511 54.7015 66.1949C54.6714 66.2046 54.6426 66.2144 54.6125 66.2228C54.3102 66.1223 54.2349 65.8094 54.1108 65.5483C53.7282 64.748 53.3958 63.9198 52.9819 63.1364C52.7774 62.7495 52.5153 62.5861 52.1152 62.5959C51.3225 62.6141 50.5285 62.5987 49.7345 62.6015C49.0183 62.6043 49.007 62.6252 49.3432 63.3752C50.0707 64.998 50.7932 66.6236 51.5244 68.2436C53.0258 71.5661 54.5084 74.8997 56.0085 78.2236C56.0838 78.3898 56.154 78.5588 56.2405 78.718C56.366 78.9484 56.5002 78.9428 56.6055 78.7096C57.17 77.4638 57.7557 76.2307 58.2813 74.964C58.4105 74.6511 58.2574 74.376 58.137 74.1051C57.5613 72.8146 56.8915 71.5773 56.3572 70.2631C56.2556 70.0131 56.0875 69.7841 56.149 69.4796C56.1703 69.4587 56.1904 69.4321 56.2092 69.4042Z" fill="#FDFDFD"/>
<path d="M30.2582 67.4617C30.2406 67.6684 30.2067 67.8751 30.2067 68.0817C30.203 71.6598 30.2143 75.2364 30.1942 78.813C30.1917 79.3605 30.3259 79.5462 30.8264 79.5225C31.7219 79.4806 32.62 79.5057 33.5168 79.5127C33.804 79.5155 33.9997 79.4638 33.9897 79.063C33.9332 76.7894 34.0825 74.513 33.9044 72.2407C33.8316 71.3106 33.4165 70.5272 33.1041 69.6976C33.8454 70.4867 34.075 71.5397 34.1088 72.5927C34.1766 74.7308 34.1189 76.8746 34.1364 79.0155C34.1402 79.4764 33.9997 79.6217 33.5933 79.6105C32.5698 79.5853 31.5451 79.5853 30.5203 79.6105C30.1102 79.6203 29.9797 79.468 29.981 79.0114C29.9935 75.3342 29.9872 71.6556 29.9897 67.9784C29.9923 67.7591 29.9396 67.4896 30.2582 67.4617Z" fill="#FDFDFD"/>
<path d="M23.2614 68.8667C23.0432 69.0552 23.0934 69.3233 23.0934 69.5747C23.0921 72.6695 23.1034 75.763 23.0821 78.8578C23.0783 79.3829 23.2138 79.5449 23.6841 79.5239C24.5609 79.4848 25.4389 79.4932 26.3169 79.5211C26.7371 79.5337 26.9052 79.4108 26.9027 78.9025C26.8851 75.3202 26.8939 71.7366 26.8926 68.1544C26.8926 67.9114 26.9616 67.6139 26.6091 67.5832C26.8876 67.3835 27.0808 67.3961 27.1046 67.829C27.1109 67.9449 27.1071 68.0608 27.1071 68.1782C27.1071 71.7366 27.0933 75.2937 27.1209 78.8522C27.1259 79.482 26.9553 79.6482 26.4122 79.6231C25.4326 79.5756 24.4493 79.5952 23.4684 79.6175C23.0871 79.6259 22.9604 79.4792 22.9629 79.0547C22.9742 75.823 22.9692 72.5899 22.9692 69.3583C22.9667 69.1194 22.9416 68.8639 23.2614 68.8667Z" fill="#FDFDFD"/>
<path d="M75.8041 69.0034C75.6248 69.1808 75.6474 69.4182 75.6474 69.65C75.6474 72.7225 75.6574 75.7949 75.6386 78.866C75.6361 79.3548 75.7627 79.5112 76.203 79.4945C77.0798 79.4596 77.959 79.4735 78.8358 79.4889C79.1581 79.4945 79.2735 79.3688 79.2735 79.0043C79.2647 75.1637 79.2635 71.3231 79.2773 67.4839C79.2785 67.1222 79.1355 67.125 78.9098 67.1739C78.9825 67.023 79.0778 66.875 79.2459 66.9323C79.5005 67.0175 79.4065 67.2786 79.4065 67.4686C79.4127 70.3748 79.4102 73.2811 79.4102 76.1874C79.4102 77.1412 79.3964 78.0937 79.4165 79.0476C79.4253 79.4707 79.2973 79.623 78.9123 79.6132C77.9527 79.5908 76.9907 79.5922 76.0312 79.6118C75.6624 79.6202 75.5131 79.4987 75.5157 79.0601C75.5282 75.8745 75.5219 72.689 75.5232 69.5034C75.5232 69.2771 75.483 69.0132 75.8041 69.0034Z" fill="#FDFDFD"/>
<path d="M6.26958 79.2346C5.5007 78.278 5.22351 77.0741 4.99773 75.8772C4.26899 72.0213 4.29031 68.1835 5.39158 64.4016C5.55715 63.8332 5.74153 63.262 6.1429 62.8276C5.9234 63.7452 5.4405 64.544 5.24734 65.4853C4.856 67.3916 4.62145 69.3217 4.67789 71.2616C4.7406 73.4304 4.93627 75.5979 5.63115 77.6677C5.81428 78.2095 6.17927 78.6508 6.26958 79.2346Z" fill="#FDFDFD"/>
<path d="M1.53724 65.5093C1.04932 66.6601 0.521268 67.7871 0.356956 69.0761C-0.0256027 72.0648 0.448519 74.7965 2.23337 77.1567C2.31239 77.2615 2.41274 77.355 2.40019 77.5142C1.22116 76.4501 0.706903 74.9431 0.324344 73.4041C-0.346701 70.7073 0.0446375 68.1348 1.30269 65.723C1.3491 65.6294 1.45697 65.5791 1.53724 65.5093Z" fill="#FDFDFD"/>
<path d="M19.77 79.5965C19.785 78.7641 19.8114 77.9331 19.8126 77.1008C19.8176 73.9752 19.8176 70.8497 19.8088 67.7242C19.8076 67.4812 19.9518 67.1432 19.5806 67.0384C19.7386 66.8597 19.8766 66.8597 19.9418 67.1194C19.9744 67.2493 19.9569 67.396 19.9569 67.5342C19.9569 71.3315 19.9594 75.1288 19.9531 78.9261C19.9518 79.1579 20.0597 79.4512 19.77 79.5965Z" fill="#FDFDFD"/>
<path d="M102.603 75.7125C101.745 74.6734 101.54 73.3704 101.543 72.0506C101.546 70.4585 101.879 68.9349 102.763 67.6235C102.792 67.4936 102.839 67.3917 102.985 67.4489C102.674 68.2506 102.158 68.9419 101.985 69.8175C101.603 71.742 101.529 73.6246 102.528 75.3815C102.58 75.4723 102.579 75.6007 102.603 75.7125Z" fill="#FDFDFD"/>
<path d="M66.8522 76.0212C65.6945 74.6023 65.4876 72.8873 65.6644 71.0801C65.7685 70.0173 65.9792 68.9755 66.6001 68.104C66.6126 68.5453 66.3317 68.8665 66.2163 69.2604C65.5628 71.5019 65.559 73.6596 66.7795 75.6944C66.8334 75.7824 66.8296 75.9109 66.8522 76.0212Z" fill="#FDFDFD"/>
<path d="M36.6573 70.1179C36.3638 70.9 35.9925 71.6444 35.8709 72.5061C35.6301 74.2141 35.9687 75.7517 36.8668 77.1497C36.9358 77.2572 36.9721 77.3913 37.0223 77.5128C36.1431 76.6776 35.8107 75.5185 35.6614 74.3286C35.4871 72.9488 35.7091 71.6011 36.3851 70.3861C36.4554 70.2632 36.5281 70.1584 36.6573 70.1179Z" fill="#FDFDFD"/>
<path d="M15.4414 69.9685C16.1338 70.5956 16.1714 71.495 16.1839 72.365C16.214 74.499 16.1927 76.633 16.1965 78.7669C16.1965 79.0435 16.2241 79.3214 16.2379 79.5979C15.9695 79.4345 16.0748 79.1482 16.0736 78.9136C16.0648 77.1567 16.0673 75.3984 16.0698 73.6415C16.0711 72.3706 16.0046 71.1179 15.4414 69.9685Z" fill="#FDFDFD"/>
<path d="M42.8 67.322C42.9041 67.8066 43.2603 68.1292 43.4422 68.572C44.0869 70.1347 44.2901 71.7575 44.0655 73.4544C44.048 73.5899 44.0668 73.7309 44.068 73.8692C43.6817 73.5647 43.9225 73.129 43.9338 72.7826C43.994 70.9657 43.7946 69.2451 42.7573 67.7508C42.6908 67.653 42.3873 67.4114 42.8 67.322Z" fill="#FDFDFD"/>
<path d="M13.0216 79.5921C13.201 79.4818 13.2762 79.3212 13.275 79.0838C13.2649 77.4903 13.2649 75.8968 13.2587 74.3033C13.2587 74.2418 13.2185 74.179 13.1746 74.0561C12.7319 74.6119 12.6817 75.3912 12.1787 75.8451C12.4434 75.1706 12.7055 74.4946 12.9739 73.8229C13.0279 73.686 13.137 73.5994 13.275 73.6357C13.4267 73.6762 13.4317 73.8299 13.4317 73.9709C13.4317 75.7278 13.4305 77.4861 13.433 79.243C13.4343 79.574 13.2561 79.6173 13.0216 79.5921Z" fill="#FDFDFD"/>
<path d="M95.7158 71.7867C96.0432 71.9222 95.9817 71.6499 95.9817 71.4627C95.9767 70.1276 95.9679 68.7925 95.9592 67.4587C96.2727 67.4992 96.215 67.7688 96.2163 67.9908C96.22 69.224 96.2201 70.4558 96.215 71.689C96.215 71.8635 96.2777 72.1093 96.0633 72.1638C95.8249 72.2225 95.7371 72.0213 95.7158 71.7867Z" fill="#FDFDFD"/>
<path d="M62.7469 69.9783C62.0985 71.2771 61.6971 72.6374 61.8263 74.1568C61.884 74.8356 62.1235 75.4542 62.2452 76.1092C61.4939 74.8509 61.4663 73.4823 61.7886 72.0801C61.9668 71.3078 62.1273 70.509 62.7469 69.9783Z" fill="#FDFDFD"/>
<path d="M104.998 68.0105C105.656 68.8135 105.818 69.8302 106.004 70.8441C106.189 71.8539 106.042 72.8608 106.029 73.8705C105.775 73.8705 105.819 73.7239 105.834 73.506C105.924 72.2407 105.95 70.9712 105.606 69.7423C105.442 69.1501 105.202 68.5859 104.998 68.0105Z" fill="#FDFDFD"/>
<path d="M98.3713 70.5369C97.8846 71.8762 97.5635 73.2323 97.8282 74.7056C97.9736 75.5157 98.3487 76.2028 98.6184 76.9444C98.0589 76.3662 97.8394 75.5995 97.6952 74.8048C97.4343 73.3761 97.5911 72.0005 98.1743 70.6905C98.2044 70.6221 98.3035 70.5885 98.3713 70.5369Z" fill="#FDFDFD"/>
<path d="M68.8892 67.7129C69.7621 68.7464 69.9854 70.055 70.1146 71.3901C70.1949 72.2155 70.1397 73.045 70.0569 73.869C69.8173 73.7629 69.8688 73.5366 69.8976 73.3383C70.171 71.4431 69.8387 69.6835 68.9707 68.0355C68.9218 67.9433 68.9155 67.8218 68.8892 67.7129Z" fill="#FDFDFD"/>
<path d="M86.5496 68.8986C86.1307 68.8623 86.2799 69.224 86.2774 69.4279C86.2611 70.7463 86.6512 71.9222 87.3285 72.9906C87.4213 73.1386 87.5718 73.2518 87.5656 73.4626C86.6712 72.742 86.4354 71.6317 86.1934 70.5382C86.0955 70.0941 86.0002 69.6374 86.0592 69.1696C86.1118 68.7562 86.1708 68.7241 86.5496 68.8986Z" fill="#FDFDFD"/>
<path d="M59.9858 64.4995C60.6055 65.1252 60.7786 66.012 61.0796 66.9156C61.5449 66.2243 61.792 65.4506 62.3389 64.9241C62.1244 65.681 61.5926 66.2355 61.2928 66.9407C61.2138 67.1279 60.9278 67.2186 60.8764 66.903C60.7334 66.0246 60.2543 65.3137 59.9858 64.4995Z" fill="#FDFDFD"/>
<path d="M9.81051 62.5471C10.3373 63.0527 10.4352 63.7188 10.1893 64.3738C9.76912 65.4953 9.95852 66.4422 10.6584 67.3164C10.0263 66.9617 9.5722 65.9226 9.84313 65.0763C10.1228 64.1965 10.1379 63.3865 9.81051 62.5471Z" fill="#FDFDFD"/>
<path d="M86.6722 75.295C86.5593 75.1749 86.4452 75.0534 86.232 74.8258C86.232 76.4011 86.2307 77.8466 86.2345 79.2906C86.2345 79.4484 86.3762 79.5057 86.469 79.5923C86.237 79.616 86.0576 79.5755 86.0576 79.2445C86.0601 77.8158 86.0576 76.3871 86.0589 74.9584C86.0589 74.8202 86.0551 74.661 86.2044 74.6163C86.3724 74.566 86.4828 74.6833 86.5443 74.8411C86.6007 74.9864 86.6308 75.1428 86.6722 75.295Z" fill="#FDFDFD"/>
<path d="M95.9703 78.0839C96.4356 78.1328 96.324 77.7613 96.3114 77.482C96.2587 76.2334 95.8649 75.1022 95.3218 74.0269C96.25 75.1218 96.4945 76.4723 96.4544 77.9107C96.4444 78.285 96.2035 78.2697 95.9703 78.0839Z" fill="#FDFDFD"/>
<path d="M109.848 73.872C109.981 72.5201 109.581 71.3288 108.956 70.206C108.835 69.9909 108.711 69.7786 108.588 69.5649C109.584 70.2898 110.334 72.8511 109.848 73.872Z" fill="#FDFDFD"/>
<path d="M76.5011 28.4804C77.2888 26.9414 77.0881 25.5141 76.1123 24.1733C77.275 24.8968 77.5673 27.5908 76.5011 28.4804Z" fill="#FDFDFD"/>
<path d="M47.8999 73.8705C48.0818 72.4795 47.565 71.2952 47.0068 70.1221C47.6641 70.7394 47.8146 71.6374 48.0441 72.4865C48.1144 72.7476 48.1508 73.0269 48.1658 73.3007C48.1796 73.5325 48.2687 73.8439 47.8999 73.8705Z" fill="#FDFDFD"/>
<path d="M16.9864 61.4661C15.8676 62.8124 15.8864 63.7159 17.068 65.2215C16.4095 64.8835 15.9416 64.0176 15.983 63.2104C16.0244 62.4074 16.4509 61.6658 16.9864 61.4661Z" fill="#FDFDFD"/>
<path d="M73.9551 73.8705C73.994 72.5717 73.6541 71.3846 73.0972 70.2617C73.7394 70.8176 73.8522 71.6569 74.009 72.4557C74.0981 72.9166 74.3715 73.4194 73.9551 73.8705Z" fill="#FDFDFD"/>
<path d="M19.0811 65.223C20.2162 64.2105 20.3604 63.3683 19.6518 61.8838C20.393 62.3754 20.2676 63.2008 20.1673 63.9102C20.0795 64.5275 19.7847 65.1378 19.0811 65.223Z" fill="#FDFDFD"/>
<path d="M85.1595 70.2408C85.5358 69.1501 85.3803 68.2088 84.5273 67.4658C85.5835 67.9043 85.9221 69.3889 85.1595 70.2408Z" fill="#FDFDFD"/>
<path d="M54.7028 66.1978C55.3801 67.1656 55.7639 68.3024 56.2092 69.4057L56.1804 69.4336C55.9834 69.449 55.8768 69.3023 55.799 69.1403C55.3989 68.3136 55.0302 67.47 54.6702 66.6195C54.6175 66.4952 54.5974 66.3556 54.6714 66.2257L54.7028 66.1978Z" fill="#FDFDFD"/>
<path d="M13.2612 67.023C13.8382 66.2088 13.8382 65.3206 13.5372 64.3918C14.1869 65.0999 14.0439 66.4574 13.2612 67.023Z" fill="#FDFDFD"/>
<path d="M3.00358 63.6853C2.51189 64.297 2.02147 64.9073 1.52979 65.519C1.78817 64.6741 2.33253 64.1168 3.00358 63.6853Z" fill="#FDFDFD"/>
<path d="M81.1812 68.7185C80.9994 69.0732 80.81 69.4238 80.6394 69.7855C80.5466 69.9824 80.4061 70.2296 80.7886 70.2533C80.6845 70.4084 80.534 70.4265 80.4048 70.3427C80.2593 70.2492 80.3634 70.0997 80.3986 69.9782C80.5466 69.4727 80.7573 69.0132 81.1812 68.7185Z" fill="#FDFDFD"/>
<path d="M72.875 69.8692C72.4498 69.3958 72.0233 68.9209 71.5981 68.4475C72.2153 68.7087 72.6405 69.1821 72.875 69.8692Z" fill="#FDFDFD"/>
<path d="M75.6382 29.4649C75.9279 29.1325 76.2189 28.8002 76.5087 28.4678C76.3983 28.9957 76.0847 29.3029 75.6382 29.4649Z" fill="#FDFDFD"/>
<path d="M99.7092 68.7129C99.4835 69.1053 99.1699 69.4028 98.8613 69.7073C98.9767 69.1989 99.2941 68.9028 99.7092 68.7129Z" fill="#FDFDFD"/>
<path d="M87.8112 76.8172C87.5089 76.5379 87.1853 76.2795 87.0386 75.8452C87.3772 76.091 87.7134 76.3368 87.8112 76.8172Z" fill="#FDFDFD"/>
<path d="M62.2373 76.0967C62.5158 76.4263 62.6851 76.8299 62.8657 77.2265C62.453 76.9905 62.3289 76.5548 62.2373 76.0967Z" fill="#FDFDFD"/>
<path d="M81.8985 67.875C81.6577 68.1585 81.4156 68.4434 81.1748 68.7269C81.2538 68.2716 81.5235 68.0188 81.8985 67.875Z" fill="#FDFDFD"/>
<path d="M6.13705 62.8361C6.24366 62.5777 6.28004 62.3627 5.91504 62.4032C6.09064 62.237 6.3578 62.2007 6.44811 62.378C6.57103 62.6182 6.31767 62.7411 6.13705 62.8361Z" fill="#FDFDFD"/>
<path d="M103.238 76.5394C102.968 76.3132 102.703 76.0827 102.597 75.7029C102.891 75.9054 103.176 76.1163 103.238 76.5394Z" fill="#FDFDFD"/>
<path d="M62.8608 77.2195C63.1104 77.4653 63.3776 77.6943 63.5043 78.0574C63.197 77.8661 62.9148 77.651 62.8608 77.2195Z" fill="#FDFDFD"/>
<path d="M18.696 61.2063C18.3248 61.1044 17.9497 61.156 17.5747 61.1658C17.9548 60.9717 18.3298 60.9046 18.696 61.2063Z" fill="#FDFDFD"/>
<path d="M46.6631 69.5801C46.4524 69.3385 46.2429 69.0983 46.0322 68.8567C46.4022 68.9265 46.6217 69.157 46.6631 69.5801Z" fill="#FDFDFD"/>
<path d="M98.8693 69.6975C98.7513 70.0187 98.5971 70.312 98.3638 70.5466C98.3901 70.1598 98.5406 69.8637 98.8693 69.6975Z" fill="#FDFDFD"/>
<path d="M34.0072 0C33.9069 0.330988 33.7426 0.61589 33.5181 0.860291C33.5331 0.46925 33.705 0.188538 34.0072 0Z" fill="#FDFDFD"/>
<path d="M71.6649 78.0812C71.2686 78.2586 70.871 78.2237 70.4746 78.0798C70.8722 78.0812 71.2686 78.0812 71.6649 78.0812Z" fill="#FDFDFD"/>
<path d="M62.333 64.9339C62.4108 64.6127 62.6278 64.4144 62.8448 64.2161C62.8347 64.5973 62.5964 64.7761 62.333 64.9339Z" fill="#FDFDFD"/>
<path d="M88.427 77.4304C88.1736 77.2852 87.9654 77.0827 87.8086 76.8159C88.1397 76.8648 88.3216 77.1008 88.427 77.4304Z" fill="#FDFDFD"/>
<path d="M2.64502 77.7822C2.93476 77.8604 3.12416 78.0741 3.26966 78.3492C2.95232 78.3087 2.79804 78.0476 2.64502 77.7822Z" fill="#FDFDFD"/>
<path d="M107.541 78.0825C107.184 78.257 106.826 78.2263 106.47 78.0811C106.828 78.0811 107.184 78.0825 107.541 78.0825Z" fill="#FDFDFD"/>
<path d="M45.9303 78.3702C45.7986 78.1426 45.5778 78.2473 45.3997 78.1956C45.3721 78.1342 45.3884 78.0965 45.4486 78.0811C45.6493 78.0685 45.8513 78.0546 46.052 78.042C46.1786 77.9987 46.3078 77.9512 46.2652 78.197L46.2853 78.1859C46.1874 78.2962 46.0896 78.4065 45.9303 78.3702Z" fill="#927DFE"/>
<path d="M10.4179 62.4032C10.2222 62.4647 9.98013 62.2999 9.82585 62.5582C9.7506 62.4842 9.45082 62.4214 9.77192 62.3082C9.96383 62.2398 10.2235 62.2049 10.4179 62.4032Z" fill="#FDFDFD"/>
<path d="M84.6616 70.8007C84.8297 70.6108 84.999 70.4208 85.1671 70.2295C85.1533 70.5912 84.9764 70.7714 84.6616 70.8007Z" fill="#FDFDFD"/>
<path d="M83.1777 71.1038C83.4675 71.1052 83.756 71.1065 84.0457 71.1079C83.7547 71.2881 83.4662 71.2937 83.1777 71.1038Z" fill="#FDFDFD"/>
<path d="M102.987 67.4475C102.913 67.5062 102.839 67.5635 102.765 67.6221C102.633 67.3931 102.416 67.4908 102.234 67.4517C102.484 67.2939 102.734 67.2171 102.987 67.4475Z" fill="#9C88FE"/>
<path d="M37.6223 68.8525C37.5169 69.0941 37.3576 69.2785 37.1406 69.3986C37.1783 69.0816 37.3401 68.9014 37.6223 68.8525Z" fill="#FDFDFD"/>
<path d="M10.8028 77.7893C10.7451 78.1007 10.5758 78.2879 10.2974 78.3535C10.4165 78.1105 10.5858 77.9234 10.8028 77.7893Z" fill="#FDFDFD"/>
<path d="M107.99 78.3424C108.013 78.246 108.187 78.165 108.012 78.0505C108.126 77.9332 108.285 77.8494 108.323 78.0743C108.359 78.2977 108.156 78.3326 107.99 78.3424Z" fill="#FDFDFD"/>
<path d="M45.4502 78.0825C45.4339 78.1216 45.4176 78.1593 45.4013 78.197C45.104 78.1662 44.7942 78.2445 44.5107 78.0811C44.8231 78.0811 45.1366 78.0825 45.4502 78.0825Z" fill="#FDFDFD"/>
<path d="M87.0461 75.8564C86.8554 75.7195 86.7137 75.5407 86.666 75.2852C86.8918 75.3927 87.0624 75.5477 87.0461 75.8564Z" fill="#FDFDFD"/>
<path d="M33.1117 69.7114C32.9147 69.5773 32.8006 69.3664 32.6978 69.1458C32.9561 69.2254 33.1192 69.3902 33.1117 69.7114Z" fill="#FDFDFD"/>
<path d="M11.9369 76.2517C11.913 76.524 11.76 76.6944 11.5681 76.8341C11.5468 76.5268 11.7287 76.3788 11.9369 76.2517Z" fill="#FDFDFD"/>
<path d="M103.732 76.9989C103.527 76.8969 103.353 76.7559 103.236 76.5366C103.505 76.5534 103.658 76.7238 103.732 76.9989Z" fill="#FDFDFD"/>
<path d="M11.5756 76.8242C11.5117 77.0672 11.3963 77.2627 11.1768 77.3633C11.1968 77.0798 11.3486 76.9164 11.5756 76.8242Z" fill="#FDFDFD"/>
<path d="M63.1078 69.4099C63.0852 69.6808 62.9172 69.8373 62.7403 69.9881C62.724 69.6864 62.9021 69.537 63.1078 69.4099Z" fill="#FDFDFD"/>
<path d="M98.6106 76.936C98.785 77.0869 98.948 77.2461 98.9756 77.5114C98.7737 77.3829 98.5968 77.2335 98.6106 76.936Z" fill="#FDFDFD"/>
<path d="M93.71 69.4209C93.9445 69.4474 94.0913 69.5983 94.1828 69.8301C93.9458 69.8077 93.8191 69.6276 93.71 69.4209Z" fill="#FDFDFD"/>
<path d="M37.0088 69.5522C36.9838 69.8176 36.8307 69.9824 36.6501 70.1276C36.6326 69.8302 36.8107 69.6835 37.0088 69.5522Z" fill="#FDFDFD"/>
<path d="M64.1288 68.4419C63.9808 68.622 63.8478 68.8259 63.6045 68.858C63.7186 68.6234 63.8579 68.4307 64.1288 68.4419Z" fill="#FDFDFD"/>
<path d="M80.8838 70.2366C81.151 70.0718 81.4181 70.0746 81.684 70.2422C81.4169 70.2408 81.1497 70.2394 80.8838 70.2366Z" fill="#FDFDFD"/>
<path d="M40.7441 67.8651C40.8294 67.685 40.9135 67.5034 40.9988 67.3232C41.2534 67.7017 40.9097 67.731 40.7441 67.8651Z" fill="#FDFDFD"/>
<path d="M95.3282 74.0368C95.1338 73.9013 95.0121 73.7002 94.9155 73.4753C95.1689 73.5563 95.3282 73.7239 95.3282 74.0368Z" fill="#FDFDFD"/>
<path d="M59.5923 63.9729C59.813 64.0721 59.9322 64.2634 59.9937 64.5106C59.7616 64.4212 59.6136 64.255 59.5923 63.9729Z" fill="#FDFDFD"/>
<path d="M63.4917 78.042C63.7062 78.1132 63.8717 78.2501 63.9583 78.4889C63.7125 78.4568 63.5695 78.2934 63.4917 78.042Z" fill="#FDFDFD"/>
<path d="M13.5446 64.403C13.3527 64.2634 13.2373 64.0567 13.1357 63.8374C13.3891 63.9212 13.5522 64.086 13.5446 64.403Z" fill="#FDFDFD"/>
<path d="M95.0884 70.8188C95.3016 70.9264 95.4371 71.0996 95.4634 71.3663C95.2665 71.2448 95.1022 71.0954 95.0884 70.8188Z" fill="#FDFDFD"/>
<path d="M45.9304 78.3702C46.0496 78.3088 46.1675 78.2473 46.2866 78.1873C46.1888 78.4568 46.0345 78.637 45.7485 78.6104C45.81 78.5308 45.8702 78.4512 45.9304 78.3702Z" fill="#FDFDFD"/>
<path d="M9.77706 78.908C9.68173 79.1398 9.53122 79.2934 9.29541 79.3255C9.40202 79.1105 9.53247 78.9275 9.77706 78.908Z" fill="#FDFDFD"/>
<path d="M66.8257 67.7228C66.8759 67.5888 66.926 67.4561 66.9774 67.322C67.0527 67.3304 67.1769 67.315 67.148 67.4365C67.1091 67.5999 66.9787 67.6907 66.8257 67.7228Z" fill="#FDFDFD"/>
<path d="M58.0031 62.304C57.9843 62.392 57.9642 62.48 57.9454 62.5666C57.8325 62.5428 57.6594 62.54 57.6946 62.371C57.7259 62.2202 57.894 62.3138 58.0031 62.304Z" fill="#FDFDFD"/>
<path d="M72.2131 78.1971C72.1918 78.07 72.0877 78.0882 72.0137 78.0547C72.1378 77.915 72.2996 77.8466 72.4088 78.0183C72.4652 78.1063 72.3097 78.172 72.2131 78.1971Z" fill="#FDFDFD"/>
<path d="M68.7774 67.3276C68.8176 67.4603 68.8577 67.5916 68.8979 67.7243C68.7524 67.6796 68.6169 67.593 68.5931 67.424C68.578 67.3081 68.7009 67.3318 68.7774 67.3276Z" fill="#FDFDFD"/>
<path d="M46.2664 78.1984C46.195 78.1468 46.1235 78.0951 46.0532 78.0434C46.1711 77.9121 46.3379 77.8591 46.437 77.9917C46.5135 78.0951 46.3655 78.1663 46.2664 78.1984Z" fill="#FDFDFD"/>
<path d="M89.8232 75.2922C90.0039 75.3188 90.1669 75.383 90.2798 75.5562C90.0816 75.5702 89.9136 75.5143 89.8232 75.2922Z" fill="#FDFDFD"/>
<path d="M91.0386 79.5909C91.0486 79.5029 91.0586 79.4164 91.0687 79.3284C91.1866 79.3451 91.3634 79.3395 91.3434 79.5071C91.3208 79.6817 91.1452 79.577 91.0386 79.5909Z" fill="#FDFDFD"/>
<path d="M41.6606 79.9092C41.8663 79.9092 42.0708 79.9092 42.2765 79.9092C42.0721 80.081 41.8663 80.081 41.6606 79.9092Z" fill="#FDFDFD"/>
<path d="M67.6245 79.9092C67.8302 79.9092 68.0347 79.9106 68.2404 79.9106C68.0347 80.081 67.8302 80.0824 67.6245 79.9092Z" fill="#FDFDFD"/>
<path d="M103.624 79.9094C103.83 79.9094 104.034 79.908 104.24 79.908C104.034 80.0825 103.828 80.0811 103.624 79.9094Z" fill="#FDFDFD"/>
<path d="M54.6729 66.2242C55.1257 67.3233 55.5923 68.414 56.1818 69.4321C56.819 71.0508 57.6193 72.5758 58.3505 74.1414C58.5336 74.5324 58.5437 74.8341 58.3568 75.2321C57.7848 76.4457 57.258 77.6859 56.7112 78.9135C56.6484 79.0545 56.6221 79.2682 56.4703 79.292C56.2533 79.3255 56.2333 79.0699 56.1655 78.9177C53.7623 73.6051 51.3679 68.2869 48.9584 62.9771C48.7376 62.4911 48.848 62.392 49.2933 62.4018C50.3155 62.4255 51.3403 62.4213 52.3625 62.4018C52.6987 62.3948 52.8806 62.5247 53.0461 62.8556C53.603 63.9701 54.0358 65.1586 54.6729 66.2242Z" fill="#7B61FE"/>
</svg>
