<svg width="32" height="22" viewBox="0 0 32 22" fill="none" xmlns="http://www.w3.org/2000/svg">
<path d="M20.8682 10.8373C20.8682 12.1438 20.3447 13.3967 19.4129 14.3206C18.481 15.2444 17.2172 15.7634 15.8994 15.7634C14.5816 15.7634 13.3178 15.2444 12.386 14.3206C11.4542 13.3967 10.9307 12.1438 10.9307 10.8373C10.9307 9.53078 11.4542 8.27779 12.386 7.35396C13.3178 6.43013 14.5816 5.91113 15.8994 5.91113C17.2172 5.91113 18.481 6.43013 19.4129 7.35396C20.3447 8.27779 20.8682 9.53078 20.8682 10.8373V10.8373Z" fill="#2D2C2C"/>
<path d="M0 10.8375C0 10.8375 5.9625 0 15.9 0C25.8375 0 31.8 10.8375 31.8 10.8375C31.8 10.8375 25.8375 21.675 15.9 21.675C5.9625 21.675 0 10.8375 0 10.8375ZM15.9 17.7341C17.7449 17.7341 19.5143 17.0075 20.8188 15.7141C22.1234 14.4208 22.8562 12.6666 22.8562 10.8375C22.8562 9.00841 22.1234 7.25424 20.8188 5.96087C19.5143 4.66751 17.7449 3.94091 15.9 3.94091C14.0551 3.94091 12.2857 4.66751 10.9812 5.96087C9.67664 7.25424 8.94375 9.00841 8.94375 10.8375C8.94375 12.6666 9.67664 14.4208 10.9812 15.7141C12.2857 17.0075 14.0551 17.7341 15.9 17.7341V17.7341Z" fill="#2D2C2C"/>
</svg>
